<svg width="25" height="25" viewBox="0 0 25 25" fill="none" xmlns="http://www.w3.org/2000/svg">
<g clip-path="url(#clip0_3038_3796)">
<path d="M13.7 12.4992L9.79995 8.59922C9.61662 8.41589 9.52495 8.18255 9.52495 7.89922C9.52495 7.61588 9.61662 7.38255 9.79995 7.19922C9.98328 7.01589 10.2166 6.92422 10.5 6.92422C10.7833 6.92422 11.0166 7.01589 11.2 7.19922L15.8 11.7992C15.9 11.8992 15.9706 12.0076 16.012 12.1242C16.0533 12.2409 16.0743 12.3659 16.075 12.4992C16.075 12.6326 16.054 12.7576 16.012 12.8742C15.97 12.9909 15.8993 13.0992 15.8 13.1992L11.2 17.7992C11.0166 17.9826 10.7833 18.0742 10.5 18.0742C10.2166 18.0742 9.98328 17.9826 9.79995 17.7992C9.61662 17.6159 9.52495 17.3826 9.52495 17.0992C9.52495 16.8159 9.61662 16.5826 9.79995 16.3992L13.7 12.4992Z" fill="#686F6F"/>
<path d="M13.7 12.4992L9.79995 8.59922C9.61662 8.41589 9.52495 8.18255 9.52495 7.89922C9.52495 7.61588 9.61662 7.38255 9.79995 7.19922C9.98328 7.01589 10.2166 6.92422 10.5 6.92422C10.7833 6.92422 11.0166 7.01589 11.2 7.19922L15.8 11.7992C15.9 11.8992 15.9706 12.0076 16.012 12.1242C16.0533 12.2409 16.0743 12.3659 16.075 12.4992C16.075 12.6326 16.054 12.7576 16.012 12.8742C15.97 12.9909 15.8993 13.0992 15.8 13.1992L11.2 17.7992C11.0166 17.9826 10.7833 18.0742 10.5 18.0742C10.2166 18.0742 9.98328 17.9826 9.79995 17.7992C9.61662 17.6159 9.52495 17.3826 9.52495 17.0992C9.52495 16.8159 9.61662 16.5826 9.79995 16.3992L13.7 12.4992Z" fill="black" fill-opacity="0.2"/>
</g>
<rect x="0.5" y="0.5" width="24" height="24" rx="12" stroke="#DBB13B"/>
<defs>
<clipPath id="clip0_3038_3796">
<rect width="25" height="25" rx="12.5" fill="white"/>
</clipPath>
</defs>
</svg>
