<svg width="60" height="60" viewBox="0 0 60 60" fill="none" xmlns="http://www.w3.org/2000/svg">
<rect width="60" height="60" rx="30" fill="#E9E0C6"/>
<path d="M29.9824 35.4511C35.8218 35.4511 40.5556 30.7173 40.5556 24.8779C40.5556 19.0385 35.8218 14.3047 29.9824 14.3047C24.143 14.3047 19.4092 19.0385 19.4092 24.8779C19.4092 30.7173 24.143 35.4511 29.9824 35.4511Z" fill="#A06335"/>
<path fill-rule="evenodd" clip-rule="evenodd" d="M32.5905 27.3051L30.5985 31.2813C31.8633 31.7676 31.895 32.754 32.0207 33.8819C32.1749 35.2711 32.2492 36.8588 32.7144 38.5704C33.2541 40.5506 34.01 41.8401 34.9311 42.777C36.0732 43.9378 37.5095 44.5774 39.4051 45.1674C39.5211 45.2019 39.646 45.1541 39.7105 45.0518C39.7734 44.9482 39.7597 44.8153 39.6742 44.7277C38.8616 43.9073 38.2324 43.0158 38.1406 42.0023C38.8965 42.187 40.2238 42.1224 41.389 41.673C41.4918 41.6295 41.5562 41.5257 41.5484 41.4138C41.5424 41.303 41.4657 41.2086 41.3582 41.1773C40.1947 40.8519 39.2616 40.571 38.5708 39.8683C38.0452 39.3343 37.6902 38.5643 37.3832 37.4348C36.8548 35.4937 36.9139 33.7212 36.6495 32.2663C36.2464 30.0385 35.2935 28.344 32.5905 27.3051Z" fill="url(#paint0_linear_3013_342)"/>
<path fill-rule="evenodd" clip-rule="evenodd" d="M27.3973 27.3051L29.3893 31.2813C28.1245 31.7676 28.0928 32.754 27.9671 33.8819C27.8129 35.2711 27.7386 36.8588 27.2734 38.5704C26.7337 40.5506 25.9778 41.8401 25.0567 42.777C23.9146 43.9378 22.4783 44.5774 20.5827 45.1674C20.4667 45.2019 20.3418 45.1541 20.2772 45.0518C20.2144 44.9482 20.2281 44.8153 20.3136 44.7277C21.1262 43.9073 21.7554 43.0158 21.8472 42.0023C21.0913 42.187 19.764 42.1224 18.5988 41.673C18.496 41.6295 18.4316 41.5257 18.4394 41.4138C18.4454 41.303 18.5221 41.2086 18.6296 41.1773C19.7931 40.8519 20.7261 40.571 21.417 39.8683C21.9425 39.3343 22.2976 38.5643 22.6046 37.4348C23.1329 35.4937 23.0739 33.7212 23.3383 32.2663C23.7414 30.0385 24.6943 28.344 27.3973 27.3051Z" fill="url(#paint1_linear_3013_342)"/>
<path fill-rule="evenodd" clip-rule="evenodd" d="M32.0036 13.1589C32.5707 13.314 32.9067 13.8993 32.7544 14.4673C32.0493 17.1546 29.9824 24.8682 29.9824 24.8682L27.2476 14.6634C28.0964 13.6471 29.3715 13 30.7979 13C31.2147 13 31.6192 13.0552 32.0036 13.1589Z" fill="url(#paint2_linear_3013_342)"/>
<path fill-rule="evenodd" clip-rule="evenodd" d="M25.878 13.7166C26.4467 13.5674 27.0302 13.9063 27.1824 14.4744C27.9154 17.1542 29.9822 24.8678 29.9822 24.8678L22.5114 17.3976C22.7383 16.093 23.5191 14.8951 24.7544 14.1818C25.1154 13.9734 25.4932 13.819 25.878 13.7166Z" fill="url(#paint3_linear_3013_342)"/>
<path fill-rule="evenodd" clip-rule="evenodd" d="M20.8511 17.2633C21.269 16.8497 21.9438 16.8514 22.3596 17.2673C24.3343 19.2216 29.981 24.8684 29.981 24.8684L19.776 22.1344C19.3202 20.8912 19.3974 19.4633 20.1106 18.228C20.319 17.8671 20.569 17.5444 20.8511 17.2633Z" fill="url(#paint4_linear_3013_342)"/>
<path fill-rule="evenodd" clip-rule="evenodd" d="M18.2732 22.8475C18.4283 22.2803 19.0135 21.9444 19.5816 22.0967C22.2689 22.8018 29.9825 24.8687 29.9825 24.8687L19.7776 27.6035C18.7613 26.7547 18.1143 25.4796 18.1143 24.0531C18.1143 23.6363 18.1694 23.2319 18.2732 22.8475Z" fill="url(#paint5_linear_3013_342)"/>
<path fill-rule="evenodd" clip-rule="evenodd" d="M18.8319 28.9697C18.6826 28.4009 19.0215 27.8174 19.5896 27.6652C22.2694 26.9322 29.983 24.8654 29.983 24.8654L22.5128 32.3363C21.2082 32.1093 20.0103 31.3286 19.2971 30.0933C19.0887 29.7323 18.9343 29.3545 18.8319 28.9697Z" fill="url(#paint6_linear_3013_342)"/>
<path fill-rule="evenodd" clip-rule="evenodd" d="M22.3776 33.9961C21.964 33.5782 21.9657 32.9034 22.3816 32.4875C24.3359 30.5128 29.9826 24.8661 29.9826 24.8661L27.2487 35.0712C26.0054 35.5269 24.5776 35.4497 23.3423 34.7365C22.9813 34.5281 22.6587 34.2781 22.3776 33.9961Z" fill="url(#paint7_linear_3013_342)"/>
<path fill-rule="evenodd" clip-rule="evenodd" d="M27.9612 36.5774C27.3941 36.4223 27.0582 35.8371 27.2104 35.269C27.9156 32.5817 29.9824 24.8681 29.9824 24.8681L32.7173 35.073C31.8685 36.0892 30.5933 36.7363 29.1669 36.7363C28.7501 36.7363 28.3457 36.6811 27.9612 36.5774Z" fill="url(#paint8_linear_3013_342)"/>
<path fill-rule="evenodd" clip-rule="evenodd" d="M34.0844 36.0197C33.5157 36.1689 32.9322 35.8301 32.78 35.262C32.047 32.5821 29.9802 24.8686 29.9802 24.8686L37.451 32.3388C37.2241 33.6433 36.4433 34.8413 35.208 35.5545C34.847 35.7629 34.4692 35.9173 34.0844 36.0197Z" fill="url(#paint9_linear_3013_342)"/>
<path fill-rule="evenodd" clip-rule="evenodd" d="M39.1118 32.471C38.6939 32.8846 38.0191 32.8829 37.6033 32.467C35.6286 30.5127 29.9818 24.866 29.9818 24.866L40.1869 27.6C40.6426 28.8432 40.5655 30.271 39.8523 31.5064C39.6439 31.8673 39.3938 32.19 39.1118 32.471Z" fill="url(#paint10_linear_3013_342)"/>
<path fill-rule="evenodd" clip-rule="evenodd" d="M41.6917 26.8888C41.5366 27.456 40.9513 27.7919 40.3832 27.6397C37.696 26.9345 29.9824 24.8677 29.9824 24.8677L40.1872 22.1328C41.2035 22.9816 41.8506 24.2568 41.8506 25.6832C41.8506 26.1 41.7954 26.5044 41.6917 26.8888Z" fill="url(#paint11_linear_3013_342)"/>
<path fill-rule="evenodd" clip-rule="evenodd" d="M41.1335 20.7628C41.2827 21.3315 40.9438 21.915 40.3757 22.0672C37.6959 22.8002 29.9823 24.867 29.9823 24.867L37.4525 17.3961C38.7571 17.6231 39.955 18.4038 40.6683 19.6392C40.8767 20.0001 41.0311 20.378 41.1335 20.7628Z" fill="url(#paint12_linear_3013_342)"/>
<path fill-rule="evenodd" clip-rule="evenodd" d="M37.5868 15.7363C38.0004 16.1542 37.9987 16.829 37.5827 17.2449C35.6285 19.2196 29.9817 24.8663 29.9817 24.8663L32.7157 14.6612C33.9589 14.2055 35.3868 14.2827 36.6221 14.9959C36.983 15.2043 37.3057 15.4543 37.5868 15.7363Z" fill="url(#paint13_linear_3013_342)"/>
<path d="M29.9827 33.8638C34.9459 33.8638 38.9693 29.8404 38.9693 24.8772C38.9693 19.9141 34.9459 15.8906 29.9827 15.8906C25.0195 15.8906 20.9961 19.9141 20.9961 24.8772C20.9961 29.8404 25.0195 33.8638 29.9827 33.8638Z" fill="url(#paint14_linear_3013_342)"/>
<path d="M29.9828 32.8699C34.3975 32.8699 37.9764 29.2911 37.9764 24.8764C37.9764 20.4616 34.3975 16.8828 29.9828 16.8828C25.5681 16.8828 21.9893 20.4616 21.9893 24.8764C21.9893 29.2911 25.5681 32.8699 29.9828 32.8699Z" fill="url(#paint15_linear_3013_342)"/>
<path fill-rule="evenodd" clip-rule="evenodd" d="M29.5259 20.2516C29.606 20.0705 29.7846 19.9531 29.983 19.9531C30.1814 19.9531 30.36 20.0705 30.4402 20.2516C30.9098 21.3147 31.5728 22.8152 31.5728 22.8152C31.5728 22.8152 33.2039 22.9814 34.3605 23.0996C34.5572 23.1194 34.7242 23.2542 34.7854 23.4427C34.8466 23.6303 34.7904 23.837 34.6432 23.9693C33.7768 24.7448 32.5549 25.8385 32.5549 25.8385C32.5549 25.8385 32.9005 27.4415 33.146 28.5774C33.1874 28.7708 33.1113 28.9709 32.9509 29.0875C32.7905 29.204 32.5772 29.2148 32.4053 29.1156C31.4008 28.5311 29.983 27.7069 29.983 27.7069C29.983 27.7069 28.5652 28.5311 27.5608 29.1156C27.3888 29.2148 27.1755 29.204 27.0151 29.0875C26.8547 28.9709 26.7787 28.7708 26.82 28.5774C27.0656 27.4415 27.4111 25.8385 27.4111 25.8385C27.4111 25.8385 26.1892 24.7448 25.3228 23.9693C25.1757 23.837 25.1195 23.6303 25.1807 23.4427C25.2418 23.2542 25.4088 23.1194 25.6056 23.0996C26.7622 22.9814 28.3933 22.8152 28.3933 22.8152C28.3933 22.8152 29.0563 21.3147 29.5259 20.2516Z" fill="url(#paint16_linear_3013_342)"/>
<defs>
<linearGradient id="paint0_linear_3013_342" x1="34.001" y1="30.22" x2="38.0104" y2="42.0464" gradientUnits="userSpaceOnUse">
<stop stop-color="#5C2F00"/>
<stop offset="1" stop-color="#A55400"/>
</linearGradient>
<linearGradient id="paint1_linear_3013_342" x1="25.9868" y1="30.22" x2="21.9774" y2="42.0464" gradientUnits="userSpaceOnUse">
<stop stop-color="#5C2F00"/>
<stop offset="1" stop-color="#A55400"/>
</linearGradient>
<linearGradient id="paint2_linear_3013_342" x1="27.1679" y1="16.1502" x2="33.1158" y2="15.8445" gradientUnits="userSpaceOnUse">
<stop stop-color="#965B31"/>
<stop offset="0.5" stop-color="#F9AA57"/>
<stop offset="1" stop-color="#965B31"/>
</linearGradient>
<linearGradient id="paint3_linear_3013_342" x1="23.1858" y1="18.725" x2="28.184" y2="15.4863" gradientUnits="userSpaceOnUse">
<stop stop-color="#965B31"/>
<stop offset="0.5" stop-color="#F9AA57"/>
<stop offset="1" stop-color="#965B31"/>
</linearGradient>
<linearGradient id="paint4_linear_3013_342" x1="21.0238" y1="22.9468" x2="23.733" y2="17.6429" gradientUnits="userSpaceOnUse">
<stop stop-color="#965B31"/>
<stop offset="0.5" stop-color="#F9AA57"/>
<stop offset="1" stop-color="#965B31"/>
</linearGradient>
<linearGradient id="paint5_linear_3013_342" x1="21.2645" y1="27.6831" x2="20.9588" y2="21.7353" gradientUnits="userSpaceOnUse">
<stop stop-color="#965B31"/>
<stop offset="0.5" stop-color="#F9AA57"/>
<stop offset="1" stop-color="#965B31"/>
</linearGradient>
<linearGradient id="paint6_linear_3013_342" x1="23.8402" y1="31.6618" x2="20.6016" y2="26.6637" gradientUnits="userSpaceOnUse">
<stop stop-color="#965B31"/>
<stop offset="0.5" stop-color="#F9AA57"/>
<stop offset="1" stop-color="#965B31"/>
</linearGradient>
<linearGradient id="paint7_linear_3013_342" x1="28.061" y1="33.8234" x2="22.7572" y2="31.1142" gradientUnits="userSpaceOnUse">
<stop stop-color="#965B31"/>
<stop offset="0.5" stop-color="#F9AA57"/>
<stop offset="1" stop-color="#965B31"/>
</linearGradient>
<linearGradient id="paint8_linear_3013_342" x1="32.7969" y1="33.5861" x2="26.849" y2="33.8918" gradientUnits="userSpaceOnUse">
<stop stop-color="#965B31"/>
<stop offset="0.5" stop-color="#F9AA57"/>
<stop offset="1" stop-color="#965B31"/>
</linearGradient>
<linearGradient id="paint9_linear_3013_342" x1="36.7766" y1="31.0113" x2="31.7784" y2="34.25" gradientUnits="userSpaceOnUse">
<stop stop-color="#965B31"/>
<stop offset="0.5" stop-color="#F9AA57"/>
<stop offset="1" stop-color="#965B31"/>
</linearGradient>
<linearGradient id="paint10_linear_3013_342" x1="38.9391" y1="26.7876" x2="36.2299" y2="32.0914" gradientUnits="userSpaceOnUse">
<stop stop-color="#965B31"/>
<stop offset="0.5" stop-color="#F9AA57"/>
<stop offset="1" stop-color="#965B31"/>
</linearGradient>
<linearGradient id="paint11_linear_3013_342" x1="38.7004" y1="22.0532" x2="39.0061" y2="28.0011" gradientUnits="userSpaceOnUse">
<stop stop-color="#965B31"/>
<stop offset="0.5" stop-color="#F9AA57"/>
<stop offset="1" stop-color="#965B31"/>
</linearGradient>
<linearGradient id="paint12_linear_3013_342" x1="36.1251" y1="18.0706" x2="39.3638" y2="23.0688" gradientUnits="userSpaceOnUse">
<stop stop-color="#965B31"/>
<stop offset="0.5" stop-color="#F9AA57"/>
<stop offset="1" stop-color="#965B31"/>
</linearGradient>
<linearGradient id="paint13_linear_3013_342" x1="31.9033" y1="15.909" x2="37.2072" y2="18.6183" gradientUnits="userSpaceOnUse">
<stop stop-color="#965B31"/>
<stop offset="0.5" stop-color="#F9AA57"/>
<stop offset="1" stop-color="#965B31"/>
</linearGradient>
<linearGradient id="paint14_linear_3013_342" x1="13.7438" y1="12.9872" x2="46.244" y2="45.4874" gradientUnits="userSpaceOnUse">
<stop stop-color="#965B31"/>
<stop offset="0.5" stop-color="#F9AA57"/>
<stop offset="1" stop-color="#965B31"/>
</linearGradient>
<linearGradient id="paint15_linear_3013_342" x1="25.1963" y1="17.4506" x2="35.3852" y2="31.2368" gradientUnits="userSpaceOnUse">
<stop stop-color="#965B31"/>
<stop offset="0.5" stop-color="#F9AA57"/>
<stop offset="1" stop-color="#965B31"/>
</linearGradient>
<linearGradient id="paint16_linear_3013_342" x1="34.5428" y1="32.3233" x2="28.6943" y2="22.0957" gradientUnits="userSpaceOnUse">
<stop stop-color="#3D1F00"/>
<stop offset="1" stop-color="#A55400"/>
</linearGradient>
</defs>
</svg>
