<svg width="24" height="24" viewBox="0 0 24 24" fill="none" xmlns="http://www.w3.org/2000/svg">
<g clip-path="url(#clip0_2978_244)">
<path d="M9.53233 16.8129C9.92285 17.2034 10.556 17.2034 10.9465 16.8129L17.9923 9.76711C18.3828 9.37658 18.3829 8.74342 17.9923 8.35289L17.7265 8.08711C17.336 7.69658 16.7029 7.69658 16.3123 8.08711L10.9465 13.4529C10.556 13.8434 9.92285 13.8434 9.53233 13.4529L7.52654 11.4471C7.13602 11.0566 6.50285 11.0566 6.11233 11.4471L5.84654 11.7129C5.45602 12.1034 5.45602 12.7366 5.84654 13.1271L9.53233 16.8129ZM11.9194 24C10.2594 24 8.69943 23.6848 7.23943 23.0544C5.77943 22.424 4.50943 21.5692 3.42943 20.49C2.34943 19.41 1.49463 18.14 0.865034 16.68C0.235434 15.22 -0.0797664 13.66 -0.0805664 12C-0.0805664 10.34 0.234634 8.78 0.865034 7.32C1.49543 5.86 2.35023 4.59 3.42943 3.51C4.50943 2.43 5.77943 1.5752 7.23943 0.9456C8.69943 0.316 10.2594 0.0008 11.9194 0C13.5794 0 15.1394 0.3152 16.5994 0.9456C18.0594 1.576 19.3294 2.4308 20.4094 3.51C21.4894 4.59 22.3446 5.86 22.975 7.32C23.6054 8.78 23.9202 10.34 23.9194 12C23.9194 13.66 23.6042 15.22 22.9738 16.68C22.3434 18.14 21.4886 19.41 20.4094 20.49C19.3294 21.57 18.0594 22.4252 16.5994 23.0556C15.1394 23.686 13.5794 24.0008 11.9194 24Z" fill="#DBB13B"/>
</g>
<defs>
<clipPath id="clip0_2978_244">
<rect width="24" height="24" fill="white"/>
</clipPath>
</defs>
</svg>
