<svg width="30" height="30" viewBox="0 0 30 30" fill="none" xmlns="http://www.w3.org/2000/svg">
<path d="M4.49564 5.24414C4.49564 5.04523 4.57466 4.85446 4.71531 4.71381C4.85596 4.57316 5.04673 4.49414 5.24564 4.49414H5.90264C6.99314 4.49414 7.62014 5.20364 7.98314 5.91164C8.23064 6.39614 8.40914 6.98714 8.55764 7.50014H24.0001C24.2319 7.50021 24.4605 7.55399 24.668 7.65726C24.8755 7.76052 25.0563 7.91047 25.1961 8.09533C25.3359 8.28019 25.4309 8.49494 25.4738 8.72271C25.5167 8.95049 25.5062 9.1851 25.4431 9.40814L23.1991 17.3206C23.0206 17.9484 22.6423 18.5008 22.1215 18.8942C21.6007 19.2875 20.9658 19.5002 20.3131 19.5001H12.6946C12.0366 19.5004 11.3966 19.2842 10.8735 18.8849C10.3504 18.4857 9.97305 17.9255 9.79964 17.2906L8.83664 13.7581C8.83112 13.7423 8.82612 13.7263 8.82164 13.7101L7.27514 8.46464L7.12514 7.95914C6.97514 7.44014 6.84314 6.98114 6.64514 6.59564C6.40664 6.13064 6.18764 5.99564 5.90114 5.99564H5.24414C5.04523 5.99564 4.85446 5.91662 4.71381 5.77597C4.57316 5.63532 4.49414 5.44455 4.49414 5.24564L4.49564 5.24414ZM12.7501 25.5001C13.3469 25.5001 13.9192 25.2631 14.3411 24.8411C14.7631 24.4192 15.0001 23.8469 15.0001 23.2501C15.0001 22.6534 14.7631 22.0811 14.3411 21.6591C13.9192 21.2372 13.3469 21.0001 12.7501 21.0001C12.1534 21.0001 11.5811 21.2372 11.1591 21.6591C10.7372 22.0811 10.5001 22.6534 10.5001 23.2501C10.5001 23.8469 10.7372 24.4192 11.1591 24.8411C11.5811 25.2631 12.1534 25.5001 12.7501 25.5001ZM20.2501 25.5001C20.8469 25.5001 21.4192 25.2631 21.8411 24.8411C22.2631 24.4192 22.5001 23.8469 22.5001 23.2501C22.5001 22.6534 22.2631 22.0811 21.8411 21.6591C21.4192 21.2372 20.8469 21.0001 20.2501 21.0001C19.6534 21.0001 19.0811 21.2372 18.6591 21.6591C18.2372 22.0811 18.0001 22.6534 18.0001 23.2501C18.0001 23.8469 18.2372 24.4192 18.6591 24.8411C19.0811 25.2631 19.6534 25.5001 20.2501 25.5001Z" fill="#DBB13B"/>
</svg>
