<svg width="366" height="355" viewBox="0 0 366 355" fill="none" xmlns="http://www.w3.org/2000/svg">
<path fill-rule="evenodd" clip-rule="evenodd" d="M164.269 69.1918C246.63 176.512 297.99 83.2223 325.98 136.327C380.704 240.155 258.584 346.402 174.098 272.726C129.293 233.649 67.2741 258.175 59.3907 198.323C50.8176 133.237 127.88 21.7709 164.269 69.1918Z" fill="#D9C57E"/>
<path fill-rule="evenodd" clip-rule="evenodd" d="M173.639 60.0025C173.448 59.6951 171.808 64.9094 171.943 65.2496C172.26 66.0672 172.603 66.8742 172.971 67.6694C174.112 70.1533 175.426 72.5496 176.904 74.8394C180.926 81.0785 186.055 87.1811 191.623 92.0108C208.91 107.012 231.938 113.235 254.146 114.523C267.692 115.309 281.225 114.123 294.501 111.293C303.687 109.334 314.4 105.327 323.906 106.578C332.249 107.677 331.945 113.034 333.563 119.699C334.243 122.484 336.479 125.587 339.608 124.546C347.867 121.796 338.901 108.677 335.974 105.207C326.215 93.6522 307.282 87.4793 277.827 94.9246C265.472 98.0473 252.337 100.457 239.719 97.3063C220.078 92.4029 207.185 79.6558 191.769 67.4396C188.73 65.0326 177.786 57.326 173.639 60.0025Z" fill="#D9C57E"/>
<path fill-rule="evenodd" clip-rule="evenodd" d="M339.846 127.264C339.445 127.258 339.001 127.651 338.779 127.929C338.002 128.9 337.447 130.025 336.998 131.232C335.794 134.461 335.625 141.016 338.985 142.793C341.643 144.199 344.269 141.426 345.235 138.798C346.683 134.849 343.196 127.308 339.846 127.264Z" fill="#D9C57E"/>
<path fill-rule="evenodd" clip-rule="evenodd" d="M66.6875 241.371C63.8055 242.056 60.8745 246.391 61.2545 248.097C62.8454 255.188 68.1887 260.456 73.6006 264.775C95.0268 281.867 123.782 289.732 150.192 293.621C156.735 294.583 163.64 295.269 170.186 293.955C172.281 293.531 175.707 292.857 176.805 290.655C178.467 287.314 168.884 288.001 167.695 287.981C156.201 287.805 144.475 286.402 133.441 283.036C108.685 275.492 88.0097 236.299 66.6875 241.371Z" fill="#D9C57E"/>
<path fill-rule="evenodd" clip-rule="evenodd" d="M151.156 108.412C149.284 103.898 144.992 100.959 140.277 100.959H38.0132C34.0968 100.959 30.4631 102.991 28.3321 106.373C26.2012 109.755 25.8533 114.039 27.4075 117.786L72.2574 225.924C81.6268 248.515 165.748 285.772 195.21 285.772H207.131C211.047 285.772 214.681 283.741 216.811 280.356C218.944 276.978 219.29 272.69 217.736 268.943L151.156 108.412Z" fill="#223F58"/>
<mask id="mask0_2027_288" style="mask-type:luminance" maskUnits="userSpaceOnUse" x="26" y="100" width="193" height="186">
<path d="M149.827 108.414C147.922 103.9 143.641 100.961 138.977 100.961H37.8225C33.9486 100.961 30.3785 102.993 28.3109 106.375C26.2433 109.757 25.9501 114.041 27.5321 117.788L73.1827 225.926C82.7194 248.517 166.372 285.774 195.514 285.774H207.306C211.18 285.774 214.75 283.743 216.817 280.358C218.886 276.98 219.178 272.692 217.596 268.945L149.827 108.414Z" fill="white"/>
</mask>
<g mask="url(#mask0_2027_288)">
<path fill-rule="evenodd" clip-rule="evenodd" d="M150.023 108.411C148.117 103.896 143.841 100.958 139.174 100.958H48.4324C44.5611 100.958 40.9936 102.99 38.9273 106.372C36.8608 109.754 36.5646 114.038 38.1463 117.785L101.428 267.719C103.333 272.233 107.615 275.174 112.277 275.174H203.019C206.89 275.174 210.457 273.139 212.524 269.759C214.596 266.379 214.886 262.093 213.304 258.344L150.023 108.411Z" fill="white"/>
<path d="M55.1135 114.954C57.359 114.954 58.8162 113.046 58.3684 110.693C57.9206 108.34 55.7373 106.432 53.4918 106.432C51.2464 106.432 49.789 108.34 50.2368 110.693C50.6846 113.046 52.868 114.954 55.1135 114.954Z" fill="#223F58"/>
</g>
<path d="M116.1 159.173C126.728 159.173 132.622 150.327 129.263 139.414C125.905 128.502 114.567 119.655 103.939 119.655C93.3109 119.655 87.4174 128.502 90.7756 139.414C94.1337 150.327 105.472 159.173 116.1 159.173Z" fill="#DBB13B"/>
<path d="M110.628 141.399C114.693 141.399 116.948 138.015 115.663 133.841C114.378 129.667 110.042 126.283 105.976 126.283C101.911 126.283 99.6566 129.667 100.941 133.841C102.226 138.015 106.563 141.399 110.628 141.399Z" fill="white"/>
<path fill-rule="evenodd" clip-rule="evenodd" d="M102.316 149.319C102.789 145.442 106.129 142.689 111.025 142.689C115.925 142.689 120.955 145.442 123.815 149.319C122.099 152.343 118.851 154.246 114.581 154.246C110.316 154.246 105.893 152.343 102.316 149.319Z" fill="white"/>
<path fill-rule="evenodd" clip-rule="evenodd" d="M168.53 176.6C168.53 175.062 167.945 173.587 166.905 172.5C165.865 171.412 164.454 170.802 162.985 170.802H81.2989C79.8303 170.802 78.4191 171.412 77.379 172.5C76.3389 173.587 75.7535 175.062 75.7535 176.6V182.586C75.7535 184.124 76.3389 185.599 77.379 186.686C78.4191 187.773 79.8303 188.384 81.2989 188.384H162.985C164.454 188.384 165.865 187.773 166.905 186.686C167.945 185.599 168.53 184.124 168.53 182.586V176.6Z" fill="#455665"/>
<path fill-rule="evenodd" clip-rule="evenodd" d="M168.53 175.763C168.53 174.225 167.934 172.75 166.875 171.663C165.816 170.575 164.379 169.965 162.883 169.965H79.6983C78.2027 169.965 76.7657 170.575 75.7065 171.663C74.6473 172.75 74.0511 174.225 74.0511 175.763V181.749C74.0511 183.287 74.6473 184.762 75.7065 185.849C76.7657 186.936 78.2027 187.547 79.6983 187.547H162.883C164.379 187.547 165.816 186.936 166.875 185.849C167.934 184.762 168.53 183.287 168.53 181.749V175.763Z" fill="#DBB13B"/>
<path fill-rule="evenodd" clip-rule="evenodd" d="M160.87 178.755C160.87 178.2 160.647 177.668 160.249 177.276C159.853 176.883 159.315 176.663 158.752 176.663H126.385C125.824 176.663 125.286 176.883 124.888 177.276C124.492 177.668 124.27 178.2 124.27 178.755V178.757C124.27 179.312 124.492 179.844 124.888 180.237C125.286 180.629 125.824 180.849 126.385 180.849H158.752C159.315 180.849 159.853 180.629 160.249 180.237C160.647 179.844 160.87 179.312 160.87 178.757V178.755Z" fill="white"/>
<path d="M93.4977 174.151V179.669C93.4977 180.543 93.1739 181.24 92.4859 181.752C91.7979 182.263 90.8669 182.521 89.7338 182.521C88.5602 182.521 87.6702 182.267 86.9822 181.764C86.6513 181.525 86.3852 181.207 86.2086 180.84C86.0319 180.473 85.9502 180.068 85.9704 179.661V174.151H87.7103V179.673C87.7103 180.225 87.8722 180.648 88.2365 180.938C88.5602 181.228 89.0863 181.373 89.7338 181.373C91.0693 181.373 91.7573 180.793 91.7573 179.629V174.151H93.4977ZM99.406 180.741C99.406 180.495 99.2847 180.306 99.0419 180.177C98.7586 180.048 98.3537 179.935 97.7871 179.839C97.303 179.764 96.8283 179.638 96.3708 179.464C95.521 179.13 95.1165 178.65 95.1165 178.018C95.1165 177.49 95.3591 177.047 95.9257 176.693C96.5461 176.317 97.2638 176.131 97.9897 176.157C98.88 176.157 99.6086 176.342 100.175 176.705C100.701 177.067 100.984 177.535 100.984 178.115H99.325C99.325 177.849 99.2037 177.631 98.9609 177.454C98.6737 177.265 98.3332 177.174 97.9897 177.192C97.6254 177.192 97.3423 177.261 97.0995 177.402C96.8567 177.539 96.7349 177.728 96.7349 177.962C96.7349 178.175 96.8566 178.336 97.059 178.453C97.3018 178.574 97.7063 178.69 98.3943 178.807C99.0418 178.928 99.5679 179.069 99.9321 179.234C100.337 179.399 100.579 179.597 100.782 179.827C100.962 180.07 101.061 180.363 101.065 180.664C101.065 181.216 100.782 181.663 100.215 182.005C99.6486 182.348 98.9205 182.521 98.0302 182.521C97.4231 182.521 96.8564 182.428 96.3708 182.247C95.9425 182.106 95.5634 181.846 95.2781 181.498C95.0168 181.219 94.8722 180.852 94.8735 180.471H96.4923C96.4923 180.797 96.6541 181.047 96.9374 181.224C97.2695 181.412 97.6484 181.503 98.0302 181.486C98.4753 181.486 98.8396 181.417 99.0419 181.28C99.2847 181.143 99.406 180.962 99.406 180.741ZM105.8 182.521C104.866 182.556 103.95 182.264 103.21 181.695C102.892 181.426 102.639 181.088 102.47 180.707C102.302 180.326 102.223 179.912 102.239 179.496V179.327C102.239 178.715 102.36 178.167 102.644 177.688C102.967 177.204 103.372 176.83 103.858 176.56C104.384 176.294 104.991 176.157 105.598 176.157C106.65 176.157 107.419 176.427 107.985 176.959C108.552 177.49 108.795 178.244 108.795 179.218V179.774H103.939C103.949 180.006 104.008 180.233 104.113 180.441C104.218 180.648 104.365 180.831 104.546 180.978C104.91 181.272 105.355 181.422 105.921 181.422C106.69 181.422 107.297 181.164 107.783 180.656L108.674 181.361C108.364 181.743 107.959 182.037 107.5 182.215C107.014 182.416 106.447 182.521 105.8 182.521ZM105.598 177.265C105.153 177.265 104.788 177.398 104.505 177.659C104.199 177.957 104 178.346 103.939 178.767H107.136V178.666C107.146 178.47 107.111 178.273 107.034 178.092C106.957 177.911 106.84 177.749 106.691 177.619C106.448 177.382 106.084 177.265 105.598 177.265ZM114.056 177.531C113.827 177.503 113.598 177.488 113.368 177.486C112.599 177.486 112.073 177.728 111.79 178.211V182.404H110.13V176.274H111.709L111.749 176.959C112.154 176.427 112.72 176.157 113.449 176.157C113.691 176.157 113.894 176.185 114.056 176.238V177.531Z" fill="white"/>
<path fill-rule="evenodd" clip-rule="evenodd" d="M188.958 206.741C188.958 205.203 188.367 203.728 187.318 202.641C186.268 201.554 184.844 200.943 183.362 200.943H100.927C99.4444 200.943 98.0203 201.554 96.9707 202.641C95.921 203.728 95.3302 205.203 95.3302 206.741V212.727C95.3302 214.265 95.921 215.74 96.9707 216.827C98.0203 217.915 99.4444 218.526 100.927 218.526H183.362C184.844 218.526 186.268 217.915 187.318 216.827C188.367 215.74 188.958 214.265 188.958 212.727V206.741Z" fill="#455665"/>
<path fill-rule="evenodd" clip-rule="evenodd" d="M188.107 205.066C188.107 203.528 187.516 202.054 186.467 200.967C185.417 199.879 183.993 199.269 182.511 199.269H100.075C98.5932 199.269 97.1691 199.879 96.1195 200.967C95.0699 202.054 94.4791 203.528 94.4791 205.066V211.053C94.4791 212.591 95.0699 214.065 96.1195 215.152C97.1691 216.24 98.5932 216.851 100.075 216.851H182.511C183.993 216.851 185.417 216.24 186.467 215.152C187.516 214.065 188.107 212.591 188.107 211.053V205.066Z" fill="#DBB13B"/>
<path fill-rule="evenodd" clip-rule="evenodd" d="M109.658 212.665L108.387 211.615L110.231 208.726L107.247 207.622L107.734 205.923L110.719 207.027V203.455H112.286V207.027L115.27 205.923L115.758 207.622L112.774 208.726L114.618 211.615L113.346 212.665L111.502 209.776L109.658 212.665Z" fill="white"/>
<path fill-rule="evenodd" clip-rule="evenodd" d="M123.277 212.665L122.005 211.615L123.849 208.726L120.865 207.622L121.353 205.923L124.337 207.027V203.455H125.905V207.027L128.889 205.923L129.377 207.622L126.392 208.726L128.237 211.615L126.965 212.665L125.121 209.776L123.277 212.665Z" fill="white"/>
<path fill-rule="evenodd" clip-rule="evenodd" d="M136.286 212.665L134.887 211.615L136.915 208.726L133.633 207.622L134.169 205.923L137.452 207.027V203.455H139.176V207.027L142.459 205.923L142.995 207.622L139.713 208.726L141.741 211.615L140.342 212.665L138.314 209.776L136.286 212.665Z" fill="white"/>
<path fill-rule="evenodd" clip-rule="evenodd" d="M149.663 212.665L148.391 211.615L150.235 208.726L147.251 207.622L147.739 205.923L150.723 207.027V203.455H152.291V207.027L155.275 205.923L155.763 207.622L152.779 208.726L154.623 211.615L153.351 212.665L151.507 209.776L149.663 212.665Z" fill="white"/>
<path fill-rule="evenodd" clip-rule="evenodd" d="M162.913 212.665L161.387 211.615L163.6 208.726L160.019 207.622L160.604 205.923L164.185 207.027V203.455H166.066V207.027L169.647 205.923L170.233 207.622L166.651 208.726L168.864 211.615L167.338 212.665L165.126 209.776L162.913 212.665Z" fill="white"/>
<path fill-rule="evenodd" clip-rule="evenodd" d="M107.247 72.0049H108.098V72.8421H107.247V72.0049Z" fill="#DBB13B"/>
<path fill-rule="evenodd" clip-rule="evenodd" d="M195.767 236.219C195.768 235.765 195.677 235.315 195.5 234.895C195.324 234.476 195.064 234.094 194.738 233.773C194.411 233.452 194.023 233.197 193.596 233.023C193.169 232.849 192.711 232.76 192.248 232.76H158.431C157.968 232.76 157.511 232.849 157.084 233.023C156.656 233.197 156.268 233.452 155.942 233.773C155.615 234.094 155.356 234.476 155.179 234.895C155.002 235.315 154.911 235.765 154.912 236.219V241.858C154.911 242.313 155.002 242.763 155.179 243.183C155.355 243.603 155.615 243.984 155.941 244.305C156.268 244.627 156.656 244.882 157.083 245.056C157.511 245.229 157.968 245.319 158.431 245.319H192.248C194.195 245.319 195.767 243.77 195.767 241.858V236.219Z" fill="#455665"/>
<path fill-rule="evenodd" clip-rule="evenodd" d="M194.916 233.938C194.917 233.454 194.824 232.974 194.644 232.526C194.463 232.078 194.199 231.671 193.865 231.329C193.531 230.986 193.135 230.714 192.699 230.529C192.263 230.343 191.796 230.248 191.324 230.248H156.802C156.33 230.248 155.862 230.343 155.426 230.529C154.99 230.714 154.594 230.986 154.261 231.329C153.927 231.671 153.663 232.078 153.482 232.526C153.302 232.974 153.209 233.454 153.209 233.938V239.953C153.209 240.438 153.302 240.918 153.482 241.366C153.662 241.814 153.927 242.221 154.261 242.563C154.594 242.906 154.99 243.178 155.426 243.364C155.862 243.549 156.33 243.644 156.802 243.644H191.324C193.311 243.644 194.916 241.992 194.916 239.953V233.938Z" fill="#DBB13B"/>
<path d="M164.781 238.798H167.665V239.944H163.423V233.021H164.781V238.798ZM168.154 237.324C168.154 236.814 168.248 236.359 168.435 235.96C168.622 235.56 168.891 235.251 169.243 235.033C169.595 234.814 170.003 234.704 170.468 234.704C171.129 234.704 171.669 234.917 172.087 235.342C172.504 235.766 172.738 236.343 172.786 237.072L172.795 237.424C172.795 238.213 172.585 238.847 172.166 239.324C171.746 239.801 171.184 240.039 170.477 240.039C169.771 240.039 169.207 239.802 168.786 239.326C168.365 238.851 168.154 238.204 168.154 237.386V237.324ZM169.463 237.424C169.463 237.912 169.551 238.286 169.725 238.544C169.9 238.802 170.151 238.931 170.477 238.931C170.794 238.931 171.041 238.804 171.219 238.549C171.398 238.293 171.486 237.885 171.486 237.324C171.486 236.846 171.398 236.475 171.219 236.212C171.041 235.949 170.791 235.817 170.468 235.817C170.148 235.817 169.9 235.948 169.725 236.209C169.551 236.471 169.463 236.876 169.463 237.424ZM173.411 237.334C173.411 236.545 173.589 235.909 173.947 235.427C174.306 234.945 174.787 234.704 175.394 234.704C175.931 234.704 176.35 234.898 176.648 235.285L176.702 234.8H177.889V239.773C177.889 240.223 177.791 240.615 177.597 240.948C177.402 241.28 177.128 241.534 176.775 241.708C176.421 241.883 176.008 241.97 175.534 241.97C175.175 241.97 174.825 241.894 174.484 241.744C174.143 241.593 173.885 241.399 173.71 241.161L174.29 240.325C174.615 240.708 175.011 240.9 175.475 240.9C175.823 240.9 176.093 240.802 176.286 240.608C176.479 240.413 176.576 240.136 176.576 239.778V239.502C176.274 239.86 175.877 240.039 175.384 240.039C174.797 240.039 174.321 239.798 173.957 239.314C173.592 238.831 173.411 238.19 173.411 237.391V237.334ZM174.719 237.434C174.719 237.9 174.809 238.265 174.986 238.53C175.164 238.794 175.409 238.927 175.72 238.927C176.119 238.927 176.404 238.77 176.576 238.456V236.293C176.401 235.979 176.119 235.822 175.729 235.822C175.415 235.822 175.168 235.956 174.989 236.226C174.809 236.495 174.719 236.898 174.719 237.434ZM180.275 239.944H178.962V234.8H180.275V239.944ZM178.885 233.468C178.885 233.262 178.95 233.093 179.081 232.959C179.213 232.826 179.392 232.76 179.618 232.76C179.841 232.76 180.02 232.826 180.152 232.959C180.286 233.093 180.351 233.262 180.351 233.468C180.351 233.677 180.285 233.849 180.15 233.982C180.016 234.115 179.838 234.181 179.618 234.181C179.398 234.181 179.221 234.115 179.086 233.982C178.952 233.849 178.885 233.677 178.885 233.468ZM182.556 234.8L182.597 235.394C182.947 234.934 183.417 234.704 184.005 234.704C184.524 234.704 184.911 234.864 185.164 235.185C185.418 235.505 185.548 235.983 185.553 236.621V239.944H184.245V236.654C184.245 236.362 184.185 236.151 184.064 236.019C183.944 235.888 183.742 235.822 183.461 235.822C183.094 235.822 182.818 235.987 182.634 236.316V239.944H181.325V234.8H182.556Z" fill="white"/>
<path d="M172.786 130.613C184.068 130.613 193.214 121.242 193.214 109.682C193.214 98.1214 184.068 88.75 172.786 88.75C161.504 88.75 152.358 98.1214 152.358 109.682C152.358 121.242 161.504 130.613 172.786 130.613Z" fill="#DBB13B"/>
<path fill-rule="evenodd" clip-rule="evenodd" d="M197.202 102.941C200.763 116.587 192.864 130.64 179.571 134.297C179.079 134.432 178.66 134.762 178.405 135.215C178.15 135.667 178.08 136.205 178.212 136.71C178.486 137.762 179.541 138.388 180.566 138.106C195.907 133.886 205.025 117.672 200.914 101.92C200.782 101.414 200.46 100.984 200.019 100.722C199.577 100.46 199.053 100.389 198.56 100.524C197.536 100.806 196.927 101.89 197.202 102.941ZM149.034 116.193C145.472 102.544 153.372 88.4947 166.664 84.8377C167.689 84.5558 168.297 83.4716 168.023 82.4203C167.891 81.9149 167.569 81.484 167.127 81.2223C166.686 80.9606 166.162 80.8893 165.669 81.0243C150.328 85.245 141.211 101.462 145.321 117.215C145.596 118.266 146.651 118.892 147.675 118.61C148.7 118.329 149.308 117.244 149.034 116.193Z" fill="#DBB13B"/>
<path fill-rule="evenodd" clip-rule="evenodd" d="M182.951 102.497L184.423 104.007L182.705 105.771L181.234 104.26L180.551 104.962L182.022 106.472L180.304 108.236L178.833 106.725L173.494 112.207C174.6 114.589 174.193 117.532 172.272 119.505C169.834 122.008 165.877 122.009 163.438 119.505C161 117.002 161.001 112.939 163.439 110.436C165.36 108.463 168.226 108.045 170.547 109.181L181.677 97.7521L184.625 100.778L182.951 102.497ZM170.064 112.703C171.282 113.953 171.283 115.986 170.064 117.238C168.845 118.489 166.865 118.489 165.647 117.238C164.429 115.987 164.428 113.954 165.647 112.703C166.866 111.451 168.846 111.452 170.064 112.703Z" fill="white"/>
<path fill-rule="evenodd" clip-rule="evenodd" d="M209.797 195.482C209.713 195.545 206.826 190.944 206.714 190.785C205.559 189.171 204.13 187.452 202.426 186.447C200.576 185.361 198.429 184.997 196.518 184.051C189.774 180.708 180.514 174.036 179.259 165.817C179.057 164.507 179.186 163.054 179.819 161.873C179.976 161.585 181.17 160.357 181.17 160.168C181.159 159.766 180.458 159.147 180.307 158.76C179.774 157.413 179.64 155.833 180.183 154.469C180.464 153.756 180.946 153 181.759 152.952C181.96 152.94 183.412 153.202 183.418 153.097C183.451 152.507 181.697 151.131 181.361 150.72C179.808 148.837 178.491 146.479 179.494 143.992C180.452 141.605 183.115 140.392 185.52 140.489C186.086 140.512 187.913 141.343 188.345 141.037C189.27 140.38 188.995 137.938 188.866 137.011C188.21 132.249 183.984 129.572 180.862 126.532C177.975 123.725 175.537 120.27 173.804 116.604C172.93 114.755 170.273 108.82 173.384 107.637C175.357 106.887 178.104 108.812 179.634 109.851C184.729 113.316 203.183 131.914 206.591 136.336C209.051 139.525 209.343 143.576 212.241 146.346C214.791 148.777 217.56 150.744 219.629 153.665C222.297 157.432 220.307 162.781 222.544 166.745C223.979 169.284 226.983 171.123 227.779 173.982C228.485 176.517 227.325 179.4 226.249 181.637C223.362 187.62 216.692 195.602 209.797 195.482Z" fill="#A59A7B"/>
<mask id="mask1_2027_288" style="mask-type:luminance" maskUnits="userSpaceOnUse" x="171" y="107" width="57" height="89">
<path d="M209.797 195.484C209.713 195.547 206.826 190.946 206.714 190.786C205.559 189.173 204.13 187.454 202.426 186.449C200.576 185.363 198.429 184.999 196.518 184.053C189.774 180.71 180.514 174.038 179.259 165.819C179.057 164.509 179.186 163.056 179.819 161.875C179.976 161.587 181.17 160.359 181.17 160.17C181.159 159.768 180.458 159.149 180.307 158.762C179.774 157.415 179.64 155.835 180.183 154.471C180.464 153.758 180.946 153.002 181.759 152.954C181.96 152.942 183.412 153.204 183.418 153.099C183.451 152.509 181.697 151.133 181.361 150.722C179.808 148.838 178.491 146.481 179.494 143.994C180.452 141.607 183.115 140.394 185.52 140.491C186.086 140.514 187.913 141.345 188.345 141.039C189.27 140.382 188.995 137.94 188.866 137.013C188.21 132.251 183.984 129.574 180.862 126.534C177.975 123.727 175.537 120.272 173.804 116.606C172.93 114.756 170.273 108.821 173.384 107.639C175.357 106.889 178.104 108.814 179.634 109.853C184.729 113.318 203.183 131.916 206.591 136.338C209.051 139.527 209.343 143.577 212.241 146.348C214.791 148.779 217.56 150.746 219.629 153.667C222.297 157.434 220.307 162.783 222.544 166.747C223.979 169.286 226.983 171.125 227.779 173.983C228.485 176.519 227.325 179.402 226.249 181.639C223.362 187.622 216.692 195.604 209.797 195.484Z" fill="white"/>
</mask>
<g mask="url(#mask1_2027_288)">
<path fill-rule="evenodd" clip-rule="evenodd" d="M177.1 106.696C176.534 106.769 175.901 108.207 175.727 108.639C174.651 111.301 175.649 113.63 177.213 115.838C179.242 118.708 181.916 120.923 184.298 123.467C187.168 126.536 190.481 133.366 194.219 135.201C206.473 141.212 206.54 130.11 208.171 132.337C227.633 158.895 194.522 141.048 192.112 142.225C188.659 143.913 185.049 139.66 183.014 137.463C182.442 136.842 181.871 136.219 181.299 135.6C176.108 130 169.281 123.775 168.289 115.79C166.332 100.039 174.236 109.497 177.1 106.696ZM175.856 161.97C175.94 161.981 178.059 156.425 178.109 156.598C178.558 158.015 179.219 159.344 179.948 160.628C183.059 166.106 186.131 170.89 191.641 173.99C194.051 175.346 196.854 176.03 199.606 175.95C202.448 175.869 205.559 175.019 208.334 175.958C211.742 177.112 213.042 183.71 217.174 182.517C221.069 181.391 223.205 176.431 224.668 172.973C224.993 172.193 225.929 169.16 227.191 169.627C228.889 170.255 228.726 174.925 228.738 176.256C228.794 183.516 225.913 190.823 220.313 195.392C218.642 196.755 216.776 197.894 214.797 198.718C200.268 204.771 186.647 191.482 180.105 179.331C177.302 174.131 174.909 168.009 175.856 161.97Z" fill="#455665"/>
</g>
<path fill-rule="evenodd" clip-rule="evenodd" d="M180.982 159.244C183.398 161.012 185.949 162.613 188.527 164.082C190.276 165.08 192.087 165.996 193.97 166.654C195.556 167.209 197.479 167.183 198.92 168.14C200.326 169.069 199.609 170.458 198.32 170.994C197.838 171.195 197.328 171.303 196.817 171.375C196.033 171.484 195.237 171.502 194.446 171.488C191.935 171.446 189.48 170.964 187.07 170.206C185.253 169.634 183.426 168.896 181.974 167.521C179.934 165.582 179.177 161.773 180.982 159.244Z" fill="#A59A7B"/>
<mask id="mask2_2027_288" style="mask-type:luminance" maskUnits="userSpaceOnUse" x="179" y="159" width="21" height="13">
<path d="M180.982 159.244C183.398 161.012 185.949 162.613 188.527 164.082C190.276 165.08 192.087 165.996 193.97 166.654C195.556 167.209 197.479 167.183 198.92 168.14C200.327 169.069 199.609 170.458 198.32 170.994C197.838 171.195 197.328 171.303 196.818 171.375C196.033 171.484 195.237 171.502 194.446 171.488C191.935 171.446 189.48 170.964 187.07 170.206C185.254 169.634 183.426 168.896 181.974 167.521C179.934 165.582 179.177 161.773 180.982 159.244Z" fill="white"/>
</mask>
<g mask="url(#mask2_2027_288)">
<path fill-rule="evenodd" clip-rule="evenodd" d="M179.191 158.781C178.922 158.806 182.846 159.376 182.712 159.571C182.168 160.361 181.921 161.525 182.078 162.472C182.459 164.831 185.055 166.428 186.972 167.306C189.528 168.476 192.925 169.695 195.783 169.481C197.325 169.365 198.396 167.735 199.976 168.119C201.652 168.527 202.078 170.626 201.198 171.985C199.679 174.337 196.165 173.928 193.861 173.562C192.591 173.359 191.334 173.073 190.1 172.705C189.049 172.398 188.016 172.032 187.005 171.609C186.28 171.302 185.569 170.96 184.875 170.584C181.658 168.834 177.291 165.739 178.25 161.371C178.367 160.826 178.922 159.264 179.191 158.781Z" fill="#455665"/>
</g>
<path fill-rule="evenodd" clip-rule="evenodd" d="M183.119 152.438C183.153 152.127 181.97 152.515 181.891 152.553C181.079 152.935 180.339 153.76 179.997 154.614C179.173 156.702 180.243 159.161 181.645 160.665C183.069 162.192 185.002 163.285 186.779 164.285C190.115 166.156 193.668 167.763 197.39 168.573C199.268 168.982 202.609 169.607 203.971 167.662C205.16 165.961 204.151 163.494 202.665 162.394C201.365 161.439 200.345 161.921 198.954 161.766C198.192 161.682 197.435 161.31 196.768 160.949C194.05 159.486 191.527 157.63 188.96 155.905C187.256 154.759 185.047 153.133 183.119 152.438Z" fill="#A59A7B"/>
<mask id="mask3_2027_288" style="mask-type:luminance" maskUnits="userSpaceOnUse" x="179" y="152" width="26" height="18">
<path d="M183.119 152.439C183.153 152.128 181.97 152.516 181.892 152.554C181.079 152.936 180.339 153.761 179.997 154.615C179.173 156.703 180.244 159.162 181.645 160.666C183.069 162.193 185.003 163.286 186.779 164.286C190.115 166.157 193.669 167.764 197.391 168.574C199.268 168.983 202.609 169.608 203.971 167.663C205.16 165.962 204.151 163.495 202.665 162.395C201.365 161.44 200.345 161.922 198.954 161.767C198.192 161.683 197.435 161.311 196.768 160.95C194.05 159.487 191.527 157.631 188.96 155.906C187.256 154.76 185.047 153.134 183.119 152.439Z" fill="white"/>
</mask>
<g mask="url(#mask3_2027_288)">
<path fill-rule="evenodd" clip-rule="evenodd" d="M184.421 152.034C183.749 152.404 183.289 153.428 183.048 154.127C182.796 154.882 182.639 155.757 182.745 156.558C183.098 159.22 186.35 160.969 188.362 162.14C190.038 163.114 191.753 164.04 193.457 164.953C194.758 165.646 196.254 166.401 197.768 166.141C198.85 165.954 199.539 165.109 200.072 164.186C200.402 163.624 200.862 162.736 201.641 162.92C202.308 163.078 202.717 163.719 202.97 164.33C203.553 165.766 203.317 167.692 202.319 168.878C200.716 170.788 197.616 170.584 195.464 170.085C190.111 168.843 184.404 165.514 180.862 161.174C178.855 158.709 177.028 149.404 184.421 152.034Z" fill="#455665"/>
</g>
<path fill-rule="evenodd" clip-rule="evenodd" d="M186.815 141.824C186.781 141.595 186.114 141.497 185.957 141.463C185.021 141.262 183.709 140.677 182.795 140.971C180.587 141.681 178.804 144.064 179.152 146.367C179.533 148.93 181.994 151.485 183.771 153.15C187.313 156.464 191.831 159.667 196.187 161.794C198.345 162.848 201.798 163.814 203.805 161.894C205.811 159.979 204.147 156.742 202.684 155.095C201.501 153.766 199.858 152.947 198.345 152.087C196.798 151.208 195.268 150.244 193.866 149.128C192.302 147.878 190.862 146.469 189.522 144.971C188.356 143.668 187.398 142.464 185.957 141.463" fill="#A59A7B"/>
<mask id="mask4_2027_288" style="mask-type:luminance" maskUnits="userSpaceOnUse" x="179" y="140" width="26" height="23">
<path d="M186.815 141.822C186.781 141.593 186.114 141.495 185.957 141.461C185.021 141.261 183.709 140.675 182.795 140.969C180.587 141.68 178.804 144.062 179.152 146.365C179.533 148.929 181.994 151.483 183.771 153.148C187.313 156.462 191.831 159.665 196.187 161.793C198.345 162.846 201.798 163.812 203.805 161.892C205.811 159.977 204.147 156.74 202.684 155.093C201.501 153.764 199.858 152.945 198.345 152.085C196.798 151.206 195.268 150.242 193.866 149.126C192.302 147.876 190.862 146.467 189.522 144.969C188.356 143.666 187.398 142.462 185.957 141.461" fill="white"/>
</mask>
<g mask="url(#mask4_2027_288)">
<path fill-rule="evenodd" clip-rule="evenodd" d="M181.502 141.312C179.473 143.554 181.303 147.808 181.905 149.108C182.872 151.184 184.51 152.626 186.395 154.002C189.528 156.28 193.764 159.888 197.87 159.952C199.414 159.976 201.356 160.267 202.268 159.03C203.62 157.193 203.365 155.31 204.525 155.464C206.709 155.755 207.806 159.841 207.211 161.388C205.574 165.682 198.912 165.362 195.141 164.524C193.647 164.187 192.186 163.735 190.774 163.171C189.518 162.673 188.297 162.099 187.121 161.454C181.154 158.188 173.327 145.202 181.502 141.312Z" fill="#455665"/>
</g>
<path fill-rule="evenodd" clip-rule="evenodd" d="M205.425 157.539C205.694 158.59 202.583 153.801 201.607 152.561C200.419 151.048 198.822 150.008 197.089 150.103C195.032 150.216 193.059 150.237 191.108 149.455C188.552 148.43 184.589 145.154 186.277 141.921C187.263 140.041 189.556 139.059 191.422 138.432C196.159 136.845 201.383 136.928 205.834 139.365C210.851 142.112 213.726 146.713 217.062 151.212C218.485 153.132 220.335 154.859 221.053 157.225C221.765 159.584 220.856 162.216 221.501 164.628C222.14 167.002 224.528 168.563 224.64 171.114C224.775 174.03 222.107 175.959 219.556 176.399C215.43 177.11 209.96 176.138 207.23 172.547C205.677 170.504 204.999 162.271 205.425 157.539Z" fill="#A59A7B"/>
<mask id="mask5_2027_288" style="mask-type:luminance" maskUnits="userSpaceOnUse" x="185" y="137" width="40" height="40">
<path d="M205.425 157.539C205.694 158.59 202.583 153.801 201.607 152.561C200.419 151.048 198.822 150.008 197.089 150.103C195.032 150.216 193.059 150.237 191.108 149.455C188.552 148.43 184.589 145.154 186.277 141.921C187.263 140.041 189.556 139.059 191.422 138.432C196.159 136.845 201.383 136.928 205.834 139.365C210.851 142.112 213.726 146.713 217.062 151.212C218.485 153.132 220.335 154.859 221.053 157.225C221.765 159.584 220.856 162.216 221.501 164.628C222.14 167.002 224.528 168.563 224.64 171.114C224.775 174.03 222.107 175.959 219.556 176.399C215.43 177.11 209.96 176.138 207.23 172.547C205.677 170.504 204.999 162.271 205.425 157.539Z" fill="white"/>
</mask>
<g mask="url(#mask5_2027_288)">
<path fill-rule="evenodd" clip-rule="evenodd" d="M194.214 136.1C193.771 136.117 193.076 137.32 192.869 137.632C191.714 139.357 191.153 141.838 193.003 143.304C194.982 144.867 197.925 144.806 200.29 145.025C202.347 145.216 204.27 145.839 206.036 146.939C209.248 148.936 199.281 164.666 197.857 163.489C196.467 162.341 193.009 160.054 191.759 158.748C186.445 153.193 180.324 145.342 184.012 137.202C184.533 136.041 193.412 137.075 194.214 136.1Z" fill="#455665"/>
</g>
<path fill-rule="evenodd" clip-rule="evenodd" d="M332.864 189.45C333.604 187.502 339.882 160.134 335.734 163.385C333.565 165.083 328.912 167.432 327.847 163.322C325.443 154.058 339.148 141.845 330.684 132.21C326.104 127.003 319.725 125.998 320.117 118.11C320.297 114.481 321.793 110.818 322.651 107.308C322.853 106.473 323.363 104.265 322.029 104C320.162 103.63 309.764 110.973 307.6 112.12C299.248 116.558 290.347 120.73 284.725 128.83C276.294 140.97 278.772 157.859 274.327 171.545C271.759 179.46 264.097 186.2 263.077 194.444C261.44 207.636 272.297 210.073 279.422 218.004C281.799 220.645 285.252 226.458 281.485 229.584C279.747 231.023 278.206 228.179 277.746 226.792C276.042 221.647 278.368 217.394 273.178 213.693C262.538 206.107 256.496 205.042 247.163 193.537C241.714 186.818 236.63 173.807 229.803 168.877C228.973 168.278 228.951 170.692 229.102 171.273C229.455 172.658 230.918 172.791 230.862 175.047C230.756 179.637 228.553 183.727 225.498 186.95C221.899 190.74 216.535 194.546 211.361 195.351C206.344 196.132 206.277 193.713 205.694 189.483C205.593 188.757 203.99 191.835 203.76 195.34C202.841 209.572 216.35 213.054 223.183 223.201C229.427 232.479 232.095 243.771 239.175 252.548C252.224 268.732 277.634 272.462 295.863 263.552C313.839 254.77 324.417 233.894 327.489 214.43C328.828 205.922 329.792 197.549 332.864 189.45Z" fill="#F3EFE3"/>
<mask id="mask6_2027_288" style="mask-type:luminance" maskUnits="userSpaceOnUse" x="203" y="103" width="135" height="166">
<path d="M332.864 189.45C333.604 187.502 339.882 160.134 335.734 163.385C333.565 165.083 328.912 167.432 327.847 163.322C325.443 154.058 339.148 141.845 330.684 132.21C326.104 127.003 319.725 125.998 320.117 118.11C320.297 114.481 321.793 110.818 322.651 107.308C322.853 106.473 323.363 104.265 322.029 104C320.162 103.63 309.764 110.973 307.6 112.12C299.248 116.558 290.347 120.73 284.725 128.83C276.294 140.97 278.772 157.859 274.327 171.545C271.759 179.46 264.097 186.2 263.077 194.444C261.44 207.636 272.297 210.073 279.422 218.004C281.799 220.645 285.252 226.458 281.485 229.584C279.747 231.023 278.206 228.179 277.746 226.792C276.042 221.647 278.368 217.394 273.178 213.693C262.538 206.107 256.496 205.042 247.163 193.537C241.714 186.818 236.63 173.807 229.803 168.877C228.973 168.278 228.951 170.692 229.102 171.273C229.455 172.658 230.918 172.791 230.862 175.047C230.756 179.637 228.553 183.727 225.498 186.95C221.899 190.74 216.535 194.546 211.361 195.351C206.344 196.132 206.277 193.713 205.694 189.483C205.593 188.757 203.99 191.835 203.76 195.34C202.841 209.572 216.35 213.054 223.183 223.201C229.427 232.479 232.095 243.771 239.175 252.548C252.224 268.732 277.634 272.462 295.863 263.552C313.839 254.77 324.417 233.894 327.489 214.43C328.828 205.922 329.792 197.549 332.864 189.45Z" fill="white"/>
</mask>
<g mask="url(#mask6_2027_288)">
<path fill-rule="evenodd" clip-rule="evenodd" d="M278.213 130.521C292.737 128.42 306.601 140.786 309.017 155.495C310.29 163.265 308.201 171.174 309.558 178.864C310.773 185.735 326.097 242.93 330.218 237.036C331.726 234.882 334.538 187.783 337.451 189.004C340.917 190.455 340.236 196.324 340.171 199.292C339.995 206.871 342.238 215.25 351.058 216.027C353.388 216.234 355.701 215.686 357.574 214.229C364.944 208.498 363.534 194.038 362.906 185.985C361.544 168.566 357.328 151.037 350.983 134.831C347.462 125.844 343.097 116.714 336.626 109.536C329.057 101.135 315.41 93.8033 304.573 100.299C301.214 102.311 280.352 127.236 278.213 130.521Z" fill="#223F58"/>
<path fill-rule="evenodd" clip-rule="evenodd" d="M292.415 112.654C307.073 113.181 318.632 127.888 318.52 142.859C318.458 150.767 315.061 158.21 315.095 166.054C315.128 173.063 320.532 232.341 325.588 227.253C327.438 225.394 338.184 179.345 340.846 181.074C344.013 183.13 342.348 188.809 341.782 191.73C340.325 199.191 341.115 207.875 349.669 210.223C351.928 210.844 354.299 210.718 356.39 209.613C364.619 205.269 365.678 190.724 366.424 182.652C368.033 165.191 366.85 147.11 363.346 129.955C361.401 120.441 358.649 110.635 353.492 102.381C347.461 92.7207 335.263 83.028 323.492 87.5063C319.843 88.8933 295.078 109.791 292.415 112.654Z" fill="#DBB13B"/>
</g>
</svg>
