<svg width="89" height="22" viewBox="0 0 89 22" fill="none" xmlns="http://www.w3.org/2000/svg">
<rect y="0.5" width="89" height="21" rx="10" fill="#BD9F4B"/>
<path d="M26.886 10.488C27.4366 10.5907 27.8893 10.866 28.244 11.314C28.5986 11.762 28.776 12.2753 28.776 12.854C28.776 13.3767 28.6453 13.8387 28.384 14.24C28.132 14.632 27.7633 14.94 27.278 15.164C26.7926 15.388 26.2186 15.5 25.556 15.5H21.342V5.728H25.374C26.0366 5.728 26.606 5.83533 27.082 6.05C27.5673 6.26467 27.9313 6.56333 28.174 6.946C28.426 7.32867 28.552 7.76267 28.552 8.248C28.552 8.81733 28.398 9.29333 28.09 9.676C27.7913 10.0587 27.39 10.3293 26.886 10.488ZM23.302 9.76H25.094C25.5606 9.76 25.92 9.65733 26.172 9.452C26.424 9.23733 26.55 8.934 26.55 8.542C26.55 8.15 26.424 7.84667 26.172 7.632C25.92 7.41733 25.5606 7.31 25.094 7.31H23.302V9.76ZM25.276 13.904C25.752 13.904 26.1206 13.792 26.382 13.568C26.6526 13.344 26.788 13.0267 26.788 12.616C26.788 12.196 26.648 11.8693 26.368 11.636C26.088 11.3933 25.71 11.272 25.234 11.272H23.302V13.904H25.276ZM32.2981 8.948C32.5501 8.53733 32.8767 8.21533 33.2781 7.982C33.6887 7.74867 34.1554 7.632 34.6781 7.632V9.69H34.1601C33.5441 9.69 33.0774 9.83467 32.7601 10.124C32.4521 10.4133 32.2981 10.9173 32.2981 11.636V15.5H30.3381V7.744H32.2981V8.948ZM39.4422 15.626C38.6956 15.626 38.0236 15.4627 37.4262 15.136C36.8289 14.8 36.3576 14.3287 36.0122 13.722C35.6762 13.1153 35.5082 12.4153 35.5082 11.622C35.5082 10.8287 35.6809 10.1287 36.0262 9.522C36.3809 8.91533 36.8616 8.44867 37.4682 8.122C38.0749 7.786 38.7516 7.618 39.4982 7.618C40.2449 7.618 40.9216 7.786 41.5282 8.122C42.1349 8.44867 42.6109 8.91533 42.9562 9.522C43.3109 10.1287 43.4882 10.8287 43.4882 11.622C43.4882 12.4153 43.3062 13.1153 42.9422 13.722C42.5876 14.3287 42.1022 14.8 41.4862 15.136C40.8796 15.4627 40.1982 15.626 39.4422 15.626ZM39.4422 13.918C39.7969 13.918 40.1282 13.834 40.4362 13.666C40.7536 13.4887 41.0056 13.2273 41.1922 12.882C41.3789 12.5367 41.4722 12.1167 41.4722 11.622C41.4722 10.8847 41.2762 10.32 40.8842 9.928C40.5016 9.52667 40.0302 9.326 39.4702 9.326C38.9102 9.326 38.4389 9.52667 38.0562 9.928C37.6829 10.32 37.4962 10.8847 37.4962 11.622C37.4962 12.3593 37.6782 12.9287 38.0422 13.33C38.4156 13.722 38.8822 13.918 39.4422 13.918ZM49.224 7.632C50.148 7.632 50.8946 7.926 51.464 8.514C52.0333 9.09267 52.318 9.90467 52.318 10.95V15.5H50.358V11.216C50.358 10.6 50.204 10.1287 49.896 9.802C49.588 9.466 49.168 9.298 48.636 9.298C48.0946 9.298 47.6653 9.466 47.348 9.802C47.04 10.1287 46.886 10.6 46.886 11.216V15.5H44.926V7.744H46.886V8.71C47.1473 8.374 47.4786 8.11267 47.88 7.926C48.2906 7.73 48.7386 7.632 49.224 7.632ZM55.9738 13.89H59.4318V15.5H53.7478V13.918L57.1358 9.354H53.7618V7.744H59.3898V9.326L55.9738 13.89ZM68.1594 11.454C68.1594 11.734 68.1407 11.986 68.1034 12.21H62.4334C62.4801 12.77 62.6761 13.2087 63.0214 13.526C63.3667 13.8433 63.7914 14.002 64.2954 14.002C65.0234 14.002 65.5414 13.6893 65.8494 13.064H67.9634C67.7394 13.8107 67.3101 14.4267 66.6754 14.912C66.0407 15.388 65.2614 15.626 64.3374 15.626C63.5907 15.626 62.9187 15.4627 62.3214 15.136C61.7334 14.8 61.2714 14.3287 60.9354 13.722C60.6087 13.1153 60.4454 12.4153 60.4454 11.622C60.4454 10.8193 60.6087 10.1147 60.9354 9.508C61.2621 8.90133 61.7194 8.43467 62.3074 8.108C62.8954 7.78133 63.5721 7.618 64.3374 7.618C65.0747 7.618 65.7327 7.77667 66.3114 8.094C66.8994 8.41133 67.3521 8.864 67.6694 9.452C67.9961 10.0307 68.1594 10.698 68.1594 11.454ZM66.1294 10.894C66.1201 10.39 65.9381 9.98867 65.5834 9.69C65.2287 9.382 64.7947 9.228 64.2814 9.228C63.7961 9.228 63.3854 9.37733 63.0494 9.676C62.7227 9.96533 62.5221 10.3713 62.4474 10.894H66.1294Z" fill="white"/>
</svg>
