<svg width="18" height="25" viewBox="0 0 18 25" fill="none" xmlns="http://www.w3.org/2000/svg">
<path d="M8.98654 16.8383C13.3661 16.8383 16.9164 13.288 16.9164 8.90842C16.9164 4.52886 13.3661 0.978516 8.98654 0.978516C4.60698 0.978516 1.05664 4.52886 1.05664 8.90842C1.05664 13.288 4.60698 16.8383 8.98654 16.8383Z" fill="#A06335"/>
<path fill-rule="evenodd" clip-rule="evenodd" d="M10.9426 10.7293L9.4486 13.7115C10.3972 14.0762 10.421 14.816 10.5153 15.6619C10.6309 16.7038 10.6866 17.8946 11.0355 19.1783C11.4403 20.6634 12.0072 21.6306 12.6981 22.3333C13.5547 23.2038 14.6319 23.6836 16.0536 24.126C16.1406 24.1519 16.2342 24.1161 16.2827 24.0393C16.3298 23.9617 16.3195 23.862 16.2554 23.7963C15.646 23.181 15.174 22.5123 15.1052 21.7522C15.6722 21.8908 16.6676 21.8423 17.5415 21.5052C17.6186 21.4726 17.6669 21.3948 17.661 21.3108C17.6565 21.2278 17.599 21.1569 17.5184 21.1335C16.6458 20.8894 15.946 20.6787 15.4278 20.1517C15.0337 19.7512 14.7674 19.1737 14.5371 18.3266C14.1409 16.8708 14.1851 15.5414 13.9869 14.4502C13.6845 12.7794 12.9699 11.5085 10.9426 10.7293Z" fill="url(#paint0_linear_3038_3805)"/>
<path fill-rule="evenodd" clip-rule="evenodd" d="M7.04808 10.7293L8.54212 13.7115C7.59352 14.0762 7.56971 14.816 7.47541 15.6619C7.35981 16.7038 7.30409 17.8946 6.9552 19.1783C6.55038 20.6634 5.98349 21.6306 5.29261 22.3333C4.43607 23.2038 3.35884 23.6836 1.93712 24.126C1.85016 24.1519 1.7565 24.1161 1.70806 24.0393C1.66095 23.9617 1.67121 23.862 1.73534 23.7963C2.34477 23.181 2.81668 22.5123 2.88551 21.7522C2.31856 21.8908 1.3231 21.8423 0.449246 21.5052C0.37215 21.4726 0.323847 21.3948 0.329681 21.3108C0.334185 21.2278 0.391707 21.1569 0.472294 21.1335C1.34492 20.8894 2.04473 20.6787 2.56289 20.1517C2.95703 19.7512 3.22332 19.1737 3.45359 18.3266C3.84983 16.8708 3.80558 15.5414 4.00384 14.4502C4.30618 12.7794 5.02086 11.5085 7.04808 10.7293Z" fill="url(#paint1_linear_3038_3805)"/>
<path fill-rule="evenodd" clip-rule="evenodd" d="M10.5028 0.119186C10.9282 0.235518 11.1801 0.674438 11.0659 1.10051C10.5371 3.11597 8.98694 8.90115 8.98694 8.90115L6.93579 1.24753C7.5724 0.48531 8.52875 0 9.59857 0C9.91117 0 10.2145 0.0413939 10.5028 0.119186Z" fill="url(#paint2_linear_3038_3805)"/>
<path fill-rule="evenodd" clip-rule="evenodd" d="M5.90849 0.536502C6.33503 0.424568 6.77267 0.678718 6.88682 1.1048C7.43655 3.11467 8.98669 8.89985 8.98669 8.89985L3.38353 3.29719C3.55374 2.31878 4.13931 1.42032 5.0658 0.885407C5.33652 0.729109 5.6199 0.613297 5.90849 0.536502Z" fill="url(#paint3_linear_3038_3805)"/>
<path fill-rule="evenodd" clip-rule="evenodd" d="M2.13844 3.19702C2.45187 2.88681 2.95795 2.88809 3.26984 3.20002C4.75086 4.66575 8.9859 8.90079 8.9859 8.90079L1.3321 6.85033C0.990306 5.9179 1.04819 4.84702 1.5831 3.92053C1.7394 3.64981 1.9269 3.40783 2.13844 3.19702Z" fill="url(#paint4_linear_3038_3805)"/>
<path fill-rule="evenodd" clip-rule="evenodd" d="M0.205124 7.3861C0.321455 6.96074 0.760375 6.70881 1.18645 6.823C3.20191 7.35184 8.98709 8.90198 8.98709 8.90198L1.33347 10.9531C0.571247 10.3165 0.0859375 9.36017 0.0859375 8.29034C0.0859375 7.97775 0.127331 7.67443 0.205124 7.3861Z" fill="url(#paint5_linear_3038_3805)"/>
<path fill-rule="evenodd" clip-rule="evenodd" d="M0.623904 11.9782C0.511971 11.5517 0.76612 11.114 1.19221 10.9999C3.20207 10.4502 8.98725 8.90003 8.98725 8.90003L3.38459 14.5032C2.40618 14.333 1.50772 13.7474 0.972809 12.8209C0.816511 12.5502 0.7007 12.2668 0.623904 11.9782Z" fill="url(#paint6_linear_3038_3805)"/>
<path fill-rule="evenodd" clip-rule="evenodd" d="M3.28345 15.748C2.97324 15.4346 2.97452 14.9285 3.28645 14.6166C4.75217 13.1356 8.98722 8.90057 8.98722 8.90057L6.93675 16.5544C6.00432 16.8962 4.93345 16.8383 4.00695 16.3034C3.73624 16.1471 3.49425 15.9596 3.28345 15.748Z" fill="url(#paint7_linear_3038_3805)"/>
<path fill-rule="evenodd" clip-rule="evenodd" d="M7.47106 17.6835C7.0457 17.5672 6.79377 17.1283 6.90796 16.7022C7.4368 14.6868 8.98694 8.90158 8.98694 8.90158L11.0381 16.5552C10.4015 17.3174 9.44513 17.8027 8.37531 17.8027C8.06271 17.8027 7.75939 17.7613 7.47106 17.6835Z" fill="url(#paint8_linear_3038_3805)"/>
<path fill-rule="evenodd" clip-rule="evenodd" d="M12.0634 17.2643C11.6369 17.3762 11.1993 17.1221 11.0851 16.696C10.5354 14.6861 8.98524 8.90094 8.98524 8.90094L14.5884 14.5036C14.4182 15.482 13.8326 16.3805 12.9061 16.9154C12.6354 17.0717 12.352 17.1875 12.0634 17.2643Z" fill="url(#paint9_linear_3038_3805)"/>
<path fill-rule="evenodd" clip-rule="evenodd" d="M15.834 14.6038C15.5205 14.914 15.0145 14.9127 14.7026 14.6008C13.2215 13.135 8.98651 8.89999 8.98651 8.89999L16.6403 10.9505C16.9821 11.8829 16.9242 12.9538 16.3893 13.8803C16.233 14.151 16.0455 14.393 15.834 14.6038Z" fill="url(#paint10_linear_3038_3805)"/>
<path fill-rule="evenodd" clip-rule="evenodd" d="M17.769 10.4166C17.6527 10.842 17.2137 11.0939 16.7877 10.9797C14.7722 10.4509 8.98703 8.90076 8.98703 8.90076L16.6407 6.84961C17.4029 7.48622 17.8882 8.44257 17.8882 9.51239C17.8882 9.82499 17.8468 10.1283 17.769 10.4166Z" fill="url(#paint11_linear_3038_3805)"/>
<path fill-rule="evenodd" clip-rule="evenodd" d="M17.3502 5.82256C17.4622 6.24909 17.208 6.68673 16.7819 6.80088C14.7721 7.35062 8.98687 8.90075 8.98687 8.90075L14.5895 3.29759C15.5679 3.46781 16.4664 4.05337 17.0013 4.97986C17.1576 5.25058 17.2734 5.53396 17.3502 5.82256Z" fill="url(#paint12_linear_3038_3805)"/>
<path fill-rule="evenodd" clip-rule="evenodd" d="M14.6902 2.05275C15.0004 2.36617 14.9991 2.87225 14.6872 3.18415C13.2215 4.66517 8.98642 8.90021 8.98642 8.90021L11.0369 1.24641C11.9693 0.904612 13.0402 0.962495 13.9667 1.49741C14.2374 1.6537 14.4794 1.84121 14.6902 2.05275Z" fill="url(#paint13_linear_3038_3805)"/>
<path d="M8.98702 15.6479C12.7094 15.6479 15.727 12.6303 15.727 8.90792C15.727 5.18555 12.7094 2.16797 8.98702 2.16797C5.26465 2.16797 2.24707 5.18555 2.24707 8.90792C2.24707 12.6303 5.26465 15.6479 8.98702 15.6479Z" fill="url(#paint14_linear_3038_3805)"/>
<path d="M8.98735 14.9024C12.2984 14.9024 14.9825 12.2183 14.9825 8.90727C14.9825 5.59623 12.2984 2.91211 8.98735 2.91211C5.67631 2.91211 2.99219 5.59623 2.99219 8.90727C2.99219 12.2183 5.67631 14.9024 8.98735 14.9024Z" fill="url(#paint15_linear_3038_3805)"/>
<path fill-rule="evenodd" clip-rule="evenodd" d="M8.64439 5.43868C8.70453 5.30289 8.83846 5.21484 8.98727 5.21484C9.13608 5.21484 9.27 5.30289 9.33015 5.43868C9.68233 6.23604 10.1796 7.3614 10.1796 7.3614C10.1796 7.3614 11.4029 7.48603 12.2703 7.57469C12.4179 7.58958 12.5432 7.69064 12.589 7.83201C12.6349 7.97276 12.5928 8.12777 12.4824 8.22697C11.8326 8.80856 10.9162 9.62887 10.9162 9.62887C10.9162 9.62887 11.1754 10.8311 11.3595 11.683C11.3905 11.8281 11.3335 11.9782 11.2132 12.0656C11.0929 12.153 10.9329 12.1611 10.804 12.0867C10.0506 11.6483 8.98727 11.0301 8.98727 11.0301C8.98727 11.0301 7.92391 11.6483 7.17057 12.0867C7.0416 12.1611 6.88163 12.153 6.76134 12.0656C6.64106 11.9782 6.58401 11.8281 6.61502 11.683C6.79917 10.8311 7.05834 9.62887 7.05834 9.62887C7.05834 9.62887 6.14193 8.80856 5.49213 8.22697C5.38177 8.12777 5.33961 7.97276 5.38549 7.83201C5.43137 7.69064 5.55662 7.58958 5.70419 7.57469C6.57161 7.48603 7.79494 7.3614 7.79494 7.3614C7.79494 7.3614 8.29221 6.23604 8.64439 5.43868Z" fill="url(#paint16_linear_3038_3805)"/>
<defs>
<linearGradient id="paint0_linear_3038_3805" x1="12.0005" y1="12.9155" x2="15.0076" y2="21.7853" gradientUnits="userSpaceOnUse">
<stop stop-color="#5C2F00"/>
<stop offset="1" stop-color="#A55400"/>
</linearGradient>
<linearGradient id="paint1_linear_3038_3805" x1="5.99019" y1="12.9155" x2="2.98315" y2="21.7853" gradientUnits="userSpaceOnUse">
<stop stop-color="#5C2F00"/>
<stop offset="1" stop-color="#A55400"/>
</linearGradient>
<linearGradient id="paint2_linear_3038_3805" x1="6.87607" y1="2.36264" x2="11.337" y2="2.13339" gradientUnits="userSpaceOnUse">
<stop stop-color="#965B31"/>
<stop offset="0.5" stop-color="#F9AA57"/>
<stop offset="1" stop-color="#965B31"/>
</linearGradient>
<linearGradient id="paint3_linear_3038_3805" x1="3.88937" y1="4.29277" x2="7.638" y2="1.86377" gradientUnits="userSpaceOnUse">
<stop stop-color="#965B31"/>
<stop offset="0.5" stop-color="#F9AA57"/>
<stop offset="1" stop-color="#965B31"/>
</linearGradient>
<linearGradient id="paint4_linear_3038_3805" x1="2.26796" y1="7.4596" x2="4.29987" y2="3.48171" gradientUnits="userSpaceOnUse">
<stop stop-color="#965B31"/>
<stop offset="0.5" stop-color="#F9AA57"/>
<stop offset="1" stop-color="#965B31"/>
</linearGradient>
<linearGradient id="paint5_linear_3038_3805" x1="2.44858" y1="11.0128" x2="2.21932" y2="6.55193" gradientUnits="userSpaceOnUse">
<stop stop-color="#965B31"/>
<stop offset="0.5" stop-color="#F9AA57"/>
<stop offset="1" stop-color="#965B31"/>
</linearGradient>
<linearGradient id="paint6_linear_3038_3805" x1="4.38017" y1="13.9973" x2="1.95117" y2="10.2487" gradientUnits="userSpaceOnUse">
<stop stop-color="#965B31"/>
<stop offset="0.5" stop-color="#F9AA57"/>
<stop offset="1" stop-color="#965B31"/>
</linearGradient>
<linearGradient id="paint7_linear_3038_3805" x1="7.54603" y1="15.6185" x2="3.56814" y2="13.5866" gradientUnits="userSpaceOnUse">
<stop stop-color="#965B31"/>
<stop offset="0.5" stop-color="#F9AA57"/>
<stop offset="1" stop-color="#965B31"/>
</linearGradient>
<linearGradient id="paint8_linear_3038_3805" x1="11.0978" y1="15.4401" x2="6.63689" y2="15.6693" gradientUnits="userSpaceOnUse">
<stop stop-color="#965B31"/>
<stop offset="0.5" stop-color="#F9AA57"/>
<stop offset="1" stop-color="#965B31"/>
</linearGradient>
<linearGradient id="paint9_linear_3038_3805" x1="14.0826" y1="13.508" x2="10.3339" y2="15.937" gradientUnits="userSpaceOnUse">
<stop stop-color="#965B31"/>
<stop offset="0.5" stop-color="#F9AA57"/>
<stop offset="1" stop-color="#965B31"/>
</linearGradient>
<linearGradient id="paint10_linear_3038_3805" x1="15.7045" y1="10.3412" x2="13.6725" y2="14.3191" gradientUnits="userSpaceOnUse">
<stop stop-color="#965B31"/>
<stop offset="0.5" stop-color="#F9AA57"/>
<stop offset="1" stop-color="#965B31"/>
</linearGradient>
<linearGradient id="paint11_linear_3038_3805" x1="15.5255" y1="6.78989" x2="15.7548" y2="11.2508" gradientUnits="userSpaceOnUse">
<stop stop-color="#965B31"/>
<stop offset="0.5" stop-color="#F9AA57"/>
<stop offset="1" stop-color="#965B31"/>
</linearGradient>
<linearGradient id="paint12_linear_3038_3805" x1="13.594" y1="3.80343" x2="16.023" y2="7.55206" gradientUnits="userSpaceOnUse">
<stop stop-color="#965B31"/>
<stop offset="0.5" stop-color="#F9AA57"/>
<stop offset="1" stop-color="#965B31"/>
</linearGradient>
<linearGradient id="paint13_linear_3038_3805" x1="10.4276" y1="2.18227" x2="14.4055" y2="4.21418" gradientUnits="userSpaceOnUse">
<stop stop-color="#965B31"/>
<stop offset="0.5" stop-color="#F9AA57"/>
<stop offset="1" stop-color="#965B31"/>
</linearGradient>
<linearGradient id="paint14_linear_3038_3805" x1="-3.19215" y1="-0.0095668" x2="21.183" y2="24.3656" gradientUnits="userSpaceOnUse">
<stop stop-color="#965B31"/>
<stop offset="0.5" stop-color="#F9AA57"/>
<stop offset="1" stop-color="#965B31"/>
</linearGradient>
<linearGradient id="paint15_linear_3038_3805" x1="5.39745" y1="3.33799" x2="13.0392" y2="13.6776" gradientUnits="userSpaceOnUse">
<stop stop-color="#965B31"/>
<stop offset="0.5" stop-color="#F9AA57"/>
<stop offset="1" stop-color="#965B31"/>
</linearGradient>
<linearGradient id="paint16_linear_3038_3805" x1="12.4071" y1="14.4925" x2="8.02075" y2="6.82176" gradientUnits="userSpaceOnUse">
<stop stop-color="#3D1F00"/>
<stop offset="1" stop-color="#A55400"/>
</linearGradient>
</defs>
</svg>
