<svg width="20" height="22" viewBox="0 0 20 22" fill="none" xmlns="http://www.w3.org/2000/svg">
<path fill-rule="evenodd" clip-rule="evenodd" d="M4.94191 4.88889V6.11111H3.25651C2.70304 6.11123 2.16971 6.31186 1.76174 6.67342C1.35377 7.03498 1.1008 7.53122 1.05273 8.06422L0.00836232 19.6753C-0.0182699 19.9706 0.0188759 20.268 0.117443 20.5487C0.216011 20.8294 0.373848 21.0872 0.580942 21.3057C0.788036 21.5243 1.03986 21.6989 1.32045 21.8184C1.60104 21.9379 1.90426 21.9998 2.21088 22H17.7879C18.0946 21.9999 18.3979 21.9382 18.6787 21.8188C18.9594 21.6993 19.2114 21.5248 19.4186 21.3062C19.6259 21.0876 19.7838 20.8297 19.8825 20.549C19.9811 20.2682 20.0183 19.9707 19.9916 19.6753L18.9473 8.06422C18.8992 7.53101 18.646 7.0346 18.2378 6.67301C17.8296 6.31142 17.2959 6.11092 16.7422 6.11111H15.0568V4.88889C15.0568 3.59227 14.524 2.34877 13.5755 1.43192C12.6271 0.515078 11.3407 0 9.99937 0C8.65805 0 7.37166 0.515078 6.42321 1.43192C5.47475 2.34877 4.94191 3.59227 4.94191 4.88889ZM9.99937 1.83333C9.16104 1.83333 8.35705 2.15526 7.76427 2.72828C7.17148 3.30131 6.83846 4.07851 6.83846 4.88889V6.11111H13.1603V4.88889C13.1603 4.07851 12.8273 3.30131 12.2345 2.72828C11.6417 2.15526 10.8377 1.83333 9.99937 1.83333ZM6.83846 11C6.83846 11.8104 7.17148 12.5876 7.76427 13.1606C8.35705 13.7336 9.16104 14.0556 9.99937 14.0556C10.8377 14.0556 11.6417 13.7336 12.2345 13.1606C12.8273 12.5876 13.1603 11.8104 13.1603 11V9.47222C13.1603 9.22911 13.2602 8.99595 13.438 8.82404C13.6159 8.65213 13.8571 8.55556 14.1086 8.55556C14.36 8.55556 14.6012 8.65213 14.7791 8.82404C14.9569 8.99595 15.0568 9.22911 15.0568 9.47222V11C15.0568 12.2966 14.524 13.5401 13.5755 14.457C12.6271 15.3738 11.3407 15.8889 9.99937 15.8889C8.65805 15.8889 7.37166 15.3738 6.42321 14.457C5.47475 13.5401 4.94191 12.2966 4.94191 11V9.47222C4.94191 9.22911 5.04182 8.99595 5.21965 8.82404C5.39749 8.65213 5.63869 8.55556 5.89018 8.55556C6.14168 8.55556 6.38288 8.65213 6.56071 8.82404C6.73855 8.99595 6.83846 9.22911 6.83846 9.47222V11Z" fill="#9BA1A1"/>
</svg>
