<svg width="17" height="20" viewBox="0 0 17 20" fill="none" xmlns="http://www.w3.org/2000/svg">
<path d="M8 20C7.45 20 6.97933 19.8043 6.588 19.413C6.19667 19.0217 6.00067 18.5507 6 18H10C10 18.55 9.80433 19.021 9.413 19.413C9.02167 19.805 8.55067 20.0007 8 20ZM1 17C0.716667 17 0.479333 16.904 0.288 16.712C0.0966668 16.52 0.000666667 16.2827 0 16C0 15.7167 0.0960001 15.4793 0.288 15.288C0.48 15.0967 0.717333 15.0007 1 15H2V8C2 6.61667 2.41667 5.38767 3.25 4.313C4.08333 3.23833 5.16667 2.534 6.5 2.2V1.5C6.5 1.08333 6.646 0.729333 6.938 0.438C7.23 0.146667 7.584 0.000666667 8 0C8.41667 0 8.771 0.146 9.063 0.438C9.355 0.73 9.50067 1.084 9.5 1.5V1.825C9.33333 2.15833 9.20833 2.50833 9.125 2.875C9.04167 3.24167 9 3.61667 9 4C9 5.38333 9.48767 6.56267 10.463 7.538C11.4383 8.51333 12.6173 9.00067 14 9V15H15C15.2833 15 15.521 15.096 15.713 15.288C15.905 15.48 16.0007 15.7173 16 16C16 16.2833 15.904 16.521 15.712 16.713C15.52 16.905 15.2827 17.0007 15 17H1ZM14 7C13.1667 7 12.4583 6.70833 11.875 6.125C11.2917 5.54167 11 4.83333 11 4C11 3.16667 11.2917 2.45833 11.875 1.875C12.4583 1.29167 13.1667 1 14 1C14.8333 1 15.5417 1.29167 16.125 1.875C16.7083 2.45833 17 3.16667 17 4C17 4.83333 16.7083 5.54167 16.125 6.125C15.5417 6.70833 14.8333 7 14 7Z" fill="#E3AC14"/>
</svg>
