<svg width="24" height="25" viewBox="0 0 24 25" fill="none" xmlns="http://www.w3.org/2000/svg">
<path d="M3.795 14.1113L4.4955 15.4913C4.0155 15.9638 3.75 16.4783 3.75 17.0003C3.75 18.9293 7.3905 20.7503 12 20.7503C16.6095 20.7503 20.25 18.9293 20.25 17.0003C20.25 16.4783 19.983 15.9653 19.5045 15.4928L20.2185 14.1233C21.186 14.9333 21.75 15.9143 21.75 17.0003C21.75 20.0408 17.331 22.2503 12 22.2503C6.669 22.2503 2.25 20.0408 2.25 17.0003C2.25 15.9083 2.82 14.9243 3.795 14.1113Z" fill="#DBB13B"/>
<path d="M3.795 9.61133L4.4955 10.9913C4.0155 11.4653 3.75 11.9798 3.75 12.5003C3.75 14.4293 7.3905 16.2503 12 16.2503C16.6095 16.2503 20.25 14.4293 20.25 12.5003C20.25 11.9783 19.983 11.4653 19.5045 10.9928L20.2185 9.62333C21.186 10.4333 21.75 11.4143 21.75 12.5003C21.75 15.5408 17.331 17.7503 12 17.7503C6.669 17.7503 2.25 15.5408 2.25 12.5003C2.25 11.4083 2.82 10.4243 3.795 9.61133Z" fill="#DBB13B"/>
<path d="M12 13.25C6.669 13.25 2.25 11.0405 2.25 8C2.25 4.9595 6.669 2.75 12 2.75C17.331 2.75 21.75 4.9595 21.75 8C21.75 11.0405 17.331 13.25 12 13.25ZM12 11.75C16.6095 11.75 20.25 9.929 20.25 8C20.25 6.071 16.6095 4.25 12 4.25C7.3905 4.25 3.75 6.071 3.75 8C3.75 9.929 7.3905 11.75 12 11.75Z" fill="#DBB13B"/>
</svg>
