<svg width="20" height="21" viewBox="0 0 20 21" fill="none" xmlns="http://www.w3.org/2000/svg">
<g clip-path="url(#clip0_339_220)">
<path d="M17.9167 3.83307H15.6944V5.49974C15.6944 5.66024 15.6628 5.81918 15.6014 5.96746C15.54 6.11575 15.45 6.25049 15.3365 6.36398C15.223 6.47747 15.0882 6.5675 14.9399 6.62892C14.7917 6.69035 14.6327 6.72196 14.4722 6.72196C14.3117 6.72196 14.1528 6.69035 14.0045 6.62892C13.8562 6.5675 13.7215 6.47747 13.608 6.36398C13.4945 6.25049 13.4045 6.11575 13.343 5.96746C13.2816 5.81918 13.25 5.66024 13.25 5.49974V3.83307H6.77777V5.49974C6.77777 5.82389 6.649 6.13477 6.41979 6.36398C6.19058 6.59319 5.8797 6.72196 5.55555 6.72196C5.2314 6.72196 4.92052 6.59319 4.69131 6.36398C4.4621 6.13477 4.33333 5.82389 4.33333 5.49974V3.83307H2.1111C1.9789 3.83157 1.84773 3.85659 1.72536 3.90666C1.60299 3.95673 1.4919 4.03084 1.39867 4.12459C1.30543 4.21834 1.23195 4.32983 1.18256 4.45248C1.13316 4.57512 1.10887 4.70643 1.1111 4.83863V17.272C1.1089 17.4018 1.1323 17.5309 1.17996 17.6517C1.22763 17.7725 1.29863 17.8828 1.38892 17.9761C1.4792 18.0695 1.58699 18.1442 1.70614 18.1959C1.82529 18.2476 1.95346 18.2753 2.08333 18.2775H17.9167C18.0465 18.2753 18.1747 18.2476 18.2938 18.1959C18.413 18.1442 18.5208 18.0695 18.6111 17.9761C18.7014 17.8828 18.7724 17.7725 18.82 17.6517C18.8677 17.5309 18.8911 17.4018 18.8889 17.272V4.83863C18.8911 4.70876 18.8677 4.57973 18.82 4.45891C18.7724 4.33808 18.7014 4.22783 18.6111 4.13446C18.5208 4.04108 18.413 3.9664 18.2938 3.91469C18.1747 3.86298 18.0465 3.83524 17.9167 3.83307ZM5.55555 14.9442H4.44444V13.8331H5.55555V14.9442ZM5.55555 12.1664H4.44444V11.0553H5.55555V12.1664ZM5.55555 9.38863H4.44444V8.27752H5.55555V9.38863ZM8.88888 14.9442H7.77777V13.8331H8.88888V14.9442ZM8.88888 12.1664H7.77777V11.0553H8.88888V12.1664ZM8.88888 9.38863H7.77777V8.27752H8.88888V9.38863ZM12.2222 14.9442H11.1111V13.8331H12.2222V14.9442ZM12.2222 12.1664H11.1111V11.0553H12.2222V12.1664ZM12.2222 9.38863H11.1111V8.27752H12.2222V9.38863ZM15.5556 14.9442H14.4444V13.8331H15.5556V14.9442ZM15.5556 12.1664H14.4444V11.0553H15.5556V12.1664ZM15.5556 9.38863H14.4444V8.27752H15.5556V9.38863Z" fill="#ACACAC"/>
<path d="M5.55556 6.05577C5.7029 6.05577 5.84421 5.99724 5.94839 5.89305C6.05258 5.78887 6.11111 5.64756 6.11111 5.50022V2.16688C6.11111 2.01954 6.05258 1.87823 5.94839 1.77405C5.84421 1.66986 5.7029 1.61133 5.55556 1.61133C5.40821 1.61133 5.26691 1.66986 5.16272 1.77405C5.05853 1.87823 5 2.01954 5 2.16688V5.50022C5 5.64756 5.05853 5.78887 5.16272 5.89305C5.26691 5.99724 5.40821 6.05577 5.55556 6.05577Z" fill="#ACACAC"/>
<path d="M14.4445 6.05577C14.5918 6.05577 14.7331 5.99724 14.8373 5.89305C14.9415 5.78887 15 5.64756 15 5.50022V2.16688C15 2.01954 14.9415 1.87823 14.8373 1.77405C14.7331 1.66986 14.5918 1.61133 14.4445 1.61133C14.2971 1.61133 14.1558 1.66986 14.0516 1.77405C13.9474 1.87823 13.8889 2.01954 13.8889 2.16688V5.50022C13.8889 5.64756 13.9474 5.78887 14.0516 5.89305C14.1558 5.99724 14.2971 6.05577 14.4445 6.05577Z" fill="#ACACAC"/>
</g>
<defs>
<clipPath id="clip0_339_220">
<rect width="20" height="20" fill="white" transform="translate(0 0.5)"/>
</clipPath>
</defs>
</svg>
