<svg width="26" height="26" viewBox="0 0 26 26" fill="none" xmlns="http://www.w3.org/2000/svg">
<path d="M11.0469 5.57812V5.96875H14.9531V5.57812C14.9531 5.06012 14.7473 4.56334 14.3811 4.19706C14.0148 3.83078 13.518 3.625 13 3.625C12.482 3.625 11.9852 3.83078 11.6189 4.19706C11.2527 4.56334 11.0469 5.06012 11.0469 5.57812ZM9.48438 5.96875V5.57812C9.48438 4.64572 9.85477 3.75151 10.5141 3.0922C11.1734 2.4329 12.0676 2.0625 13 2.0625C13.9324 2.0625 14.8266 2.4329 15.4859 3.0922C16.1452 3.75151 16.5156 4.64572 16.5156 5.57812V5.96875H22.375C22.5822 5.96875 22.7809 6.05106 22.9274 6.19757C23.0739 6.34409 23.1562 6.5428 23.1562 6.75C23.1562 6.9572 23.0739 7.15591 22.9274 7.30243C22.7809 7.44894 22.5822 7.53125 22.375 7.53125H21.1969L19.7188 20.475C19.6098 21.4283 19.1537 22.3081 18.4376 22.9467C17.7215 23.5853 16.7954 23.938 15.8359 23.9375H10.1641C9.20458 23.938 8.27849 23.5853 7.56238 22.9467C6.84628 22.3081 6.39025 21.4283 6.28125 20.475L4.80312 7.53125H3.625C3.4178 7.53125 3.21909 7.44894 3.07257 7.30243C2.92606 7.15591 2.84375 6.9572 2.84375 6.75C2.84375 6.5428 2.92606 6.34409 3.07257 6.19757C3.21909 6.05106 3.4178 5.96875 3.625 5.96875H9.48438ZM11.4375 11.0469C11.4375 10.8397 11.3552 10.641 11.2087 10.4944C11.0622 10.3479 10.8635 10.2656 10.6562 10.2656C10.449 10.2656 10.2503 10.3479 10.1038 10.4944C9.95731 10.641 9.875 10.8397 9.875 11.0469V18.8594C9.875 19.0666 9.95731 19.2653 10.1038 19.4118C10.2503 19.5583 10.449 19.6406 10.6562 19.6406C10.8635 19.6406 11.0622 19.5583 11.2087 19.4118C11.3552 19.2653 11.4375 19.0666 11.4375 18.8594V11.0469ZM15.3438 10.2656C15.1365 10.2656 14.9378 10.3479 14.7913 10.4944C14.6448 10.641 14.5625 10.8397 14.5625 11.0469V18.8594C14.5625 19.0666 14.6448 19.2653 14.7913 19.4118C14.9378 19.5583 15.1365 19.6406 15.3438 19.6406C15.551 19.6406 15.7497 19.5583 15.8962 19.4118C16.0427 19.2653 16.125 19.0666 16.125 18.8594V11.0469C16.125 10.8397 16.0427 10.641 15.8962 10.4944C15.7497 10.3479 15.551 10.2656 15.3438 10.2656Z" fill="#DBB13B"/>
</svg>
