<svg width="25" height="25" viewBox="0 0 25 25" fill="none" xmlns="http://www.w3.org/2000/svg">
<path d="M5.54546 22H16.4545C17.1307 21.998 17.7784 21.711 18.2557 21.202C18.7329 20.6931 19.0006 20.0038 19 19.2854V13.4614C19 13.2564 18.9234 13.0599 18.787 12.915C18.6506 12.77 18.4656 12.6886 18.2727 12.6886C18.0798 12.6886 17.8949 12.77 17.7585 12.915C17.6221 13.0599 17.5455 13.2564 17.5455 13.4614V19.2854C17.5464 19.5941 17.4321 19.8905 17.2276 20.1097C17.0231 20.3289 16.745 20.4529 16.4545 20.4545H5.54546C5.25496 20.4529 4.97695 20.3289 4.77243 20.1097C4.5679 19.8905 4.45358 19.5941 4.45455 19.2854V7.71459C4.45358 7.40594 4.5679 7.10949 4.77243 6.8903C4.97695 6.67111 5.25496 6.54709 5.54546 6.54545H11C11.1929 6.54545 11.3779 6.46404 11.5143 6.31913C11.6507 6.17421 11.7273 5.97767 11.7273 5.77273C11.7273 5.56779 11.6507 5.37124 11.5143 5.22633C11.3779 5.08141 11.1929 5 11 5H5.54546C4.86931 5.00205 4.22155 5.28902 3.74433 5.79795C3.26711 6.30688 2.99942 6.99619 3 7.71459V19.2854C2.99942 20.0038 3.26711 20.6931 3.74433 21.202C4.22155 21.711 4.86931 21.998 5.54546 22Z" fill="#DBB13B"/>
<path d="M9.63652 11.214L9.01797 14.0505C8.98997 14.1792 8.99475 14.3128 9.03188 14.4391C9.06901 14.5654 9.13729 14.6804 9.23042 14.7734C9.32484 14.864 9.43969 14.9305 9.56525 14.9673C9.6908 15.004 9.82335 15.0099 9.95167 14.9845L12.7787 14.3637C12.9254 14.3314 13.0599 14.2576 13.1659 14.151L20.311 6.9977C20.5294 6.77905 20.7027 6.51946 20.8209 6.23376C20.9392 5.94806 21 5.64185 21 5.33261C21 5.02336 20.9392 4.71715 20.8209 4.43145C20.7027 4.14575 20.5294 3.88616 20.311 3.66751C19.8632 3.23908 19.2676 3 18.6482 3C18.0288 3 17.4332 3.23908 16.9854 3.66751L9.85132 10.8278C9.74425 10.9333 9.66969 11.0673 9.63652 11.214ZM18.0939 4.7781C18.2431 4.63505 18.4417 4.55519 18.6482 4.55519C18.8548 4.55519 19.0533 4.63505 19.2025 4.7781C19.3475 4.92615 19.4287 5.12524 19.4287 5.33261C19.4287 5.53997 19.3475 5.73906 19.2025 5.88711L18.6482 6.44201L17.5397 5.33221L18.0939 4.7781ZM11.1166 11.7744L16.4272 6.44437L17.5248 7.54867L12.2118 12.8803L10.8046 13.1895L11.1166 11.7744Z" fill="#DBB13B"/>
</svg>
