<svg width="25" height="25" viewBox="0 0 25 25" fill="none" xmlns="http://www.w3.org/2000/svg">
<path d="M12.5098 2.75C10.5814 2.75 8.69634 3.32183 7.09296 4.39317C5.48958 5.46451 4.2399 6.98726 3.50194 8.76884C2.76399 10.5504 2.57091 12.5108 2.94711 14.4021C3.32332 16.2934 4.25192 18.0307 5.61548 19.3943C6.97904 20.7579 8.71632 21.6865 10.6076 22.0627C12.499 22.4389 14.4594 22.2458 16.2409 21.5078C18.0225 20.7699 19.5453 19.5202 20.6166 17.9168C21.6879 16.3134 22.2598 14.4284 22.2598 12.5C22.257 9.91499 21.2289 7.43666 19.401 5.60878C17.5731 3.7809 15.0948 2.75278 12.5098 2.75ZM12.5098 20.75C10.8781 20.75 9.28302 20.2661 7.92632 19.3596C6.56961 18.4531 5.51219 17.1646 4.88776 15.6571C4.26334 14.1496 4.09996 12.4908 4.41829 10.8905C4.73662 9.29016 5.52236 7.82015 6.67614 6.66637C7.82992 5.51259 9.29993 4.72685 10.9003 4.40852C12.5006 4.09019 14.1594 4.25357 15.6669 4.87799C17.1744 5.50242 18.4629 6.55984 19.3694 7.91655C20.2759 9.27325 20.7598 10.8683 20.7598 12.5C20.7574 14.6873 19.8874 16.7843 18.3408 18.331C16.7941 19.8777 14.6971 20.7476 12.5098 20.75ZM13.19 16.1135C13.19 16.2618 13.146 16.4068 13.0636 16.5302C12.9812 16.6535 12.8641 16.7496 12.727 16.8064C12.59 16.8632 12.4392 16.878 12.2937 16.8491C12.1482 16.8202 12.0146 16.7487 11.9097 16.6438C11.8048 16.5389 11.7334 16.4053 11.7044 16.2598C11.6755 16.1143 11.6903 15.9635 11.7471 15.8265C11.8039 15.6894 11.9 15.5723 12.0233 15.4899C12.1467 15.4075 12.2917 15.3635 12.44 15.3635C12.5385 15.3635 12.636 15.3829 12.727 15.4206C12.818 15.4583 12.9007 15.5135 12.9704 15.5832C13.04 15.6528 13.0952 15.7355 13.1329 15.8265C13.1706 15.9175 13.19 16.015 13.19 16.1135ZM15.2045 10.7053C15.1683 11.2137 15.0207 11.7079 14.7723 12.153C14.5238 12.5981 14.1806 12.9831 13.7668 13.2808C13.5553 13.475 13.2013 13.7998 13.1878 13.922C13.1663 14.1065 13.0782 14.2768 12.9402 14.4011C12.8021 14.5253 12.6235 14.595 12.4378 14.597C12.4145 14.597 12.392 14.597 12.368 14.597C12.1741 14.5807 11.9944 14.4886 11.868 14.3406C11.7416 14.1925 11.6787 14.0006 11.693 13.8065C11.8201 13.1454 12.2003 12.56 12.7528 12.1753C13.328 11.6503 13.7053 11.2603 13.7053 10.7053C13.7053 9.91625 13.0243 9.6365 12.4408 9.6365C11.7455 9.6365 11.2963 10.0115 11.2963 10.595C11.2963 10.7939 11.2173 10.9847 11.0766 11.1253C10.9359 11.266 10.7452 11.345 10.5463 11.345C10.3474 11.345 10.1566 11.266 10.0159 11.1253C9.87529 10.9847 9.79627 10.7939 9.79627 10.595C9.79773 10.2566 9.86857 9.92209 10.0044 9.61215C10.1403 9.30222 10.3382 9.02342 10.5861 8.79301C10.8339 8.5626 11.1264 8.38546 11.4454 8.27254C11.7644 8.15962 12.1032 8.11332 12.4408 8.1365C12.7936 8.11186 13.1478 8.15993 13.4814 8.27775C13.8149 8.39557 14.1207 8.58062 14.3798 8.82144C14.6389 9.06226 14.8458 9.35372 14.9876 9.67776C15.1295 10.0018 15.2033 10.3515 15.2045 10.7053Z" fill="#DBB13B"/>
</svg>
