<svg width="89" height="22" viewBox="0 0 89 22" fill="none" xmlns="http://www.w3.org/2000/svg">
<rect y="0.5" width="89" height="21" rx="10" fill="#DBB13B"/>
<path d="M35.7407 8.668C35.5167 8.25733 35.2087 7.94467 34.8167 7.73C34.4247 7.51533 33.9674 7.408 33.4447 7.408C32.866 7.408 32.3527 7.53867 31.9047 7.8C31.4567 8.06133 31.1067 8.43467 30.8547 8.92C30.6027 9.40533 30.4767 9.96533 30.4767 10.6C30.4767 11.2533 30.6027 11.8227 30.8547 12.308C31.116 12.7933 31.4754 13.1667 31.9327 13.428C32.39 13.6893 32.922 13.82 33.5287 13.82C34.2754 13.82 34.8867 13.624 35.3627 13.232C35.8387 12.8307 36.1514 12.2753 36.3007 11.566H32.9407V10.068H38.2327V11.776C38.102 12.4573 37.822 13.0873 37.3927 13.666C36.9634 14.2447 36.408 14.7113 35.7267 15.066C35.0547 15.4113 34.2987 15.584 33.4587 15.584C32.516 15.584 31.662 15.374 30.8967 14.954C30.1407 14.5247 29.5434 13.932 29.1047 13.176C28.6754 12.42 28.4607 11.5613 28.4607 10.6C28.4607 9.63867 28.6754 8.78 29.1047 8.024C29.5434 7.25867 30.1407 6.666 30.8967 6.246C31.662 5.81667 32.5114 5.602 33.4447 5.602C34.546 5.602 35.5027 5.87267 36.3147 6.414C37.1267 6.946 37.6867 7.69733 37.9947 8.668H35.7407ZM43.1268 15.626C42.3801 15.626 41.7081 15.4627 41.1108 15.136C40.5135 14.8 40.0421 14.3287 39.6968 13.722C39.3608 13.1153 39.1928 12.4153 39.1928 11.622C39.1928 10.8287 39.3655 10.1287 39.7108 9.522C40.0655 8.91533 40.5461 8.44867 41.1528 8.122C41.7595 7.786 42.4361 7.618 43.1828 7.618C43.9295 7.618 44.6061 7.786 45.2128 8.122C45.8195 8.44867 46.2955 8.91533 46.6408 9.522C46.9955 10.1287 47.1728 10.8287 47.1728 11.622C47.1728 12.4153 46.9908 13.1153 46.6268 13.722C46.2721 14.3287 45.7868 14.8 45.1708 15.136C44.5641 15.4627 43.8828 15.626 43.1268 15.626ZM43.1268 13.918C43.4815 13.918 43.8128 13.834 44.1208 13.666C44.4381 13.4887 44.6901 13.2273 44.8768 12.882C45.0635 12.5367 45.1568 12.1167 45.1568 11.622C45.1568 10.8847 44.9608 10.32 44.5688 9.928C44.1861 9.52667 43.7148 9.326 43.1548 9.326C42.5948 9.326 42.1235 9.52667 41.7408 9.928C41.3675 10.32 41.1808 10.8847 41.1808 11.622C41.1808 12.3593 41.3628 12.9287 41.7268 13.33C42.1001 13.722 42.5668 13.918 43.1268 13.918ZM50.5705 5.14V15.5H48.6105V5.14H50.5705ZM52.003 11.594C52.003 10.81 52.157 10.1147 52.465 9.508C52.7823 8.90133 53.2117 8.43467 53.753 8.108C54.2943 7.78133 54.8963 7.618 55.559 7.618C56.063 7.618 56.5437 7.73 57.001 7.954C57.4583 8.16867 57.8223 8.458 58.093 8.822V5.14H60.081V15.5H58.093V14.352C57.8503 14.7347 57.5097 15.0427 57.071 15.276C56.6323 15.5093 56.1237 15.626 55.545 15.626C54.8917 15.626 54.2943 15.458 53.753 15.122C53.2117 14.786 52.7823 14.3147 52.465 13.708C52.157 13.092 52.003 12.3873 52.003 11.594ZM58.107 11.622C58.107 11.146 58.0137 10.74 57.827 10.404C57.6403 10.0587 57.3883 9.79733 57.071 9.62C56.7537 9.43333 56.413 9.34 56.049 9.34C55.685 9.34 55.349 9.42867 55.041 9.606C54.733 9.78333 54.481 10.0447 54.285 10.39C54.0983 10.726 54.005 11.1273 54.005 11.594C54.005 12.0607 54.0983 12.4713 54.285 12.826C54.481 13.1713 54.733 13.4373 55.041 13.624C55.3583 13.8107 55.6943 13.904 56.049 13.904C56.413 13.904 56.7537 13.8153 57.071 13.638C57.3883 13.4513 57.6403 13.19 57.827 12.854C58.0137 12.5087 58.107 12.098 58.107 11.622Z" fill="white"/>
</svg>
