<svg width="22" height="22" viewBox="0 0 22 22" fill="none" xmlns="http://www.w3.org/2000/svg">
<path d="M12.5488 0.495064C12.1095 0.174634 11.5632 0 11 0C10.4368 0 9.89048 0.174634 9.4512 0.495064L0.9262 6.71291C0.637134 6.92377 0.403839 7.19096 0.243532 7.49475C0.0832253 7.79855 5.16183e-07 8.1312 0 8.46815V19.7497C0 20.3465 0.260758 20.9189 0.724911 21.3409C1.18906 21.7629 1.81859 22 2.475 22H5.225C5.88141 22 6.51094 21.7629 6.97509 21.3409C7.43924 20.9189 7.7 20.3465 7.7 19.7497V14.2489C7.7 13.5588 8.316 12.9988 9.075 12.9988H12.925C13.684 12.9988 14.3 13.5588 14.3 14.2489V19.7497C14.3 20.3465 14.5608 20.9189 15.0249 21.3409C15.4891 21.7629 16.1186 22 16.775 22H19.525C20.1814 22 20.8109 21.7629 21.2751 21.3409C21.7392 20.9189 22 20.3465 22 19.7497V8.46815C22 8.1312 21.9168 7.79855 21.7565 7.49475C21.5962 7.19096 21.3629 6.92377 21.0738 6.71291L12.5488 0.495064Z" fill="#9BA1A1"/>
</svg>
