<svg width="17" height="17" viewBox="0 0 17 17" fill="none" xmlns="http://www.w3.org/2000/svg">
<path d="M0.186775 0.675474C0.0788084 0.777066 0.0131638 0.911751 0.00177663 1.05504C-0.00961049 1.19833 0.0340161 1.34071 0.124724 1.45628L0.186775 1.52349L3.61571 4.75153C1.94377 5.85444 0.750233 7.4876 0.253925 9.35159C0.215657 9.50503 0.243077 9.66649 0.33026 9.80106C0.417443 9.93563 0.557387 10.0325 0.719846 10.0708C0.882306 10.109 1.05423 10.0856 1.19847 10.0055C1.34271 9.9254 1.44768 9.79512 1.49069 9.64279C1.93176 7.98837 3.01807 6.55071 4.53372 5.61554L6.07224 7.06356C5.45767 7.66796 5.11903 8.47484 5.12883 9.31137C5.13863 10.1479 5.49611 10.9475 6.12468 11.539C6.75326 12.1305 7.60295 12.4668 8.49176 12.4759C9.38057 12.485 10.2378 12.1661 10.8799 11.5876L15.9111 16.3237C16.0248 16.431 16.1776 16.4939 16.3385 16.4996C16.4995 16.5053 16.6568 16.4534 16.7788 16.3544C16.9008 16.2554 16.9785 16.1166 16.9961 15.9659C17.0138 15.8152 16.9702 15.6638 16.8741 15.5421L16.8121 15.4749L11.616 10.5836L11.6168 10.582L5.70928 5.02513L5.71098 5.02353L4.74792 4.11952L1.08778 0.675474C0.968251 0.563113 0.806219 0.5 0.637279 0.5C0.468339 0.5 0.306307 0.563113 0.186775 0.675474ZM8.49986 3.29951C7.64985 3.29951 6.82534 3.41791 6.04419 3.63951L7.09565 4.62833C8.91428 4.28941 10.8018 4.62119 12.3678 5.55508C13.9339 6.48897 15.0588 7.95354 15.5099 9.64599C15.5539 9.79714 15.659 9.92607 15.8028 10.0052C15.9465 10.0843 16.1174 10.1074 16.279 10.0695C16.4406 10.0315 16.58 9.93561 16.6674 9.8022C16.7547 9.66879 16.7832 9.50849 16.7466 9.35559C16.2857 7.62553 15.2239 6.08999 13.7298 4.99279C12.2357 3.89559 10.395 3.29962 8.49986 3.29951ZM8.66561 6.10755L11.8965 9.14758C11.8547 8.35389 11.5009 7.60318 10.9038 7.04134C10.3066 6.4795 9.50892 6.14667 8.66561 6.10755Z" fill="#ACACAC"/>
</svg>
