<svg width="17" height="17" viewBox="0 0 17 17" fill="none" xmlns="http://www.w3.org/2000/svg">
<path d="M16.5318 8.61199C16.5315 9.94012 16.2019 11.2474 15.5725 12.417C14.9431 13.5865 14.0336 14.5817 12.9252 15.3135C11.8169 16.0453 10.5444 16.4908 9.22167 16.6103C7.89893 16.7297 6.56721 16.5193 5.34572 15.9979C4.12424 15.4765 3.0511 14.6603 2.22238 13.6224C1.39365 12.5846 0.835207 11.3575 0.597024 10.0509C0.358841 8.74427 0.448356 7.39901 0.857556 6.13549C1.26676 4.87198 1.98287 3.72964 2.9418 2.81074C3.08536 2.673 3.27777 2.59792 3.47668 2.60204C3.6756 2.60615 3.86474 2.68911 4.00248 2.83268C4.14023 2.97624 4.21531 3.16865 4.21119 3.36757C4.20708 3.56648 4.12411 3.75562 3.98055 3.89337C3.03898 4.79542 2.38891 5.9586 2.114 7.23323C1.8391 8.50785 1.95193 9.83558 2.43799 11.0455C2.92404 12.2555 3.76108 13.2923 4.84136 14.0225C5.92164 14.7527 7.19574 15.143 8.49967 15.143C9.80361 15.143 11.0777 14.7527 12.158 14.0225C13.2383 13.2923 14.0753 12.2555 14.5614 11.0455C15.0474 9.83558 15.1602 8.50785 14.8853 7.23323C14.6104 5.9586 13.9604 4.79542 13.0188 3.89337C12.8752 3.75562 12.7923 3.56648 12.7882 3.36757C12.784 3.16865 12.8591 2.97624 12.9969 2.83268C13.1346 2.68911 13.3237 2.60615 13.5227 2.60204C13.7216 2.59792 13.914 2.673 14.0575 2.81074C14.843 3.55856 15.4676 4.45881 15.893 5.45638C16.3184 6.45396 16.5358 7.52749 16.5318 8.61199ZM8.4993 9.64174C8.69821 9.64174 8.88898 9.56273 9.02963 9.42207C9.17028 9.28142 9.2493 9.09065 9.2493 8.89174V1.10449C9.2493 0.90558 9.17028 0.714814 9.02963 0.574162C8.88898 0.43351 8.69821 0.354492 8.4993 0.354492C8.30039 0.354492 8.10962 0.43351 7.96897 0.574162C7.82832 0.714814 7.7493 0.90558 7.7493 1.10449V8.89174C7.7493 9.09065 7.82832 9.28142 7.96897 9.42207C8.10962 9.56273 8.30039 9.64174 8.4993 9.64174Z" fill="#DBB13B"/>
</svg>
