<svg width="232" height="197" viewBox="0 0 232 197" fill="none" xmlns="http://www.w3.org/2000/svg">
<g clip-path="url(#clip0_3273_1139)">
<path fill-rule="evenodd" clip-rule="evenodd" d="M47.447 162.722C47.447 164.452 48.2574 166.112 49.6974 167.336C51.1389 168.559 53.0938 169.247 55.1308 169.247H190.073C192.111 169.247 194.066 168.559 195.506 167.336C196.948 166.112 197.757 164.452 197.757 162.722H203.934C205.971 162.722 207.926 162.034 209.366 160.81C210.807 159.588 211.618 157.927 211.618 156.198V156.197C211.618 154.467 210.807 152.807 209.366 151.583C207.926 150.36 205.971 149.672 203.934 149.672H28.0657C26.0272 149.672 24.0737 150.36 22.6322 151.583C21.1923 152.807 20.3818 154.467 20.3818 156.197V156.198C20.3818 157.927 21.1923 159.588 22.6322 160.81C24.0737 162.034 26.0272 162.722 28.0657 162.722H47.447Z" fill="#EFEFEF"/>
<path fill-rule="evenodd" clip-rule="evenodd" d="M55.0671 167.471C55.0671 169.2 55.8775 170.86 57.3175 172.084C58.759 173.307 60.714 173.995 62.7509 173.995H197.693C199.731 173.995 201.686 173.307 203.126 172.084C204.568 170.86 205.377 169.2 205.377 167.471H211.554C213.591 167.471 215.546 166.782 216.986 165.558C218.428 164.336 219.238 162.676 219.238 160.946V160.945C219.238 159.215 218.428 157.555 216.986 156.331C215.546 155.108 213.591 154.42 211.554 154.42H35.6858C33.6473 154.42 31.6939 155.108 30.2524 156.331C28.8124 157.555 28.002 159.215 28.002 160.945V160.946C28.002 162.676 28.8124 164.336 30.2524 165.558C31.6939 166.782 33.6473 167.471 35.6858 167.471H55.0671Z" stroke="#ACACAC" stroke-width="2" stroke-miterlimit="3" stroke-linecap="round"/>
<path fill-rule="evenodd" clip-rule="evenodd" d="M5.6746 118.592H178.744C179.597 118.592 180.29 118.003 180.29 117.278C180.29 116.553 179.597 115.965 178.744 115.965H5.6746C4.82084 115.965 4.12793 116.553 4.12793 117.278C4.12793 118.003 4.82084 118.592 5.6746 118.592Z" fill="#EFEFEF"/>
<path fill-rule="evenodd" clip-rule="evenodd" d="M201.942 118.592H215.4C216.253 118.592 216.946 118.003 216.946 117.278C216.946 116.553 216.253 115.965 215.4 115.965H201.942C201.088 115.965 200.396 116.553 200.396 117.278C200.396 118.003 201.088 118.592 201.942 118.592Z" fill="#EFEFEF"/>
<path fill-rule="evenodd" clip-rule="evenodd" d="M27.3404 103.611H222.793C224.939 103.611 226.998 102.887 228.517 101.597C230.036 100.308 230.888 98.5593 230.888 96.7359C230.888 96.7359 230.888 96.7357 230.888 96.7354C230.888 94.9121 230.036 93.1634 228.517 91.8741C226.998 90.5848 224.939 89.8604 222.793 89.8604C219.453 89.8604 216.089 89.8604 216.089 89.8604C215.236 89.8604 214.543 90.4489 214.543 91.1737C214.543 91.8985 215.236 92.487 216.089 92.487C216.089 92.487 219.453 92.487 222.793 92.487C224.118 92.487 225.391 92.9346 226.33 93.7314C227.269 94.5281 227.795 95.6087 227.795 96.7354V96.7359C227.795 97.8626 227.269 98.9432 226.33 99.74C225.391 100.537 224.118 100.984 222.793 100.984H27.3404C26.4866 100.984 25.7937 101.573 25.7937 102.298C25.7937 103.022 26.4866 103.611 27.3404 103.611ZM217.126 130.946H21.3826C20.5288 130.946 19.8359 131.534 19.8359 132.259C19.8359 132.984 20.5288 133.573 21.3826 133.573H217.126C220.046 133.573 222.414 135.583 222.414 138.063C222.414 140.544 220.046 142.554 217.126 142.554H210.13C209.276 142.554 208.583 143.143 208.583 143.868C208.583 144.591 209.276 145.181 210.13 145.181H217.126C221.755 145.181 225.507 141.994 225.507 138.063C225.507 134.132 221.755 130.946 217.126 130.946Z" fill="#EFEFEF"/>
<path d="M192.261 84.8189L89.4814 77.1104L79.1022 152.771L181.882 160.479L192.261 84.8189Z" fill="#686F6F"/>
<path d="M192.261 84.8189L89.4814 77.1104L79.1022 152.771L181.882 160.479L192.261 84.8189Z" fill="black" fill-opacity="0.2"/>
<path d="M191.639 84.8039L150.566 81.7197L171.849 60.0089L212.922 63.0931L191.639 84.8039Z" fill="#3E4141"/>
<path d="M44.2671 74.0822L150.565 81.7637L135.368 57.3249L29.0693 49.6434L44.2671 74.0822Z" fill="#9BA1A1"/>
<path d="M150.567 81.7788L47.7881 74.0703L37.4088 149.731L140.188 157.439L150.567 81.7788Z" fill="#ACACAC"/>
<path fill-rule="evenodd" clip-rule="evenodd" d="M59.6498 78.8958C64.9318 83.1581 67.8721 89.5825 66.9544 96.4992C65.4286 107.998 53.808 116.561 40.9499 115.713L45.9727 77.8574L59.6498 78.8958Z" fill="#39917D"/>
<path fill-rule="evenodd" clip-rule="evenodd" d="M78.7335 131.339C78.8613 130.413 78.0985 129.598 77.0296 129.518C71.4514 129.102 55.3846 127.903 49.8065 127.487C48.7376 127.407 47.7675 128.094 47.6396 129.02C47.1808 132.343 46.1607 139.733 45.7019 143.056C45.5741 143.982 46.3369 144.798 47.4058 144.877C52.984 145.294 69.0508 146.492 74.6289 146.908C75.6978 146.988 76.6679 146.302 76.7958 145.376C77.2546 142.052 78.2746 134.663 78.7335 131.339Z" fill="white"/>
<path d="M170.305 79.3398H169.377V155.293H170.305V79.3398Z" fill="#015E5E"/>
<path d="M44.792 111.48C56.2751 111.48 65.584 102.46 65.584 91.332C65.584 80.2043 56.2751 71.1836 44.792 71.1836C33.3089 71.1836 24 80.2043 24 91.332C24 102.46 33.3089 111.48 44.792 111.48Z" fill="#FC743E"/>
<path d="M46.48 87.58C46.0267 86.78 45.3333 86.38 44.4 86.38C43.4667 86.38 42.7733 86.78 42.32 87.58C41.8667 88.38 41.64 89.7533 41.64 91.7C41.64 93.6467 41.8667 95.02 42.32 95.82C42.7733 96.62 43.4667 97.02 44.4 97.02C45.3333 97.02 46.0267 96.62 46.48 95.82C46.9333 95.02 47.16 93.6467 47.16 91.7C47.16 89.7533 46.9333 88.38 46.48 87.58ZM48.6 97.42C47.68 98.6067 46.28 99.2 44.4 99.2C42.52 99.2 41.1133 98.6067 40.18 97.42C39.26 96.2333 38.8 94.3267 38.8 91.7C38.8 89.0733 39.26 87.1667 40.18 85.98C41.1133 84.7933 42.52 84.2 44.4 84.2C46.28 84.2 47.68 84.7933 48.6 85.98C49.5333 87.1667 50 89.0733 50 91.7C50 94.3267 49.5333 96.2333 48.6 97.42Z" fill="white"/>
</g>
<defs>
<clipPath id="clip0_3273_1139">
<rect width="232" height="197" fill="white"/>
</clipPath>
</defs>
</svg>
