<svg width="50" height="51" viewBox="0 0 50 51" fill="none" xmlns="http://www.w3.org/2000/svg">
<g clip-path="url(#clip0_339_1265)">
<path fill-rule="evenodd" clip-rule="evenodd" d="M35.4173 4.66699C36.5224 4.66699 37.5822 5.10598 38.3636 5.88738C39.145 6.66878 39.584 7.72859 39.584 8.83366V42.167C40.1365 42.167 40.6664 42.3865 41.0571 42.7772C41.4478 43.1679 41.6673 43.6978 41.6673 44.2503C41.6673 44.8029 41.4478 45.3328 41.0571 45.7235C40.6664 46.1142 40.1365 46.3337 39.584 46.3337H10.4173C9.86478 46.3337 9.33488 46.1142 8.94418 45.7235C8.55348 45.3328 8.33398 44.8029 8.33398 44.2503C8.33398 43.6978 8.55348 43.1679 8.94418 42.7772C9.33488 42.3865 9.86478 42.167 10.4173 42.167V8.83366C10.4173 7.72859 10.8563 6.66878 11.6377 5.88738C12.4191 5.10598 13.4789 4.66699 14.584 4.66699H35.4173ZM27.084 27.5837H22.9173C22.3648 27.5837 21.8349 27.8032 21.4442 28.1939C21.0535 28.5846 20.834 29.1145 20.834 29.667V42.167H29.1673V29.667C29.1673 29.1145 28.9478 28.5846 28.5571 28.1939C28.1664 27.8032 27.6365 27.5837 27.084 27.5837ZM20.834 19.2503C20.2814 19.2503 19.7515 19.4698 19.3608 19.8605C18.9701 20.2512 18.7506 20.7811 18.7506 21.3337C18.7506 21.8862 18.9701 22.4161 19.3608 22.8068C19.7515 23.1975 20.2814 23.417 20.834 23.417C21.3865 23.417 21.9164 23.1975 22.3071 22.8068C22.6978 22.4161 22.9173 21.8862 22.9173 21.3337C22.9173 20.7811 22.6978 20.2512 22.3071 19.8605C21.9164 19.4698 21.3865 19.2503 20.834 19.2503ZM29.1673 19.2503C28.6148 19.2503 28.0849 19.4698 27.6942 19.8605C27.3035 20.2512 27.084 20.7811 27.084 21.3337C27.084 21.8862 27.3035 22.4161 27.6942 22.8068C28.0849 23.1975 28.6148 23.417 29.1673 23.417C29.7198 23.417 30.2498 23.1975 30.6405 22.8068C31.0312 22.4161 31.2506 21.8862 31.2506 21.3337C31.2506 20.7811 31.0312 20.2512 30.6405 19.8605C30.2498 19.4698 29.7198 19.2503 29.1673 19.2503ZM20.834 13.0003C20.2814 13.0003 19.7515 13.2198 19.3608 13.6105C18.9701 14.0012 18.7506 14.5311 18.7506 15.0837C18.7506 15.6362 18.9701 16.1661 19.3608 16.5568C19.7515 16.9475 20.2814 17.167 20.834 17.167C21.3865 17.167 21.9164 16.9475 22.3071 16.5568C22.6978 16.1661 22.9173 15.6362 22.9173 15.0837C22.9173 14.5311 22.6978 14.0012 22.3071 13.6105C21.9164 13.2198 21.3865 13.0003 20.834 13.0003ZM29.1673 13.0003C28.6148 13.0003 28.0849 13.2198 27.6942 13.6105C27.3035 14.0012 27.084 14.5311 27.084 15.0837C27.084 15.6362 27.3035 16.1661 27.6942 16.5568C28.0849 16.9475 28.6148 17.167 29.1673 17.167C29.7198 17.167 30.2498 16.9475 30.6405 16.5568C31.0312 16.1661 31.2506 15.6362 31.2506 15.0837C31.2506 14.5311 31.0312 14.0012 30.6405 13.6105C30.2498 13.2198 29.7198 13.0003 29.1673 13.0003Z" fill="#DBB13B"/>
</g>
<defs>
<clipPath id="clip0_339_1265">
<rect width="50" height="50" fill="white" transform="translate(0 0.5)"/>
</clipPath>
</defs>
</svg>
