<svg width="25" height="25" viewBox="0 0 25 25" fill="none" xmlns="http://www.w3.org/2000/svg">
<path d="M11 2C8.525 2 6.5 4.025 6.5 6.5V9.5C5.225 9.5 4.25 10.475 4.25 11.75V16.25C4.25 18.05 4.925 19.775 6.2 21.05C7.475 22.325 9.2 23 11 23C14.225 23 16.925 20.75 17.6 17.75H17.75C18.575 17.75 19.325 17.45 19.85 16.85C20.45 16.25 20.75 15.5 20.75 14.75C20.75 14 20.45 13.175 19.85 12.65C19.25 12.125 18.575 11.75 17.75 11.75C17.75 10.475 16.775 9.5 15.5 9.5V6.5C15.5 4.025 13.475 2 11 2ZM18.8 13.7C19.1 14 19.25 14.375 19.25 14.75C19.25 15.125 19.1 15.5 18.8 15.8C18.425 16.175 17.825 16.325 17.225 16.175C16.625 15.95 16.25 15.425 16.25 14.75C16.25 14.375 16.4 14 16.7 13.7C16.85 13.55 17.075 13.4 17.3 13.325C17.45 13.25 17.6 13.25 17.75 13.25C18.125 13.25 18.5 13.4 18.8 13.7ZM16.25 11.75V12.2C16.025 12.35 15.8 12.5 15.65 12.65C15.275 13.025 14.975 13.475 14.9 14H8C7.55 14 7.25 14.3 7.25 14.75V16.25C7.25 16.7 7.55 17 8 17C8.45 17 8.75 16.7 8.75 16.25V15.5H10.25V16.25C10.25 16.7 10.55 17 11 17C11.45 17 11.75 16.7 11.75 16.25V15.5H14.825C15.05 16.25 15.5 16.85 16.1 17.3C15.65 19.7 13.55 21.5 11 21.5C9.575 21.5 8.3 20.975 7.25 20C6.275 19.025 5.75 17.675 5.75 16.25V11.75C5.75 11.3 6.05 11 6.5 11H15.5C15.95 11 16.25 11.3 16.25 11.75ZM8 9.5V6.5C8 4.85 9.35 3.5 11 3.5C12.65 3.5 14 4.85 14 6.5V9.5H8Z" fill="#DBB13B"/>
</svg>
