<svg width="45" height="43" viewBox="0 0 45 43" fill="none" xmlns="http://www.w3.org/2000/svg">
<path d="M33.5 33.5938H23.875C23.328 33.5937 22.8034 33.8061 22.4166 34.1841C22.0298 34.5621 21.8125 35.0748 21.8125 35.6094C21.8125 36.144 22.0298 36.6566 22.4166 37.0346C22.8034 37.4126 23.328 37.625 23.875 37.625H33.5C34.047 37.625 34.5716 37.4126 34.9584 37.0346C35.3452 36.6566 35.5625 36.144 35.5625 35.6094C35.5625 35.0748 35.3452 34.5621 34.9584 34.1841C34.5716 33.8061 34.047 33.5938 33.5 33.5938ZM33.5 36.2812H23.875C23.6927 36.2812 23.5178 36.2105 23.3889 36.0845C23.2599 35.9585 23.1875 35.7876 23.1875 35.6094C23.1875 35.4312 23.2599 35.2603 23.3889 35.1343C23.5178 35.0083 23.6927 34.9375 23.875 34.9375H33.5C33.6823 34.9375 33.8572 35.0083 33.9861 35.1343C34.1151 35.2603 34.1875 35.4312 34.1875 35.6094C34.1875 35.7876 34.1151 35.9585 33.9861 36.0845C33.8572 36.2105 33.6823 36.2812 33.5 36.2812Z" fill="#DBB13B"/>
<path d="M40.3434 31.5042C40.3248 31.3398 40.2447 31.1879 40.1186 31.0776C39.9926 30.9672 39.8293 30.9062 39.66 30.9062H38.3125V28.8906C38.3125 28.7124 38.2401 28.5415 38.1111 28.4155C37.9822 28.2895 37.8073 28.2188 37.625 28.2188H36.9375V27.5469C36.937 27.1301 36.8046 26.7237 36.5584 26.3834C36.3122 26.0432 35.9643 25.7856 35.5625 25.6461V23.3477C35.5621 22.8577 35.3628 22.388 35.0083 22.0416C34.6539 21.6951 34.1732 21.5004 33.6719 21.5H33.3281C33.1914 21.4998 33.0604 21.4467 32.9637 21.3522C32.8671 21.2577 32.8127 21.1297 32.8125 20.9961V20.5762C32.8118 19.9304 32.549 19.3114 32.0818 18.8548C31.6145 18.3982 30.9811 18.1413 30.3203 18.1406H29.375C29.1927 18.1406 29.0178 18.2114 28.8889 18.3374C28.7599 18.4634 28.6875 18.6343 28.6875 18.8125V21.1641C28.6875 21.3846 28.643 21.6031 28.5567 21.8069C28.4703 22.0106 28.3437 22.1958 28.1841 22.3518C28.0245 22.5078 27.835 22.6315 27.6265 22.7159C27.418 22.8003 27.1945 22.8438 26.9688 22.8438H23.875C23.328 22.8438 22.8034 23.0561 22.4166 23.4341C22.0298 23.8121 21.8125 24.3248 21.8125 24.8594V25.6461C21.4107 25.7856 21.0628 26.0432 20.8166 26.3834C20.5704 26.7237 20.438 27.1301 20.4375 27.5469V28.2188H19.75C19.5677 28.2188 19.3928 28.2895 19.2639 28.4155C19.1349 28.5415 19.0625 28.7124 19.0625 28.8906V30.9062H18.3475C18.1782 30.9062 18.0149 30.9672 17.8889 31.0776C17.7628 31.1879 17.6827 31.3398 17.6641 31.5042L17 37.3495V16.7969C17 16.6187 16.9276 16.4478 16.7986 16.3218C16.6697 16.1958 16.4948 16.125 16.3125 16.125H15.625V12.0938C15.6254 12.0486 15.6208 12.0035 15.6112 11.9594L14.9237 8.6C14.8921 8.44824 14.8077 8.31185 14.6849 8.2139C14.5621 8.11595 14.4085 8.06247 14.25 8.0625H13.5625V5.375H15.625C15.8073 5.375 15.9822 5.30421 16.1111 5.17821C16.2401 5.05221 16.3125 4.88132 16.3125 4.70312V2.01562C16.3125 1.83743 16.2401 1.66654 16.1111 1.54054C15.9822 1.41454 15.8073 1.34375 15.625 1.34375H10.8125C10.7249 1.34378 10.6382 1.35997 10.5568 1.39145L7.11925 2.7352C6.9917 2.78516 6.88239 2.87133 6.80543 2.98258C6.72847 3.09384 6.68739 3.22508 6.6875 3.35938V8.0625H6C5.84151 8.06247 5.68788 8.11595 5.5651 8.2139C5.44232 8.31185 5.35795 8.44824 5.32625 8.6L4.63875 11.9594C4.62919 12.0035 4.62458 12.0486 4.625 12.0938V16.125H3.9375C3.75516 16.125 3.5803 16.1958 3.45136 16.3218C3.32243 16.4478 3.25 16.6187 3.25 16.7969V39.6406C3.25 40.1752 3.4673 40.6879 3.85409 41.0659C4.24089 41.4439 4.76549 41.6562 5.3125 41.6562H14.9375C15.4845 41.6562 16.0091 41.4439 16.3959 41.0659C16.7827 40.6879 17 40.1752 17 39.6406V38.5952C17.1199 39.293 17.4339 39.9452 17.9075 40.4805C18.2142 40.8401 18.5964 41.1311 19.0281 41.334C19.4598 41.5368 19.9311 41.6467 20.41 41.6562H37.5975C38.0764 41.6467 38.5477 41.5368 38.9794 41.334C39.4111 41.1311 39.7933 40.8401 40.1 40.4805C40.457 40.0835 40.7244 39.6174 40.8848 39.1127C41.0452 38.608 41.0949 38.0759 41.0309 37.5511L40.3434 31.5042ZM8.0625 3.81423L10.9445 2.6875H14.9375V4.03125H12.875C12.6927 4.03125 12.5178 4.10204 12.3889 4.22804C12.2599 4.35404 12.1875 4.52493 12.1875 4.70312V8.0625H8.0625V3.81423ZM6 12.1609L6.56375 9.40625H13.6863L14.25 12.1609V16.125H6V12.1609ZM15.625 39.6406C15.625 39.8188 15.5526 39.9897 15.4236 40.1157C15.2947 40.2417 15.1198 40.3125 14.9375 40.3125H5.3125C5.13016 40.3125 4.9553 40.2417 4.82636 40.1157C4.69743 39.9897 4.625 39.8188 4.625 39.6406V20.1562H15.625V39.6406ZM15.625 18.8125H4.625V17.4688H15.625V18.8125ZM21.8125 27.5469C21.8125 27.3687 21.8849 27.1978 22.0139 27.0718C22.1428 26.9458 22.3177 26.875 22.5 26.875H25.9375V25.5312H23.1875V24.8594C23.1875 24.6812 23.2599 24.5103 23.3889 24.3843C23.5178 24.2583 23.6927 24.1875 23.875 24.1875H26.9688C27.789 24.1866 28.5754 23.8678 29.1554 23.301C29.7353 22.7342 30.0616 21.9657 30.0625 21.1641V19.4844H30.3203C30.6165 19.4847 30.9004 19.5999 31.1099 19.8045C31.3193 20.0092 31.4371 20.2867 31.4375 20.5762V20.9961C31.4379 21.486 31.6372 21.9558 31.9917 22.3022C32.3461 22.6486 32.8268 22.8434 33.3281 22.8438H33.6719C33.8086 22.8439 33.9396 22.8971 34.0363 22.9915C34.1329 23.086 34.1873 23.2141 34.1875 23.3477V25.5312H29.375V26.875H34.875C35.0573 26.875 35.2322 26.9458 35.3611 27.0718C35.4901 27.1978 35.5625 27.3687 35.5625 27.5469V28.2188H21.8125V27.5469ZM20.4375 29.5625H36.9375V30.9062H20.4375V29.5625ZM39.0612 39.5996C38.8846 39.8149 38.6622 39.9902 38.4095 40.1132C38.1568 40.2363 37.8797 40.3043 37.5975 40.3125H20.41C20.1278 40.3045 19.8508 40.2366 19.598 40.1137C19.3453 39.9907 19.1229 39.8155 18.9463 39.6003C18.7135 39.3433 18.5394 39.0409 18.4354 38.713C18.3315 38.3852 18.3001 38.0395 18.3434 37.6989L18.9621 32.25H39.044L39.6662 37.7204C39.7069 38.0576 39.674 38.3995 39.5697 38.7234C39.4654 39.0473 39.2921 39.3459 39.0612 39.5996Z" fill="#DBB13B"/>
<path d="M38.2712 34.8031L36.9231 35.0665L37.4463 37.625H35.5625V38.9688H37.4463C37.6497 38.9686 37.8505 38.9244 38.0344 38.8393C38.2182 38.7542 38.3804 38.6303 38.5093 38.4765C38.6382 38.3227 38.7306 38.1428 38.7798 37.9499C38.8289 37.757 38.8337 37.5559 38.7938 37.361L38.2712 34.8031ZM6.6875 37.625H9.4375C9.61984 37.625 9.7947 37.5542 9.92364 37.4282C10.0526 37.3022 10.125 37.1313 10.125 36.9531V22.1719C10.125 21.9937 10.0526 21.8228 9.92364 21.6968C9.7947 21.5708 9.61984 21.5 9.4375 21.5H6.6875C6.50516 21.5 6.3303 21.5708 6.20136 21.6968C6.07243 21.8228 6 21.9937 6 22.1719V36.9531C6 37.1313 6.07243 37.3022 6.20136 37.4282C6.3303 37.5542 6.50516 37.625 6.6875 37.625ZM7.375 22.8438H8.75V36.2812H7.375V22.8438Z" fill="#DBB13B"/>
<path d="M14.25 21.5H12.875V22.8438H14.25V21.5Z" fill="#DBB13B"/>
<path d="M14.25 24.1875H12.875V25.5312H14.25V24.1875Z" fill="#DBB13B"/>
<path d="M7.375 11.4219V14.1094H8.75V12.0938H10.125V10.75H8.0625C7.88016 10.75 7.7053 10.8208 7.57636 10.9468C7.44743 11.0728 7.375 11.2437 7.375 11.4219Z" fill="#DBB13B"/>
</svg>
