<svg width="25" height="24" viewBox="0 0 25 24" fill="none" xmlns="http://www.w3.org/2000/svg">
<path d="M16.5 10H8.5C7.95 10 7.5 10.45 7.5 11C7.5 11.55 7.95 12 8.5 12H16.5C17.05 12 17.5 11.55 17.5 11C17.5 10.45 17.05 10 16.5 10ZM19.5 3H18.5V2C18.5 1.45 18.05 1 17.5 1C16.95 1 16.5 1.45 16.5 2V3H8.5V2C8.5 1.45 8.05 1 7.5 1C6.95 1 6.5 1.45 6.5 2V3H5.5C4.96957 3 4.46086 3.21071 4.08579 3.58579C3.71071 3.96086 3.5 4.46957 3.5 5V19C3.5 19.5304 3.71071 20.0391 4.08579 20.4142C4.46086 20.7893 4.96957 21 5.5 21H19.5C20.6 21 21.5 20.1 21.5 19V5C21.5 3.9 20.6 3 19.5 3ZM18.5 19H6.5C5.95 19 5.5 18.55 5.5 18V8H19.5V18C19.5 18.55 19.05 19 18.5 19ZM13.5 14H8.5C7.95 14 7.5 14.45 7.5 15C7.5 15.55 7.95 16 8.5 16H13.5C14.05 16 14.5 15.55 14.5 15C14.5 14.45 14.05 14 13.5 14Z" fill="#DBB13B"/>
</svg>
