<svg width="366" height="335" viewBox="0 0 366 335" fill="none" xmlns="http://www.w3.org/2000/svg">
<path fill-rule="evenodd" clip-rule="evenodd" d="M177.704 48.9515C235.467 91.6764 355.546 66.7664 319.15 126.733C287.833 178.333 343.385 199.499 338.407 230.26C330.324 280.234 220.837 274.292 177.602 271.534C104.214 266.851 109.233 186.727 68.3997 187.199C-5.15068 188.052 92.2288 -14.2709 177.704 48.9515Z" fill="#D9C57E"/>
<path fill-rule="evenodd" clip-rule="evenodd" d="M64.4288 200.624C68.2318 202.305 72.6995 203.014 76.5822 204.657C85.6972 208.515 100.437 211.865 108.787 240.912C113.607 257.687 139.33 259.735 134.337 268.427C130.189 275.66 67.0616 275.508 66.071 242.978C64.8477 202.718 41.4185 220.355 29.6507 197.37C23.82 185.98 22.1712 170.669 26.3132 158.892C27.47 155.607 29.7305 146.782 35.3152 148.297C41.3852 149.943 36.8311 162.474 35.8404 165.292C31.9976 176.217 52.3685 196.099 64.4288 200.624Z" fill="#D9C57E"/>
<path d="M36.2329 144.43C38.8933 145.169 42.0892 142.199 43.3712 137.796C44.6531 133.394 43.5356 129.226 40.8752 128.487C38.2147 127.748 35.0188 130.718 33.7369 135.121C32.455 139.523 33.5725 143.691 36.2329 144.43Z" fill="#D9C57E"/>
<path fill-rule="evenodd" clip-rule="evenodd" d="M307.73 86.6546C307.81 87.3209 324.001 86.4429 327.661 103.307C329.965 113.944 320.946 135.944 319.578 143.246C318.217 150.499 318.668 157.994 319.638 165.26C320.827 174.144 322.693 183.651 327.92 191.206C329.401 193.351 331.971 197.162 335.092 197.073C338.652 196.97 334.966 189.431 334.501 188.261C330.39 177.988 327.488 166.514 328.365 155.414C329.965 135.302 338.625 122.602 333.18 101.216C328.942 84.5752 307.185 82.1094 307.73 86.6546Z" fill="#D9C57E"/>
<path fill-rule="evenodd" clip-rule="evenodd" d="M66.1583 186.545C94.9452 190.754 100.897 219.215 121.558 244.546C130.339 255.303 142.831 261.845 147.86 264.117C149.211 264.723 150.194 264.969 150.194 264.969C150.194 264.969 151.562 257.271 152.544 253.237C154.979 243.234 156.666 231.912 152.561 222.063C152.181 221.148 151.7 220.277 151.125 219.465C147.28 214.088 142.579 220.782 139.246 223.368C137.945 224.378 135.427 226.52 133.63 225.322C131.103 223.631 134.151 219.479 135.544 218.192C138.096 215.844 141.614 215.133 144.502 213.322C148.976 210.512 151.579 205.268 152.863 200.388C154.987 192.274 154.484 183.797 154.727 175.507C154.987 166.597 155.818 157.745 156.582 148.871C156.968 144.396 156.817 139.873 157.321 135.411C157.464 134.185 157.758 131.688 159.05 131.002C162.526 129.152 162.157 138.006 161.947 139.18C160.545 146.96 156.23 154.179 156.826 162.299C156.968 164.335 157.061 167.125 158.27 168.911C160.746 172.587 165.448 173.459 169.578 174.189C179.467 175.933 189.617 174.917 199.574 174.613C202.462 174.526 211.671 176.398 213.51 173.353C215.214 170.531 212.628 165.606 211.478 163.058C207.658 154.663 203.822 146.354 200.69 137.675C196.719 126.672 192.555 115.818 187.972 105.044C184.79 97.5655 181.356 89.1914 175.429 83.34C166.883 74.897 154.265 71.4635 144.292 64.8299C136.997 59.9812 129.575 55.6015 121.491 52.1195C119.577 51.2931 115.824 48.5498 113.599 48.8081C110.367 49.182 107.177 53.6863 105.103 55.7253C100.385 60.3698 94.2905 65.608 92.4267 72.1554C91.5285 75.3013 92.8381 78.3528 92.1832 81.4142C91.6544 83.8811 89.7907 85.6004 88.4475 87.6427C88.0949 88.1756 87.163 89.6235 87.7171 90.2572C88.3383 90.973 89.8159 90.0564 90.3532 89.7071C92.8213 88.1215 94.8697 86.1104 96.8006 83.9435C102.702 77.3124 107.345 69.7549 113.658 63.4509C115.186 61.9276 118.922 57.8692 121.533 58.4423C123.346 58.84 121.936 61.7267 121.474 62.5744C119.383 66.409 116.067 69.8524 113.012 72.9671C106.934 79.1743 99.9236 86.1948 91.881 89.9555C83.4523 93.9024 73.5713 92.4266 69.9782 102.759C67.1658 110.856 69.5164 120.809 69.9025 129.134C70.4146 140.011 68.7944 150.353 66.9055 161.035C65.6043 168.383 66.1583 186.545 66.1583 186.545Z" fill="#F3EFE3"/>
<mask id="mask0_592_1498" style="mask-type:luminance" maskUnits="userSpaceOnUse" x="66" y="48" width="149" height="217">
<path d="M66.1583 186.545C94.9452 190.754 100.897 219.215 121.558 244.546C130.339 255.303 142.831 261.845 147.86 264.117C149.211 264.723 150.194 264.969 150.194 264.969C150.194 264.969 151.562 257.271 152.544 253.237C154.979 243.234 156.666 231.912 152.561 222.063C152.181 221.148 151.7 220.277 151.125 219.465C147.28 214.088 142.579 220.782 139.246 223.368C137.945 224.378 135.427 226.52 133.63 225.322C131.103 223.631 134.151 219.479 135.544 218.192C138.096 215.844 141.614 215.133 144.502 213.322C148.976 210.512 151.579 205.268 152.863 200.388C154.987 192.274 154.484 183.797 154.727 175.507C154.987 166.597 155.818 157.745 156.582 148.871C156.968 144.396 156.817 139.873 157.321 135.411C157.464 134.185 157.758 131.688 159.05 131.002C162.526 129.152 162.157 138.006 161.947 139.18C160.545 146.96 156.23 154.179 156.826 162.299C156.968 164.335 157.061 167.125 158.27 168.911C160.746 172.587 165.448 173.459 169.578 174.189C179.467 175.933 189.617 174.917 199.574 174.613C202.462 174.526 211.671 176.398 213.51 173.353C215.214 170.531 212.628 165.606 211.478 163.058C207.658 154.663 203.822 146.354 200.69 137.675C196.719 126.672 192.555 115.818 187.972 105.044C184.79 97.5655 181.356 89.1914 175.429 83.34C166.883 74.897 154.265 71.4635 144.292 64.8299C136.997 59.9812 129.575 55.6015 121.491 52.1195C119.577 51.2931 115.824 48.5498 113.599 48.8081C110.367 49.182 107.177 53.6863 105.103 55.7253C100.385 60.3698 94.2905 65.608 92.4267 72.1554C91.5285 75.3013 92.8381 78.3528 92.1832 81.4142C91.6544 83.8811 89.7907 85.6004 88.4475 87.6427C88.0949 88.1756 87.163 89.6235 87.7171 90.2572C88.3383 90.973 89.8159 90.0564 90.3532 89.7071C92.8213 88.1215 94.8697 86.1104 96.8006 83.9435C102.702 77.3124 107.345 69.7549 113.658 63.4509C115.186 61.9276 118.922 57.8692 121.533 58.4423C123.346 58.84 121.936 61.7267 121.474 62.5744C119.383 66.409 116.067 69.8524 113.012 72.9671C106.934 79.1743 99.9236 86.1948 91.881 89.9555C83.4523 93.9024 73.5713 92.4266 69.9782 102.759C67.1658 110.856 69.5164 120.809 69.9025 129.134C70.4146 140.011 68.7944 150.353 66.9055 161.035C65.6043 168.383 66.1583 186.545 66.1583 186.545Z" fill="white"/>
</mask>
<g mask="url(#mask0_592_1498)">
<path fill-rule="evenodd" clip-rule="evenodd" d="M79.389 197.179C79.305 197.1 69.7513 190.633 69.8017 190.519C70.4313 188.981 71.5396 178.191 71.9509 176.588C73.546 170.275 74.864 163.845 75.3258 157.352C76.585 139.844 72.1607 117.726 84.3925 103.028C91.5787 94.3927 103.282 89.9941 111.769 82.6432C117.721 77.4813 122.229 71.7234 125.957 64.8947C127.065 62.8705 129.138 58.9925 132.136 59.9558C134.159 60.6076 134.612 62.8458 134.226 64.6455C133.454 68.2143 130.582 71.1986 127.762 73.4229C121.759 78.1634 114.749 81.5683 108.814 86.4228C97.2707 95.8611 89.7906 108.712 87.7338 123.247C85.0138 142.47 94.0889 180.627 79.389 197.179Z" fill="#223F58"/>
</g>
<path fill-rule="evenodd" clip-rule="evenodd" d="M102.519 127.972C101.256 128.478 102.966 130.682 102.984 131.931C103.049 135.577 102.817 139.328 102.322 142.939C101.44 149.396 98.5385 156.681 99.5037 163.247C100.016 166.771 102.662 168.362 105.748 169.706C109.407 171.295 113.459 171.706 117.314 172.674C122.903 174.08 128.79 177.786 134.313 174.015C137.18 172.058 138.389 168.827 139.122 165.623C140.433 159.884 140.707 153.789 141.44 147.954C142.095 142.758 143.621 133.794 138.89 129.838C134.54 126.196 126.335 129.57 121.3 129.697C117.975 129.78 114.692 129.411 111.492 128.513C109.437 127.935 103.937 127.402 102.519 127.972Z" fill="#223F58"/>
<path fill-rule="evenodd" clip-rule="evenodd" d="M164.818 170.303C164.314 166.554 163.307 159.884 159.89 155.959C157.287 152.97 152.427 152.831 150 156.173C148.011 158.913 147.583 162.463 147.986 165.722C148.607 170.822 150.462 175.872 152.385 180.626C155.499 188.349 159.109 195.192 165.179 201.117C172.877 208.635 182.674 213.613 193.739 213.342C197.206 213.257 200.531 212.204 203.175 209.967C204.283 209.036 205.089 207.671 206.273 206.863C206.852 206.47 207.667 206.423 207.583 207.33C207.18 211.708 199.733 213.387 196.325 213.98C191.036 214.899 185.655 214.454 180.399 213.016C169.897 210.135 162.543 200.036 162.199 201.187C161.409 203.862 163.936 212.825 166.27 218.776C170.409 229.37 181.062 236.525 191.321 232.783C198.827 230.043 206.038 224.472 208.85 216.947C209.925 214.084 210.051 211.042 210.412 208.044C210.32 208.069 210.412 207.078 210.42 207.022C210.563 205.899 210.874 204.787 211.125 203.685C211.764 200.941 212.586 198.269 213.451 195.586C214.996 190.797 218.253 184.824 217.43 179.664C217.094 177.574 215.919 175.692 214.769 173.938C213.585 172.15 211.503 169.919 209.203 169.64C206.021 169.254 204.233 171.663 202.302 173.724C198.936 177.326 194.898 180.427 191.976 184.409C190.591 186.295 188.828 189.167 190.574 191.382C191.792 192.932 194.344 192.227 195.888 191.597C200.346 189.768 203.545 185.903 207.44 183.246C208.128 182.78 212.368 180.046 213.174 181.403C213.468 181.9 212.637 182.71 212.343 183.009C211.016 184.357 209.329 185.424 207.751 186.459C203.62 189.159 199.221 192.171 194.419 193.593C192.337 194.21 189.6 194.45 187.955 192.744C185.52 190.218 187.09 186.885 189.004 184.557C193.513 179.073 199.993 175.192 204.67 169.737C206.76 167.299 210.815 161.831 205.593 160.035C202.797 159.075 199.716 160.189 197.441 161.779C192.816 165.001 190.104 170.381 187.384 175.108C186.049 177.434 183.682 180.946 184.622 183.784C185.462 186.311 187.518 183.518 188.375 182.584C188.492 182.459 189.424 181.348 189.659 181.783C190.003 182.43 189.063 183.493 188.702 183.928C187.476 185.393 185.193 186.827 183.354 185.339C180.878 183.335 182.498 179.189 183.489 176.865C186.586 169.633 193.487 164.564 197.786 158.049C199.607 155.293 202.571 149.61 197.92 147.672C189.81 144.294 184.454 154.261 182.246 160.094C181.759 161.397 181.272 162.706 180.802 164.016C180.038 166.122 177.839 171.409 179.627 173.477C181.214 175.306 183.464 171.716 184.034 170.697C186.217 166.766 187.711 162.454 190.255 158.718C190.826 157.885 192.102 155.624 193.437 155.859C193.999 155.957 193.831 156.847 193.739 157.198C193.395 158.552 192.589 159.806 191.875 160.994C189.281 165.282 185.923 169.637 182.49 173.326C181.281 174.62 178.989 176.438 177.293 174.833C174.38 172.081 176.227 166.815 177.612 163.855C181.272 156.036 189.449 148.533 189.424 146.27C189.357 139.847 189.39 121.971 188.559 116.174C188.198 113.672 187.468 109.413 184.798 108.209C182.775 107.296 180.886 108.751 179.761 110.285C177.318 113.599 176.37 118.055 175.732 122.011C174.304 130.945 175.446 140.061 174.313 149.021C173.507 155.318 170.846 160.791 169.049 166.797C168.067 170.087 168.646 174.273 166.782 177.225C166.111 178.298 164.121 179.827 162.921 178.455C161.216 176.526 165.187 173.066 164.818 170.303Z" fill="#A59A7B"/>
<mask id="mask1_592_1498" style="mask-type:luminance" maskUnits="userSpaceOnUse" x="147" y="107" width="71" height="127">
<path d="M164.818 170.303C164.314 166.554 163.307 159.884 159.89 155.959C157.287 152.97 152.427 152.831 150 156.173C148.011 158.913 147.583 162.463 147.986 165.722C148.607 170.822 150.462 175.872 152.385 180.626C155.499 188.349 159.109 195.192 165.179 201.117C172.877 208.635 182.674 213.613 193.739 213.342C197.206 213.257 200.531 212.204 203.175 209.967C204.283 209.036 205.089 207.671 206.273 206.863C206.852 206.47 207.667 206.423 207.583 207.33C207.18 211.708 199.733 213.387 196.325 213.98C191.036 214.899 185.655 214.454 180.399 213.016C169.897 210.135 162.543 200.036 162.199 201.187C161.409 203.862 163.936 212.825 166.27 218.776C170.409 229.37 181.062 236.525 191.321 232.783C198.827 230.043 206.038 224.472 208.85 216.947C209.925 214.084 210.051 211.042 210.412 208.044C210.32 208.069 210.412 207.078 210.42 207.022C210.563 205.899 210.874 204.787 211.125 203.685C211.764 200.941 212.586 198.269 213.451 195.586C214.996 190.797 218.253 184.824 217.43 179.664C217.094 177.574 215.919 175.692 214.769 173.938C213.585 172.15 211.503 169.919 209.203 169.64C206.021 169.254 204.233 171.663 202.302 173.724C198.936 177.326 194.898 180.427 191.976 184.409C190.591 186.295 188.828 189.167 190.574 191.382C191.792 192.932 194.344 192.227 195.888 191.597C200.346 189.768 203.545 185.903 207.44 183.246C208.128 182.78 212.368 180.046 213.174 181.403C213.468 181.9 212.637 182.71 212.343 183.009C211.016 184.357 209.329 185.424 207.751 186.459C203.62 189.159 199.221 192.171 194.419 193.593C192.337 194.21 189.6 194.45 187.955 192.744C185.52 190.218 187.09 186.885 189.004 184.557C193.513 179.073 199.993 175.192 204.67 169.737C206.76 167.299 210.815 161.831 205.593 160.035C202.797 159.075 199.716 160.189 197.441 161.779C192.816 165.001 190.104 170.381 187.384 175.108C186.049 177.434 183.682 180.946 184.622 183.784C185.462 186.311 187.518 183.518 188.375 182.584C188.492 182.459 189.424 181.348 189.659 181.783C190.003 182.43 189.063 183.493 188.702 183.928C187.476 185.393 185.193 186.827 183.354 185.339C180.878 183.335 182.498 179.189 183.489 176.865C186.586 169.633 193.487 164.564 197.786 158.049C199.607 155.293 202.571 149.61 197.92 147.672C189.81 144.294 184.454 154.261 182.246 160.094C181.759 161.397 181.272 162.706 180.802 164.016C180.038 166.122 177.839 171.409 179.627 173.477C181.214 175.306 183.464 171.716 184.034 170.697C186.217 166.766 187.711 162.454 190.255 158.718C190.826 157.885 192.102 155.624 193.437 155.859C193.999 155.957 193.831 156.847 193.739 157.198C193.395 158.552 192.589 159.806 191.875 160.994C189.281 165.282 185.923 169.637 182.49 173.326C181.281 174.62 178.989 176.438 177.293 174.833C174.38 172.081 176.227 166.815 177.612 163.855C181.272 156.036 189.449 148.533 189.424 146.27C189.357 139.847 189.39 121.971 188.559 116.174C188.198 113.672 187.468 109.413 184.798 108.209C182.775 107.296 180.886 108.751 179.761 110.285C177.318 113.599 176.37 118.055 175.732 122.011C174.304 130.945 175.446 140.061 174.313 149.021C173.507 155.318 170.846 160.791 169.049 166.797C168.067 170.087 168.646 174.273 166.782 177.225C166.111 178.298 164.121 179.827 162.921 178.455C161.216 176.526 165.187 173.066 164.818 170.303Z" fill="white"/>
</mask>
<g mask="url(#mask1_592_1498)">
<path fill-rule="evenodd" clip-rule="evenodd" d="M161.603 199.183C161.267 200.671 160.05 206.594 160.587 207.892C162.66 212.938 167.337 216.467 172.684 217.772C175.354 218.422 178.074 218.405 180.802 218.436C183.254 218.465 185.814 218.476 188.173 219.209C189.113 219.502 190.289 219.924 190.809 220.816C191.75 222.437 190.18 224.152 188.937 225.081C186.519 226.883 183.354 227.261 181.298 229.636C179.728 231.451 179.434 234.247 181.407 235.88C184.992 238.849 190.801 237.356 194.596 235.646C202.739 231.972 211.319 224.462 211.881 215.221C212.024 213.002 212.175 210.512 210.974 208.524C210.168 207.177 208.657 207.211 207.415 207.992C206.013 208.877 204.947 210.183 203.57 211.108C200.556 213.137 196.526 214.358 192.866 214.047C188.769 213.698 184.866 213.124 180.886 212.095C178.208 211.404 175.639 210.708 173.314 209.165C169.074 206.348 166.338 201.228 161.603 199.183Z" fill="#455665"/>
<path fill-rule="evenodd" clip-rule="evenodd" d="M167.331 115.233C173.478 113.048 181.802 114.897 184.299 121.217C185.619 124.545 191.196 142.373 179.67 151.314C174.669 155.197 171.467 172.476 177.188 174.438C178.091 174.75 177.803 169.38 179.579 164.015C181.4 158.5 185.293 152.971 185.998 152.326C196.152 143.011 195.97 126.804 193.701 114.352C193.01 110.57 192.084 106.76 190.415 103.264C189.502 101.377 188.325 99.6232 186.917 98.0532C185.983 97.0187 184.929 96.0382 183.737 95.2957C176.657 90.884 170.708 109.432 167.331 115.233Z" fill="#455665"/>
</g>
<path d="M181.018 138.436C192.67 138.436 202.116 129.248 202.116 117.913C202.116 106.578 192.67 97.3896 181.018 97.3896C169.367 97.3896 159.921 106.578 159.921 117.913C159.921 129.248 169.367 138.436 181.018 138.436Z" fill="#DBB13B"/>
<path fill-rule="evenodd" clip-rule="evenodd" d="M206.049 111.453C209.744 124.918 201.549 138.784 187.759 142.393C187.248 142.526 186.813 142.852 186.548 143.299C186.284 143.745 186.212 144.276 186.348 144.775C186.633 145.812 187.727 146.43 188.79 146.152C204.706 141.987 214.165 125.988 209.901 110.445C209.764 109.946 209.429 109.521 208.971 109.263C208.514 109.005 207.97 108.934 207.459 109.068C206.396 109.346 205.765 110.415 206.049 111.453ZM156.078 124.529C152.383 111.061 160.578 97.1977 174.368 93.5891C175.431 93.311 176.063 92.2412 175.778 91.2038C175.641 90.7051 175.307 90.2799 174.849 90.0217C174.391 89.7634 173.847 89.6931 173.336 89.8263C157.42 93.9911 147.962 109.994 152.227 125.537C152.511 126.574 153.606 127.193 154.668 126.915C155.731 126.636 156.363 125.567 156.078 124.529Z" fill="#DBB13B"/>
<path fill-rule="evenodd" clip-rule="evenodd" d="M191.265 111.013L192.792 112.504L191.01 114.244L189.483 112.753L188.774 113.445L190.301 114.936L188.519 116.676L186.992 115.186L181.454 120.595C182.601 122.946 182.179 125.849 180.186 127.796C177.657 130.266 173.551 130.267 171.022 127.796C168.492 125.326 168.493 121.316 171.022 118.847C173.015 116.9 175.989 116.488 178.396 117.608L189.943 106.331L193.001 109.317L191.265 111.013ZM177.895 121.084C179.159 122.318 179.159 124.324 177.895 125.559C176.63 126.793 174.576 126.793 173.313 125.559C172.049 124.325 172.048 122.319 173.313 121.084C174.577 119.849 176.631 119.85 177.895 121.084Z" fill="#F3EFE3"/>
<path fill-rule="evenodd" clip-rule="evenodd" d="M329.633 141.256C329.633 139.561 328.934 137.936 327.693 136.738C326.452 135.54 324.767 134.867 323.015 134.867H225.519C223.766 134.867 222.082 135.54 220.841 136.738C219.599 137.936 218.901 139.561 218.901 141.256V147.853C218.901 149.548 219.599 151.173 220.841 152.371C222.082 153.57 223.766 154.243 225.519 154.243H323.015C324.767 154.243 326.452 153.57 327.693 152.371C328.934 151.173 329.633 149.548 329.633 147.853V141.256Z" fill="#455665"/>
<path fill-rule="evenodd" clip-rule="evenodd" d="M328.934 139.555C328.934 137.838 328.235 136.192 326.994 134.978C325.752 133.764 324.068 133.082 322.315 133.082H224.82C223.067 133.082 221.383 133.764 220.141 134.978C218.9 136.192 218.201 137.838 218.201 139.555V146.239C218.201 147.956 218.9 149.603 220.141 150.816C221.383 152.031 223.067 152.713 224.82 152.713H322.315C324.068 152.713 325.752 152.031 326.994 150.816C328.235 149.603 328.934 147.956 328.934 146.239V139.555Z" fill="#DBB13B"/>
<path fill-rule="evenodd" clip-rule="evenodd" d="M320.775 142.896C320.775 142.254 320.509 141.639 320.035 141.185C319.564 140.731 318.923 140.476 318.252 140.476H279.701C279.033 140.476 278.392 140.731 277.918 141.185C277.446 141.639 277.181 142.254 277.181 142.896V142.899C277.181 143.541 277.446 144.156 277.918 144.61C278.392 145.064 279.033 145.32 279.701 145.32H318.252C318.923 145.32 319.564 145.064 320.035 144.61C320.509 144.156 320.775 143.541 320.775 142.899V142.896Z" fill="#F3EFE3"/>
<path d="M233.683 143.699H231.977V147.472H229.857V137.161H233.683C234.898 137.161 235.854 137.432 236.526 137.977C237.172 138.519 237.508 139.285 237.508 140.276C237.508 140.981 237.353 141.567 237.043 142.036C236.733 142.506 236.267 142.88 235.673 143.159L237.896 147.374V147.472H235.621L233.683 143.699ZM231.977 141.977H233.708C234.225 141.977 234.639 141.84 234.949 141.569C235.234 141.298 235.389 140.924 235.389 140.447C235.398 140.236 235.364 140.025 235.288 139.828C235.213 139.631 235.097 139.451 234.949 139.301C234.691 139.022 234.252 138.883 233.683 138.883H231.977V141.977ZM242.522 147.614C241.385 147.614 240.48 147.268 239.783 146.579C239.059 145.89 238.697 144.971 238.697 143.825V143.626C238.697 142.857 238.852 142.168 239.162 141.562C239.447 140.955 239.886 140.488 240.429 140.16C240.972 139.832 241.592 139.67 242.29 139.67C243.349 139.67 244.176 140 244.771 140.661C245.365 141.322 245.675 142.259 245.675 143.472V144.308H240.791C240.842 144.806 241.049 145.208 241.385 145.51C241.733 145.819 242.187 145.982 242.652 145.965C243.453 145.965 244.047 145.678 244.512 145.108L245.52 146.233C245.21 146.667 244.797 147.005 244.254 147.25C243.737 147.493 243.168 147.614 242.522 147.614ZM242.29 141.327C241.876 141.327 241.54 141.464 241.282 141.737C241.049 142.011 240.894 142.403 240.816 142.912H243.66V142.749C243.68 142.365 243.55 141.988 243.298 141.698C243.065 141.451 242.729 141.327 242.29 141.327ZM251 145.356C251 145.105 250.871 144.907 250.612 144.765C250.38 144.62 249.966 144.491 249.423 144.378C247.614 143.996 246.683 143.221 246.683 142.055C246.683 141.376 246.968 140.808 247.537 140.351C248.105 139.897 248.829 139.67 249.759 139.67C250.716 139.67 251.517 139.897 252.086 140.356C252.68 140.813 252.964 141.409 252.964 142.14H250.922C250.927 141.87 250.825 141.61 250.638 141.415C250.431 141.224 250.147 141.128 249.734 141.128C249.397 141.128 249.139 141.206 248.932 141.36C248.847 141.434 248.779 141.526 248.734 141.629C248.69 141.732 248.669 141.844 248.674 141.957C248.674 142.184 248.777 142.364 248.984 142.504C249.191 142.643 249.553 142.764 250.07 142.865C250.586 142.968 251 143.082 251.362 143.208C252.447 143.606 252.99 144.292 252.99 145.271C252.99 145.967 252.68 146.533 252.086 146.966C251.491 147.397 250.716 147.614 249.759 147.614C249.113 147.614 248.544 147.498 248.053 147.271C247.536 147.041 247.149 146.726 246.865 146.329C246.592 145.953 246.447 145.5 246.451 145.036H248.389C248.415 145.4 248.545 145.678 248.803 145.872C249.036 146.065 249.372 146.161 249.811 146.161C250.199 146.161 250.483 146.089 250.69 145.939C250.786 145.875 250.865 145.789 250.92 145.687C250.974 145.585 251.001 145.471 251 145.356ZM257.849 147.614C256.712 147.614 255.807 147.268 255.084 146.579C254.386 145.89 254.024 144.971 254.024 143.825V143.626C254.024 142.857 254.179 142.168 254.463 141.562C254.773 140.955 255.187 140.488 255.73 140.16C256.302 139.827 256.954 139.658 257.617 139.67C258.65 139.67 259.478 140 260.098 140.661C260.692 141.322 261.003 142.259 261.003 143.472V144.308H256.118C256.169 144.806 256.376 145.208 256.712 145.51C257.06 145.819 257.513 145.982 257.978 145.965C258.754 145.965 259.374 145.678 259.814 145.108L260.822 146.233C260.512 146.667 260.098 147.005 259.581 147.25C259.064 147.493 258.47 147.614 257.849 147.614ZM257.591 141.327C257.203 141.327 256.867 141.464 256.609 141.737C256.35 142.011 256.195 142.403 256.118 142.912H258.986V142.749C258.961 142.295 258.831 141.946 258.599 141.698C258.366 141.451 258.03 141.327 257.591 141.327ZM264.595 137.928V139.809H265.913V141.311H264.595V145.136C264.595 145.418 264.673 145.621 264.776 145.745C264.879 145.867 265.086 145.929 265.396 145.929C265.629 145.929 265.836 145.911 265.991 145.88V147.431C265.603 147.552 265.19 147.614 264.75 147.614C263.329 147.614 262.579 146.889 262.553 145.441V141.311H261.442V139.809H262.553V137.928H264.595Z" fill="#F3EFE3"/>
<path fill-rule="evenodd" clip-rule="evenodd" d="M341.989 172.954C341.989 171.236 341.29 169.59 340.049 168.376C338.807 167.162 337.123 166.48 335.37 166.48H237.875C236.122 166.48 234.438 167.162 233.196 168.376C231.955 169.59 231.256 171.236 231.256 172.954V179.637C231.256 181.355 231.955 183.001 233.196 184.215C234.438 185.429 236.122 186.111 237.875 186.111H335.37C337.123 186.111 338.807 185.429 340.049 184.215C341.29 183.001 341.989 181.355 341.989 179.637V172.954Z" fill="#455665"/>
<path fill-rule="evenodd" clip-rule="evenodd" d="M341.056 171.169C341.056 169.451 340.357 167.805 339.116 166.591C337.875 165.377 336.19 164.695 334.437 164.695H236.942C235.189 164.695 233.505 165.377 232.264 166.591C231.022 167.805 230.324 169.451 230.324 171.169V177.852C230.324 179.569 231.022 181.216 232.264 182.43C233.505 183.644 235.189 184.326 236.942 184.326H334.437C336.19 184.326 337.875 183.644 339.116 182.43C340.357 181.216 341.056 179.569 341.056 177.852V171.169Z" fill="#DBB13B"/>
<path fill-rule="evenodd" clip-rule="evenodd" d="M248.115 179.482L246.478 178.349L248.852 175.23L245.01 174.038L245.638 172.204L249.48 173.396V169.539H251.497V173.396L255.339 172.204L255.967 174.038L252.125 175.23L254.499 178.349L252.862 179.482L250.489 176.363L248.115 179.482Z" fill="#F3EFE3"/>
<path fill-rule="evenodd" clip-rule="evenodd" d="M263.967 179.482L262.33 178.349L264.704 175.23L260.862 174.038L261.491 172.204L265.332 173.396V169.539H267.349V173.396L271.191 172.204L271.819 174.038L267.978 175.23L270.351 178.349L268.715 179.482L266.341 176.363L263.967 179.482Z" fill="#F3EFE3"/>
<path fill-rule="evenodd" clip-rule="evenodd" d="M279.819 179.482L278.182 178.349L280.556 175.23L276.715 174.038L277.343 172.204L281.184 173.396V169.539H283.202V173.396L287.043 172.204L287.671 174.038L283.83 175.23L286.204 178.349L284.567 179.482L282.193 176.363L279.819 179.482Z" fill="#F3EFE3"/>
<path fill-rule="evenodd" clip-rule="evenodd" d="M295.839 179.482L294.236 178.349L296.56 175.23L292.8 174.038L293.415 172.204L297.174 173.396V169.539H299.149V173.396L302.909 172.204L303.524 174.038L299.764 175.23L302.087 178.349L300.485 179.482L298.162 176.363L295.839 179.482Z" fill="#F3EFE3"/>
<path fill-rule="evenodd" clip-rule="evenodd" d="M311.691 179.482L310.089 178.349L312.412 175.23L308.652 174.038L309.267 172.204L313.027 173.396V169.539H315.001V173.396L318.761 172.204L319.376 174.038L315.616 175.23L317.939 178.349L316.337 179.482L314.014 176.363L311.691 179.482Z" fill="#F3EFE3"/>
<path d="M273.917 122.374C287.565 122.374 298.628 111.588 298.628 98.2819C298.628 84.976 287.565 74.1895 273.917 74.1895C260.27 74.1895 249.206 84.976 249.206 98.2819C249.206 111.588 260.27 122.374 273.917 122.374Z" fill="#DBB13B"/>
<path d="M273.801 100.704C279.015 100.704 283.242 96.5946 283.242 91.5257C283.242 86.4568 279.015 82.3477 273.801 82.3477C268.586 82.3477 264.359 86.4568 264.359 91.5257C264.359 96.5946 268.586 100.704 273.801 100.704Z" fill="#F3EFE3"/>
<path fill-rule="evenodd" clip-rule="evenodd" d="M260.163 110.423C262.295 105.634 267.653 102.233 273.917 102.233C280.187 102.233 285.539 105.634 287.671 110.423C284.285 114.16 279.38 116.51 273.917 116.51C268.46 116.51 263.549 114.16 260.163 110.423Z" fill="#F3EFE3"/>
<path fill-rule="evenodd" clip-rule="evenodd" d="M289.805 225.527C293.327 214.893 287.651 203.771 277.137 200.692L267.176 197.774C256.656 194.693 245.274 200.82 241.752 211.453L231.988 240.932C231.384 242.757 232.355 244.664 234.163 245.193L275.678 257.352C277.48 257.88 279.436 256.831 280.041 255.006L289.805 225.527ZM283.267 223.612L274.598 249.787L239.614 239.541L248.283 213.366C250.596 206.382 258.077 202.358 264.988 204.382L274.948 207.299C281.853 209.322 285.581 216.629 283.267 223.612Z" fill="#DBB13B"/>
<mask id="mask2_592_1498" style="mask-type:luminance" maskUnits="userSpaceOnUse" x="231" y="196" width="60" height="62">
<path d="M289.563 225.268C293.218 214.551 287.767 203.433 277.396 200.444L267.571 197.612C257.194 194.62 245.82 200.888 242.164 211.605L232.03 241.317C231.402 243.156 232.335 245.062 234.118 245.576L275.068 257.38C276.845 257.892 278.801 256.819 279.428 254.98L289.563 225.268ZM283.114 223.409L274.115 249.791L239.608 239.844L248.606 213.462C251.007 206.424 258.483 202.307 265.3 204.272L275.125 207.104C281.935 209.067 285.515 216.371 283.114 223.409Z" fill="white"/>
</mask>
<g mask="url(#mask2_592_1498)">
<path fill-rule="evenodd" clip-rule="evenodd" d="M283.628 201.009C283.865 201.787 276.377 198.825 278.787 200.17C295.245 209.376 287.341 229.075 279.999 244.653C279.999 244.653 283.181 246.791 284.41 246.191C287.957 244.457 290.281 240.72 291.853 237.223C296.618 226.617 297.626 207.394 283.628 201.009Z" fill="black"/>
</g>
<path fill-rule="evenodd" clip-rule="evenodd" d="M290.636 266.592C290.636 266.592 296.351 244.274 275.694 238.662C266.892 236.278 257.013 233.194 248.269 230.634C235.331 226.847 221.335 234.375 217.003 247.451C211.333 264.563 208.108 273.951 208.108 273.951C228.755 273.801 254.916 275.362 290.636 266.592Z" fill="#223F58"/>
<mask id="mask3_592_1498" style="mask-type:luminance" maskUnits="userSpaceOnUse" x="208" y="229" width="84" height="46">
<path d="M290.333 266.266C290.333 266.266 296.371 243.711 275.908 238.264C267.188 235.95 257.408 232.942 248.749 230.45C235.936 226.764 221.893 234.494 217.376 247.719C211.465 265.026 208.108 274.521 208.108 274.521C228.653 274.161 254.656 275.468 290.333 266.266Z" fill="white"/>
</mask>
<g mask="url(#mask3_592_1498)">
<path fill-rule="evenodd" clip-rule="evenodd" d="M288.78 230.748C289.196 230.54 271.278 237.502 271.5 237.709C273.869 239.963 279.331 243.325 280.364 246.499C285.323 261.685 271.683 279.84 276.351 279.095C279.614 278.573 291.604 275.23 294.023 272.946C300.723 266.606 303.859 256.49 302.166 247.828C300.685 240.231 295.367 234.221 288.78 230.748Z" fill="black"/>
<path fill-rule="evenodd" clip-rule="evenodd" d="M240.196 264.183C239.268 263.211 238.646 261.973 238.4 260.611C238.155 259.25 238.296 257.82 238.808 256.485C240.315 252.554 244.597 250.392 248.375 251.667C252.14 252.938 253.98 257.167 252.474 261.098C251.396 263.91 248.894 265.819 246.178 266.203L239.669 283.185L233.688 281.166L240.196 264.183Z" fill="#F3EFE3"/>
</g>
</svg>
