<svg width="39" height="39" viewBox="0 0 39 39" fill="none" xmlns="http://www.w3.org/2000/svg">
<g clip-path="url(#clip0_529_979)">
<path d="M17.6962 5.24967C9.63701 5.028 3.03451 11.5038 3.03451 19.4997H0.200346C-0.512154 19.4997 -0.860487 20.3547 -0.353821 20.8455L4.06368 25.2788C4.38035 25.5955 4.87118 25.5955 5.18785 25.2788L9.60535 20.8455C9.71476 20.7339 9.78868 20.5924 9.8178 20.4388C9.84692 20.2852 9.82993 20.1265 9.76898 19.9826C9.70802 19.8387 9.60583 19.716 9.47527 19.6301C9.34472 19.5441 9.19164 19.4987 9.03535 19.4997H6.20118C6.20118 13.3247 11.2362 8.33717 17.4428 8.41633C23.3328 8.4955 28.2887 13.4513 28.3678 19.3413C28.447 25.5322 23.4595 30.583 17.2845 30.583C14.7353 30.583 12.3762 29.7122 10.5078 28.2397C10.2046 28.0008 9.82408 27.8817 9.43873 27.905C9.05337 27.9284 8.69004 28.0926 8.41785 28.3663C7.75285 29.0313 7.80035 30.1555 8.54451 30.7255C11.0321 32.6927 14.1131 33.7588 17.2845 33.7497C25.2803 33.7497 31.7562 27.1472 31.5345 19.088C31.3287 11.6622 25.122 5.4555 17.6962 5.24967ZM16.8887 13.1663C16.2395 13.1663 15.7012 13.7047 15.7012 14.3538V20.1805C15.7012 20.7347 16.002 21.2572 16.477 21.5422L21.417 24.4713C21.987 24.8038 22.7153 24.6138 23.0478 24.0597C23.3803 23.4897 23.1903 22.7613 22.6362 22.4288L18.0762 19.7213V14.338C18.0762 13.7047 17.5378 13.1663 16.8887 13.1663Z" fill="#DBB13B"/>
</g>
<defs>
<clipPath id="clip0_529_979">
<rect width="38" height="38" fill="white" transform="translate(0.5 0.5)"/>
</clipPath>
</defs>
</svg>
