<svg width="89" height="22" viewBox="0 0 89 22" fill="none" xmlns="http://www.w3.org/2000/svg">
<rect y="0.5" width="89" height="21" rx="10" fill="#ADADAD"/>
<path d="M29.3371 15.598C28.6557 15.598 28.0397 15.4813 27.4891 15.248C26.9477 15.0147 26.5184 14.6787 26.2011 14.24C25.8837 13.8013 25.7204 13.2833 25.7111 12.686H27.8111C27.8391 13.0873 27.9791 13.4047 28.2311 13.638C28.4924 13.8713 28.8471 13.988 29.2951 13.988C29.7524 13.988 30.1117 13.8807 30.3731 13.666C30.6344 13.442 30.7651 13.1527 30.7651 12.798C30.7651 12.5087 30.6764 12.2707 30.4991 12.084C30.3217 11.8973 30.0977 11.7527 29.8271 11.65C29.5657 11.538 29.2017 11.4167 28.7351 11.286C28.1004 11.0993 27.5824 10.9173 27.1811 10.74C26.7891 10.5533 26.4484 10.278 26.1591 9.914C25.8791 9.54067 25.7391 9.046 25.7391 8.43C25.7391 7.85133 25.8837 7.34733 26.1731 6.918C26.4624 6.48867 26.8684 6.162 27.3911 5.938C27.9137 5.70467 28.5111 5.588 29.1831 5.588C30.1911 5.588 31.0077 5.83533 31.6331 6.33C32.2677 6.81533 32.6177 7.49667 32.6831 8.374H30.5271C30.5084 8.038 30.3637 7.76267 30.0931 7.548C29.8317 7.324 29.4817 7.212 29.0431 7.212C28.6604 7.212 28.3524 7.31 28.1191 7.506C27.8951 7.702 27.7831 7.98667 27.7831 8.36C27.7831 8.62133 27.8671 8.84067 28.0351 9.018C28.2124 9.186 28.4271 9.326 28.6791 9.438C28.9404 9.54067 29.3044 9.662 29.7711 9.802C30.4057 9.98867 30.9237 10.1753 31.3251 10.362C31.7264 10.5487 32.0717 10.8287 32.3611 11.202C32.6504 11.5753 32.7951 12.0653 32.7951 12.672C32.7951 13.1947 32.6597 13.68 32.3891 14.128C32.1184 14.576 31.7217 14.9353 31.1991 15.206C30.6764 15.4673 30.0557 15.598 29.3371 15.598ZM35.4883 6.82C35.143 6.82 34.8537 6.71267 34.6203 6.498C34.3963 6.274 34.2843 5.99867 34.2843 5.672C34.2843 5.34533 34.3963 5.07467 34.6203 4.86C34.8537 4.636 35.143 4.524 35.4883 4.524C35.8337 4.524 36.1183 4.636 36.3423 4.86C36.5757 5.07467 36.6923 5.34533 36.6923 5.672C36.6923 5.99867 36.5757 6.274 36.3423 6.498C36.1183 6.71267 35.8337 6.82 35.4883 6.82ZM36.4543 7.744V15.5H34.4943V7.744H36.4543ZM40.3508 5.14V15.5H38.3908V5.14H40.3508ZM45.5213 13.694L47.4813 7.744H49.5673L46.6973 15.5H44.3173L41.4613 7.744H43.5613L45.5213 13.694ZM57.8781 11.454C57.8781 11.734 57.8595 11.986 57.8221 12.21H52.1521C52.1988 12.77 52.3948 13.2087 52.7401 13.526C53.0855 13.8433 53.5101 14.002 54.0141 14.002C54.7421 14.002 55.2601 13.6893 55.5681 13.064H57.6821C57.4581 13.8107 57.0288 14.4267 56.3941 14.912C55.7595 15.388 54.9801 15.626 54.0561 15.626C53.3095 15.626 52.6375 15.4627 52.0401 15.136C51.4521 14.8 50.9901 14.3287 50.6541 13.722C50.3275 13.1153 50.1641 12.4153 50.1641 11.622C50.1641 10.8193 50.3275 10.1147 50.6541 9.508C50.9808 8.90133 51.4381 8.43467 52.0261 8.108C52.6141 7.78133 53.2908 7.618 54.0561 7.618C54.7935 7.618 55.4515 7.77667 56.0301 8.094C56.6181 8.41133 57.0708 8.864 57.3881 9.452C57.7148 10.0307 57.8781 10.698 57.8781 11.454ZM55.8481 10.894C55.8388 10.39 55.6568 9.98867 55.3021 9.69C54.9475 9.382 54.5135 9.228 54.0001 9.228C53.5148 9.228 53.1041 9.37733 52.7681 9.676C52.4415 9.96533 52.2408 10.3713 52.1661 10.894H55.8481ZM61.2688 8.948C61.5208 8.53733 61.8474 8.21533 62.2488 7.982C62.6594 7.74867 63.1261 7.632 63.6488 7.632V9.69H63.1308C62.5148 9.69 62.0481 9.83467 61.7308 10.124C61.4228 10.4133 61.2688 10.9173 61.2688 11.636V15.5H59.3088V7.744H61.2688V8.948Z" fill="white"/>
</svg>
