<svg width="37" height="34" viewBox="0 0 37 34" fill="none" xmlns="http://www.w3.org/2000/svg">
<path d="M7.0015 11.75C7.0015 11.5511 7.08052 11.3603 7.22117 11.2197C7.36182 11.079 7.55259 11 7.7515 11H8.4085C9.499 11 10.126 11.7095 10.489 12.4175C10.7365 12.902 10.915 13.493 11.0635 14.006H26.506C26.7378 14.0061 26.9664 14.0598 27.1739 14.1631C27.3814 14.2664 27.5621 14.4163 27.7019 14.6012C27.8417 14.7861 27.9368 15.0008 27.9797 15.2286C28.0225 15.4564 28.012 15.691 27.949 15.914L25.705 23.8265C25.5265 24.4543 25.1482 25.0067 24.6273 25.4C24.1065 25.7933 23.4716 26.0061 22.819 26.006H15.2005C14.5424 26.0062 13.9025 25.7901 13.3794 25.3908C12.8562 24.9915 12.4789 24.4313 12.3055 23.7965L11.3425 20.264C11.337 20.2482 11.332 20.2322 11.3275 20.216L9.781 14.9705L9.631 14.465C9.481 13.946 9.349 13.487 9.151 13.1015C8.9125 12.6365 8.6935 12.5015 8.407 12.5015H7.75C7.55109 12.5015 7.36032 12.4225 7.21967 12.2818C7.07902 12.1412 7 11.9504 7 11.7515L7.0015 11.75ZM15.256 32.006C15.8527 32.006 16.425 31.7689 16.847 31.347C17.2689 30.925 17.506 30.3527 17.506 29.756C17.506 29.1593 17.2689 28.587 16.847 28.165C16.425 27.7431 15.8527 27.506 15.256 27.506C14.6593 27.506 14.087 27.7431 13.665 28.165C13.2431 28.587 13.006 29.1593 13.006 29.756C13.006 30.3527 13.2431 30.925 13.665 31.347C14.087 31.7689 14.6593 32.006 15.256 32.006ZM22.756 32.006C23.3527 32.006 23.925 31.7689 24.347 31.347C24.7689 30.925 25.006 30.3527 25.006 29.756C25.006 29.1593 24.7689 28.587 24.347 28.165C23.925 27.7431 23.3527 27.506 22.756 27.506C22.1593 27.506 21.587 27.7431 21.165 28.165C20.7431 28.587 20.506 29.1593 20.506 29.756C20.506 30.3527 20.7431 30.925 21.165 31.347C21.587 31.7689 22.1593 32.006 22.756 32.006Z" fill="#DBB13B"/>
<path d="M27.3571 9.14286H24.1429V12.3571C24.1429 12.7107 23.8536 13 23.5 13C23.1464 13 22.8571 12.7107 22.8571 12.3571V9.14286H19.6429C19.2893 9.14286 19 8.85357 19 8.5C19 8.14643 19.2893 7.85714 19.6429 7.85714H22.8571V4.64286C22.8571 4.28929 23.1464 4 23.5 4C23.8536 4 24.1429 4.28929 24.1429 4.64286V7.85714H27.3571C27.7107 7.85714 28 8.14643 28 8.5C28 8.85357 27.7107 9.14286 27.3571 9.14286Z" fill="#DBB13B"/>
</svg>
