<svg width="22" height="22" viewBox="0 0 22 22" fill="none" xmlns="http://www.w3.org/2000/svg">
<path d="M14.6674 12.7213C14.6674 14.8074 13.0263 16.4988 11.0014 16.4988C8.97659 16.4988 7.33545 14.8074 7.33545 12.7213C7.33545 9.41679 11.0014 5.5 11.0014 5.5C11.0014 5.5 14.6674 9.41679 14.6674 12.7213Z" fill="#9BA1A1"/>
<path fill-rule="evenodd" clip-rule="evenodd" d="M11.0014 15.2767C12.3169 15.2767 13.4454 14.167 13.4454 12.7213C13.4454 11.4503 12.7086 9.90257 11.8141 8.54299C11.5573 8.15423 11.2863 7.77513 11.0014 7.40646C10.7166 7.77516 10.4456 8.15426 10.1888 8.54299C9.29492 9.90318 8.55744 11.4497 8.55744 12.7219C8.55744 14.167 9.68595 15.2767 11.0014 15.2767ZM10.2053 6.44101C9.12689 7.8018 7.33545 10.411 7.33545 12.7213C7.33545 14.8074 8.97659 16.4988 11.0014 16.4988C13.0263 16.4988 14.6674 14.8074 14.6674 12.7213C14.6674 10.4116 12.876 7.80241 11.7976 6.44101C11.3332 5.85441 11.0014 5.5 11.0014 5.5C11.0014 5.5 10.669 5.85441 10.2053 6.44101Z" fill="#9BA1A1"/>
<path fill-rule="evenodd" clip-rule="evenodd" d="M5.41684 2.97444C3.49827 4.30841 2.12093 6.28552 1.53437 8.54757C0.947806 10.8096 1.19082 13.207 2.21939 15.3053C3.24796 17.4035 4.99404 19.064 7.14128 19.9857C9.28852 20.9075 11.6949 21.0296 13.9244 20.3299L14.2897 21.4958C11.7817 22.2826 9.07473 22.145 6.65933 21.108C4.24393 20.0709 2.2798 18.203 1.12277 15.8426C-0.0342689 13.4822 -0.307691 10.7854 0.352032 8.24074C1.01175 5.6961 2.56099 3.47191 4.71909 1.9711L5.41746 2.97444H5.41684ZM16.5859 19.0241C18.5034 17.6897 19.8797 15.7127 20.4657 13.4512C21.0516 11.1896 20.8084 8.79297 19.78 6.69527C18.7516 4.59756 17.0062 2.93747 14.8596 2.01563C12.7131 1.09378 10.3075 0.97112 8.07835 1.66986L7.71297 0.503379C10.2208 -0.282653 12.9272 -0.144574 15.342 0.892611C17.7569 1.9298 19.7205 3.79751 20.8773 6.15753C22.0341 8.51754 22.3076 11.2138 21.6483 13.7581C20.9889 16.3024 19.4404 18.5264 17.283 20.0274L16.5846 19.0241H16.5859Z" fill="#9BA1A1"/>
<path fill-rule="evenodd" clip-rule="evenodd" d="M4.89148 2.44474H0.614502V1.22266H6.11347V6.72205H4.89148V2.44474ZM17.1114 19.554H21.3884V20.776H15.8894V15.2767H17.1114V19.554Z" fill="#9BA1A1"/>
</svg>
