<svg width="50" height="51" viewBox="0 0 50 51" fill="none" xmlns="http://www.w3.org/2000/svg">
<path fill-rule="evenodd" clip-rule="evenodd" d="M10.416 10.917C8.75841 10.917 7.1687 11.5755 5.9966 12.7476C4.8245 13.9197 4.16602 15.5094 4.16602 17.167V33.8337C4.16602 35.4913 4.8245 37.081 5.9966 38.2531C7.1687 39.4252 8.75841 40.0837 10.416 40.0837H31.2494C32.907 40.0837 34.4967 39.4252 35.6688 38.2531C36.8409 37.081 37.4994 35.4913 37.4994 33.8337V30.5295L42.2764 35.3066C42.5678 35.5978 42.939 35.7962 43.343 35.8765C43.7471 35.9569 44.1659 35.9156 44.5465 35.758C44.9272 35.6003 45.2525 35.3334 45.4814 34.9909C45.7104 34.6483 45.8326 34.2456 45.8327 33.8337V17.167C45.8326 16.755 45.7104 16.3523 45.4814 16.0098C45.2525 15.6673 44.9272 15.4003 44.5465 15.2427C44.1659 15.085 43.7471 15.0438 43.343 15.1241C42.939 15.2045 42.5678 15.4028 42.2764 15.6941L37.4994 20.4712V17.167C37.4994 15.5094 36.8409 13.9197 35.6688 12.7476C34.4967 11.5755 32.907 10.917 31.2494 10.917H10.416Z" fill="#2F80C5"/>
</svg>
