<svg width="17" height="10" viewBox="0 0 17 10" fill="none" xmlns="http://www.w3.org/2000/svg">
<path d="M8.50076 3.24185C9.42805 3.24185 10.3174 3.57152 10.9731 4.15834C11.6287 4.74515 11.9971 5.54104 11.9971 6.37093C11.9971 7.20081 11.6287 7.9967 10.9731 8.58352C10.3174 9.17033 9.42805 9.5 8.50076 9.5C7.57347 9.5 6.68416 9.17033 6.02846 8.58352C5.37277 7.9967 5.00441 7.20081 5.00441 6.37093C5.00441 5.54104 5.37277 4.74515 6.02846 4.15834C6.68416 3.57152 7.57347 3.24185 8.50076 3.24185ZM8.50076 0.5C12.5329 0.5 16.0144 2.96415 16.9803 6.41708C17.0226 6.56802 16.9962 6.72781 16.9068 6.86131C16.8175 6.99481 16.6726 7.09108 16.5039 7.12894C16.3353 7.16681 16.1567 7.14316 16.0075 7.06321C15.8584 6.98325 15.7508 6.85354 15.7085 6.70261C15.3038 5.26595 14.3748 3.99131 13.0688 3.08081C11.7628 2.1703 10.1545 1.67604 8.49896 1.6764C6.84344 1.67676 5.23544 2.17172 3.92991 3.08279C2.62439 3.99386 1.69607 5.2689 1.29215 6.70574C1.27132 6.78052 1.23423 6.85091 1.183 6.91286C1.13177 6.97482 1.06741 7.02714 0.993592 7.06684C0.919771 7.10654 0.837936 7.13284 0.752759 7.14423C0.667583 7.15562 0.580733 7.15189 0.497168 7.13325C0.413603 7.1146 0.33496 7.08141 0.265728 7.03556C0.196497 6.98972 0.138034 6.93212 0.0936766 6.86605C0.049319 6.79998 0.0199359 6.72675 0.00720497 6.65052C-0.00552598 6.57429 -0.00135562 6.49656 0.0194782 6.42177C0.49351 4.72995 1.58554 3.22837 3.12214 2.15549C4.65875 1.0826 6.55183 0.499931 8.50076 0.5Z" fill="#ACACAC"/>
</svg>
