<svg width="318" height="210" viewBox="0 0 318 210" fill="none" xmlns="http://www.w3.org/2000/svg">
<path d="M307.709 113.878C303.944 130.986 293.835 146.122 279.801 158.908C249.706 186.323 201.548 202.928 159.08 204.951C158.3 204.987 157.524 205.019 156.751 205.048C151.509 205.231 146.027 205.202 140.385 204.951C104.653 203.352 62.6174 192.815 36.0828 171.001C25.3063 162.145 17.0859 151.428 12.8805 138.696C12.4999 137.536 12.1454 136.357 11.8282 135.154C5.8914 112.865 10.7983 83.7437 29.1012 68.9889C36.4896 63.0324 45.7138 59.6949 55.0313 57.9525H55.035C62.1956 56.672 69.475 56.111 76.756 56.2783C84.0084 56.4024 91.2392 57.0812 98.3799 58.3081C102.253 58.9943 106.029 59.8925 109.903 60.7942H109.906C112.123 61.308 114.369 61.8253 116.687 62.3031H116.69C122.599 63.5843 128.619 64.3313 134.672 64.5341C138.955 64.6486 143.241 64.4697 147.497 63.9988C149.274 63.8048 155.464 63.0863 166.797 60.0506C200.275 51.0763 207.313 40.9595 226.146 36.3502C239.437 33.0953 257.386 32.8762 273.08 38.6674C278.781 40.7251 284.094 43.6667 288.809 47.3759H288.812C289.529 47.9471 290.23 48.5327 290.917 49.147C305.481 62.1271 308.992 80.902 309.268 94.9023C309.474 105.36 307.869 113.153 307.709 113.878Z" fill="#E5E5E5"/>
<path d="M307.47 113.878C295.477 168.337 219.24 202.842 156.51 205.048C104.582 206.874 28.8321 187.728 12.6393 138.693C12.2575 137.534 11.9063 136.355 11.5859 135.153C64.526 148.971 121.382 149.059 173.91 133.733C218.926 120.599 263.302 96.7694 309.027 94.9023C309.233 105.359 307.63 113.152 307.47 113.878Z" fill="#E5E5E5"/>
<path d="M112.968 47.8223C100.412 45.2191 87.1155 40.2139 80.9347 29.3744C78.7148 25.4818 77.5954 20.7255 79.2271 16.5722C81.4183 10.9943 87.8756 8.04837 94.0038 7.1901C101.674 6.13593 109.494 7.45577 116.335 10.9591C125.641 15.7545 133.104 24.5563 143.555 25.9747C151.55 27.0586 159.312 23.4994 167.013 21.1635C174.714 18.8276 184.134 18.0408 189.923 23.4595C191.307 24.755 191.538 26.4773 191.671 27.1807C192.801 33.1085 186.702 38.548 184.497 40.515C181.487 43.2001 174.496 48.2728 152.617 49.9718C140.843 50.8857 128.838 51.1128 112.968 47.8223Z" fill="#E5E5E5"/>
<path d="M236.436 125.095L236.235 125.059L236.193 125.052H236.19L232.578 124.448L214.375 121.394L186.345 116.695L177.12 115.15L159.665 125.515L115.551 151.701L107.256 156.627L115.241 158.1L245.309 182.084C268.254 170.422 287.677 154.662 298.86 135.556L236.436 125.095Z" fill="#ACACAC"/>
<path d="M236.824 124.196L236.649 124.16L233.481 123.575L214.521 120.054L188.628 115.247L186.344 116.695L164.258 130.706L211.013 152.193L233.667 127.821C233.675 127.811 233.683 127.801 233.693 127.792L235.731 125.608L235.798 125.533L236.234 125.058L236.51 124.764L236.514 124.76L237.007 124.229L236.824 124.196Z" fill="#8EA2A5"/>
<path d="M185.908 90.6025L157.373 107.542L214.733 118.118L242.126 100.026L185.908 90.6025Z" fill="#B74143"/>
<path d="M157.373 107.542L161.823 142.434L211.015 152.194L214.734 118.119L157.373 107.542Z" fill="#D24D51"/>
<path d="M242.128 100.025L214.734 118.119L211.016 152.193L233.861 136.444L242.128 100.025Z" fill="#B74143"/>
<path d="M243.753 99.6844C243.684 99.3728 243.519 99.0884 243.28 98.8675C243.041 98.6467 242.74 98.4995 242.414 98.445L186.191 89.0216C185.79 88.9547 185.377 89.0314 185.031 89.2372L156.496 106.176C156.211 106.347 155.986 106.596 155.85 106.891C155.714 107.187 155.674 107.515 155.735 107.833C155.796 108.15 155.955 108.443 156.191 108.673C156.427 108.902 156.73 109.057 157.06 109.119L157.586 109.216L214.42 119.695C214.465 119.702 214.513 119.71 214.558 119.713C214.616 119.72 214.675 119.724 214.733 119.724C215.07 119.725 215.398 119.626 215.674 119.44L241.608 102.314L243.07 101.348C243.343 101.167 243.553 100.912 243.675 100.616C243.796 100.32 243.824 99.9956 243.753 99.6844ZM161.892 106.744L186.244 92.2837L237.813 100.931L214.364 116.419L161.892 106.744Z" fill="#E66767"/>
<path d="M238.544 115.514L238.036 117.639C224.115 141.02 193.249 130.044 184.983 126.501C182.881 125.601 180.39 127.916 182.418 128.9C182.814 129.086 183.233 129.22 183.666 129.3C217.305 148.258 233.983 127.827 236.379 124.821C236.664 124.463 236.917 124.081 237.136 123.682C242.415 117.126 238.544 115.514 238.544 115.514Z" fill="#32477B"/>
<path d="M245.239 182.12C217.988 195.959 185.777 204.02 156.511 205.048C144.187 205.428 131.852 204.779 119.644 203.108C115.532 202.558 111.394 201.89 107.256 201.107V156.627L115.241 158.104L245.239 182.12Z" fill="#ACACAC"/>
<path d="M136.961 130.081C134.692 133.14 131.306 135.261 127.483 136.02C126.56 136.2 125.622 136.301 124.68 136.322L116.281 136.509L116.038 141.531L115.102 160.996L109.292 161.028L107.914 161.035L53.7411 161.341L53.1814 161.344L48.9462 161.369L48.3678 161.373L43.8228 161.398L45.0617 141.599C42.0093 146.374 37.7256 149.072 33.1807 150.067C32.9456 150.121 32.7068 150.168 32.4717 150.207C32.4232 150.214 32.3747 150.225 32.3261 150.232C31.2242 150.425 30.1064 150.521 28.9865 150.52C25.9317 150.511 22.9182 149.84 20.1691 148.558C17.42 147.276 15.0058 145.414 13.1053 143.112C12.9896 142.968 12.8777 142.824 12.7657 142.677C12.1909 141.922 11.6817 141.123 11.2433 140.288C9.39246 136.792 8.70213 132.553 9.79919 127.818L11.7769 119.282L11.9448 118.556L16.2248 100.069L16.3741 99.4186L17.5681 94.2632C18.5219 90.1279 20.3128 86.214 22.8385 82.7454C23.018 82.4939 23.2045 82.2424 23.3948 81.9981C23.6896 81.6137 23.9956 81.2365 24.3091 80.8665C29.0044 75.306 35.4817 71.4007 42.7276 69.7618C43.3135 69.6252 43.9064 69.5103 44.5038 69.4061C44.6904 69.3738 44.8732 69.3414 45.0598 69.3163C46.8646 69.0339 48.6905 68.8945 50.519 68.8995L105.965 69.0361H106.036C106.271 69.0396 106.506 69.0432 106.737 69.0504C107.204 69.0648 107.667 69.0935 108.126 69.1367C111.605 69.4501 114.971 70.4924 117.988 72.1904C118.152 72.2802 118.313 72.3736 118.477 72.4706C121.119 74.0372 123.421 76.0834 125.253 78.4954C125.384 78.6642 125.511 78.8367 125.63 79.0091C125.772 79.2031 125.91 79.4007 126.037 79.6019C127.206 81.3334 128.125 83.2105 128.768 85.1812L130.589 90.7353L130.817 91.4215L135.735 106.417L135.921 106.981L139.157 116.839C139.888 119.058 140.071 121.411 139.69 123.711C139.309 126.01 138.375 128.192 136.962 130.081H136.961Z" fill="#9BA1A1"/>
<path d="M111.188 112.267H115.101L114 89.79L111.188 112.267Z" fill="#686F6F"/>
<path d="M111.188 112.267H115.101L114 89.79L111.188 112.267Z" fill="black" fill-opacity="0.2"/>
<path d="M92.5686 61.8107C92.5686 61.8107 85.228 62.2953 82.0391 60.9844C84.8364 64.076 88.6637 66.1344 92.8648 66.8065L92.5686 61.8107Z" fill="#E29474"/>
<path d="M75.1408 37.254L73.334 36.9515C71.6919 36.6766 70.0037 37.041 68.6407 37.9644C67.2776 38.8879 66.3514 40.2949 66.0658 41.8758C66.0334 42.0555 66.0091 42.239 65.9938 42.4223C65.881 43.761 66.325 45.0881 67.2282 46.1117C68.1314 47.1354 69.42 47.7717 70.8104 47.8809L74.268 48.1517L72.6564 67.2284C72.487 72.5835 76.5315 77.1465 81.5037 77.2542C82.8803 77.3617 84.2649 77.1839 85.5641 76.7327C86.8633 76.2815 88.047 75.5675 89.0354 74.6387C90.0238 73.7099 90.7939 72.5879 91.2939 71.3484C91.7939 70.1089 92.0122 68.7805 91.934 67.4529L91.6728 63.0218C91.6728 63.0218 104.581 63.652 98.3611 34.9137L80.5007 29.0938L75.1408 37.254Z" fill="#FFC1C2"/>
<path d="M88.4387 53.9365L88.0645 52.9299L92.4915 51.4038L90.2623 44.6008L91.3213 44.2793L93.8725 52.0637L88.4387 53.9365Z" fill="#ED9C9C"/>
<path d="M85.6879 44.2713C85.6999 43.5118 85.3366 42.8908 84.8764 42.884C84.4163 42.8773 84.0336 43.4875 84.0216 44.247C84.0097 45.0064 84.373 45.6275 84.8331 45.6342C85.2933 45.6409 85.676 45.0307 85.6879 44.2713Z" fill="#32477B"/>
<path d="M81.2401 43.4915C81.1793 43.4783 81.1249 43.4458 81.0856 43.3992C81.0463 43.3526 81.0244 43.2946 81.0235 43.2346C81.0225 43.1745 81.0426 43.1159 81.0804 43.0682C81.1182 43.0205 81.1716 42.9863 81.2319 42.9713C81.3775 42.9354 84.8142 42.1091 87.1079 43.0687C87.1754 43.0973 87.2283 43.1505 87.2551 43.2167C87.2818 43.2828 87.2801 43.3565 87.2504 43.4215C87.2207 43.4865 87.1655 43.5374 87.0967 43.5632C87.028 43.5889 86.9515 43.5873 86.884 43.5587C84.7694 42.6706 81.4013 43.4811 81.3678 43.4897C81.3259 43.4996 81.2823 43.5002 81.2401 43.4915Z" fill="#32477B"/>
<path d="M97.5219 44.6687C97.5339 43.9093 97.1705 43.2882 96.7104 43.2815C96.2503 43.2748 95.8676 43.885 95.8556 44.6444C95.8437 45.4039 96.207 46.025 96.6671 46.0317C97.1273 46.0384 97.51 45.4282 97.5219 44.6687Z" fill="#32477B"/>
<path d="M93.0736 43.8898C93.0128 43.8766 92.9584 43.844 92.9191 43.7974C92.8798 43.7508 92.8579 43.6928 92.8569 43.6328C92.856 43.5728 92.876 43.5142 92.9138 43.4664C92.9516 43.4187 93.005 43.3846 93.0654 43.3696C93.2105 43.3337 96.6443 42.5074 98.9406 43.4666C98.974 43.4806 99.0043 43.5008 99.0296 43.5261C99.055 43.5513 99.0749 43.5812 99.0882 43.6139C99.1016 43.6465 99.1081 43.6814 99.1075 43.7165C99.1068 43.7516 99.099 43.7863 99.0845 43.8185C99.0699 43.8507 99.0489 43.8798 99.0227 43.9042C98.9964 43.9286 98.9654 43.9477 98.9315 43.9606C98.8976 43.9735 98.8613 43.9798 98.8249 43.9791C98.7884 43.9785 98.7524 43.971 98.719 43.957C96.6036 43.0689 93.2359 43.8797 93.2023 43.888C93.1601 43.8981 93.1161 43.8987 93.0736 43.8898ZM79.2906 40.0931L86.1633 40.4089C86.3159 40.4161 86.4679 40.3853 86.6046 40.3194C86.7413 40.2536 86.858 40.1549 86.9436 40.033C87.0292 39.9111 87.0807 39.77 87.0932 39.6233C87.1056 39.4767 87.0786 39.3294 87.0148 39.1957L86.8842 38.9205C86.751 38.6411 86.5221 38.4142 86.2357 38.2781C85.9494 38.142 85.6232 38.1048 85.3117 38.1729L79.2365 39.4975C79.1621 39.5131 79.0962 39.5543 79.0511 39.6133C79.006 39.6724 78.9848 39.7452 78.9914 39.8182C78.9981 39.8912 79.0321 39.9594 79.0872 40.01C79.1422 40.0606 79.2146 40.0902 79.2906 40.0931ZM100.542 40.073L94.5378 40.576C94.4044 40.5877 94.27 40.566 94.1478 40.513C94.0256 40.4601 93.9198 40.3776 93.8404 40.2736C93.7611 40.1696 93.711 40.0476 93.6951 39.9195C93.6791 39.7914 93.6978 39.6615 93.7494 39.5424L93.8542 39.2974C93.9609 39.0485 94.1532 38.8424 94.399 38.7138C94.6447 38.5852 94.9289 38.5419 95.2039 38.5911L100.569 39.5507C100.634 39.5623 100.693 39.5964 100.734 39.6465C100.775 39.6967 100.796 39.7595 100.793 39.8233C100.79 39.8872 100.762 39.9477 100.716 39.9937C100.67 40.0397 100.608 40.068 100.542 40.0734V40.073Z" fill="#32477B"/>
<path d="M102.536 33.4063C101.305 34.9029 99.6502 36.0247 97.7717 36.6364C92.7066 38.205 84.7832 36.6537 82.0118 35.1024C81.8249 34.9979 81.6184 34.9299 81.4042 34.9022C81.19 34.8745 80.9722 34.8877 80.7633 34.9411C80.5544 34.9945 80.3584 35.087 80.1866 35.2133C80.0149 35.3396 79.8706 35.4972 79.7621 35.6772C79.7416 35.7106 79.7226 35.7451 79.705 35.78L76.3743 42.3127C76.3216 42.4223 76.2339 42.5128 76.124 42.571C76.0141 42.6292 75.8878 42.652 75.7635 42.6361C75.6349 42.6161 75.5175 42.554 75.4309 42.4604C75.3444 42.3667 75.2941 42.2472 75.2884 42.122L75.1623 39.3169C75.1406 38.835 74.9483 38.3748 74.6175 38.0125C74.2867 37.6503 73.8372 37.4079 73.3436 37.3255C71.7589 37.0601 70.1296 37.4115 68.814 38.3026C67.4984 39.1937 66.6043 40.5514 66.3284 42.0771C66.2398 42.5656 66.2168 43.063 66.2601 43.5572C66.3833 44.6867 66.9155 45.7384 67.7634 46.528C68.6114 47.3175 69.721 47.7944 70.8976 47.8751H70.9028L74.2451 48.137L73.6328 55.3862C65.4981 46.413 61.8682 37.8238 62.4462 34.1284C62.7091 32.5602 63.1858 31.0323 63.8641 29.5842C64.6094 28.1195 65.5763 26.7694 66.7333 25.5781C71.7835 20.0692 71.2319 19.9664 73.3156 18.0336C74.8873 16.5758 82.76 9.27345 91.7569 10.625C93.1917 10.8405 96.0593 11.2717 98.2165 13.5296C102.116 17.6119 100.167 23.9758 99.9826 24.5481C102.354 25.3467 104.119 27.0421 104.361 29.0187C104.592 30.9199 103.336 32.4388 102.536 33.4063Z" fill="#32477B"/>
<path d="M99.7018 51.6869L97.3779 52.7122C97.1499 52.8136 96.9569 52.9758 96.8217 53.1795C96.6865 53.3833 96.6148 53.6201 96.6151 53.8619V60.668C96.6147 62.4474 96.0235 64.1801 94.9278 65.6131C93.8321 67.046 92.2893 68.1042 90.5246 68.6332L80.2134 71.7228L79.4257 71.9578L75.3181 74.1765L60.375 68.6626C60.375 68.6626 88.9164 45.7778 99.6134 49.6578C99.8251 49.7329 100.009 49.8666 100.142 50.0421C100.275 50.2176 100.351 50.427 100.36 50.644C100.37 50.861 100.312 51.0758 100.195 51.2614C100.078 51.447 99.9062 51.5951 99.7018 51.6869Z" fill="#FFC1C2"/>
<path d="M97.1692 60.6658H96.0599V53.8607C96.0605 53.5171 96.1631 53.1809 96.3557 52.8916C96.5483 52.6024 96.8228 52.3722 97.1468 52.2282L99.4704 51.2008C99.5884 51.1442 99.6854 51.054 99.7481 50.9423C99.8107 50.8307 99.836 50.7031 99.8204 50.5771C99.8178 50.4839 99.7835 50.3942 99.7228 50.3216C99.6622 50.249 99.5785 50.1976 99.4846 50.1751C89.045 47.7637 72.7038 60.4172 72.5414 60.5451L71.8418 59.7163C72.528 59.1795 88.7723 46.6033 99.7443 49.1365C100.064 49.2084 100.351 49.3771 100.563 49.6177C100.776 49.8583 100.903 50.1582 100.925 50.4732C100.963 50.8203 100.889 51.1703 100.711 51.4746C100.533 51.7788 100.262 52.0223 99.9339 52.1711L97.6103 53.1986C97.4788 53.2569 97.3674 53.3503 97.2893 53.4676C97.2111 53.5849 97.1695 53.7213 97.1692 53.8607V60.6658ZM94.184 66.4581C93.1738 67.4685 91.9144 68.2162 90.5231 68.6316L80.2119 71.7213C78.7939 71.0721 78.1096 70.3755 78.8335 70.1725C81.4269 69.4486 94.184 66.4581 94.184 66.4581Z" fill="#ED9C9C"/>
<path d="M58.5332 69.8612L78.834 80.5963L83.1453 73.045L64.4495 60.5898L58.5332 69.8612Z" fill="#686F6F"/>
<path d="M58.5332 69.8612L78.834 80.5963L83.1453 73.045L64.4495 60.5898L58.5332 69.8612Z" fill="black" fill-opacity="0.2"/>
<path d="M24.0769 130.073L23.1328 129.643L59.2263 68.835L60.1704 69.2654L24.0769 130.073Z" fill="#686F6F"/>
<path d="M24.0769 130.073L23.1328 129.643L59.2263 68.835L60.1704 69.2654L24.0769 130.073Z" fill="black" fill-opacity="0.2"/>
<path d="M72.4975 92.0117L51.6012 140.742C51.008 142.497 50.8493 144.362 51.1377 146.187C51.5496 148.793 52.8531 151.192 54.8417 153.005C56.8303 154.817 59.3902 155.939 62.1158 156.192L113.845 160.995L43.8203 161.397L45.0588 141.602L72.4975 92.0117Z" fill="#686F6F"/>
<path d="M72.4975 92.0117L51.6012 140.742C51.008 142.497 50.8493 144.362 51.1377 146.187C51.5496 148.793 52.8531 151.192 54.8417 153.005C56.8303 154.817 59.3902 155.939 62.1158 156.192L113.845 160.995L43.8203 161.397L45.0588 141.602L72.4975 92.0117Z" fill="black" fill-opacity="0.2"/>
<path d="M136.959 130.081C135.559 131.971 133.719 133.519 131.587 134.603C129.455 135.686 127.089 136.275 124.678 136.321L116.283 136.509H51.4103L53.5985 130.805L136.959 130.081ZM32.326 150.232C31.2241 150.424 30.1063 150.52 28.9864 150.519C25.9316 150.51 22.9181 149.84 20.169 148.558C17.4199 147.275 15.0057 145.414 13.1052 143.111C12.9895 142.968 12.8776 142.824 12.7656 142.677C12.1908 141.922 11.6815 141.123 11.2432 140.288C13.2555 139.19 15.5154 138.582 17.827 138.515C20.1386 138.449 22.4322 138.926 24.5091 139.906C26.5859 140.885 28.3833 142.338 29.7454 144.137C31.1075 145.936 31.9933 148.028 32.326 150.232Z" fill="#686F6F"/>
<path d="M136.959 130.081C135.559 131.971 133.719 133.519 131.587 134.603C129.455 135.686 127.089 136.275 124.678 136.321L116.283 136.509H51.4103L53.5985 130.805L136.959 130.081ZM32.326 150.232C31.2241 150.424 30.1063 150.52 28.9864 150.519C25.9316 150.51 22.9181 149.84 20.169 148.558C17.4199 147.275 15.0057 145.414 13.1052 143.111C12.9895 142.968 12.8776 142.824 12.7656 142.677C12.1908 141.922 11.6815 141.123 11.2432 140.288C13.2555 139.19 15.5154 138.582 17.827 138.515C20.1386 138.449 22.4322 138.926 24.5091 139.906C26.5859 140.885 28.3833 142.338 29.7454 144.137C31.1075 145.936 31.9933 148.028 32.326 150.232Z" fill="black" fill-opacity="0.2"/>
<path d="M136.961 130.081C134.692 133.14 131.306 135.261 127.483 136.02C127.347 135.262 127.28 134.494 127.281 133.724C127.282 130.373 128.56 127.139 130.873 124.635C133.186 122.132 136.373 120.532 139.83 120.141C140.131 123.677 139.114 127.202 136.961 130.081ZM126.035 79.6019C124.143 80.1304 122.158 80.2749 120.206 80.0262C118.253 79.7775 116.375 79.1411 114.692 78.1573C113.008 77.1734 111.554 75.8637 110.424 74.3109C109.293 72.7581 108.51 70.9962 108.124 69.1367C111.603 69.4502 114.969 70.4924 117.986 72.1904C118.15 72.2802 118.311 72.3736 118.475 72.4706C121.118 74.0373 123.419 76.0835 125.251 78.4954C125.382 78.6643 125.509 78.8367 125.628 79.0092C125.77 79.2032 125.908 79.4007 126.035 79.6019ZM42.7272 69.7618C42.4353 71.7343 41.6997 73.6216 40.5718 75.2921C39.4439 76.9625 37.9509 78.3758 36.197 79.4332C34.4431 80.4907 32.4706 81.1668 30.4173 81.4143C28.3639 81.6619 26.2792 81.4749 24.3086 80.8665C29.0039 75.306 35.4812 71.4008 42.7272 69.7618Z" fill="#686F6F"/>
<path d="M136.961 130.081C134.692 133.14 131.306 135.261 127.483 136.02C127.347 135.262 127.28 134.494 127.281 133.724C127.282 130.373 128.56 127.139 130.873 124.635C133.186 122.132 136.373 120.532 139.83 120.141C140.131 123.677 139.114 127.202 136.961 130.081ZM126.035 79.6019C124.143 80.1304 122.158 80.2749 120.206 80.0262C118.253 79.7775 116.375 79.1411 114.692 78.1573C113.008 77.1734 111.554 75.8637 110.424 74.3109C109.293 72.7581 108.51 70.9962 108.124 69.1367C111.603 69.4502 114.969 70.4924 117.986 72.1904C118.15 72.2802 118.311 72.3736 118.475 72.4706C121.118 74.0373 123.419 76.0835 125.251 78.4954C125.382 78.6643 125.509 78.8367 125.628 79.0092C125.77 79.2032 125.908 79.4007 126.035 79.6019ZM42.7272 69.7618C42.4353 71.7343 41.6997 73.6216 40.5718 75.2921C39.4439 76.9625 37.9509 78.3758 36.197 79.4332C34.4431 80.4907 32.4706 81.1668 30.4173 81.4143C28.3639 81.6619 26.2792 81.4749 24.3086 80.8665C29.0039 75.306 35.4812 71.4008 42.7272 69.7618Z" fill="black" fill-opacity="0.2"/>
<path d="M45.5392 141.803L44.582 141.4L79.8904 77.2861L80.8476 77.6892L45.5392 141.803Z" fill="#686F6F"/>
<path d="M45.5392 141.803L44.582 141.4L79.8904 77.2861L80.8476 77.6892L45.5392 141.803Z" fill="black" fill-opacity="0.2"/>
<path d="M67.9391 43.4278C67.9152 43.3376 67.3693 41.205 68.6447 39.8589C69.4906 38.9665 70.8929 38.6643 72.8098 38.9586L72.6553 39.8891C71.0858 39.6473 69.9813 39.8499 69.3693 40.4912C68.4488 41.4579 68.8824 43.1791 68.8872 43.196L67.9391 43.4278Z" fill="#ED9C9C"/>
<path d="M119.645 203.107C115.532 202.558 111.394 201.89 107.256 201.106C99.3258 199.616 91.4916 197.686 83.7925 195.326C83.2775 195.168 82.7589 195.006 82.2477 194.841C82.0387 194.776 81.8297 194.708 81.6208 194.64C81.4118 194.571 81.2028 194.507 80.9976 194.439C66.9971 189.894 53.7876 183.83 42.623 176.109L43.4141 166.398V166.395L43.8246 161.397L50.9928 161.358H51.2875L80.367 161.193H80.3707L81.6208 161.186L86.953 161.153H87.5389L103.323 161.063L107.256 161.038L109.211 161.027H109.543L110.465 161.024L115.062 160.995H115.103L116.353 172.563L116.357 172.588V172.599L116.413 173.142V173.145L119.645 203.107Z" fill="#373737"/>
<path d="M115.1 160.995L43.4141 166.396L43.8219 161.397L115.1 160.995Z" fill="#474747"/>
<path d="M83.7928 195.326C83.2779 195.168 82.7592 195.006 82.248 194.841C82.039 194.776 81.8301 194.708 81.6211 194.64V188.971L82.248 190.807L83.7928 195.326Z" fill="#4F25C1"/>
<path d="M82.2481 185.867V194.841C82.0391 194.777 81.8302 194.709 81.6212 194.64C81.4122 194.572 81.2033 194.507 80.998 194.439V185.867H82.2481Z" fill="#9BA1A1"/>
<path d="M81.6225 161.164H80.3691V173.238H81.6225V161.164Z" fill="#9BA1A1"/>
<path d="M83.0694 169.607C84.2088 169.654 85.3208 169.264 86.1617 168.522C88.6458 166.244 87.564 161.249 87.517 161.037L86.2916 161.291C86.3016 161.336 87.2729 165.839 85.296 167.649C84.4228 168.449 83.0299 168.611 81.1567 168.129L80.8335 169.296C81.5617 169.492 82.3133 169.597 83.0694 169.607ZM43.3213 174.643C44.17 174.668 45.0148 174.523 45.8015 174.215C46.5883 173.908 47.2996 173.445 47.8898 172.858C51.4619 169.291 50.5764 161.649 50.5369 161.325L49.2917 161.466C49.3006 161.54 50.1473 168.867 46.986 172.02C45.9084 173.096 44.5105 173.55 42.7183 173.411L42.6172 174.614C42.8567 174.633 43.0915 174.643 43.3213 174.643ZM115.359 173.249C115.734 173.247 116.107 173.208 116.474 173.133L116.218 171.952C115.726 172.077 115.211 172.086 114.715 171.98C114.219 171.874 113.756 171.655 113.366 171.341C110.303 168.884 110.463 161.087 110.465 161.009L109.211 160.979C109.203 161.324 109.041 169.442 112.564 172.268C113.343 172.908 114.335 173.256 115.359 173.249Z" fill="#9BA1A1"/>
<path d="M91.891 54.2972L91.6172 55.0537L96.4777 56.6844L96.7515 55.9279L91.891 54.2972Z" fill="#ED9C9C"/>
<path d="M91.8799 58.2423L91.625 59.0049L96.4853 60.511L96.7402 59.7483L91.8799 58.2423Z" fill="#ED9C9C"/>
<path d="M91.8827 62.192L91.623 62.9531L95.8078 64.2762L96.0675 63.515L91.8827 62.192Z" fill="#ED9C9C"/>
<path d="M100.348 50.8633L92.1992 54.0765C93.0464 54.192 93.9073 54.1773 94.7497 54.0327C95.5389 53.8961 96.4031 53.5006 98.0994 52.7149C100.062 51.8056 100.612 51.4266 100.557 51.1155C100.542 51.0619 100.515 51.0119 100.479 50.9686C100.444 50.9252 100.399 50.8894 100.348 50.8633Z" fill="#ED9C9C"/>
<path d="M116.281 137.042H47.5469L61.1071 111.734H122.063V112.802H61.7836L49.3675 135.974H116.281V137.042Z" fill="#686F6F"/>
<path d="M116.281 137.042H47.5469L61.1071 111.734H122.063V112.802H61.7836L49.3675 135.974H116.281V137.042Z" fill="black" fill-opacity="0.2"/>
<path d="M176.957 88.7219C176.793 88.7219 176.633 88.6752 176.497 88.5879C176.36 88.5005 176.254 88.3763 176.19 88.2308L172.179 79.0373C172.094 78.8417 172.094 78.6219 172.178 78.4261C172.262 78.2302 172.422 78.0743 172.625 77.9923C172.828 77.9103 173.056 77.9089 173.26 77.9885C173.464 78.068 173.627 78.2221 173.713 78.4169L177.724 87.6103C177.777 87.7321 177.798 87.8646 177.785 87.996C177.772 88.1274 177.726 88.2537 177.65 88.3637C177.574 88.4736 177.471 88.5639 177.35 88.6263C177.229 88.6888 177.095 88.7217 176.957 88.7219ZM184.941 82.1413C184.734 82.1414 184.535 82.0674 184.382 81.9338C184.229 81.8002 184.133 81.6165 184.113 81.4185L183.102 71.4943C183.089 71.3886 183.098 71.2815 183.129 71.1792C183.16 71.077 183.211 70.9817 183.281 70.8988C183.35 70.816 183.436 70.7473 183.533 70.6967C183.631 70.6462 183.737 70.6148 183.847 70.6044C183.957 70.594 184.068 70.6049 184.174 70.6363C184.28 70.6677 184.378 70.719 184.463 70.7873C184.547 70.8556 184.617 70.9395 184.668 71.034C184.719 71.1286 184.749 71.232 184.758 71.338L185.769 81.2622C185.79 81.4736 185.724 81.6845 185.584 81.8487C185.444 82.0129 185.242 82.1168 185.023 82.1377C184.996 82.1402 184.968 82.1413 184.941 82.1413ZM194.658 86.1054C194.588 86.1054 194.518 86.0967 194.45 86.0795C194.236 86.0264 194.053 85.8937 193.941 85.7107C193.829 85.5277 193.798 85.3094 193.853 85.1038L196.442 75.4487C196.497 75.243 196.635 75.0669 196.825 74.959C197.015 74.8511 197.241 74.8203 197.455 74.8733C197.669 74.9264 197.852 75.059 197.964 75.242C198.076 75.4249 198.108 75.6432 198.053 75.8489L195.464 85.5043C195.418 85.6762 195.313 85.8285 195.168 85.9373C195.022 86.0461 194.843 86.1052 194.658 86.1054ZM215.685 90.1079C215.541 90.1076 215.401 90.0717 215.276 90.0039C215.152 89.936 215.048 89.8384 214.974 89.7204C214.9 89.6025 214.859 89.4682 214.854 89.3304C214.85 89.1927 214.882 89.0563 214.949 88.9342L219.762 80.1043C219.813 80.0112 219.882 79.9286 219.966 79.8613C220.05 79.7939 220.147 79.7432 220.251 79.7119C220.356 79.6806 220.465 79.6694 220.574 79.6789C220.683 79.6884 220.789 79.7185 220.886 79.7673C220.982 79.8162 221.068 79.883 221.138 79.9638C221.208 80.0445 221.261 80.1378 221.293 80.2382C221.326 80.3386 221.337 80.4442 221.327 80.549C221.318 80.6537 221.286 80.7556 221.236 80.8487L216.422 89.6789C216.351 89.8084 216.245 89.9167 216.115 89.9923C215.985 90.0679 215.836 90.1079 215.685 90.1079ZM210.297 71.7587C208.936 71.2994 207.452 71.3045 206.095 71.7731C205.932 71.8273 205.783 71.915 205.658 72.03C205.534 72.145 205.436 72.2847 205.373 72.4394C205.31 72.5941 205.283 72.7601 205.293 72.9261C205.302 73.092 205.35 73.2539 205.431 73.4006L205.442 73.4221C205.579 73.6619 205.799 73.8479 206.063 73.9476C206.328 74.0474 206.62 74.0547 206.89 73.9682C207.599 73.7347 208.368 73.7347 209.077 73.9682C210.405 74.4244 210.883 75.4914 210.45 76.6662C209.752 78.5631 206.461 78.9044 204.979 81.2647C204.847 81.4748 204.777 81.716 204.778 81.9617C204.777 82.2429 204.867 82.5174 205.036 82.7472C205.204 82.977 205.443 83.1507 205.718 83.2443C206.022 83.3522 206.356 83.3542 206.661 83.2499C206.967 83.1455 207.225 82.9414 207.39 82.673C208.763 80.3666 212.36 80.2444 213.394 77.4458C214.386 74.755 212.991 72.6784 210.297 71.7587ZM205.05 85.0082C204.656 84.8529 204.222 84.8148 203.804 84.8989C203.387 84.983 203.005 85.1854 202.709 85.4801C202.412 85.7747 202.213 86.1481 202.139 86.5523C202.064 86.9564 202.117 87.3728 202.29 87.7479C202.463 88.1229 202.749 88.4395 203.111 88.6569C203.473 88.8742 203.893 88.9824 204.32 88.9675C204.746 88.9526 205.157 88.8153 205.502 88.5732C205.846 88.3312 206.107 87.9954 206.252 87.6092C206.357 87.3631 206.409 87.0991 206.405 86.833C206.401 86.567 206.341 86.3045 206.229 86.0614C206.116 85.8182 205.954 85.5996 205.752 85.4186C205.549 85.2376 205.31 85.098 205.05 85.0082Z" fill="#32477B"/>
</svg>
