<svg width="370" height="357" viewBox="0 0 370 357" fill="none" xmlns="http://www.w3.org/2000/svg">
<path d="M314.007 197.253C313.776 198.879 313.581 199.891 313.532 200.122C312.317 205.981 310.368 211.651 307.734 216.99V216.993C306.984 218.524 306.182 220.032 305.328 221.519C302.835 225.838 299.983 229.925 296.803 233.733C294.871 236.063 292.812 238.322 290.626 240.509C281.162 250.009 269.504 258.134 256.712 264.706C254.309 265.942 251.868 267.121 249.388 268.243C241.541 271.792 233.463 274.771 225.213 277.158C223.505 277.654 221.794 278.123 220.08 278.566C217.104 279.34 214.115 280.034 211.132 280.645C207.102 281.475 203.087 282.158 199.087 282.695C193.97 283.382 188.899 283.819 183.927 284.007C177.99 284.22 172.047 284.116 166.12 283.696C163.08 283.491 159.995 283.2 156.884 282.827C156.881 282.829 156.877 282.829 156.873 282.829C156.869 282.829 156.865 282.829 156.862 282.827C154.103 282.5 151.327 282.107 148.532 281.65C147.77 281.525 147.007 281.392 146.241 281.26C141.067 280.344 135.877 279.201 130.742 277.822C130.649 277.799 130.556 277.776 130.463 277.746C130.411 277.736 130.36 277.723 130.309 277.707C130.165 277.67 130.021 277.631 129.877 277.588C125.302 276.338 120.782 274.9 116.361 273.267C113.25 272.12 110.187 270.874 107.198 269.529C105.775 268.891 104.371 268.23 102.985 267.545C101.716 266.921 100.463 266.276 99.2239 265.612C91.9163 261.698 85.1949 257.12 79.3866 251.844C76.7556 249.463 74.2912 246.892 72.0117 244.152C68.5494 240.005 65.6234 235.411 63.3072 230.487C62.1682 228.051 61.1982 225.534 60.4046 222.957C60.0747 221.889 59.7724 220.803 59.498 219.697C58.2676 214.655 57.5884 209.486 57.4732 204.287C57.4412 203.041 57.4412 201.789 57.4732 200.532C57.5749 196.156 58.0628 191.799 58.9309 187.515C61.2344 176.226 66.2674 165.784 74.3311 158.819C88.216 146.82 109.652 146.383 122.931 147.527C128.105 147.973 132.043 148.658 133.811 148.995C136.441 149.494 139.017 150.112 141.622 150.76C151.274 153.157 161.334 155.927 175.981 154.228C177.506 154.049 182.821 153.388 192.551 150.595C199.82 148.56 206.923 145.94 213.795 142.757C214.102 142.612 214.407 142.47 214.708 142.328C215.486 141.954 216.236 141.587 216.97 141.22C217.155 141.128 217.344 141.032 217.527 140.939C219.004 140.192 220.398 139.455 221.73 138.734H221.737C221.785 138.708 221.83 138.682 221.878 138.655C222.06 138.556 222.24 138.46 222.419 138.361C222.437 138.353 222.454 138.343 222.47 138.331C224.412 137.277 226.235 136.255 228.016 135.287C228.384 135.085 228.753 134.887 229.118 134.692C229.374 134.556 229.631 134.417 229.887 134.285C230.063 134.193 230.239 134.1 230.412 134.007H230.416C231.486 133.452 232.549 132.917 233.635 132.408C235.324 131.611 237.057 130.877 238.902 130.216C240.357 129.69 241.878 129.214 243.506 128.788C259.64 124.554 283.767 125.906 299.116 140.562C311.617 152.505 314.635 169.78 314.872 182.665C314.96 187.544 314.671 192.422 314.007 197.253Z" fill="#E5E5E5"/>
<path d="M208.132 188.143V280.645C199.165 282.515 190.067 283.639 180.926 284.007C157.533 284.89 128.51 280.46 104.197 269.532C100.159 267.725 96.2161 265.699 92.3853 263.463C92.3821 263.463 92.3821 263.46 92.3789 263.46C90.0626 262.101 87.8189 260.671 85.6479 259.169C83.6648 257.797 81.7522 256.364 79.9101 254.868C78.7023 253.883 77.5276 252.873 76.386 251.837C67.595 243.854 60.8897 234.272 57.404 222.957C57.0773 221.889 56.7729 220.805 56.5006 219.701C55.268 214.658 54.5877 209.489 54.4727 204.29V200.532C54.5743 196.157 55.0622 191.801 55.9303 187.518H79.4135V220.927H83.4341V154.313H108.375V254.545H123.661V171.747L183.196 202.459V188.143C183.195 186.562 183.497 184.996 184.084 183.535C184.67 182.075 185.529 180.748 186.613 179.63C187.696 178.512 188.983 177.625 190.398 177.02C191.814 176.415 193.331 176.104 194.863 176.104H196.465C199.56 176.104 202.527 177.372 204.715 179.63C206.903 181.888 208.132 184.95 208.132 188.143ZM311.006 187.414V197.255C310.778 198.879 310.582 199.89 310.534 200.122C302.481 239.314 260.684 267.275 217.081 278.568V164.275H242.02V250.602H246.043V198.815L270.981 187.516V187.414C270.97 184.695 271.48 182.001 272.481 179.487C273.482 176.972 274.954 174.686 276.814 172.76C278.673 170.834 280.883 169.305 283.316 168.263C285.749 167.22 288.358 166.683 290.993 166.683C293.627 166.683 296.236 167.22 298.669 168.263C301.103 169.305 303.312 170.834 305.172 172.76C307.031 174.686 308.503 176.972 309.504 179.487C310.505 182.001 311.015 184.695 311.004 187.414H311.006Z" fill="#D8DFF3"/>
<path d="M305.329 221.518C302.837 225.837 299.984 229.924 296.803 233.732V226.431C296.803 223.716 300.405 221.517 304.851 221.517L305.329 221.518Z" fill="#BDCFD3"/>
<path d="M148.532 281.649C147.77 281.525 147.007 281.395 146.242 281.259C136.078 279.489 126.08 276.816 116.361 273.271L130.933 232.933L148.532 281.649ZM102.985 267.547C90.787 261.538 79.9944 253.792 72.0117 244.152L83.2727 212.98L102.985 267.547ZM307.734 216.993C306.986 218.525 306.184 220.033 305.329 221.517C302.836 225.837 299.983 229.923 296.802 233.731C294.869 236.062 292.811 238.321 290.627 240.508C273.781 257.415 249.994 269.967 225.212 277.159C223.505 277.653 221.795 278.122 220.081 278.567C217.104 279.338 214.12 280.031 211.131 280.646C207.102 281.475 203.087 282.158 199.085 282.695C199.665 282.203 200.278 281.753 200.919 281.349C204.611 279.031 208.925 277.802 212.335 275.064C210.567 273.672 211.964 270.767 213.559 269.169C217.361 265.368 221.904 262.447 226.886 260.599C226.085 254.146 232.951 248.065 239.012 249.856C239.051 248.275 239.634 246.759 240.658 245.581C241.681 244.403 243.077 243.639 244.596 243.425C246.115 243.212 247.659 243.564 248.95 244.417C250.241 245.271 251.195 246.57 251.642 248.084C251.9 245.82 252.516 243.614 253.465 241.556C254.294 239.757 256.888 239.895 257.499 241.787C257.502 241.8 257.506 241.813 257.511 241.825C259.521 237.653 265.84 236.682 268.94 240.073C267.859 235.918 272.709 231.583 276.54 233.28C274.702 230.496 274.205 226.607 275.939 223.752C277.673 220.898 281.884 219.763 284.408 221.901C282.616 218.749 284.873 214.046 288.39 213.604C290.184 213.379 291.965 214.093 293.774 214.141C294.708 214.162 295.63 213.908 296.429 213.408C298.43 212.102 301.047 212.297 302.644 214.1C303.726 215.357 304.569 216.813 305.128 218.393C306.027 217.953 306.887 217.467 307.734 216.993Z" fill="#CAD4EF"/>
<path d="M141.334 135.744C130.554 133.349 119.138 128.743 113.831 118.77C111.926 115.188 110.964 110.812 112.365 106.991C114.247 101.858 119.791 99.1478 125.052 98.3581C131.638 97.3883 138.352 98.6027 144.225 101.826C152.214 106.238 158.621 114.338 167.594 115.643C174.458 116.64 181.122 113.366 187.734 111.217C194.346 109.068 202.433 108.343 207.403 113.329C208.591 114.521 208.79 116.106 208.905 116.753C209.874 122.207 204.638 127.212 202.744 129.022C200.16 131.492 194.159 136.16 175.374 137.723C165.267 138.563 154.961 138.771 141.334 135.744Z" fill="#E5E5E5"/>
<path d="M115.417 135.958H52.3426C51.2697 134.038 50.8294 131.811 51.0877 129.61C51.346 127.41 52.2891 125.356 53.7753 123.756C55.2616 122.156 57.2108 121.096 59.3303 120.736C61.4498 120.376 63.6252 120.736 65.53 121.76C65.7059 119.475 66.3629 117.257 67.4552 115.262C68.5474 113.266 70.0486 111.54 71.8539 110.204C73.6593 108.869 75.7253 107.956 77.9079 107.529C80.0905 107.103 82.337 107.172 84.4907 107.734C86.6444 108.295 88.6534 109.335 90.3776 110.78C92.1017 112.226 93.4994 114.042 94.4732 116.102C95.447 118.162 95.9734 120.416 96.0157 122.708C96.058 124.999 95.6151 127.273 94.718 129.37C101.61 131.628 108.369 134.386 115.417 135.958Z" fill="#E5E5E5"/>
<path d="M253.656 156.328H287.598C288.175 155.295 288.412 154.096 288.273 152.913C288.134 151.729 287.627 150.624 286.827 149.763C286.028 148.902 284.979 148.332 283.839 148.138C282.699 147.944 281.528 148.137 280.503 148.687C280.408 147.458 280.054 146.265 279.466 145.192C278.878 144.118 278.07 143.19 277.099 142.471C276.127 141.753 275.016 141.262 273.842 141.033C272.667 140.803 271.459 140.841 270.3 141.143C269.141 141.445 268.06 142.004 267.133 142.782C266.205 143.559 265.453 144.536 264.929 145.644C264.405 146.752 264.121 147.965 264.098 149.198C264.075 150.431 264.312 151.654 264.795 152.783C261.086 153.996 257.448 155.481 253.656 156.328Z" fill="#D8DFF3"/>
<path d="M219.66 112.059H305.718C307.182 109.439 307.782 106.4 307.429 103.399C307.076 100.397 305.79 97.5948 303.762 95.4119C301.734 93.229 299.075 91.7835 296.184 91.2924C293.292 90.8013 290.325 91.291 287.726 92.6881C287.486 89.5703 286.59 86.5439 285.1 83.8202C283.61 81.0965 281.562 78.7412 279.099 76.9185C276.635 75.0959 273.816 73.8499 270.838 73.2675C267.86 72.6851 264.794 72.7804 261.855 73.5466C258.917 74.3129 256.175 75.7317 253.823 77.7039C251.47 79.6762 249.563 82.1545 248.234 84.9658C246.906 87.777 246.188 90.8536 246.131 93.9806C246.074 97.1077 246.679 100.21 247.904 103.071C238.499 106.147 229.277 109.913 219.66 112.059Z" fill="#E5E5E5"/>
<path d="M212.936 280.265C212.334 280.394 211.735 280.523 211.133 280.645H211.129C210.626 280.751 210.123 280.85 209.62 280.949C209.262 281.019 208.903 281.091 208.544 281.158C208.111 281.24 207.676 281.323 207.243 281.399C206.926 281.462 206.612 281.518 206.298 281.571C205.898 281.643 205.497 281.713 205.097 281.779C204.61 281.862 204.126 281.944 203.639 282.024L203.498 282.043C203.027 282.119 202.556 282.192 202.088 282.265C201.085 282.417 200.084 282.56 199.087 282.695C198.446 282.781 197.807 282.862 197.171 282.939C196.604 283.009 196.037 283.075 195.473 283.138C195.152 283.177 194.832 283.21 194.515 283.24C194.265 283.27 194.015 283.296 193.765 283.319C193.458 283.352 193.15 283.382 192.846 283.409C192.436 283.452 192.022 283.488 191.612 283.521C191.529 283.531 191.446 283.538 191.366 283.544C190.779 283.597 190.193 283.643 189.61 283.686C189.578 283.69 189.543 283.693 189.511 283.693C188.966 283.733 188.421 283.772 187.877 283.805C187.784 283.812 187.691 283.818 187.598 283.822C187.134 283.852 186.672 283.878 186.211 283.901C185.445 283.944 184.683 283.977 183.923 284.007C181.995 284.08 180.031 284.116 178.032 284.116C177.468 284.116 176.901 284.113 176.334 284.106C175.828 284.103 175.315 284.096 174.806 284.083C174.588 284.08 174.37 284.076 174.152 284.07C173.7 284.06 173.246 284.047 172.787 284.033C172.765 284.034 172.742 284.033 172.72 284.03C172.121 284.014 171.522 283.99 170.92 283.964C169.821 283.918 168.716 283.861 167.604 283.795C167.54 283.792 167.476 283.785 167.415 283.782C167.226 283.772 167.04 283.759 166.851 283.746C166.383 283.716 165.912 283.686 165.441 283.65C165.009 283.62 164.576 283.587 164.141 283.551C163.407 283.495 162.673 283.432 161.94 283.362C161.699 283.342 161.456 283.319 161.216 283.296C160.934 283.27 160.649 283.24 160.363 283.214C160.152 283.19 159.937 283.171 159.726 283.147C158.457 283.015 157.184 282.87 155.907 282.711C155.346 282.642 154.786 282.572 154.225 282.496C153.825 282.443 153.424 282.387 153.027 282.331C152.71 282.288 152.396 282.242 152.079 282.195C150.896 282.027 149.714 281.842 148.532 281.65C148.53 281.65 148.529 281.65 148.527 281.65C148.525 281.649 148.524 281.648 148.523 281.647C148.145 281.587 147.766 281.521 147.388 281.458C147.01 281.396 146.626 281.326 146.242 281.26C145.873 281.194 145.505 281.128 145.136 281.058C144.383 280.923 143.629 280.78 142.874 280.629C142.506 280.559 142.141 280.486 141.776 280.41C141.481 280.354 141.186 280.295 140.895 280.232V280.229L141.535 270.547V270.543L141.888 265.274H142.618L148.955 265.271H149.08L149.227 265.274H149.231L177.702 265.268H177.705L178.474 265.264H178.926L184.119 265.261H184.125L184.648 265.264H184.696L200.97 265.261L203.838 265.258H206.375L206.945 265.261L211.129 265.258H211.43V265.268L212.039 271.307L212.645 277.34L212.648 277.366V277.379L212.702 277.945V277.948L212.936 280.265Z" fill="#656565"/>
<path d="M211.43 265.256L141.537 270.542L141.886 265.272L211.43 265.256Z" fill="#686F6F"/>
<path d="M211.43 265.256L141.537 270.542L141.886 265.272L211.43 265.256Z" fill="black" fill-opacity="0.2"/>
<path d="M177.447 277.897L178.668 277.903L178.605 265.243L177.383 265.235L177.447 277.897Z" fill="#4F4F4F"/>
<path d="M180.058 274.108C180.606 274.135 181.153 274.049 181.669 273.856C182.185 273.663 182.658 273.367 183.062 272.984C185.468 270.61 184.394 265.365 184.348 265.143L183.156 265.401C183.165 265.449 184.131 270.178 182.216 272.065C181.369 272.899 180.014 273.062 178.187 272.549L177.878 273.769C178.588 273.979 179.32 274.093 180.058 274.108ZM141.304 279.228C142.134 279.26 142.961 279.111 143.731 278.79C144.501 278.47 145.197 277.986 145.774 277.369C149.247 273.634 148.305 265.583 148.264 265.241L147.041 265.382C147.051 265.46 147.952 273.183 144.878 276.486C143.83 277.612 142.461 278.085 140.698 277.931L140.611 279.196C140.847 279.217 141.078 279.227 141.304 279.228ZM211.366 278.05C211.727 278.05 212.087 278.011 212.441 277.934L212.193 276.702C211.717 276.83 211.219 276.838 210.74 276.725C210.261 276.612 209.815 276.382 209.44 276.054C206.478 273.476 206.622 265.327 206.624 265.245L205.411 265.207C205.403 265.568 205.258 274.053 208.666 277.017C209.416 277.686 210.375 278.053 211.366 278.05Z" fill="#4F4F4F"/>
<path d="M242.951 215.44L221.047 233.677L211.586 214.157V265.268H141.89V213.387L131.186 231.108L109.529 210.819L131.257 174.603C132.858 171.933 135.095 169.729 137.753 168.201C140.412 166.673 143.405 165.872 146.449 165.873H206.465C209.14 165.873 211.781 166.492 214.192 167.686C216.604 168.881 218.725 170.618 220.398 172.772C221.082 173.649 221.686 174.589 222.202 175.581L242.951 215.44Z" fill="#ACACAC"/>
<path d="M195.06 133.173C195.06 133.173 196.582 140.445 195.253 141.879C193.923 143.313 188.678 129.301 195.06 133.173Z" fill="#32477B"/>
<path d="M175.274 124.629L193.274 130.172C200.551 160.6 187.676 160.411 187.676 160.411L188.104 165.129C188.233 166.542 188.066 167.968 187.615 169.309C187.164 170.651 186.439 171.877 185.49 172.905C184.541 173.933 183.39 174.739 182.113 175.269C180.837 175.799 179.465 176.04 178.09 175.977C176.827 175.918 175.588 175.604 174.443 175.052C173.298 174.499 172.27 173.72 171.417 172.757C170.564 171.795 169.903 170.668 169.472 169.442C169.041 168.216 168.848 166.914 168.904 165.612L169.789 145.198L166.337 145.039C165.649 145.007 164.974 144.836 164.351 144.535C163.727 144.235 163.167 143.81 162.703 143.286C162.239 142.762 161.879 142.148 161.644 141.481C161.409 140.813 161.304 140.104 161.335 139.395C161.344 139.199 161.361 139.004 161.387 138.809C161.498 137.968 161.768 137.159 162.183 136.426C162.597 135.693 163.147 135.052 163.802 134.539C164.457 134.026 165.203 133.651 165.998 133.435C166.793 133.219 167.622 133.167 168.436 133.282L170.246 133.537L175.274 124.629Z" fill="#FFC1C2"/>
<path d="M194.064 133.379C194.032 133.381 194.007 133.381 193.991 133.382C187.895 133.74 180.631 132.477 177.354 131.816C176.886 131.726 176.403 131.804 175.984 132.038C175.565 132.271 175.237 132.646 175.054 133.1C174.192 135.16 172.743 137.01 171.6 138.269C171.471 138.409 171.304 138.505 171.121 138.544C170.938 138.583 170.748 138.563 170.576 138.487C170.404 138.41 170.259 138.281 170.161 138.117C170.063 137.953 170.016 137.761 170.027 137.569L170.2 134.406C170.213 134.169 170.14 133.937 169.994 133.754C169.848 133.571 169.64 133.452 169.413 133.42L168.438 133.283C166.793 133.051 165.126 133.502 163.804 134.538C162.482 135.574 161.613 137.109 161.388 138.807C161.363 139.002 161.347 139.197 161.337 139.395C161.334 139.478 161.331 139.557 161.331 139.64C161.332 141.031 161.853 142.369 162.786 143.374C163.718 144.379 164.991 144.975 166.338 145.038L169.791 145.196L169.417 153.807C149.304 130.034 165.229 118.315 165.229 118.315C165.193 116.299 166.841 115.706 168.34 115.58C169.383 115.515 170.421 115.771 171.323 116.316C174.504 118.148 179.783 114.377 185.333 112.931C187.456 112.377 195.264 110.342 198.559 113.935C203.036 118.819 198.255 133.099 194.064 133.379Z" fill="#686F6F"/>
<path d="M194.064 133.379C194.032 133.381 194.007 133.381 193.991 133.382C187.895 133.74 180.631 132.477 177.354 131.816C176.886 131.726 176.403 131.804 175.984 132.038C175.565 132.271 175.237 132.646 175.054 133.1C174.192 135.16 172.743 137.01 171.6 138.269C171.471 138.409 171.304 138.505 171.121 138.544C170.938 138.583 170.748 138.563 170.576 138.487C170.404 138.41 170.259 138.281 170.161 138.117C170.063 137.953 170.016 137.761 170.027 137.569L170.2 134.406C170.213 134.169 170.14 133.937 169.994 133.754C169.848 133.571 169.64 133.452 169.413 133.42L168.438 133.283C166.793 133.051 165.126 133.502 163.804 134.538C162.482 135.574 161.613 137.109 161.388 138.807C161.363 139.002 161.347 139.197 161.337 139.395C161.334 139.478 161.331 139.557 161.331 139.64C161.332 141.031 161.853 142.369 162.786 143.374C163.718 144.379 164.991 144.975 166.338 145.038L169.791 145.196L169.417 153.807C149.304 130.034 165.229 118.315 165.229 118.315C165.193 116.299 166.841 115.706 168.34 115.58C169.383 115.515 170.421 115.771 171.323 116.316C174.504 118.148 179.783 114.377 185.333 112.931C187.456 112.377 195.264 110.342 198.559 113.935C203.036 118.819 198.255 133.099 194.064 133.379Z" fill="black" fill-opacity="0.2"/>
<path d="M164.246 140.111C164.24 140.092 163.744 138.272 164.624 137.207C165.209 136.499 166.301 136.242 167.873 136.441L167.991 135.442C166.071 135.2 164.687 135.575 163.879 136.559C162.66 138.043 163.283 140.298 163.311 140.393L164.246 140.111Z" fill="#ED9C9C"/>
<path d="M191.665 146.389L188.536 139.424L187.651 139.847L190.386 145.934L186.711 147.871L187.154 148.767L191.665 146.389Z" fill="#ED9C9C"/>
<path d="M192.603 139.293C192.669 140.003 193.051 140.547 193.451 140.507C193.851 140.468 194.124 139.856 194.056 139.147C194.044 139.006 194.017 138.868 193.976 138.734C193.926 138.538 193.836 138.356 193.714 138.198C193.415 138.182 193.115 138.185 192.817 138.208C192.715 138.367 192.648 138.546 192.621 138.735C192.591 138.919 192.585 139.107 192.603 139.293ZM178.22 135.569C178.213 135.533 178.213 135.495 178.22 135.459C178.227 135.422 178.241 135.387 178.261 135.356C178.281 135.325 178.307 135.299 178.337 135.278C178.367 135.258 178.401 135.243 178.436 135.236L183.79 134.094C184.065 134.035 184.35 134.075 184.599 134.208C184.848 134.341 185.045 134.558 185.157 134.823L185.267 135.084C185.321 135.211 185.342 135.35 185.329 135.488C185.315 135.626 185.268 135.758 185.19 135.871C185.113 135.984 185.009 136.075 184.887 136.135C184.766 136.194 184.632 136.22 184.498 136.211L178.473 135.797C178.412 135.793 178.354 135.769 178.309 135.728C178.263 135.686 178.232 135.631 178.22 135.569ZM195.726 134.86C195.732 134.794 195.713 134.729 195.672 134.678C195.632 134.627 195.573 134.595 195.51 134.589L190.743 134.108C190.499 134.084 190.254 134.147 190.049 134.286C189.844 134.426 189.692 134.634 189.618 134.876L189.546 135.113C189.51 135.229 189.504 135.352 189.528 135.471C189.552 135.59 189.605 135.7 189.683 135.791C189.76 135.883 189.859 135.952 189.97 135.992C190.081 136.032 190.201 136.042 190.316 136.02L195.527 135.081C195.58 135.072 195.627 135.045 195.663 135.005C195.699 134.965 195.721 134.914 195.726 134.86Z" fill="#32477B"/>
<path d="M188.111 165.189C184.331 164.686 180.839 162.842 178.232 159.974C181.129 161.121 187.677 160.41 187.677 160.41L188.111 165.189Z" fill="#ED9C9C"/>
<path d="M218.898 107.987C217.37 107.435 215.706 107.441 214.182 108.004C213.999 108.069 213.832 108.175 213.692 108.313C213.552 108.451 213.443 108.619 213.372 108.805C213.301 108.992 213.27 109.191 213.282 109.391C213.293 109.59 213.346 109.785 213.437 109.961L213.45 109.988C213.603 110.276 213.85 110.5 214.147 110.62C214.444 110.739 214.772 110.748 215.075 110.644C215.87 110.363 216.733 110.363 217.528 110.644C219.019 111.193 219.555 112.476 219.069 113.889C218.286 116.17 214.593 116.581 212.93 119.419C212.782 119.672 212.704 119.962 212.704 120.258C212.703 120.596 212.805 120.926 212.994 121.202C213.183 121.479 213.45 121.687 213.759 121.8C214.101 121.93 214.475 121.932 214.818 121.807C215.161 121.681 215.45 121.436 215.636 121.113C217.177 118.339 221.213 118.192 222.373 114.827C223.487 111.59 221.921 109.093 218.898 107.987ZM213.01 123.92C212.567 123.733 212.08 123.687 211.612 123.788C211.143 123.89 210.715 124.133 210.382 124.487C210.049 124.842 209.826 125.291 209.742 125.777C209.659 126.263 209.718 126.764 209.912 127.215C210.107 127.666 210.428 128.047 210.834 128.308C211.239 128.569 211.712 128.699 212.19 128.681C212.668 128.663 213.13 128.498 213.517 128.207C213.903 127.916 214.196 127.512 214.358 127.048C214.476 126.752 214.534 126.435 214.53 126.115C214.525 125.795 214.458 125.479 214.332 125.187C214.206 124.895 214.024 124.632 213.796 124.415C213.569 124.197 213.302 124.029 213.01 123.921V123.92ZM144.759 121.465C143.684 121.842 142.768 122.589 142.164 123.581C142.09 123.698 142.042 123.831 142.023 123.97C142.004 124.109 142.014 124.25 142.053 124.384C142.092 124.519 142.159 124.643 142.249 124.748C142.339 124.853 142.45 124.937 142.574 124.993L142.592 125.002C142.797 125.092 143.027 125.106 143.241 125.039C143.455 124.973 143.64 124.831 143.763 124.638C144.084 124.128 144.561 123.743 145.117 123.543C146.17 123.179 147.004 123.649 147.328 124.645C147.853 126.253 145.987 128.129 146.261 130.437C146.285 130.642 146.363 130.837 146.487 130.999C146.629 131.186 146.823 131.323 147.043 131.391C147.263 131.459 147.499 131.455 147.716 131.379C147.959 131.298 148.167 131.132 148.303 130.91C148.44 130.688 148.496 130.423 148.463 130.162C148.15 127.944 150.316 126.06 149.544 123.686C148.802 121.404 146.891 120.726 144.759 121.465ZM148.194 132.884C147.871 132.978 147.583 133.17 147.367 133.435C147.151 133.7 147.017 134.026 146.982 134.37C146.947 134.714 147.012 135.061 147.17 135.367C147.327 135.672 147.57 135.922 147.867 136.084C148.163 136.246 148.5 136.313 148.833 136.276C149.167 136.239 149.482 136.1 149.738 135.877C149.995 135.653 150.18 135.356 150.271 135.023C150.362 134.69 150.355 134.336 150.25 134.007C150.19 133.792 150.089 133.59 149.953 133.416C149.816 133.241 149.647 133.097 149.455 132.992C149.262 132.887 149.052 132.823 148.835 132.805C148.618 132.786 148.4 132.813 148.194 132.884Z" fill="#ACACAC"/>
<path d="M188.451 153.372L188.664 152.493C187.565 152.209 186.451 151.989 185.328 151.834C184.223 151.681 183.11 151.592 181.996 151.567L181.977 152.473C184.16 152.522 186.332 152.824 188.451 153.372Z" fill="#ED9C9C"/>
<path d="M189.8 138.759C189.811 138.759 189.822 138.759 189.832 138.759L194.919 138.525C194.966 138.524 195.012 138.514 195.054 138.494C195.096 138.475 195.134 138.447 195.166 138.412C195.198 138.377 195.222 138.336 195.238 138.291C195.254 138.246 195.261 138.198 195.259 138.15C195.257 138.103 195.246 138.056 195.226 138.013C195.206 137.969 195.178 137.931 195.143 137.899C195.108 137.867 195.068 137.843 195.024 137.828C194.98 137.812 194.934 137.806 194.887 137.81L189.8 138.043C189.711 138.047 189.626 138.086 189.564 138.152C189.502 138.219 189.467 138.307 189.467 138.4C189.467 138.492 189.501 138.581 189.563 138.648C189.624 138.715 189.709 138.754 189.798 138.759L189.8 138.759ZM182.15 139.374C182.217 140.083 182.599 140.627 182.999 140.588C183.399 140.549 183.672 139.937 183.604 139.227C183.592 139.087 183.565 138.949 183.524 138.814C183.474 138.619 183.384 138.437 183.262 138.279C182.963 138.262 182.663 138.266 182.365 138.289C182.263 138.447 182.197 138.627 182.17 138.815C182.139 139 182.133 139.188 182.15 139.374Z" fill="#32477B"/>
<path d="M179.448 138.905C179.459 138.905 179.47 138.905 179.48 138.905L184.567 138.672C184.658 138.665 184.742 138.622 184.802 138.552C184.862 138.483 184.894 138.391 184.889 138.298C184.885 138.204 184.846 138.116 184.78 138.053C184.714 137.989 184.626 137.954 184.535 137.956L179.448 138.19C179.359 138.193 179.275 138.233 179.212 138.299C179.15 138.365 179.116 138.454 179.115 138.546C179.115 138.639 179.149 138.728 179.211 138.794C179.273 138.861 179.357 138.901 179.446 138.905L179.448 138.905Z" fill="#32477B"/>
<path d="M211.588 201.315L221.047 233.676L211.588 214.157V201.315Z" fill="#686F6F"/>
<path d="M211.588 201.315L221.047 233.676L211.588 214.157V201.315Z" fill="black" fill-opacity="0.2"/>
<path d="M141.889 201.315L131.186 231.108L141.889 213.387V201.315Z" fill="#686F6F"/>
<path d="M141.889 201.315L131.186 231.108L141.889 213.387V201.315Z" fill="black" fill-opacity="0.2"/>
<path d="M211.974 197.977H211.199V214.157H211.974V197.977Z" fill="#579FAE"/>
<path d="M142.277 197.977H141.502V214.157H142.277V197.977Z" fill="#579FAE"/>
<path d="M128.906 228.971L122.447 237.863C121.745 238.83 120.842 239.622 119.805 240.182C118.768 240.742 117.623 241.056 116.453 241.101C115.284 241.145 114.119 240.92 113.045 240.44C111.971 239.961 111.014 239.239 110.244 238.329L69.1562 189.717L82.2735 177.687L128.906 228.971ZM221.53 233.218L227.736 241.89C228.449 242.886 229.371 243.704 230.433 244.283C231.495 244.861 232.67 245.185 233.87 245.231C235.07 245.276 236.264 245.042 237.364 244.545C238.465 244.049 239.442 243.303 240.224 242.363L280.746 193.659L268.521 182.282L221.53 233.218Z" fill="#FFC1C2"/>
<path d="M335.624 141.958L302.426 116.573C300.769 115.306 298.43 115.665 297.203 117.375L262.818 165.247C261.59 166.956 261.938 169.369 263.595 170.636L296.793 196.021C298.449 197.288 300.788 196.929 302.016 195.219L336.4 147.347C337.628 145.638 337.28 143.225 335.624 141.958Z" fill="#9BA1A1"/>
<path d="M296.244 190.792L267.222 169.433C266.104 168.61 266.036 167.158 267.049 166.191C280.439 153.429 291.387 138.186 299.325 121.254C299.918 119.988 301.26 119.623 302.346 120.453L329.617 141.306C330.145 141.739 330.523 142.338 330.692 143.013C330.861 143.687 330.813 144.4 330.555 145.043C323.193 162.008 312.848 177.419 300.044 190.495C299.534 190.977 298.883 191.268 298.194 191.322C297.504 191.376 296.818 191.189 296.244 190.792Z" fill="#686F6F"/>
<path d="M296.244 190.792L267.222 169.433C266.104 168.61 266.036 167.158 267.049 166.191C280.439 153.429 291.387 138.186 299.325 121.254C299.918 119.988 301.26 119.623 302.346 120.453L329.617 141.306C330.145 141.739 330.523 142.338 330.692 143.013C330.861 143.687 330.813 144.4 330.555 145.043C323.193 162.008 312.848 177.419 300.044 190.495C299.534 190.977 298.883 191.268 298.194 191.322C297.504 191.376 296.818 191.189 296.244 190.792Z" fill="black" fill-opacity="0.2"/>
<path d="M295.527 188.643L268.313 167.834C267.228 167.004 267.176 165.574 268.176 164.618C281.09 152.296 291.655 137.588 299.323 121.254C299.918 119.989 301.258 119.623 302.344 120.453L329.558 141.263C330.097 141.703 330.479 142.316 330.643 143.005C330.807 143.694 330.745 144.419 330.466 145.067C322.797 161.401 312.233 176.109 299.319 188.432C298.799 188.896 298.145 189.168 297.458 189.207C296.772 189.245 296.093 189.047 295.527 188.643Z" fill="white"/>
<path d="M325.109 131.201L315.46 123.823C314.949 123.432 314.228 123.543 313.85 124.07L310.691 128.468C310.312 128.995 310.419 129.739 310.93 130.129L320.579 137.508C321.09 137.898 321.811 137.788 322.19 137.261L325.349 132.863C325.727 132.336 325.62 131.592 325.109 131.201Z" fill="#E5E5E5"/>
<path d="M322.295 148.388L300.963 132.077C300.855 131.991 300.765 131.884 300.699 131.761C300.634 131.639 300.593 131.503 300.58 131.364C300.568 131.224 300.583 131.083 300.625 130.95C300.668 130.817 300.737 130.694 300.827 130.589C300.898 130.469 300.992 130.365 301.103 130.285C301.214 130.204 301.341 130.147 301.474 130.119C301.607 130.091 301.745 130.092 301.878 130.121C302.011 130.15 302.137 130.208 302.247 130.29L323.579 146.601C323.822 146.78 323.989 147.048 324.047 147.35C324.105 147.651 324.05 147.964 323.893 148.226C323.696 148.457 323.422 148.602 323.125 148.633C322.828 148.663 322.532 148.575 322.295 148.388ZM316.97 157.743L295.638 141.432C295.53 141.346 295.44 141.239 295.374 141.116C295.309 140.993 295.268 140.858 295.255 140.718C295.243 140.579 295.258 140.438 295.301 140.305C295.343 140.171 295.412 140.049 295.502 139.944C295.573 139.824 295.667 139.72 295.778 139.639C295.889 139.558 296.016 139.502 296.149 139.474C296.282 139.446 296.42 139.446 296.553 139.476C296.686 139.505 296.812 139.563 296.922 139.645L318.255 155.956C318.497 156.135 318.664 156.403 318.722 156.704C318.78 157.006 318.725 157.319 318.568 157.58C318.371 157.812 318.097 157.957 317.8 157.987C317.503 158.018 317.207 157.93 316.97 157.743ZM310.745 166.41L289.413 150.098C289.305 150.013 289.215 149.905 289.149 149.783C289.083 149.66 289.042 149.525 289.03 149.385C289.017 149.245 289.032 149.104 289.075 148.971C289.118 148.838 289.186 148.715 289.277 148.611C289.348 148.49 289.441 148.387 289.553 148.306C289.664 148.225 289.79 148.168 289.923 148.14C290.057 148.112 290.194 148.113 290.328 148.142C290.461 148.172 290.586 148.229 290.697 148.311L312.029 164.623C312.271 164.802 312.439 165.07 312.497 165.371C312.555 165.673 312.5 165.986 312.342 166.248C312.146 166.479 311.871 166.624 311.575 166.654C311.278 166.684 310.981 166.597 310.745 166.41Z" fill="#E5E5E5"/>
<path d="M288.947 190.02C286.165 192.521 282.407 195.351 279.255 195.787C273.437 196.59 267.873 184.29 267.873 184.29C267.873 184.29 267.838 181.158 269.77 175.355C270.299 173.769 270.975 171.981 271.838 170.003C272.035 169.553 272.377 169.187 272.805 168.966C273.234 168.745 273.723 168.683 274.19 168.791L278.624 169.814L279.888 170.103C279.958 170.119 280.026 170.141 280.092 170.169C280.266 170.243 280.421 170.358 280.545 170.504C280.669 170.65 280.759 170.824 280.807 171.012C280.854 171.201 280.859 171.397 280.821 171.588C280.782 171.778 280.702 171.956 280.585 172.109C280.035 172.814 279.087 173.523 277.462 173.731C277.094 173.779 276.724 173.8 276.353 173.795C276.353 173.795 276.463 174.276 276.551 174.969C276.725 176.402 276.793 178.738 275.518 179.514C275.52 179.518 275.523 179.522 275.526 179.522C275.534 179.531 275.542 179.538 275.551 179.544L285.78 187.575L286.874 188.434L288.947 190.02Z" fill="#FFC1C2"/>
<path d="M240.192 212.987L224.435 237.278L221.529 233.217L240.192 212.987Z" fill="#ED9C9C"/>
<path d="M111.736 210.089L126.717 231.984L128.906 228.971L111.736 210.089Z" fill="#ED9C9C"/>
<path d="M90.0965 153.938L89.5633 153.249C88.9545 152.462 87.8427 152.333 87.0801 152.962L56.8407 177.87C56.0781 178.498 55.9534 179.645 56.5622 180.432L57.0954 181.121C57.7042 181.908 58.816 182.037 59.5786 181.408L89.8181 156.5C90.5806 155.872 90.7053 154.725 90.0965 153.938Z" fill="#ACACAC"/>
<path d="M80.798 163.525L78.4423 160.481C77.7741 159.617 76.5539 159.476 75.7169 160.165L55.956 176.442C55.119 177.132 54.9822 178.391 55.6504 179.254L58.0061 182.299C58.6743 183.163 59.8945 183.304 60.7315 182.614L80.4924 166.337C81.3294 165.648 81.4662 164.389 80.798 163.525Z" fill="#686F6F"/>
<path d="M80.798 163.525L78.4423 160.481C77.7741 159.617 76.5539 159.476 75.7169 160.165L55.956 176.442C55.119 177.132 54.9822 178.391 55.6504 179.254L58.0061 182.299C58.6743 183.163 59.8945 183.304 60.7315 182.614L80.4924 166.337C81.3294 165.648 81.4662 164.389 80.798 163.525Z" fill="black" fill-opacity="0.2"/>
<path d="M96.2826 163.211C104.275 163.211 110.755 156.526 110.755 148.279C110.755 140.032 104.275 133.347 96.2826 133.347C88.2899 133.347 81.8105 140.032 81.8105 148.279C81.8105 156.526 88.2899 163.211 96.2826 163.211Z" fill="#ACACAC"/>
<path d="M96.2823 160.537C102.843 160.537 108.162 155.049 108.162 148.279C108.162 141.509 102.843 136.021 96.2823 136.021C89.7212 136.021 84.4023 141.509 84.4023 148.279C84.4023 155.049 89.7212 160.537 96.2823 160.537Z" fill="#686F6F"/>
<path d="M96.2823 160.537C102.843 160.537 108.162 155.049 108.162 148.279C108.162 141.509 102.843 136.021 96.2823 136.021C89.7212 136.021 84.4023 141.509 84.4023 148.279C84.4023 155.049 89.7212 160.537 96.2823 160.537Z" fill="black" fill-opacity="0.2"/>
<path d="M87.3951 145.202C87.3031 145.083 87.2444 144.941 87.2255 144.79C87.2065 144.639 87.2281 144.486 87.2878 144.347C88.2919 141.994 90.1211 140.119 92.4087 139.099C94.6963 138.08 97.273 137.99 99.622 138.848C99.7218 138.885 99.8136 138.941 99.8923 139.014C99.971 139.087 100.035 139.175 100.081 139.273C100.126 139.372 100.153 139.479 100.158 139.588C100.164 139.697 100.149 139.806 100.113 139.909C100.078 140.012 100.024 140.106 99.953 140.187C99.8823 140.269 99.7968 140.335 99.7014 140.382C99.6059 140.429 99.5024 140.456 99.3968 140.462C99.2912 140.468 99.1855 140.452 99.0857 140.416C97.1195 139.697 94.9624 139.771 93.0475 140.625C91.1325 141.479 89.6014 143.048 88.7615 145.019C88.7054 145.149 88.6178 145.263 88.5069 145.348C88.396 145.434 88.2657 145.488 88.1284 145.507C87.9912 145.525 87.8516 145.507 87.7232 145.453C87.5949 145.4 87.4816 145.314 87.3951 145.202ZM87.2807 152.293C87.2679 152.276 87.2554 152.26 87.2439 152.242C86.794 151.542 86.4932 150.751 86.3613 149.922C86.2293 149.094 86.2693 148.245 86.4785 147.433C86.5446 147.227 86.6866 147.055 86.874 146.955C87.0615 146.855 87.2794 146.835 87.4809 146.899C87.6825 146.963 87.8517 147.107 87.9521 147.298C88.0526 147.489 88.0763 147.714 88.0182 147.923C87.8774 148.496 87.8541 149.092 87.95 149.675C88.0458 150.257 88.2586 150.813 88.5747 151.305C88.6918 151.483 88.7377 151.7 88.7029 151.912C88.6681 152.124 88.5552 152.313 88.3879 152.441C88.2205 152.569 88.0118 152.624 87.8054 152.597C87.599 152.569 87.411 152.46 87.2807 152.293Z" fill="white"/>
<path d="M85.0767 180.681L82.9902 178.58C82.5211 178.108 82.2091 177.495 82.0989 176.828C81.5511 173.526 79.5548 163.24 75.8648 162.632L74.3712 161.088C73.7174 159.951 71.8035 159.691 70.7306 160.446C69.8047 161.098 68.8865 162.396 69.3776 163.438L69.4212 163.308C69.4212 163.308 65.0549 163.359 64.6019 165.868C64.6019 165.868 60.7654 165.372 60.2128 168.707C59.6861 168.666 57.9667 168.6 56.8089 169.81C56.4592 170.197 56.1892 170.653 56.015 171.15C55.8196 171.751 55.3848 173.786 62.052 182.141C63.7308 184.244 64.5961 185.321 65.876 186.548C67.3974 188.006 68.076 188.356 69.3228 189.833C69.8729 190.485 72.9091 193.352 72.9091 193.352L76.3812 197.672L85.0767 180.681Z" fill="#FFC1C2"/>
<path d="M73.5989 169.617L72.916 170.047L73.9951 171.871L74.678 171.441L73.5989 169.617Z" fill="#E29474"/>
<path d="M74.4024 176.008C74.1593 176.268 73.8689 176.476 73.5476 176.62C72.6304 177.027 71.5088 176.86 70.2129 176.124L70.5973 175.401C71.6658 176.008 72.5516 176.162 73.2301 175.862C74.1105 175.47 74.5075 174.36 74.6664 173.733L75.4401 173.942C75.2693 174.71 74.9123 175.421 74.4024 176.008Z" fill="#ED9C9C"/>
<path d="M76.639 176.294C75.8887 176.003 75.2339 175.234 74.6918 174.009C74.3795 173.282 74.1312 172.529 73.9499 171.756C73.7868 171.101 73.6763 170.513 73.608 170.1L71.1412 171.549C70.2794 172.174 69.2449 172.495 68.1918 172.465C65.7609 172.339 64.2193 170.127 64.1533 170.033L63.9062 169.672L75.6581 162.28L76.0746 162.985L65.0836 169.9C65.5834 170.471 66.7274 171.563 68.2325 171.641C69.1242 171.66 69.9981 171.382 70.7244 170.848L74.2392 168.779L74.3132 169.394C74.4105 170.121 74.5482 170.843 74.7255 171.554C74.8953 172.278 75.1277 172.985 75.42 173.667C75.8711 174.687 76.376 175.311 76.9213 175.523L76.639 176.294Z" fill="#ED9C9C"/>
<path d="M70.0224 178.247C69.946 178.328 69.8638 178.403 69.7763 178.471C69.0225 179.057 67.9358 179.107 66.5406 178.622C66.5527 179.382 66.2778 180.117 65.774 180.671C65.1012 181.338 64.0565 181.524 62.668 181.222L62.8282 180.441C63.9495 180.684 64.7587 180.569 65.2364 180.098C65.9412 179.401 65.7438 178.115 65.7419 178.1L65.6301 177.396L66.2709 177.666C67.6696 178.259 68.6925 178.315 69.3118 177.834C70.0647 177.25 70.0535 175.959 70.0365 175.623L67.9618 172.117L68.6221 171.701L70.7906 175.366L70.8003 175.454C70.8073 175.531 70.9768 177.238 70.0224 178.247Z" fill="#ED9C9C"/>
<path d="M60.6186 168.699L59.9473 169.15L65.7105 178.28L66.3819 177.828L60.6186 168.699Z" fill="#ED9C9C"/>
<path d="M69.7364 163.19L69.0762 163.606L70.5224 166.049L71.1826 165.633L69.7364 163.19Z" fill="#ED9C9C"/>
<path d="M178.55 179.68C172.495 179.68 167.28 174.854 165.872 167.942L165.464 165.938L166.091 165.803L166.499 167.805C167.845 174.407 172.8 179.018 178.549 179.018C183.666 179.018 188.323 175.222 190.137 169.573L191.36 165.767L191.969 165.975L190.746 169.781C188.844 175.702 183.943 179.68 178.55 179.68ZM147.115 166.712C147.114 168.436 146.61 170.12 145.667 171.544C144.724 172.968 143.388 174.066 141.831 174.694C140.275 175.322 138.571 175.452 136.943 175.066C135.314 174.68 133.836 173.796 132.701 172.53C134.378 170.447 136.48 168.771 138.856 167.62C141.232 166.469 143.824 165.873 146.449 165.872H147.077C147.102 166.147 147.115 166.428 147.115 166.712ZM220.396 172.771C219.234 173.97 217.754 174.787 216.142 175.118C214.53 175.449 212.859 175.28 211.34 174.631C209.822 173.983 208.524 172.884 207.61 171.475C206.696 170.065 206.208 168.408 206.207 166.712C206.207 166.428 206.22 166.147 206.246 165.872H206.465C209.14 165.872 211.78 166.492 214.191 167.686C216.603 168.88 218.723 170.618 220.396 172.771Z" fill="white"/>
<path d="M112.394 206.177L111.947 206.651L133.079 227.84L133.526 227.365L112.394 206.177Z" fill="white"/>
<path d="M239.243 208.506L218.594 228.834L219.036 229.312L239.685 208.984L239.243 208.506Z" fill="white"/>
<path d="M141.889 221.85L146.159 245.253C146.845 249.014 148.686 252.447 151.41 255.044C154.134 257.642 157.596 259.266 161.284 259.676L211.586 265.267H141.889L141.889 221.85Z" fill="#9BA1A1"/>
<path d="M196.061 206.443C200.214 206.443 203.581 204.064 203.581 201.13C203.581 198.195 200.214 195.816 196.061 195.816C191.908 195.816 188.541 198.195 188.541 201.13C188.541 204.064 191.908 206.443 196.061 206.443Z" fill="white"/>
<path d="M196.061 204C198.975 204 201.338 202.715 201.338 201.129C201.338 199.544 198.975 198.259 196.061 198.259C193.146 198.259 190.783 199.544 190.783 201.129C190.783 202.715 193.146 204 196.061 204Z" fill="#E5E5E5"/>
<path d="M78.214 340.575V341.97H75.439V351H73.729V341.97H70.939V340.575H78.214ZM81.6558 343.935C81.9058 343.515 82.2358 343.19 82.6458 342.96C83.0658 342.72 83.5608 342.6 84.1308 342.6V344.37H83.6958C83.0258 344.37 82.5158 344.54 82.1658 344.88C81.8258 345.22 81.6558 345.81 81.6558 346.65V351H79.9458V342.735H81.6558V343.935ZM93.2776 346.665C93.2776 346.975 93.2576 347.255 93.2176 347.505H86.9026C86.9526 348.165 87.1976 348.695 87.6376 349.095C88.0776 349.495 88.6176 349.695 89.2576 349.695C90.1776 349.695 90.8276 349.31 91.2076 348.54H93.0526C92.8026 349.3 92.3476 349.925 91.6876 350.415C91.0376 350.895 90.2276 351.135 89.2576 351.135C88.4676 351.135 87.7576 350.96 87.1276 350.61C86.5076 350.25 86.0176 349.75 85.6576 349.11C85.3076 348.46 85.1326 347.71 85.1326 346.86C85.1326 346.01 85.3026 345.265 85.6426 344.625C85.9926 343.975 86.4776 343.475 87.0976 343.125C87.7276 342.775 88.4476 342.6 89.2576 342.6C90.0376 342.6 90.7326 342.77 91.3426 343.11C91.9526 343.45 92.4276 343.93 92.7676 344.55C93.1076 345.16 93.2776 345.865 93.2776 346.665ZM91.4926 346.125C91.4826 345.495 91.2576 344.99 90.8176 344.61C90.3776 344.23 89.8326 344.04 89.1826 344.04C88.5926 344.04 88.0876 344.23 87.6676 344.61C87.2476 344.98 86.9976 345.485 86.9176 346.125H91.4926ZM94.3904 346.83C94.3904 346 94.5604 345.265 94.9004 344.625C95.2504 343.985 95.7204 343.49 96.3104 343.14C96.9104 342.78 97.5704 342.6 98.2904 342.6C98.9404 342.6 99.5054 342.73 99.9854 342.99C100.475 343.24 100.865 343.555 101.155 343.935V342.735H102.88V351H101.155V349.77C100.865 350.16 100.47 350.485 99.9704 350.745C99.4704 351.005 98.9004 351.135 98.2604 351.135C97.5504 351.135 96.9004 350.955 96.3104 350.595C95.7204 350.225 95.2504 349.715 94.9004 349.065C94.5604 348.405 94.3904 347.66 94.3904 346.83ZM101.155 346.86C101.155 346.29 101.035 345.795 100.795 345.375C100.565 344.955 100.26 344.635 99.8804 344.415C99.5004 344.195 99.0904 344.085 98.6504 344.085C98.2104 344.085 97.8004 344.195 97.4204 344.415C97.0404 344.625 96.7304 344.94 96.4904 345.36C96.2604 345.77 96.1454 346.26 96.1454 346.83C96.1454 347.4 96.2604 347.9 96.4904 348.33C96.7304 348.76 97.0404 349.09 97.4204 349.32C97.8104 349.54 98.2204 349.65 98.6504 349.65C99.0904 349.65 99.5004 349.54 99.8804 349.32C100.26 349.1 100.565 348.78 100.795 348.36C101.035 347.93 101.155 347.43 101.155 346.86ZM107.121 344.13V348.705C107.121 349.015 107.191 349.24 107.331 349.38C107.481 349.51 107.731 349.575 108.081 349.575H109.131V351H107.781C107.011 351 106.421 350.82 106.011 350.46C105.601 350.1 105.396 349.515 105.396 348.705V344.13H104.421V342.735H105.396V340.68H107.121V342.735H109.131V344.13H107.121ZM120.713 342.6C121.363 342.6 121.943 342.735 122.453 343.005C122.973 343.275 123.378 343.675 123.668 344.205C123.968 344.735 124.118 345.375 124.118 346.125V351H122.423V346.38C122.423 345.64 122.238 345.075 121.868 344.685C121.498 344.285 120.993 344.085 120.353 344.085C119.713 344.085 119.203 344.285 118.823 344.685C118.453 345.075 118.268 345.64 118.268 346.38V351H116.573V346.38C116.573 345.64 116.388 345.075 116.018 344.685C115.648 344.285 115.143 344.085 114.503 344.085C113.863 344.085 113.353 344.285 112.973 344.685C112.603 345.075 112.418 345.64 112.418 346.38V351H110.708V342.735H112.418V343.68C112.698 343.34 113.053 343.075 113.483 342.885C113.913 342.695 114.373 342.6 114.863 342.6C115.523 342.6 116.113 342.74 116.633 343.02C117.153 343.3 117.553 343.705 117.833 344.235C118.083 343.735 118.473 343.34 119.003 343.05C119.533 342.75 120.103 342.6 120.713 342.6ZM133.868 346.665C133.868 346.975 133.848 347.255 133.808 347.505H127.493C127.543 348.165 127.788 348.695 128.228 349.095C128.668 349.495 129.208 349.695 129.848 349.695C130.768 349.695 131.418 349.31 131.798 348.54H133.643C133.393 349.3 132.938 349.925 132.278 350.415C131.628 350.895 130.818 351.135 129.848 351.135C129.058 351.135 128.348 350.96 127.718 350.61C127.098 350.25 126.608 349.75 126.248 349.11C125.898 348.46 125.723 347.71 125.723 346.86C125.723 346.01 125.893 345.265 126.233 344.625C126.583 343.975 127.068 343.475 127.688 343.125C128.318 342.775 129.038 342.6 129.848 342.6C130.628 342.6 131.323 342.77 131.933 343.11C132.543 343.45 133.018 343.93 133.358 344.55C133.698 345.16 133.868 345.865 133.868 346.665ZM132.083 346.125C132.073 345.495 131.848 344.99 131.408 344.61C130.968 344.23 130.423 344.04 129.773 344.04C129.183 344.04 128.678 344.23 128.258 344.61C127.838 344.98 127.588 345.485 127.508 346.125H132.083ZM139.721 342.6C140.371 342.6 140.951 342.735 141.461 343.005C141.981 343.275 142.386 343.675 142.676 344.205C142.966 344.735 143.111 345.375 143.111 346.125V351H141.416V346.38C141.416 345.64 141.231 345.075 140.861 344.685C140.491 344.285 139.986 344.085 139.346 344.085C138.706 344.085 138.196 344.285 137.816 344.685C137.446 345.075 137.261 345.64 137.261 346.38V351H135.551V342.735H137.261V343.68C137.541 343.34 137.896 343.075 138.326 342.885C138.766 342.695 139.231 342.6 139.721 342.6ZM147.287 344.13V348.705C147.287 349.015 147.357 349.24 147.497 349.38C147.647 349.51 147.897 349.575 148.247 349.575H149.297V351H147.947C147.177 351 146.587 350.82 146.177 350.46C145.767 350.1 145.562 349.515 145.562 348.705V344.13H144.587V342.735H145.562V340.68H147.287V342.735H149.297V344.13H147.287ZM157.77 351.135C157.12 351.135 156.535 351.02 156.015 350.79C155.505 350.55 155.1 350.23 154.8 349.83C154.5 349.42 154.34 348.965 154.32 348.465H156.09C156.12 348.815 156.285 349.11 156.585 349.35C156.895 349.58 157.28 349.695 157.74 349.695C158.22 349.695 158.59 349.605 158.85 349.425C159.12 349.235 159.255 348.995 159.255 348.705C159.255 348.395 159.105 348.165 158.805 348.015C158.515 347.865 158.05 347.7 157.41 347.52C156.79 347.35 156.285 347.185 155.895 347.025C155.505 346.865 155.165 346.62 154.875 346.29C154.595 345.96 154.455 345.525 154.455 344.985C154.455 344.545 154.585 344.145 154.845 343.785C155.105 343.415 155.475 343.125 155.955 342.915C156.445 342.705 157.005 342.6 157.635 342.6C158.575 342.6 159.33 342.84 159.9 343.32C160.48 343.79 160.79 344.435 160.83 345.255H159.12C159.09 344.885 158.94 344.59 158.67 344.37C158.4 344.15 158.035 344.04 157.575 344.04C157.125 344.04 156.78 344.125 156.54 344.295C156.3 344.465 156.18 344.69 156.18 344.97C156.18 345.19 156.26 345.375 156.42 345.525C156.58 345.675 156.775 345.795 157.005 345.885C157.235 345.965 157.575 346.07 158.025 346.2C158.625 346.36 159.115 346.525 159.495 346.695C159.885 346.855 160.22 347.095 160.5 347.415C160.78 347.735 160.925 348.16 160.935 348.69C160.935 349.16 160.805 349.58 160.545 349.95C160.285 350.32 159.915 350.61 159.435 350.82C158.965 351.03 158.41 351.135 157.77 351.135ZM162.213 346.86C162.213 346.01 162.383 345.265 162.723 344.625C163.073 343.975 163.553 343.475 164.163 343.125C164.773 342.775 165.473 342.6 166.263 342.6C167.263 342.6 168.088 342.84 168.738 343.32C169.398 343.79 169.843 344.465 170.073 345.345H168.228C168.078 344.935 167.838 344.615 167.508 344.385C167.178 344.155 166.763 344.04 166.263 344.04C165.563 344.04 165.003 344.29 164.583 344.79C164.173 345.28 163.968 345.97 163.968 346.86C163.968 347.75 164.173 348.445 164.583 348.945C165.003 349.445 165.563 349.695 166.263 349.695C167.253 349.695 167.908 349.26 168.228 348.39H170.073C169.833 349.23 169.383 349.9 168.723 350.4C168.063 350.89 167.243 351.135 166.263 351.135C165.473 351.135 164.773 350.96 164.163 350.61C163.553 350.25 163.073 349.75 162.723 349.11C162.383 348.46 162.213 347.71 162.213 346.86ZM176.052 342.6C176.682 342.6 177.242 342.735 177.732 343.005C178.232 343.275 178.622 343.675 178.902 344.205C179.192 344.735 179.337 345.375 179.337 346.125V351H177.642V346.38C177.642 345.64 177.457 345.075 177.087 344.685C176.717 344.285 176.212 344.085 175.572 344.085C174.932 344.085 174.422 344.285 174.042 344.685C173.672 345.075 173.487 345.64 173.487 346.38V351H171.777V339.9H173.487V343.695C173.777 343.345 174.142 343.075 174.582 342.885C175.032 342.695 175.522 342.6 176.052 342.6ZM189.093 346.665C189.093 346.975 189.073 347.255 189.033 347.505H182.718C182.768 348.165 183.013 348.695 183.453 349.095C183.893 349.495 184.433 349.695 185.073 349.695C185.993 349.695 186.643 349.31 187.023 348.54H188.868C188.618 349.3 188.163 349.925 187.503 350.415C186.853 350.895 186.043 351.135 185.073 351.135C184.283 351.135 183.573 350.96 182.943 350.61C182.323 350.25 181.833 349.75 181.473 349.11C181.123 348.46 180.948 347.71 180.948 346.86C180.948 346.01 181.118 345.265 181.458 344.625C181.808 343.975 182.293 343.475 182.913 343.125C183.543 342.775 184.263 342.6 185.073 342.6C185.853 342.6 186.548 342.77 187.158 343.11C187.768 343.45 188.243 343.93 188.583 344.55C188.923 345.16 189.093 345.865 189.093 346.665ZM187.308 346.125C187.298 345.495 187.073 344.99 186.633 344.61C186.193 344.23 185.648 344.04 184.998 344.04C184.408 344.04 183.903 344.23 183.483 344.61C183.063 344.98 182.813 345.485 182.733 346.125H187.308ZM190.206 346.83C190.206 346 190.376 345.265 190.716 344.625C191.066 343.985 191.536 343.49 192.126 343.14C192.726 342.78 193.391 342.6 194.121 342.6C194.661 342.6 195.191 342.72 195.711 342.96C196.241 343.19 196.661 343.5 196.971 343.89V339.9H198.696V351H196.971V349.755C196.691 350.155 196.301 350.485 195.801 350.745C195.311 351.005 194.746 351.135 194.106 351.135C193.386 351.135 192.726 350.955 192.126 350.595C191.536 350.225 191.066 349.715 190.716 349.065C190.376 348.405 190.206 347.66 190.206 346.83ZM196.971 346.86C196.971 346.29 196.851 345.795 196.611 345.375C196.381 344.955 196.076 344.635 195.696 344.415C195.316 344.195 194.906 344.085 194.466 344.085C194.026 344.085 193.616 344.195 193.236 344.415C192.856 344.625 192.546 344.94 192.306 345.36C192.076 345.77 191.961 346.26 191.961 346.83C191.961 347.4 192.076 347.9 192.306 348.33C192.546 348.76 192.856 349.09 193.236 349.32C193.626 349.54 194.036 349.65 194.466 349.65C194.906 349.65 195.316 349.54 195.696 349.32C196.076 349.1 196.381 348.78 196.611 348.36C196.851 347.93 196.971 347.43 196.971 346.86ZM208.427 342.735V351H206.717V350.025C206.447 350.365 206.092 350.635 205.652 350.835C205.222 351.025 204.762 351.12 204.272 351.12C203.622 351.12 203.037 350.985 202.517 350.715C202.007 350.445 201.602 350.045 201.302 349.515C201.012 348.985 200.867 348.345 200.867 347.595V342.735H202.562V347.34C202.562 348.08 202.747 348.65 203.117 349.05C203.487 349.44 203.992 349.635 204.632 349.635C205.272 349.635 205.777 349.44 206.147 349.05C206.527 348.65 206.717 348.08 206.717 347.34V342.735H208.427ZM212.393 339.9V351H210.683V339.9H212.393ZM222.213 346.665C222.213 346.975 222.193 347.255 222.153 347.505H215.838C215.888 348.165 216.133 348.695 216.573 349.095C217.013 349.495 217.553 349.695 218.193 349.695C219.113 349.695 219.763 349.31 220.143 348.54H221.988C221.738 349.3 221.283 349.925 220.623 350.415C219.973 350.895 219.163 351.135 218.193 351.135C217.403 351.135 216.693 350.96 216.063 350.61C215.443 350.25 214.953 349.75 214.593 349.11C214.243 348.46 214.068 347.71 214.068 346.86C214.068 346.01 214.238 345.265 214.578 344.625C214.928 343.975 215.413 343.475 216.033 343.125C216.663 342.775 217.383 342.6 218.193 342.6C218.973 342.6 219.668 342.77 220.278 343.11C220.888 343.45 221.363 343.93 221.703 344.55C222.043 345.16 222.213 345.865 222.213 346.665ZM220.428 346.125C220.418 345.495 220.193 344.99 219.753 344.61C219.313 344.23 218.768 344.04 218.118 344.04C217.528 344.04 217.023 344.23 216.603 344.61C216.183 344.98 215.933 345.485 215.853 346.125H220.428ZM231.962 342.6C232.612 342.6 233.192 342.735 233.702 343.005C234.222 343.275 234.627 343.675 234.917 344.205C235.207 344.735 235.352 345.375 235.352 346.125V351H233.657V346.38C233.657 345.64 233.472 345.075 233.102 344.685C232.732 344.285 232.227 344.085 231.587 344.085C230.947 344.085 230.437 344.285 230.057 344.685C229.687 345.075 229.502 345.64 229.502 346.38V351H227.792V342.735H229.502V343.68C229.782 343.34 230.137 343.075 230.567 342.885C231.007 342.695 231.472 342.6 231.962 342.6ZM241.119 351.135C240.339 351.135 239.634 350.96 239.004 350.61C238.374 350.25 237.879 349.75 237.519 349.11C237.159 348.46 236.979 347.71 236.979 346.86C236.979 346.02 237.164 345.275 237.534 344.625C237.904 343.975 238.409 343.475 239.049 343.125C239.689 342.775 240.404 342.6 241.194 342.6C241.984 342.6 242.699 342.775 243.339 343.125C243.979 343.475 244.484 343.975 244.854 344.625C245.224 345.275 245.409 346.02 245.409 346.86C245.409 347.7 245.219 348.445 244.839 349.095C244.459 349.745 243.939 350.25 243.279 350.61C242.629 350.96 241.909 351.135 241.119 351.135ZM241.119 349.65C241.559 349.65 241.969 349.545 242.349 349.335C242.739 349.125 243.054 348.81 243.294 348.39C243.534 347.97 243.654 347.46 243.654 346.86C243.654 346.26 243.539 345.755 243.309 345.345C243.079 344.925 242.774 344.61 242.394 344.4C242.014 344.19 241.604 344.085 241.164 344.085C240.724 344.085 240.314 344.19 239.934 344.4C239.564 344.61 239.269 344.925 239.049 345.345C238.829 345.755 238.719 346.26 238.719 346.86C238.719 347.75 238.944 348.44 239.394 348.93C239.854 349.41 240.429 349.65 241.119 349.65ZM249.094 344.13V348.705C249.094 349.015 249.164 349.24 249.304 349.38C249.454 349.51 249.704 349.575 250.054 349.575H251.104V351H249.754C248.984 351 248.394 350.82 247.984 350.46C247.574 350.1 247.369 349.515 247.369 348.705V344.13H246.394V342.735H247.369V340.68H249.094V342.735H251.104V344.13H249.094ZM260.042 344.13H258.512V351H256.787V344.13H255.812V342.735H256.787V342.15C256.787 341.2 257.037 340.51 257.537 340.08C258.047 339.64 258.842 339.42 259.922 339.42V340.845C259.402 340.845 259.037 340.945 258.827 341.145C258.617 341.335 258.512 341.67 258.512 342.15V342.735H260.042V344.13ZM265.142 351.135C264.362 351.135 263.657 350.96 263.027 350.61C262.397 350.25 261.902 349.75 261.542 349.11C261.182 348.46 261.002 347.71 261.002 346.86C261.002 346.02 261.187 345.275 261.557 344.625C261.927 343.975 262.432 343.475 263.072 343.125C263.712 342.775 264.427 342.6 265.217 342.6C266.007 342.6 266.722 342.775 267.362 343.125C268.002 343.475 268.507 343.975 268.877 344.625C269.247 345.275 269.432 346.02 269.432 346.86C269.432 347.7 269.242 348.445 268.862 349.095C268.482 349.745 267.962 350.25 267.302 350.61C266.652 350.96 265.932 351.135 265.142 351.135ZM265.142 349.65C265.582 349.65 265.992 349.545 266.372 349.335C266.762 349.125 267.077 348.81 267.317 348.39C267.557 347.97 267.677 347.46 267.677 346.86C267.677 346.26 267.562 345.755 267.332 345.345C267.102 344.925 266.797 344.61 266.417 344.4C266.037 344.19 265.627 344.085 265.187 344.085C264.747 344.085 264.337 344.19 263.957 344.4C263.587 344.61 263.292 344.925 263.072 345.345C262.852 345.755 262.742 346.26 262.742 346.86C262.742 347.75 262.967 348.44 263.417 348.93C263.877 349.41 264.452 349.65 265.142 349.65ZM278.608 342.735V351H276.898V350.025C276.628 350.365 276.273 350.635 275.833 350.835C275.403 351.025 274.943 351.12 274.453 351.12C273.803 351.12 273.218 350.985 272.698 350.715C272.188 350.445 271.783 350.045 271.483 349.515C271.193 348.985 271.048 348.345 271.048 347.595V342.735H272.743V347.34C272.743 348.08 272.928 348.65 273.298 349.05C273.668 349.44 274.173 349.635 274.813 349.635C275.453 349.635 275.958 349.44 276.328 349.05C276.708 348.65 276.898 348.08 276.898 347.34V342.735H278.608ZM285.034 342.6C285.684 342.6 286.264 342.735 286.774 343.005C287.294 343.275 287.699 343.675 287.989 344.205C288.279 344.735 288.424 345.375 288.424 346.125V351H286.729V346.38C286.729 345.64 286.544 345.075 286.174 344.685C285.804 344.285 285.299 344.085 284.659 344.085C284.019 344.085 283.509 344.285 283.129 344.685C282.759 345.075 282.574 345.64 282.574 346.38V351H280.864V342.735H282.574V343.68C282.854 343.34 283.209 343.075 283.639 342.885C284.079 342.695 284.544 342.6 285.034 342.6ZM290.035 346.83C290.035 346 290.205 345.265 290.545 344.625C290.895 343.985 291.365 343.49 291.955 343.14C292.555 342.78 293.22 342.6 293.95 342.6C294.49 342.6 295.02 342.72 295.54 342.96C296.07 343.19 296.49 343.5 296.8 343.89V339.9H298.525V351H296.8V349.755C296.52 350.155 296.13 350.485 295.63 350.745C295.14 351.005 294.575 351.135 293.935 351.135C293.215 351.135 292.555 350.955 291.955 350.595C291.365 350.225 290.895 349.715 290.545 349.065C290.205 348.405 290.035 347.66 290.035 346.83ZM296.8 346.86C296.8 346.29 296.68 345.795 296.44 345.375C296.21 344.955 295.905 344.635 295.525 344.415C295.145 344.195 294.735 344.085 294.295 344.085C293.855 344.085 293.445 344.195 293.065 344.415C292.685 344.625 292.375 344.94 292.135 345.36C291.905 345.77 291.79 346.26 291.79 346.83C291.79 347.4 291.905 347.9 292.135 348.33C292.375 348.76 292.685 349.09 293.065 349.32C293.455 349.54 293.865 349.65 294.295 349.65C294.735 349.65 295.145 349.54 295.525 349.32C295.905 349.1 296.21 348.78 296.44 348.36C296.68 347.93 296.8 347.43 296.8 346.86Z" fill="#9BA1A1"/>
</svg>
