<svg width="320" height="88" viewBox="0 0 320 88" fill="none" xmlns="http://www.w3.org/2000/svg">
<path d="M49.9829 40.3212C58.742 40.3212 65.8427 33.2205 65.8427 24.4614C65.8427 15.7022 58.742 8.60156 49.9829 8.60156C41.2237 8.60156 34.123 15.7022 34.123 24.4614C34.123 33.2205 41.2237 40.3212 49.9829 40.3212Z" fill="#A06335"/>
<path fill-rule="evenodd" clip-rule="evenodd" d="M53.8946 28.1032L50.9065 34.0675C52.8037 34.7969 52.8513 36.2765 53.0399 37.9683C53.2711 40.0522 53.3825 42.4337 54.0803 45.0011C54.89 47.9714 56.0237 49.9057 57.4055 51.311C59.1186 53.0522 61.273 54.0117 64.1165 54.8966C64.2904 54.9483 64.4777 54.8767 64.5746 54.7232C64.6688 54.5678 64.6483 54.3685 64.52 54.2371C63.3012 53.0065 62.3574 51.6692 62.2197 50.149C63.3536 50.4261 65.3445 50.3291 67.0922 49.655C67.2464 49.5897 67.343 49.4341 67.3314 49.2662C67.3224 49.1001 67.2073 48.9583 67.0461 48.9115C65.3009 48.4234 63.9013 48.002 62.8649 46.948C62.0767 46.1469 61.5441 44.9919 61.0835 43.2977C60.2911 40.3861 60.3796 37.7272 59.983 35.545C59.3784 32.2033 57.949 29.6615 53.8946 28.1032Z" fill="url(#paint0_linear_2978_251)"/>
<path fill-rule="evenodd" clip-rule="evenodd" d="M46.1054 28.1032L49.0935 34.0675C47.1963 34.7969 47.1487 36.2765 46.9601 37.9683C46.7289 40.0522 46.6175 42.4337 45.9197 45.0011C45.11 47.9714 43.9763 49.9057 42.5945 51.311C40.8814 53.0522 38.727 54.0117 35.8835 54.8966C35.7096 54.9483 35.5223 54.8767 35.4254 54.7232C35.3312 54.5678 35.3517 54.3685 35.48 54.2371C36.6988 53.0065 37.6426 51.6692 37.7803 50.149C36.6464 50.4261 34.6555 50.3291 32.9078 49.655C32.7536 49.5897 32.657 49.4341 32.6686 49.2662C32.6776 49.1001 32.7927 48.9583 32.9539 48.9115C34.6991 48.4234 36.0987 48.002 37.1351 46.948C37.9233 46.1469 38.4559 44.9919 38.9165 43.2977C39.7089 40.3861 39.6204 37.7272 40.017 35.545C40.6216 32.2033 42.051 29.6615 46.1054 28.1032Z" fill="url(#paint1_linear_2978_251)"/>
<path fill-rule="evenodd" clip-rule="evenodd" d="M53.0149 6.8829C53.8656 7.11557 54.3695 7.99341 54.1411 8.84555C53.0834 12.8765 49.9832 24.4468 49.9832 24.4468L45.8809 9.13959C47.1541 7.61515 49.0668 6.64453 51.2064 6.64453C51.8316 6.64453 52.4383 6.72732 53.0149 6.8829Z" fill="url(#paint2_linear_2978_251)"/>
<path fill-rule="evenodd" clip-rule="evenodd" d="M43.8263 7.71754C44.6793 7.49367 45.5546 8.00197 45.7829 8.85414C46.8824 12.8739 49.9826 24.4442 49.9826 24.4442L38.7763 13.2389C39.1168 11.2821 40.2879 9.48517 42.1409 8.41534C42.6823 8.10275 43.2491 7.87113 43.8263 7.71754Z" fill="url(#paint3_linear_2978_251)"/>
<path fill-rule="evenodd" clip-rule="evenodd" d="M36.2862 13.0386C36.913 12.4182 37.9252 12.4207 38.549 13.0446C41.511 15.976 49.9811 24.4461 49.9811 24.4461L34.6735 20.3452C33.9899 18.4803 34.1057 16.3386 35.1755 14.4856C35.4881 13.9442 35.8631 13.4602 36.2862 13.0386Z" fill="url(#paint4_linear_2978_251)"/>
<path fill-rule="evenodd" clip-rule="evenodd" d="M32.419 21.4148C32.6517 20.5641 33.5295 20.0602 34.3817 20.2886C38.4126 21.3463 49.983 24.4465 49.983 24.4465L34.6757 28.5488C33.1513 27.2756 32.1807 25.3629 32.1807 23.2233C32.1807 22.5981 32.2635 21.9914 32.419 21.4148Z" fill="url(#paint5_linear_2978_251)"/>
<path fill-rule="evenodd" clip-rule="evenodd" d="M33.2571 30.599C33.0332 29.746 33.5415 28.8707 34.3937 28.6424C38.4134 27.5429 49.9838 24.4426 49.9838 24.4426L38.7785 35.649C36.8216 35.3085 35.0247 34.1374 33.9549 32.2844C33.6423 31.743 33.4107 31.1762 33.2571 30.599Z" fill="url(#paint6_linear_2978_251)"/>
<path fill-rule="evenodd" clip-rule="evenodd" d="M38.5762 38.1386C37.9558 37.5118 37.9583 36.4996 38.5822 35.8758C41.5136 32.9138 49.9837 24.4437 49.9837 24.4437L45.8828 39.7513C44.0179 40.4349 41.8762 40.3192 40.0232 39.2493C39.4818 38.9367 38.9978 38.5617 38.5762 38.1386Z" fill="url(#paint7_linear_2978_251)"/>
<path fill-rule="evenodd" clip-rule="evenodd" d="M46.9514 42.0116C46.1007 41.779 45.5968 40.9011 45.8252 40.049C46.8829 36.0181 49.9832 24.4477 49.9832 24.4477L54.0854 39.7549C52.8122 41.2794 50.8995 42.25 48.7599 42.25C48.1347 42.25 47.5281 42.1672 46.9514 42.0116Z" fill="url(#paint8_linear_2978_251)"/>
<path fill-rule="evenodd" clip-rule="evenodd" d="M56.1361 41.1731C55.2831 41.397 54.4078 40.8887 54.1795 40.0365C53.08 36.0168 49.9798 24.4464 49.9798 24.4464L61.1861 35.6517C60.8456 37.6085 59.6745 39.4055 57.8215 40.4753C57.2801 40.7879 56.7133 41.0195 56.1361 41.1731Z" fill="url(#paint9_linear_2978_251)"/>
<path fill-rule="evenodd" clip-rule="evenodd" d="M63.6772 35.8521C63.0504 36.4725 62.0382 36.4699 61.4144 35.846C58.4524 32.9146 49.9823 24.4445 49.9823 24.4445L65.2899 28.5454C65.9735 30.4103 65.8577 32.5521 64.7879 34.405C64.4753 34.9465 64.1003 35.4304 63.6772 35.8521Z" fill="url(#paint10_linear_2978_251)"/>
<path fill-rule="evenodd" clip-rule="evenodd" d="M67.5468 27.4778C67.3141 28.3285 66.4363 28.8324 65.5841 28.604C61.5532 27.5463 49.9829 24.446 49.9829 24.446L65.2901 20.3438C66.8145 21.617 67.7852 23.5297 67.7852 25.6693C67.7852 26.2945 67.7024 26.9011 67.5468 27.4778Z" fill="url(#paint11_linear_2978_251)"/>
<path fill-rule="evenodd" clip-rule="evenodd" d="M66.7092 18.2877C66.9331 19.1408 66.4248 20.016 65.5726 20.2443C61.5529 21.3438 49.9825 24.4441 49.9825 24.4441L61.1878 13.2378C63.1447 13.5782 64.9416 14.7493 66.0114 16.6023C66.324 17.1437 66.5556 17.7105 66.7092 18.2877Z" fill="url(#paint12_linear_2978_251)"/>
<path fill-rule="evenodd" clip-rule="evenodd" d="M61.3897 10.75C62.0101 11.3769 62.0075 12.389 61.3836 13.0128C58.4522 15.9749 49.9821 24.445 49.9821 24.445L54.083 9.13735C55.9479 8.45376 58.0897 8.56952 59.9426 9.63934C60.4841 9.95194 60.968 10.327 61.3897 10.75Z" fill="url(#paint13_linear_2978_251)"/>
<path d="M49.9833 37.9403C57.4281 37.9403 63.4632 31.9051 63.4632 24.4604C63.4632 17.0156 57.4281 10.9805 49.9833 10.9805C42.5386 10.9805 36.5034 17.0156 36.5034 24.4604C36.5034 31.9051 42.5386 37.9403 49.9833 37.9403Z" fill="url(#paint14_linear_2978_251)"/>
<path d="M49.984 36.4494C56.606 36.4494 61.9743 31.0811 61.9743 24.4591C61.9743 17.837 56.606 12.4688 49.984 12.4688C43.3619 12.4688 37.9937 17.837 37.9937 24.4591C37.9937 31.0811 43.3619 36.4494 49.984 36.4494Z" fill="url(#paint15_linear_2978_251)"/>
<path fill-rule="evenodd" clip-rule="evenodd" d="M49.2981 17.5238C49.4183 17.2523 49.6862 17.0762 49.9838 17.0762C50.2814 17.0762 50.5493 17.2523 50.6696 17.5238C51.3739 19.1186 52.3685 21.3693 52.3685 21.3693C52.3685 21.3693 54.8151 21.6185 56.55 21.7959C56.8451 21.8256 57.0956 22.0278 57.1874 22.3105C57.2791 22.592 57.1948 22.902 56.9741 23.1004C55.6745 24.2636 53.8417 25.9042 53.8417 25.9042C53.8417 25.9042 54.36 28.3087 54.7283 30.0126C54.7903 30.3027 54.6762 30.6028 54.4357 30.7777C54.1951 30.9525 53.8751 30.9687 53.6172 30.8199C52.1105 29.9431 49.9838 28.7068 49.9838 28.7068C49.9838 28.7068 47.8571 29.9431 46.3504 30.8199C46.0925 30.9687 45.7725 30.9525 45.532 30.7777C45.2914 30.6028 45.1773 30.3027 45.2393 30.0126C45.6076 28.3087 46.126 25.9042 46.126 25.9042C46.126 25.9042 44.2931 24.2636 42.9935 23.1004C42.7728 22.902 42.6885 22.592 42.7803 22.3105C42.872 22.0278 43.1225 21.8256 43.4176 21.7959C45.1525 21.6185 47.5992 21.3693 47.5992 21.3693C47.5992 21.3693 48.5937 19.1186 49.2981 17.5238Z" fill="url(#paint16_linear_2978_251)"/>
<rect x="5.5" y="66" width="89" height="21" rx="10" fill="#BD9F4B"/>
<path d="M32.386 75.988C32.9366 76.0907 33.3893 76.366 33.744 76.814C34.0986 77.262 34.276 77.7753 34.276 78.354C34.276 78.8767 34.1453 79.3387 33.884 79.74C33.632 80.132 33.2633 80.44 32.778 80.664C32.2926 80.888 31.7186 81 31.056 81H26.842V71.228H30.874C31.5366 71.228 32.106 71.3353 32.582 71.55C33.0673 71.7647 33.4313 72.0633 33.674 72.446C33.926 72.8287 34.052 73.2627 34.052 73.748C34.052 74.3173 33.898 74.7933 33.59 75.176C33.2913 75.5587 32.89 75.8293 32.386 75.988ZM28.802 75.26H30.594C31.0606 75.26 31.42 75.1573 31.672 74.952C31.924 74.7373 32.05 74.434 32.05 74.042C32.05 73.65 31.924 73.3467 31.672 73.132C31.42 72.9173 31.0606 72.81 30.594 72.81H28.802V75.26ZM30.776 79.404C31.252 79.404 31.6206 79.292 31.882 79.068C32.1526 78.844 32.288 78.5267 32.288 78.116C32.288 77.696 32.148 77.3693 31.868 77.136C31.588 76.8933 31.21 76.772 30.734 76.772H28.802V79.404H30.776ZM37.7981 74.448C38.0501 74.0373 38.3767 73.7153 38.7781 73.482C39.1887 73.2487 39.6554 73.132 40.1781 73.132V75.19H39.6601C39.0441 75.19 38.5774 75.3347 38.2601 75.624C37.9521 75.9133 37.7981 76.4173 37.7981 77.136V81H35.8381V73.244H37.7981V74.448ZM44.9422 81.126C44.1956 81.126 43.5236 80.9627 42.9262 80.636C42.3289 80.3 41.8576 79.8287 41.5122 79.222C41.1762 78.6153 41.0082 77.9153 41.0082 77.122C41.0082 76.3287 41.1809 75.6287 41.5262 75.022C41.8809 74.4153 42.3616 73.9487 42.9682 73.622C43.5749 73.286 44.2516 73.118 44.9982 73.118C45.7449 73.118 46.4216 73.286 47.0282 73.622C47.6349 73.9487 48.1109 74.4153 48.4562 75.022C48.8109 75.6287 48.9882 76.3287 48.9882 77.122C48.9882 77.9153 48.8062 78.6153 48.4422 79.222C48.0876 79.8287 47.6022 80.3 46.9862 80.636C46.3796 80.9627 45.6982 81.126 44.9422 81.126ZM44.9422 79.418C45.2969 79.418 45.6282 79.334 45.9362 79.166C46.2536 78.9887 46.5056 78.7273 46.6922 78.382C46.8789 78.0367 46.9722 77.6167 46.9722 77.122C46.9722 76.3847 46.7762 75.82 46.3842 75.428C46.0016 75.0267 45.5302 74.826 44.9702 74.826C44.4102 74.826 43.9389 75.0267 43.5562 75.428C43.1829 75.82 42.9962 76.3847 42.9962 77.122C42.9962 77.8593 43.1782 78.4287 43.5422 78.83C43.9156 79.222 44.3822 79.418 44.9422 79.418ZM54.724 73.132C55.648 73.132 56.3946 73.426 56.964 74.014C57.5333 74.5927 57.818 75.4047 57.818 76.45V81H55.858V76.716C55.858 76.1 55.704 75.6287 55.396 75.302C55.088 74.966 54.668 74.798 54.136 74.798C53.5946 74.798 53.1653 74.966 52.848 75.302C52.54 75.6287 52.386 76.1 52.386 76.716V81H50.426V73.244H52.386V74.21C52.6473 73.874 52.9786 73.6127 53.38 73.426C53.7906 73.23 54.2386 73.132 54.724 73.132ZM61.4738 79.39H64.9318V81H59.2478V79.418L62.6358 74.854H59.2618V73.244H64.8898V74.826L61.4738 79.39ZM73.6594 76.954C73.6594 77.234 73.6407 77.486 73.6034 77.71H67.9334C67.9801 78.27 68.1761 78.7087 68.5214 79.026C68.8667 79.3433 69.2914 79.502 69.7954 79.502C70.5234 79.502 71.0414 79.1893 71.3494 78.564H73.4634C73.2394 79.3107 72.8101 79.9267 72.1754 80.412C71.5407 80.888 70.7614 81.126 69.8374 81.126C69.0907 81.126 68.4187 80.9627 67.8214 80.636C67.2334 80.3 66.7714 79.8287 66.4354 79.222C66.1087 78.6153 65.9454 77.9153 65.9454 77.122C65.9454 76.3193 66.1087 75.6147 66.4354 75.008C66.7621 74.4013 67.2194 73.9347 67.8074 73.608C68.3954 73.2813 69.0721 73.118 69.8374 73.118C70.5747 73.118 71.2327 73.2767 71.8114 73.594C72.3994 73.9113 72.8521 74.364 73.1694 74.952C73.4961 75.5307 73.6594 76.198 73.6594 76.954ZM71.6294 76.394C71.6201 75.89 71.4381 75.4887 71.0834 75.19C70.7287 74.882 70.2947 74.728 69.7814 74.728C69.2961 74.728 68.8854 74.8773 68.5494 75.176C68.2227 75.4653 68.0221 75.8713 67.9474 76.394H71.6294Z" fill="white"/>
<path d="M159.983 40.3212C168.742 40.3212 175.843 33.2205 175.843 24.4614C175.843 15.7022 168.742 8.60156 159.983 8.60156C151.224 8.60156 144.123 15.7022 144.123 24.4614C144.123 33.2205 151.224 40.3212 159.983 40.3212Z" fill="#7F7F7F"/>
<path fill-rule="evenodd" clip-rule="evenodd" d="M163.895 28.1032L160.906 34.0675C162.804 34.7969 162.851 36.2765 163.04 37.9683C163.271 40.0522 163.383 42.4337 164.08 45.0011C164.89 47.9714 166.024 49.9057 167.405 51.311C169.119 53.0522 171.273 54.0117 174.116 54.8966C174.29 54.9483 174.478 54.8767 174.575 54.7232C174.669 54.5678 174.648 54.3685 174.52 54.2371C173.301 53.0065 172.357 51.6692 172.22 50.149C173.354 50.4261 175.345 50.3291 177.092 49.655C177.246 49.5897 177.343 49.4341 177.331 49.2662C177.322 49.1001 177.207 48.9583 177.046 48.9115C175.301 48.4234 173.901 48.002 172.865 46.948C172.077 46.1469 171.544 44.9919 171.084 43.2977C170.291 40.3861 170.38 37.7272 169.983 35.545C169.378 32.2033 167.949 29.6615 163.895 28.1032Z" fill="url(#paint17_linear_2978_251)"/>
<path fill-rule="evenodd" clip-rule="evenodd" d="M156.105 28.1032L159.094 34.0675C157.196 34.7969 157.149 36.2765 156.96 37.9683C156.729 40.0522 156.617 42.4337 155.92 45.0011C155.11 47.9714 153.976 49.9057 152.595 51.311C150.881 53.0522 148.727 54.0117 145.884 54.8966C145.71 54.9483 145.522 54.8767 145.425 54.7232C145.331 54.5678 145.352 54.3685 145.48 54.2371C146.699 53.0065 147.643 51.6692 147.78 50.149C146.646 50.4261 144.655 50.3291 142.908 49.655C142.754 49.5897 142.657 49.4341 142.669 49.2662C142.678 49.1001 142.793 48.9583 142.954 48.9115C144.699 48.4234 146.099 48.002 147.135 46.948C147.923 46.1469 148.456 44.9919 148.916 43.2977C149.709 40.3861 149.62 37.7272 150.017 35.545C150.622 32.2033 152.051 29.6615 156.105 28.1032Z" fill="url(#paint18_linear_2978_251)"/>
<path fill-rule="evenodd" clip-rule="evenodd" d="M163.015 6.8829C163.866 7.11557 164.369 7.99341 164.141 8.84555C163.083 12.8765 159.983 24.4468 159.983 24.4468L155.881 9.13959C157.154 7.61515 159.067 6.64453 161.206 6.64453C161.832 6.64453 162.438 6.72732 163.015 6.8829Z" fill="url(#paint19_linear_2978_251)"/>
<path fill-rule="evenodd" clip-rule="evenodd" d="M153.826 7.71754C154.679 7.49367 155.555 8.00197 155.783 8.85414C156.882 12.8739 159.983 24.4442 159.983 24.4442L148.776 13.2389C149.117 11.2821 150.288 9.48517 152.141 8.41534C152.682 8.10275 153.249 7.87113 153.826 7.71754Z" fill="url(#paint20_linear_2978_251)"/>
<path fill-rule="evenodd" clip-rule="evenodd" d="M146.288 13.0366C146.914 12.4162 147.927 12.4188 148.55 13.0426C151.512 15.9741 159.983 24.4442 159.983 24.4442L144.675 20.3432C143.991 18.4784 144.107 16.3366 145.177 14.4836C145.49 13.9422 145.865 13.4582 146.288 13.0366Z" fill="url(#paint21_linear_2978_251)"/>
<path fill-rule="evenodd" clip-rule="evenodd" d="M142.419 21.4148C142.652 20.5641 143.53 20.0602 144.382 20.2886C148.413 21.3463 159.983 24.4465 159.983 24.4465L144.676 28.5488C143.151 27.2756 142.181 25.3629 142.181 23.2233C142.181 22.5981 142.263 21.9914 142.419 21.4148Z" fill="url(#paint22_linear_2978_251)"/>
<path fill-rule="evenodd" clip-rule="evenodd" d="M143.256 30.601C143.032 29.7479 143.541 28.8726 144.393 28.6443C148.412 27.5449 159.983 24.4446 159.983 24.4446L148.777 35.6509C146.821 35.3105 145.024 34.1394 143.954 32.2864C143.641 31.7449 143.41 31.1782 143.256 30.601Z" fill="url(#paint23_linear_2978_251)"/>
<path fill-rule="evenodd" clip-rule="evenodd" d="M148.576 38.1386C147.955 37.5118 147.958 36.4996 148.582 35.8758C151.513 32.9138 159.983 24.4437 159.983 24.4437L155.882 39.7513C154.017 40.4349 151.876 40.3192 150.023 39.2493C149.481 38.9367 148.997 38.5617 148.576 38.1386Z" fill="url(#paint24_linear_2978_251)"/>
<path fill-rule="evenodd" clip-rule="evenodd" d="M156.951 42.0116C156.101 41.779 155.597 40.9011 155.825 40.049C156.883 36.0181 159.983 24.4477 159.983 24.4477L164.085 39.7549C162.812 41.2794 160.9 42.25 158.76 42.25C158.135 42.25 157.528 42.1672 156.951 42.0116Z" fill="url(#paint25_linear_2978_251)"/>
<path fill-rule="evenodd" clip-rule="evenodd" d="M166.136 41.1731C165.283 41.397 164.407 40.8887 164.179 40.0365C163.08 36.0168 159.979 24.4464 159.979 24.4464L171.186 35.6517C170.845 37.6085 169.674 39.4055 167.821 40.4753C167.28 40.7879 166.713 41.0195 166.136 41.1731Z" fill="url(#paint26_linear_2978_251)"/>
<path fill-rule="evenodd" clip-rule="evenodd" d="M173.676 35.8501C173.049 36.4705 172.037 36.468 171.413 35.8441C168.451 32.9126 159.981 24.4426 159.981 24.4426L175.289 28.5435C175.973 30.4084 175.857 32.5501 174.787 34.4031C174.474 34.9445 174.099 35.4285 173.676 35.8501Z" fill="url(#paint27_linear_2978_251)"/>
<path fill-rule="evenodd" clip-rule="evenodd" d="M177.547 27.4778C177.314 28.3285 176.436 28.8324 175.584 28.604C171.553 27.5463 159.983 24.446 159.983 24.446L175.29 20.3438C176.815 21.617 177.785 23.5297 177.785 25.6693C177.785 26.2945 177.702 26.9011 177.547 27.4778Z" fill="url(#paint28_linear_2978_251)"/>
<path fill-rule="evenodd" clip-rule="evenodd" d="M176.71 18.2877C176.934 19.1408 176.425 20.016 175.573 20.2443C171.553 21.3438 159.983 24.4441 159.983 24.4441L171.188 13.2378C173.145 13.5782 174.942 14.7493 176.012 16.6023C176.324 17.1437 176.556 17.7105 176.71 18.2877Z" fill="url(#paint29_linear_2978_251)"/>
<path fill-rule="evenodd" clip-rule="evenodd" d="M171.391 10.75C172.011 11.3769 172.008 12.389 171.385 13.0128C168.453 15.9749 159.983 24.445 159.983 24.445L164.084 9.13735C165.949 8.45376 168.091 8.56952 169.944 9.63934C170.485 9.95194 170.969 10.327 171.391 10.75Z" fill="url(#paint30_linear_2978_251)"/>
<path d="M159.983 37.9403C167.428 37.9403 173.463 31.9051 173.463 24.4604C173.463 17.0156 167.428 10.9805 159.983 10.9805C152.539 10.9805 146.503 17.0156 146.503 24.4604C146.503 31.9051 152.539 37.9403 159.983 37.9403Z" fill="url(#paint31_linear_2978_251)"/>
<path d="M159.984 36.4494C166.606 36.4494 171.974 31.0811 171.974 24.4591C171.974 17.837 166.606 12.4688 159.984 12.4688C153.362 12.4688 147.994 17.837 147.994 24.4591C147.994 31.0811 153.362 36.4494 159.984 36.4494Z" fill="url(#paint32_linear_2978_251)"/>
<path fill-rule="evenodd" clip-rule="evenodd" d="M159.298 17.5238C159.418 17.2523 159.686 17.0762 159.984 17.0762C160.281 17.0762 160.549 17.2523 160.67 17.5238C161.374 19.1186 162.368 21.3693 162.368 21.3693C162.368 21.3693 164.815 21.6185 166.55 21.7959C166.845 21.8256 167.096 22.0278 167.187 22.3105C167.279 22.592 167.195 22.902 166.974 23.1004C165.674 24.2636 163.842 25.9042 163.842 25.9042C163.842 25.9042 164.36 28.3087 164.728 30.0126C164.79 30.3027 164.676 30.6028 164.436 30.7777C164.195 30.9525 163.875 30.9687 163.617 30.8199C162.111 29.9431 159.984 28.7068 159.984 28.7068C159.984 28.7068 157.857 29.9431 156.35 30.8199C156.092 30.9687 155.773 30.9525 155.532 30.7777C155.291 30.6028 155.177 30.3027 155.239 30.0126C155.608 28.3087 156.126 25.9042 156.126 25.9042C156.126 25.9042 154.293 24.2636 152.994 23.1004C152.773 22.902 152.688 22.592 152.78 22.3105C152.872 22.0278 153.123 21.8256 153.418 21.7959C155.153 21.6185 157.599 21.3693 157.599 21.3693C157.599 21.3693 158.594 19.1186 159.298 17.5238Z" fill="url(#paint33_radial_2978_251)"/>
<rect x="115.5" y="66" width="89" height="21" rx="10" fill="#ADADAD"/>
<path d="M144.837 81.098C144.156 81.098 143.54 80.9813 142.989 80.748C142.448 80.5147 142.018 80.1787 141.701 79.74C141.384 79.3013 141.22 78.7833 141.211 78.186H143.311C143.339 78.5873 143.479 78.9047 143.731 79.138C143.992 79.3713 144.347 79.488 144.795 79.488C145.252 79.488 145.612 79.3807 145.873 79.166C146.134 78.942 146.265 78.6527 146.265 78.298C146.265 78.0087 146.176 77.7707 145.999 77.584C145.822 77.3973 145.598 77.2527 145.327 77.15C145.066 77.038 144.702 76.9167 144.235 76.786C143.6 76.5993 143.082 76.4173 142.681 76.24C142.289 76.0533 141.948 75.778 141.659 75.414C141.379 75.0407 141.239 74.546 141.239 73.93C141.239 73.3513 141.384 72.8473 141.673 72.418C141.962 71.9887 142.368 71.662 142.891 71.438C143.414 71.2047 144.011 71.088 144.683 71.088C145.691 71.088 146.508 71.3353 147.133 71.83C147.768 72.3153 148.118 72.9967 148.183 73.874H146.027C146.008 73.538 145.864 73.2627 145.593 73.048C145.332 72.824 144.982 72.712 144.543 72.712C144.16 72.712 143.852 72.81 143.619 73.006C143.395 73.202 143.283 73.4867 143.283 73.86C143.283 74.1213 143.367 74.3407 143.535 74.518C143.712 74.686 143.927 74.826 144.179 74.938C144.44 75.0407 144.804 75.162 145.271 75.302C145.906 75.4887 146.424 75.6753 146.825 75.862C147.226 76.0487 147.572 76.3287 147.861 76.702C148.15 77.0753 148.295 77.5653 148.295 78.172C148.295 78.6947 148.16 79.18 147.889 79.628C147.618 80.076 147.222 80.4353 146.699 80.706C146.176 80.9673 145.556 81.098 144.837 81.098ZM150.988 72.32C150.643 72.32 150.354 72.2127 150.12 71.998C149.896 71.774 149.784 71.4987 149.784 71.172C149.784 70.8453 149.896 70.5747 150.12 70.36C150.354 70.136 150.643 70.024 150.988 70.024C151.334 70.024 151.618 70.136 151.842 70.36C152.076 70.5747 152.192 70.8453 152.192 71.172C152.192 71.4987 152.076 71.774 151.842 71.998C151.618 72.2127 151.334 72.32 150.988 72.32ZM151.954 73.244V81H149.994V73.244H151.954ZM155.851 70.64V81H153.891V70.64H155.851ZM161.021 79.194L162.981 73.244H165.067L162.197 81H159.817L156.961 73.244H159.061L161.021 79.194ZM173.378 76.954C173.378 77.234 173.359 77.486 173.322 77.71H167.652C167.699 78.27 167.895 78.7087 168.24 79.026C168.585 79.3433 169.01 79.502 169.514 79.502C170.242 79.502 170.76 79.1893 171.068 78.564H173.182C172.958 79.3107 172.529 79.9267 171.894 80.412C171.259 80.888 170.48 81.126 169.556 81.126C168.809 81.126 168.137 80.9627 167.54 80.636C166.952 80.3 166.49 79.8287 166.154 79.222C165.827 78.6153 165.664 77.9153 165.664 77.122C165.664 76.3193 165.827 75.6147 166.154 75.008C166.481 74.4013 166.938 73.9347 167.526 73.608C168.114 73.2813 168.791 73.118 169.556 73.118C170.293 73.118 170.951 73.2767 171.53 73.594C172.118 73.9113 172.571 74.364 172.888 74.952C173.215 75.5307 173.378 76.198 173.378 76.954ZM171.348 76.394C171.339 75.89 171.157 75.4887 170.802 75.19C170.447 74.882 170.013 74.728 169.5 74.728C169.015 74.728 168.604 74.8773 168.268 75.176C167.941 75.4653 167.741 75.8713 167.666 76.394H171.348ZM176.769 74.448C177.021 74.0373 177.347 73.7153 177.749 73.482C178.159 73.2487 178.626 73.132 179.149 73.132V75.19H178.631C178.015 75.19 177.548 75.3347 177.231 75.624C176.923 75.9133 176.769 76.4173 176.769 77.136V81H174.809V73.244H176.769V74.448Z" fill="white"/>
<path fill-rule="evenodd" clip-rule="evenodd" d="M273.947 28.1052L270.959 34.0694C272.856 34.7989 272.904 36.2784 273.093 37.9703C273.324 40.0541 273.435 42.4356 274.133 45.0031C274.943 47.9734 276.076 49.9076 277.458 51.313C279.171 53.0541 281.326 54.0136 284.169 54.8985C284.343 54.9502 284.53 54.8786 284.627 54.7251C284.722 54.5698 284.701 54.3704 284.573 54.239C283.354 53.0084 282.41 51.6712 282.272 50.1509C283.406 50.428 285.397 50.3311 287.145 49.6569C287.299 49.5917 287.396 49.4361 287.384 49.2681C287.375 49.102 287.26 48.9603 287.099 48.9135C285.354 48.4253 283.954 48.004 282.918 46.9499C282.129 46.1489 281.597 44.9938 281.136 43.2997C280.344 40.3881 280.432 37.7292 280.036 35.5469C279.431 32.2052 278.002 29.6635 273.947 28.1052Z" fill="url(#paint34_linear_2978_251)"/>
<path fill-rule="evenodd" clip-rule="evenodd" d="M266.158 28.1052L269.146 34.0694C267.249 34.7989 267.201 36.2784 267.012 37.9703C266.781 40.0541 266.67 42.4356 265.972 45.0031C265.162 47.9734 264.028 49.9076 262.647 51.313C260.934 53.0541 258.779 54.0136 255.936 54.8985C255.762 54.9502 255.575 54.8786 255.478 54.7251C255.383 54.5698 255.404 54.3704 255.532 54.239C256.751 53.0084 257.695 51.6712 257.833 50.1509C256.699 50.428 254.708 50.3311 252.96 49.6569C252.806 49.5917 252.709 49.4361 252.721 49.2681C252.73 49.102 252.845 48.9603 253.006 48.9135C254.751 48.4253 256.151 48.004 257.187 46.9499C257.976 46.1489 258.508 44.9938 258.969 43.2997C259.761 40.3881 259.673 37.7292 260.069 35.5469C260.674 32.2052 262.103 29.6635 266.158 28.1052Z" fill="url(#paint35_linear_2978_251)"/>
<path fill-rule="evenodd" clip-rule="evenodd" d="M262.871 10.1905C263.578 10.3812 264.324 10.0713 264.687 9.43607C265.765 7.79391 267.768 6.64258 270.017 6.64258C272.267 6.64258 274.269 7.7939 275.346 9.43746C275.711 10.0713 276.457 10.3799 277.164 10.1891C279.088 9.78946 281.317 10.3911 282.908 11.9827C284.499 13.573 285.101 15.8027 284.7 17.7268C284.509 18.4335 284.819 19.1796 285.454 19.5428C287.096 20.6212 288.248 22.6238 288.248 24.8731C288.248 27.1225 287.096 29.1251 285.453 30.2021C284.819 30.5667 284.51 31.3127 284.701 32.0195C285.101 33.9435 284.499 36.1733 282.908 37.7635C281.317 39.3552 279.088 39.9568 277.164 39.5557C276.457 39.365 275.711 39.6749 275.348 40.3102C274.269 41.9523 272.267 43.1037 270.017 43.1037C267.768 43.1037 265.765 41.9524 264.688 40.3088C264.324 39.6749 263.578 39.3664 262.871 39.5571C260.947 39.9568 258.717 39.3552 257.127 37.7635C255.535 36.1733 254.933 33.9435 255.335 32.0195C255.525 31.3127 255.215 30.5667 254.58 30.2035C252.938 29.125 251.787 27.1225 251.787 24.8731C251.787 22.6238 252.938 20.6212 254.581 19.5442C255.215 19.1796 255.524 18.4335 255.333 17.7268C254.933 15.8027 255.535 13.573 257.127 11.9827C258.717 10.3911 260.947 9.78945 262.871 10.1905Z" fill="url(#paint36_linear_2978_251)"/>
<path d="M270.016 39.0339C277.837 39.0339 284.177 32.6936 284.177 24.8724C284.177 17.0512 277.837 10.7109 270.016 10.7109C262.195 10.7109 255.854 17.0512 255.854 24.8724C255.854 32.6936 262.195 39.0339 270.016 39.0339Z" fill="url(#paint37_linear_2978_251)"/>
<path d="M270.016 36.9368C276.678 36.9368 282.079 31.5359 282.079 24.8737C282.079 18.2114 276.678 12.8105 270.016 12.8105C263.353 12.8105 257.953 18.2114 257.953 24.8737C257.953 31.5359 263.353 36.9368 270.016 36.9368Z" fill="url(#paint38_radial_2978_251)"/>
<path fill-rule="evenodd" clip-rule="evenodd" d="M266.036 24.5752C265.624 24.3933 264.952 24.0464 264.366 23.5233C263.707 22.9364 263.166 22.132 263.136 21.1064C263.104 19.9927 263.411 19.4039 263.777 19.102C264.165 18.7795 264.664 18.7327 265.129 18.8227C265.196 18.8358 265.264 18.8527 265.329 18.8695V18.6989C265.329 17.7877 266.068 17.0508 266.977 17.0508H273.056C273.966 17.0508 274.704 17.7877 274.704 18.6989V18.8695C274.77 18.8527 274.837 18.8358 274.905 18.8227C275.37 18.7327 275.869 18.7795 276.257 19.102C276.622 19.4039 276.93 19.9927 276.898 21.1064C276.868 22.132 276.326 22.9364 275.668 23.5233C275.081 24.0464 274.41 24.3933 273.997 24.5752C273.399 25.5352 272.464 26.2627 271.356 26.5927V29.6883H271.451C272.541 29.6883 273.422 30.5695 273.422 31.6589V32.6995H266.612V31.6589C266.612 30.5695 267.493 29.6883 268.582 29.6883H268.678V26.5927C267.57 26.2627 266.634 25.5352 266.036 24.5752ZM265.329 19.8727C265.215 19.8277 265.084 19.7845 264.947 19.7564C264.756 19.7189 264.544 19.702 264.384 19.8352C264.161 20.0189 264.067 20.4014 264.086 21.0783C264.109 21.8189 264.525 22.3889 264.999 22.8145C265.147 22.9439 265.299 23.062 265.451 23.167C265.372 22.8239 265.329 22.4658 265.329 22.0983V19.8727ZM274.582 23.167C274.734 23.062 274.886 22.9439 275.034 22.8145C275.509 22.3889 275.925 21.8189 275.947 21.0783C275.966 20.4014 275.872 20.0189 275.649 19.8352C275.49 19.702 275.278 19.7189 275.087 19.7564C274.95 19.7845 274.819 19.8277 274.704 19.8727V22.0983C274.704 22.4658 274.661 22.8239 274.582 23.167Z" fill="url(#paint39_linear_2978_251)"/>
<rect x="225.5" y="66" width="89" height="21" rx="10" fill="#DBB13B"/>
<path d="M261.241 74.168C261.017 73.7573 260.709 73.4447 260.317 73.23C259.925 73.0153 259.467 72.908 258.945 72.908C258.366 72.908 257.853 73.0387 257.405 73.3C256.957 73.5613 256.607 73.9347 256.355 74.42C256.103 74.9053 255.977 75.4653 255.977 76.1C255.977 76.7533 256.103 77.3227 256.355 77.808C256.616 78.2933 256.975 78.6667 257.433 78.928C257.89 79.1893 258.422 79.32 259.029 79.32C259.775 79.32 260.387 79.124 260.863 78.732C261.339 78.3307 261.651 77.7753 261.801 77.066H258.441V75.568H263.733V77.276C263.602 77.9573 263.322 78.5873 262.893 79.166C262.463 79.7447 261.908 80.2113 261.227 80.566C260.555 80.9113 259.799 81.084 258.959 81.084C258.016 81.084 257.162 80.874 256.397 80.454C255.641 80.0247 255.043 79.432 254.605 78.676C254.175 77.92 253.961 77.0613 253.961 76.1C253.961 75.1387 254.175 74.28 254.605 73.524C255.043 72.7587 255.641 72.166 256.397 71.746C257.162 71.3167 258.011 71.102 258.945 71.102C260.046 71.102 261.003 71.3727 261.815 71.914C262.627 72.446 263.187 73.1973 263.495 74.168H261.241ZM268.627 81.126C267.88 81.126 267.208 80.9627 266.611 80.636C266.013 80.3 265.542 79.8287 265.197 79.222C264.861 78.6153 264.693 77.9153 264.693 77.122C264.693 76.3287 264.865 75.6287 265.211 75.022C265.565 74.4153 266.046 73.9487 266.653 73.622C267.259 73.286 267.936 73.118 268.683 73.118C269.429 73.118 270.106 73.286 270.713 73.622C271.319 73.9487 271.795 74.4153 272.141 75.022C272.495 75.6287 272.673 76.3287 272.673 77.122C272.673 77.9153 272.491 78.6153 272.127 79.222C271.772 79.8287 271.287 80.3 270.671 80.636C270.064 80.9627 269.383 81.126 268.627 81.126ZM268.627 79.418C268.981 79.418 269.313 79.334 269.621 79.166C269.938 78.9887 270.19 78.7273 270.377 78.382C270.563 78.0367 270.657 77.6167 270.657 77.122C270.657 76.3847 270.461 75.82 270.069 75.428C269.686 75.0267 269.215 74.826 268.655 74.826C268.095 74.826 267.623 75.0267 267.241 75.428C266.867 75.82 266.681 76.3847 266.681 77.122C266.681 77.8593 266.863 78.4287 267.227 78.83C267.6 79.222 268.067 79.418 268.627 79.418ZM276.071 70.64V81H274.111V70.64H276.071ZM277.503 77.094C277.503 76.31 277.657 75.6147 277.965 75.008C278.282 74.4013 278.712 73.9347 279.253 73.608C279.794 73.2813 280.396 73.118 281.059 73.118C281.563 73.118 282.044 73.23 282.501 73.454C282.958 73.6687 283.322 73.958 283.593 74.322V70.64H285.581V81H283.593V79.852C283.35 80.2347 283.01 80.5427 282.571 80.776C282.132 81.0093 281.624 81.126 281.045 81.126C280.392 81.126 279.794 80.958 279.253 80.622C278.712 80.286 278.282 79.8147 277.965 79.208C277.657 78.592 277.503 77.8873 277.503 77.094ZM283.607 77.122C283.607 76.646 283.514 76.24 283.327 75.904C283.14 75.5587 282.888 75.2973 282.571 75.12C282.254 74.9333 281.913 74.84 281.549 74.84C281.185 74.84 280.849 74.9287 280.541 75.106C280.233 75.2833 279.981 75.5447 279.785 75.89C279.598 76.226 279.505 76.6273 279.505 77.094C279.505 77.5607 279.598 77.9713 279.785 78.326C279.981 78.6713 280.233 78.9373 280.541 79.124C280.858 79.3107 281.194 79.404 281.549 79.404C281.913 79.404 282.254 79.3153 282.571 79.138C282.888 78.9513 283.14 78.69 283.327 78.354C283.514 78.0087 283.607 77.598 283.607 77.122Z" fill="white"/>
<defs>
<linearGradient id="paint0_linear_2978_251" x1="56.0104" y1="32.4754" x2="62.0244" y2="50.2151" gradientUnits="userSpaceOnUse">
<stop stop-color="#5C2F00"/>
<stop offset="1" stop-color="#A55400"/>
</linearGradient>
<linearGradient id="paint1_linear_2978_251" x1="43.9896" y1="32.4754" x2="37.9756" y2="50.2151" gradientUnits="userSpaceOnUse">
<stop stop-color="#5C2F00"/>
<stop offset="1" stop-color="#A55400"/>
</linearGradient>
<linearGradient id="paint2_linear_2978_251" x1="45.7614" y1="11.3698" x2="54.6832" y2="10.9113" gradientUnits="userSpaceOnUse">
<stop stop-color="#965B31"/>
<stop offset="0.5" stop-color="#F9AA57"/>
<stop offset="1" stop-color="#965B31"/>
</linearGradient>
<linearGradient id="paint3_linear_2978_251" x1="39.788" y1="15.2301" x2="47.2853" y2="10.3721" gradientUnits="userSpaceOnUse">
<stop stop-color="#965B31"/>
<stop offset="0.5" stop-color="#F9AA57"/>
<stop offset="1" stop-color="#965B31"/>
</linearGradient>
<linearGradient id="paint4_linear_2978_251" x1="36.5452" y1="21.5637" x2="40.609" y2="13.608" gradientUnits="userSpaceOnUse">
<stop stop-color="#965B31"/>
<stop offset="0.5" stop-color="#F9AA57"/>
<stop offset="1" stop-color="#965B31"/>
</linearGradient>
<linearGradient id="paint5_linear_2978_251" x1="36.906" y1="28.6683" x2="36.4474" y2="19.7464" gradientUnits="userSpaceOnUse">
<stop stop-color="#965B31"/>
<stop offset="0.5" stop-color="#F9AA57"/>
<stop offset="1" stop-color="#965B31"/>
</linearGradient>
<linearGradient id="paint6_linear_2978_251" x1="40.7696" y1="34.6373" x2="35.9116" y2="27.14" gradientUnits="userSpaceOnUse">
<stop stop-color="#965B31"/>
<stop offset="0.5" stop-color="#F9AA57"/>
<stop offset="1" stop-color="#965B31"/>
</linearGradient>
<linearGradient id="paint7_linear_2978_251" x1="47.1013" y1="37.8796" x2="39.1456" y2="33.8158" gradientUnits="userSpaceOnUse">
<stop stop-color="#965B31"/>
<stop offset="0.5" stop-color="#F9AA57"/>
<stop offset="1" stop-color="#965B31"/>
</linearGradient>
<linearGradient id="paint8_linear_2978_251" x1="54.2049" y1="37.5247" x2="45.2831" y2="37.9832" gradientUnits="userSpaceOnUse">
<stop stop-color="#965B31"/>
<stop offset="0.5" stop-color="#F9AA57"/>
<stop offset="1" stop-color="#965B31"/>
</linearGradient>
<linearGradient id="paint9_linear_2978_251" x1="60.1744" y1="33.6606" x2="52.6771" y2="38.5186" gradientUnits="userSpaceOnUse">
<stop stop-color="#965B31"/>
<stop offset="0.5" stop-color="#F9AA57"/>
<stop offset="1" stop-color="#965B31"/>
</linearGradient>
<linearGradient id="paint10_linear_2978_251" x1="63.4182" y1="27.3269" x2="59.3544" y2="35.2827" gradientUnits="userSpaceOnUse">
<stop stop-color="#965B31"/>
<stop offset="0.5" stop-color="#F9AA57"/>
<stop offset="1" stop-color="#965B31"/>
</linearGradient>
<linearGradient id="paint11_linear_2978_251" x1="63.0599" y1="20.2243" x2="63.5184" y2="29.1461" gradientUnits="userSpaceOnUse">
<stop stop-color="#965B31"/>
<stop offset="0.5" stop-color="#F9AA57"/>
<stop offset="1" stop-color="#965B31"/>
</linearGradient>
<linearGradient id="paint12_linear_2978_251" x1="59.1967" y1="14.2494" x2="64.0547" y2="21.7467" gradientUnits="userSpaceOnUse">
<stop stop-color="#965B31"/>
<stop offset="0.5" stop-color="#F9AA57"/>
<stop offset="1" stop-color="#965B31"/>
</linearGradient>
<linearGradient id="paint13_linear_2978_251" x1="52.8645" y1="11.0091" x2="60.8203" y2="15.0729" gradientUnits="userSpaceOnUse">
<stop stop-color="#965B31"/>
<stop offset="0.5" stop-color="#F9AA57"/>
<stop offset="1" stop-color="#965B31"/>
</linearGradient>
<linearGradient id="paint14_linear_2978_251" x1="25.625" y1="6.6254" x2="74.3753" y2="55.3757" gradientUnits="userSpaceOnUse">
<stop stop-color="#965B31"/>
<stop offset="0.5" stop-color="#F9AA57"/>
<stop offset="1" stop-color="#965B31"/>
</linearGradient>
<linearGradient id="paint15_linear_2978_251" x1="42.8042" y1="13.3205" x2="58.0876" y2="33.9998" gradientUnits="userSpaceOnUse">
<stop stop-color="#965B31"/>
<stop offset="0.5" stop-color="#F9AA57"/>
<stop offset="1" stop-color="#965B31"/>
</linearGradient>
<linearGradient id="paint16_linear_2978_251" x1="56.8234" y1="35.6315" x2="48.0508" y2="20.29" gradientUnits="userSpaceOnUse">
<stop stop-color="#3D1F00"/>
<stop offset="1" stop-color="#A55400"/>
</linearGradient>
<linearGradient id="paint17_linear_2978_251" x1="163.751" y1="34.7503" x2="172.124" y2="50.3511" gradientUnits="userSpaceOnUse">
<stop stop-color="#0053C0"/>
<stop offset="1" stop-color="#318AFF"/>
</linearGradient>
<linearGradient id="paint18_linear_2978_251" x1="156.249" y1="34.7503" x2="147.876" y2="50.3511" gradientUnits="userSpaceOnUse">
<stop stop-color="#0053C0"/>
<stop offset="1" stop-color="#318AFF"/>
</linearGradient>
<linearGradient id="paint19_linear_2978_251" x1="154.827" y1="12.2499" x2="165.306" y2="12.2499" gradientUnits="userSpaceOnUse">
<stop stop-color="#636363"/>
<stop offset="0.5" stop-color="#DFDFDF"/>
<stop offset="1" stop-color="#636363"/>
</linearGradient>
<linearGradient id="paint20_linear_2978_251" x1="149.419" y1="16.4592" x2="158.494" y2="11.2198" gradientUnits="userSpaceOnUse">
<stop stop-color="#636363"/>
<stop offset="0.5" stop-color="#DFDFDF"/>
<stop offset="1" stop-color="#636363"/>
</linearGradient>
<linearGradient id="paint21_linear_2978_251" x1="146.842" y1="22.8106" x2="152.081" y2="13.7358" gradientUnits="userSpaceOnUse">
<stop stop-color="#636363"/>
<stop offset="0.5" stop-color="#DFDFDF"/>
<stop offset="1" stop-color="#636363"/>
</linearGradient>
<linearGradient id="paint22_linear_2978_251" x1="147.786" y1="29.6022" x2="147.786" y2="19.1235" gradientUnits="userSpaceOnUse">
<stop stop-color="#636363"/>
<stop offset="0.5" stop-color="#DFDFDF"/>
<stop offset="1" stop-color="#636363"/>
</linearGradient>
<linearGradient id="paint23_linear_2978_251" x1="151.998" y1="35.0081" x2="146.758" y2="25.9332" gradientUnits="userSpaceOnUse">
<stop stop-color="#636363"/>
<stop offset="0.5" stop-color="#DFDFDF"/>
<stop offset="1" stop-color="#636363"/>
</linearGradient>
<linearGradient id="paint24_linear_2978_251" x1="158.35" y1="37.5845" x2="149.275" y2="32.3451" gradientUnits="userSpaceOnUse">
<stop stop-color="#636363"/>
<stop offset="0.5" stop-color="#DFDFDF"/>
<stop offset="1" stop-color="#636363"/>
</linearGradient>
<linearGradient id="paint25_linear_2978_251" x1="165.139" y1="36.6447" x2="154.66" y2="36.6447" gradientUnits="userSpaceOnUse">
<stop stop-color="#636363"/>
<stop offset="0.5" stop-color="#DFDFDF"/>
<stop offset="1" stop-color="#636363"/>
</linearGradient>
<linearGradient id="paint26_linear_2978_251" x1="170.543" y1="32.4314" x2="161.468" y2="37.6708" gradientUnits="userSpaceOnUse">
<stop stop-color="#636363"/>
<stop offset="0.5" stop-color="#DFDFDF"/>
<stop offset="1" stop-color="#636363"/>
</linearGradient>
<linearGradient id="paint27_linear_2978_251" x1="173.122" y1="26.0761" x2="167.883" y2="35.1509" gradientUnits="userSpaceOnUse">
<stop stop-color="#636363"/>
<stop offset="0.5" stop-color="#DFDFDF"/>
<stop offset="1" stop-color="#636363"/>
</linearGradient>
<linearGradient id="paint28_linear_2978_251" x1="172.18" y1="19.2903" x2="172.18" y2="29.7691" gradientUnits="userSpaceOnUse">
<stop stop-color="#636363"/>
<stop offset="0.5" stop-color="#DFDFDF"/>
<stop offset="1" stop-color="#636363"/>
</linearGradient>
<linearGradient id="paint29_linear_2978_251" x1="167.968" y1="13.8806" x2="173.207" y2="22.9555" gradientUnits="userSpaceOnUse">
<stop stop-color="#636363"/>
<stop offset="0.5" stop-color="#DFDFDF"/>
<stop offset="1" stop-color="#636363"/>
</linearGradient>
<linearGradient id="paint30_linear_2978_251" x1="161.617" y1="11.3042" x2="170.691" y2="16.5436" gradientUnits="userSpaceOnUse">
<stop stop-color="#636363"/>
<stop offset="0.5" stop-color="#DFDFDF"/>
<stop offset="1" stop-color="#636363"/>
</linearGradient>
<linearGradient id="paint31_linear_2978_251" x1="135.625" y1="6.6254" x2="184.375" y2="55.3757" gradientUnits="userSpaceOnUse">
<stop stop-color="#636363"/>
<stop offset="0.5" stop-color="#DFDFDF"/>
<stop offset="1" stop-color="#636363"/>
</linearGradient>
<linearGradient id="paint32_linear_2978_251" x1="150.626" y1="11.2161" x2="171.25" y2="39.382" gradientUnits="userSpaceOnUse">
<stop stop-color="#636363"/>
<stop offset="0.5" stop-color="#DEDEDE"/>
<stop offset="1" stop-color="#636363"/>
</linearGradient>
<radialGradient id="paint33_radial_2978_251" cx="0" cy="0" r="1" gradientUnits="userSpaceOnUse" gradientTransform="translate(156.096 16.0432) rotate(64.475) scale(20.4937 20.4937)">
<stop stop-color="#A1A1A1"/>
<stop offset="1" stop-color="#454545"/>
</radialGradient>
<linearGradient id="paint34_linear_2978_251" x1="275.672" y1="35.6331" x2="282.272" y2="50.1502" gradientUnits="userSpaceOnUse">
<stop stop-color="#E70002"/>
<stop offset="1" stop-color="#FF696A"/>
</linearGradient>
<linearGradient id="paint35_linear_2978_251" x1="264.433" y1="35.6331" x2="257.833" y2="50.1502" gradientUnits="userSpaceOnUse">
<stop stop-color="#E70002"/>
<stop offset="1" stop-color="#FF696A"/>
</linearGradient>
<linearGradient id="paint36_linear_2978_251" x1="280.907" y1="10.2417" x2="262.784" y2="41.7327" gradientUnits="userSpaceOnUse">
<stop stop-color="#CF8321"/>
<stop offset="0.5" stop-color="#F9F295"/>
<stop offset="1" stop-color="#CF8321"/>
</linearGradient>
<linearGradient id="paint37_linear_2978_251" x1="262.776" y1="12.6794" x2="273.394" y2="39.7871" gradientUnits="userSpaceOnUse">
<stop stop-color="#CF8321"/>
<stop offset="0.5" stop-color="#F9F295"/>
<stop offset="1" stop-color="#CF8321"/>
</linearGradient>
<radialGradient id="paint38_radial_2978_251" cx="0" cy="0" r="1" gradientUnits="userSpaceOnUse" gradientTransform="translate(265.042 13.8502) rotate(64.475) scale(26.254)">
<stop stop-color="#FF9629"/>
<stop offset="1" stop-color="#732300"/>
</radialGradient>
<linearGradient id="paint39_linear_2978_251" x1="277.722" y1="12.9717" x2="264.585" y2="34.1378" gradientUnits="userSpaceOnUse">
<stop stop-color="#CF8321"/>
<stop offset="0.5" stop-color="#F9F295"/>
<stop offset="1" stop-color="#CF8321"/>
</linearGradient>
</defs>
</svg>
