<svg xmlns="http://www.w3.org/2000/svg" width="3001" height="3001" fill="none" viewBox="0 0 3001 3001" id="log-out"><path fill="#E7E8FF" d="M2630.3 1934.02C2738.7 2096.84 2769.45 2244.8 2761.38 2367.16C2746.79 2588.21 2505.56 2679.82 2283.24 2679.82H797.183C672.197 2679.82 562.289 2585.63 514.993 2470.34C409.871 2214.11 223.418 1887.52 344.649 1574.93C502.28 1168.49 734.786 1243.46 1030.34 892.267C1325.9 541.069 1684.51 533.177 2121.94 817.292C2559.36 1101.41 2330.8 1484.17 2630.3 1934.02Z"></path><path fill="#032068" d="M2870.73 2345.84C2872.77 2500.15 2767.52 2630.44 2714.07 2676.07H2632.15C2693.05 2470.18 2793.73 2367.8 2850.15 2333.73C2859.54 2328.06 2870.59 2334.86 2870.73 2345.84Z"></path><path fill="#fff" d="M2879.39 1839.53C2963.31 2155.07 2751.78 2528.77 2660.82 2667.88H2476.51C2555.68 2072.53 2688.41 1927.84 2856.21 1830.07C2865.21 1824.82 2876.71 1829.45 2879.39 1839.53Z"></path><path fill="#032068" fill-rule="evenodd" d="M2860.33 1837.15C2864.76 1834.57 2870.21 1836.88 2871.47 1841.64C2912.82 1997.08 2881.49 2167.53 2827.97 2317.1C2775.44 2463.91 2701.88 2589.65 2656.38 2659.69H2485.87C2525.27 2367.81 2577.64 2186.47 2640.38 2066.17C2703.56 1945.04 2777.43 1885.45 2860.33 1837.15ZM2887.31 1837.42C2883.21 1822.02 2865.67 1815.07 2852.08 1822.99C2767.18 1872.46 2690.79 1934.11 2625.86 2058.6C2561.15 2182.66 2508.02 2368.77 2468.39 2666.8L2467.16 2676.07H2665.25L2667.68 2672.36C2713.36 2602.5 2789.34 2473.7 2843.4 2322.62C2897.4 2171.69 2929.88 1997.51 2887.31 1837.42Z" clip-rule="evenodd"></path><path fill="#032068" d="M2582.2 2033.65C2654.69 2298.07 2571.71 2572.86 2517.46 2676.07H2382.3C2351.9 2353.81 2475.47 2119.46 2556.71 2027.34C2564.73 2018.25 2579 2021.96 2582.2 2033.65Z"></path><path fill="#032068" fill-rule="evenodd" d="M2764.65 2064.05L2808.75 1940.17L2824.18 1945.66L2723.19 2229.41L2789.53 2209.49L2794.24 2225.18L2716.37 2248.57L2624.52 2506.63L2707.19 2475.89L2712.9 2491.25L2617.35 2526.78L2566.14 2670.63L2550.71 2665.13L2654.7 2372.98L2616.24 2265.14L2631.68 2259.64L2663.38 2348.57L2755.37 2090.15L2726.7 1994.42L2742.39 1989.72L2764.65 2064.05Z" clip-rule="evenodd"></path><path fill="#fff" fill-rule="evenodd" d="M2513.09 2244.8L2533.98 2129.86L2550.1 2132.79L2507.69 2366.09L2562.8 2337.06L2570.44 2351.56L2503.96 2386.56L2467.58 2586.66L2513.15 2550.85L2523.27 2563.73L2463.16 2610.96L2451.8 2673.44L2435.68 2670.51L2464.82 2510.25L2416.76 2447.6L2429.76 2437.62L2468.78 2488.49L2509.42 2264.95L2470.5 2222.9L2482.52 2211.77L2513.09 2244.8Z" clip-rule="evenodd"></path><path fill="#F4AD5E" d="M1955.96 429.646L1964.99 385.845C1966.6 378.044 1977.26 376.894 1980.5 384.172L1998.23 424.084C1999.3 426.499 2001.48 428.248 2004.06 428.781L2050.87 438.428C2058.41 439.982 2059.84 450.133 2053.02 453.706L2010.24 476.135C2008.15 477.226 2006.64 479.157 2006.08 481.438L1993.43 532.98C1991.55 540.635 1981 541.479 1977.93 534.22L1958.54 488.396C1957.59 486.164 1955.71 484.464 1953.39 483.755L1901.62 467.921C1894.01 465.593 1893.86 454.869 1901.4 452.325L1950.56 435.756C1953.32 434.825 1955.37 432.499 1955.96 429.646zM2396.54 762.06L2405.25 750.539C2410.05 744.185 2420.18 747.73 2419.97 755.692L2419.61 769.704C2419.54 772.346 2420.75 774.858 2422.85 776.452L2436.83 787.013C2442.97 791.655 2439.89 801.435 2432.2 801.733L2414.19 802.431C2411.84 802.522 2409.64 803.616 2408.16 805.436L2395.4 821.056C2390.42 827.161 2380.53 823.391 2380.87 815.516L2381.67 797.394C2381.77 794.972 2380.8 792.628 2379.01 790.992L2363.95 777.21C2358.07 771.836 2362.54 762.088 2370.45 763.032L2389.03 765.253C2391.92 765.599 2394.78 764.383 2396.54 762.06z"></path><path fill="#fff" d="M1041.91 1252.49L1020.29 1280.83C1018.98 1282.56 1016.83 1283.39 1014.73 1282.98L988.01 1277.86C982.261 1276.76 978.793 1284.15 983.23 1288.05L1004.23 1306.51C1005.76 1307.86 1006.49 1309.94 1006.14 1311.97L1000.87 1342.42C999.877 1348.14 1006.76 1351.68 1010.66 1347.45L1032.23 1324.06C1033.5 1322.69 1035.33 1322.02 1037.16 1322.28L1062.13 1325.76C1067.75 1326.54 1070.94 1319.37 1066.66 1315.55L1048.09 1298.96C1046.6 1297.63 1045.89 1295.61 1046.21 1293.61L1052.07 1257.04C1053.02 1251.06 1045.56 1247.71 1041.91 1252.49Z"></path><path fill="#032068" fill-rule="evenodd" d="M1669.01 836.697C1410.5 836.697 1200.94 1045.93 1200.94 1304.03V1663.75C1200.94 1679.76 1213.95 1692.75 1229.99 1692.75H1311.88C1327.92 1692.75 1340.92 1679.76 1340.92 1663.75V1295.29C1340.92 1114.38 1487.81 967.725 1669.01 967.725C1850.2 967.725 1997.09 1114.38 1997.09 1295.29V1631.21C1997.09 1647.23 2010.1 1660.21 2026.14 1660.21H2108.03C2124.07 1660.21 2137.08 1647.23 2137.08 1631.21V1304.03C2137.08 1045.93 1927.52 836.697 1669.01 836.697Z" clip-rule="evenodd"></path><path fill="#fff" d="M1025.96 1616.92C1025.96 1600.91 1038.96 1587.92 1055.01 1587.92H2283.01C2299.05 1587.92 2312.05 1600.91 2312.05 1616.92V2650.82C2312.05 2666.84 2299.05 2679.82 2283.01 2679.82H1055.01C1038.96 2679.82 1025.96 2666.84 1025.96 2650.82V1616.92Z"></path><path fill="#032068" fill-rule="evenodd" d="M1016.28 1616.92C1016.28 1595.57 1033.62 1578.26 1055.01 1578.26H2283.01C2304.4 1578.26 2321.73 1595.57 2321.73 1616.92V2650.82C2321.73 2672.18 2304.4 2689.49 2283.01 2689.49H1055.01C1033.62 2689.49 1016.28 2672.18 1016.28 2650.82V1616.92ZM1055.01 1597.59C1044.31 1597.59 1035.64 1606.25 1035.64 1616.92V2650.82C1035.64 2661.5 1044.31 2670.16 1055.01 2670.16H2283.01C2293.7 2670.16 2302.37 2661.5 2302.37 2650.82V1616.92C2302.37 1606.25 2293.7 1597.59 2283.01 1597.59H1055.01Z" clip-rule="evenodd"></path><path fill="#F4AD5E" fill-rule="evenodd" d="M1743 2164.64C1769.9 2143.03 1787.12 2109.88 1787.12 2072.72C1787.12 2007.6 1734.24 1954.8 1669.01 1954.8C1603.77 1954.8 1550.89 2007.6 1550.89 2072.72C1550.89 2113.2 1571.32 2148.92 1602.44 2170.15L1576.09 2280.67C1572.16 2297.13 1584.67 2312.94 1601.62 2312.94H1745.14C1762.09 2312.94 1774.6 2297.13 1770.67 2280.67L1743 2164.64Z" clip-rule="evenodd"></path><path fill="#fff" d="M2877.28 1283.14C2877.28 1439.23 2750.75 1565.76 2594.66 1565.76C2540.76 1565.76 2490.38 1550.66 2447.52 1524.47L2366.31 1553.28C2350.99 1558.71 2335.67 1545.17 2339.17 1529.3L2359.04 1439.24C2329.35 1394.52 2312.05 1340.85 2312.05 1283.14C2312.05 1127.06 2438.58 1000.53 2594.66 1000.53C2750.75 1000.53 2877.28 1127.06 2877.28 1283.14Z"></path><path fill="#032068" fill-rule="evenodd" d="M2594.66 1007.43C2746.93 1007.43 2870.37 1130.87 2870.37 1283.14C2870.37 1435.41 2746.93 1558.85 2594.66 1558.85C2542.06 1558.85 2492.92 1544.13 2451.12 1518.58L2448.31 1516.87L2364.01 1546.77C2353.79 1550.39 2343.57 1541.37 2345.91 1530.78L2366.41 1437.87L2364.79 1435.43C2335.83 1391.8 2318.95 1339.45 2318.95 1283.14C2318.95 1130.87 2442.39 1007.43 2594.66 1007.43ZM2884.18 1283.14C2884.18 1123.25 2754.56 993.628 2594.66 993.628C2434.77 993.628 2305.15 1123.25 2305.15 1283.14C2305.15 1341.19 2322.24 1395.27 2351.67 1440.6L2332.43 1527.81C2327.76 1548.98 2348.19 1567.03 2368.62 1559.78L2446.75 1532.07C2490.04 1557.85 2540.63 1572.66 2594.66 1572.66C2754.56 1572.66 2884.18 1443.04 2884.18 1283.14Z" clip-rule="evenodd"></path><path fill="#F4AD5E" fill-rule="evenodd" d="M2770.89 1222.03L2541.6 1419.47 2430.53 1266.74 2484.89 1227.21 2553.04 1320.92 2727.03 1171.1 2770.89 1222.03zM813.2 974.029V1033.65C813.2 1047.57 796.264 1054.85 785.762 1045.44L629.88 905.832C622.8 899.491 622.8 888.586 629.88 882.246L785.761 742.634C796.264 733.227 813.2 740.507 813.2 754.427V814.048H1173.41V974.029H813.2z" clip-rule="evenodd"></path><path fill="#EFCB96" d="M612.837 1548.08L593.81 1621.55C584.296 1658.28 614.875 1701.13 698.215 1700.01C764.888 1699.12 774.061 1636.88 770.314 1605.87L752.539 1522.92C768.985 1506.06 782.187 1495.9 781.124 1416.05C779.795 1316.24 725.97 1280.36 662.631 1281.21C599.293 1282.06 546.663 1335.95 547.946 1432.49C549.052 1515.66 593.858 1541.68 612.837 1548.08Z"></path><path fill="#032068" d="M414.225 1689.99C389.171 1625.44 398.095 1529.86 448.103 1475.64C510.614 1407.88 442.718 1321.78 518.754 1267.22C545.165 1245.45 567.369 1242.02 575.17 1243.03C587.02 1213.87 630.963 1172.01 677.903 1188.11C704.776 1201.14 718.48 1227.73 741.928 1234.1C765.375 1240.48 802.378 1244.55 822.593 1276.53C849.868 1319.66 813.607 1353.62 841.193 1420.17C868.78 1486.73 952.587 1514.64 944.001 1621.84C916.874 1611.18 847.192 1601.46 785.08 1601.91C783.939 1608.91 776.01 1620.51 772.188 1625.43L767.504 1602.32C767.574 1607.58 734.991 1465.1 734.991 1465.1C734.991 1465.1 773.405 1442.5 767.603 1407.78C760.35 1364.37 730.362 1368.12 714.212 1408.49C710.934 1413 700.971 1416.7 687.338 1395.47C670.297 1368.92 651.925 1302.2 598.579 1306.26C576.231 1322.68 554.913 1351.19 551.856 1423.8C556.217 1500.71 578.094 1530.7 613.868 1547.94L602.511 1600.5L593.21 1629.02C585.771 1620.42 580.565 1608.43 578.893 1603.52C529.481 1613.56 460.005 1647.19 414.225 1689.99Z"></path><path fill="#032068" d="M686.183 1538.91C658.235 1555.41 620.631 1551.82 613.872 1547.94L602.339 1588.41C645.338 1594.19 677.489 1557.55 686.183 1538.91Z"></path><path fill="#F4AD5E" d="M679.146 1664.89C742.145 1664.89 775.792 1627.83 782.951 1603.92C883.176 1603.92 1054.99 1629.03 1144.48 1711.51C1272.01 1829.07 1412.94 2199.25 1402.2 2346.29C1393.61 2463.93 1317.49 2617.66 1280.5 2679.82H92.1113C154.156 2542.35 233.859 2259.5 242.449 2227.94C253.188 2188.5 299.721 1901.59 349.834 1779.65C389.924 1682.11 514.49 1614.68 578.92 1603.92C588.466 1627.83 616.147 1664.89 679.146 1664.89Z"></path><path fill="#032068" d="M396.373 1908.76L299.727 2679.82H256.773L396.373 1908.76zM1105.11 2360.64C1105.11 2380.72 1054.99 2581.8 1029.94 2679.82H990.563L1083.63 2360.64C1066.45 2306.13 994.142 2138.29 979.824 2052.21 990.563 2116.77 1105.11 2335.53 1105.11 2360.64zM1366.39 2493.33C1323.44 2358.49 1358.04 2233.92 1380.71 2188.49 1389.06 2213.6 1405.05 2280.3 1402.19 2346.29 1399.33 2412.28 1377.13 2471.81 1366.39 2493.33z"></path></svg>