<svg width="385" height="394" viewBox="0 0 385 394" fill="none" xmlns="http://www.w3.org/2000/svg">
<path fill-rule="evenodd" clip-rule="evenodd" d="M183.637 95.8648C247.407 212.35 238.454 134.51 293.349 152.435C347.271 170.04 347.126 246.897 296.91 277.65C268.546 295.015 222.749 291.21 173.735 291.012C116.113 290.789 53.4984 246.476 52.9664 187.509C52.7186 159.922 80.2237 162.808 82.1219 134.681C86.0451 76.5088 162.763 57.7244 183.637 95.8648Z" fill="#D9C57E"/>
<path fill-rule="evenodd" clip-rule="evenodd" d="M186.078 82.7674C181.895 90.2115 208.391 129.616 229.833 132.444C238.804 133.626 247.037 129.871 255.548 127.694C265.662 125.105 275.594 124.528 285.599 128.103C296.903 132.142 304.544 141.8 312.475 150.382C314.966 153.076 319.796 158.858 324.076 156.869C328.501 154.811 327.394 147.207 326.191 143.567C322.854 133.477 314.053 127.791 304.066 126.511C284.124 123.953 263.746 131.229 244.558 122.654C227.723 115.127 217.785 100.07 204.528 87.891C200.296 84.0029 189.451 76.7703 186.078 82.7674Z" fill="#D9C57E"/>
<path fill-rule="evenodd" clip-rule="evenodd" d="M47.2707 218.305C50.7889 218.989 51.7138 236.732 54.2104 241.629C66.9958 266.713 94.7729 275.473 119.249 283.751C128.178 286.776 148.943 293.841 144.488 307.414C139.089 323.882 109.71 318.005 99.8024 310.896C87.9117 302.365 78.9167 292.207 71.2092 280.292C66.2401 272.621 59.0283 267.307 53.0981 260.527C42.1141 247.972 44.9796 217.859 47.2707 218.305Z" fill="#D9C57E"/>
<path fill-rule="evenodd" clip-rule="evenodd" d="M330.553 157.611C328.503 158.548 325.413 162.153 325.482 164.094C325.59 167.23 328.755 169.247 331.495 169.669C336.684 170.47 343.285 162.329 337.786 158.475C337.044 157.953 332.603 156.674 330.553 157.611Z" fill="#DBB13B"/>
<path fill-rule="evenodd" clip-rule="evenodd" d="M175.818 228.236C175.818 213.954 170.926 200.257 162.227 190.158C153.522 180.059 141.723 174.386 129.415 174.386H105.675C93.3671 174.386 81.568 180.059 72.8628 190.158C64.1638 200.257 61.7706 209.827 61.7706 224.109C61.7706 249.807 78.4307 257.002 78.4307 257.002L175.818 279.159V228.236Z" fill="#2F2258"/>
<path fill-rule="evenodd" clip-rule="evenodd" d="M192.371 269.363L116.029 274.828C116.029 274.828 114.879 278.275 116.061 278.851C123.101 282.285 158.276 295.427 158.276 295.427L192.371 269.363Z" fill="#0D0D0D"/>
<path fill-rule="evenodd" clip-rule="evenodd" d="M126.185 275.113C125.85 274.88 125.66 274.156 125.521 273.8C124.972 272.306 124.706 270.696 124.908 269.105C125.149 267.268 126.122 265.548 127.057 264.002C128.966 260.839 131.31 257.845 134.502 255.979C134.23 255.996 133.648 255.29 133.415 255.137C132.271 254.397 131.032 253.776 129.819 253.174C125.787 251.179 119.587 249.056 115.189 251.188C111.037 253.196 108.458 258.789 107.612 263.161C107.359 264.474 107.258 265.877 107.371 267.223C107.403 267.552 107.517 268.322 107.953 268.393C108.597 268.497 108.8 266.479 108.869 266.117C109.343 263.504 109.672 260.982 110.778 258.537C111.985 255.891 113.887 254.549 115.903 252.676C116.56 252.068 117.015 251.339 116.269 250.614C114.69 249.076 111.144 249.397 109.147 249.133C103.365 248.371 96.1667 248.882 91.1931 245.239C85.0251 240.721 87.5277 231.061 87.3634 224.556C87.3065 222.449 87.0158 220.256 85.9794 218.397C85.6824 217.86 85.221 216.954 84.5005 216.977C83.1418 217.019 84.311 219.647 84.5322 220.229C85.8024 223.656 88.3239 226.404 88.8548 230.135C89.2403 232.841 88.0648 235.154 86.4091 237.18C84.9429 238.976 82.8258 240.406 84.0961 242.945C84.0834 242.929 84.7597 243 84.8671 243.006C85.3853 243.033 85.9035 243.063 86.4217 243.163C87.9701 243.465 89.5563 243.845 91.073 244.296C93.1522 244.915 95.1302 245.787 97.241 246.341C99.7309 246.997 102.398 247.23 104.964 247.295C111.15 247.453 117.843 247.854 123.821 249.489C126.368 250.186 129.004 251.176 131.399 252.311C133.863 253.483 136.063 254.875 138.774 255.438C143.071 256.332 147.748 255.155 152.013 254.503C152.001 254.568 154.712 255.271 154.876 255.311C158.352 256.138 162.327 255.48 165.815 255.109C167.831 254.894 169.835 254.536 171.825 254.133C173.374 253.818 174.916 253.459 176.458 253.094C177.728 252.792 178.992 252.471 180.256 252.151C184.168 251.161 191.814 250.729 191.897 245.076C192.004 237.748 187.643 230.512 184.591 224.166C181.652 218.052 178.941 211.641 175.308 205.918C173.993 203.848 172.729 201.587 170.972 199.866C166.624 195.604 160.336 194.192 154.762 192.473C149.953 190.989 145.245 188.898 140.385 187.614C139.595 187.407 138.793 187.687 138.249 188.051C136.442 189.258 135.039 190.83 133.642 192.495C129.579 197.336 125.692 202.335 119.954 205.19C118.248 206.041 115.126 207.431 113.324 206.195C111.29 204.801 113.558 202.649 115.126 202.255C117.287 201.709 119.499 202.313 121.647 202.595C123.695 202.862 125.717 202.819 127.746 202.42C130.634 201.85 133.326 200.403 135.14 198C135.993 196.871 137.086 193.436 138.843 193.522C140.354 193.597 141.472 195.038 142.3 196.177C143.861 198.315 145.308 200.452 147.419 202.077C148.114 202.61 149.17 203.447 150.092 203.41C150.585 203.39 151.249 203.033 151.211 202.44C151.135 201.316 149.7 201.098 148.885 200.845C146.269 200.038 143.425 200.187 140.847 201.051C138.173 201.944 135.747 203.414 133.339 204.867C128.087 208.042 123.158 211.665 121.445 217.949C119.524 225.003 124.883 232.738 123.973 240.143C123.796 241.585 123.291 243.148 122.052 243.988C120.118 245.294 117.445 243.755 117.066 241.537C116.459 237.995 119.581 234.781 121.079 231.877C123.695 226.805 125.313 220.907 123.651 215.209C122.671 211.861 120.074 209.891 116.933 208.862C113.963 207.889 110.259 207.288 109.659 203.468C109.172 200.349 110.778 197.112 109.792 194.039C108.566 190.202 104.869 187.702 103.396 183.865C102.726 182.122 102.524 180.401 102.366 178.554C102.322 178.065 102.309 176.961 101.621 176.936C100.211 176.884 99.0547 180.505 98.6755 181.448C97.2031 185.149 96.1413 189.308 95.3261 193.215C95.0291 194.613 94.6815 196.8 95.6674 198.024C96.4889 199.039 97.9172 198.292 98.7324 197.663C101.014 195.91 102.177 192.98 104.698 191.475C106.474 190.413 109.451 192.23 107.934 194.32C106.973 195.641 104.325 194.551 102.986 195.13C100.369 196.263 97.7845 202.22 94.4793 198.394C94.1128 197.968 93.841 197.449 93.6704 196.911C92.8235 194.277 94.0938 192.012 94.7573 189.538C94.9027 188.989 95.5157 187.226 94.7826 186.836C93.5819 186.201 90.6622 188.127 89.6701 188.601C84.5764 191.028 78.9456 193.15 74.5977 196.858C68.9163 201.704 65.2636 208.803 65.0108 216.39C64.897 219.803 64.6316 225.027 64.025 228.408C62.4261 237.347 56.3023 242.448 56.7763 252.017C57.1365 259.449 62.0343 266.388 68.594 269.467C76.5189 273.192 86.1437 273.716 94.7131 274.376C97.5696 274.595 100.426 274.802 103.276 275.087C108.749 275.637 120.693 275.527 126.185 275.113Z" fill="white"/>
<path fill-rule="evenodd" clip-rule="evenodd" d="M139.374 256.707C131.399 255.547 125.749 266.499 125.951 270.541C126.311 277.571 132.252 271.724 135.298 277.066C136.53 279.233 136.189 283.353 139.374 283.333C141.447 283.314 142.629 281.523 142.711 279.569C142.768 278.25 142.313 276.957 141.99 275.695C141.422 273.458 140.448 270.347 139.311 270.088C138.951 270.011 138.319 269.914 138.072 270.289C137.586 271.039 139.267 271.627 139.715 271.821C140.695 272.248 142.761 272.61 143.943 274.007C145.34 275.669 146.97 277.008 147.817 279.02C148.291 280.151 148.588 281.361 149.277 282.389C149.928 283.366 151.173 284.704 152.279 283.605C153.303 282.596 153.688 280.966 153.998 279.602C155.11 274.641 154.661 272.41 151.482 268.691C150.301 267.307 149.03 265.968 147.368 265.212C146.68 264.895 145.738 264.578 145.024 265.011C144.493 265.335 145.63 265.839 145.82 265.917C147.002 266.428 148.253 266.518 149.467 266.906C151.23 267.475 155.325 271.595 156.178 271.524C159.155 271.259 159.635 269.571 158.737 267.475C156.829 263.039 149.662 256.345 145.63 256.526C143.545 256.617 141.466 256.746 139.374 256.707Z" fill="#A6A27C"/>
<mask id="mask0_2702_654" style="mask-type:luminance" maskUnits="userSpaceOnUse" x="125" y="256" width="35" height="29">
<path d="M139.374 256.707C131.399 255.547 125.749 266.499 125.951 270.541C126.311 277.571 132.252 271.724 135.298 277.066C136.53 279.233 136.189 283.353 139.374 283.333C141.447 283.314 142.629 281.523 142.711 279.569C142.768 278.25 142.313 276.957 141.99 275.695C141.422 273.458 140.448 270.347 139.311 270.088C138.951 270.011 138.319 269.914 138.072 270.289C137.586 271.039 139.267 271.627 139.715 271.821C140.695 272.248 142.761 272.61 143.943 274.007C145.34 275.669 146.97 277.008 147.817 279.02C148.291 280.151 148.588 281.361 149.277 282.389C149.928 283.366 151.173 284.704 152.279 283.605C153.303 282.596 153.688 280.966 153.998 279.602C155.11 274.641 154.661 272.41 151.482 268.691C150.301 267.307 149.03 265.968 147.368 265.212C146.68 264.895 145.738 264.578 145.024 265.011C144.493 265.335 145.63 265.839 145.82 265.917C147.002 266.428 148.253 266.518 149.467 266.906C151.23 267.475 155.325 271.595 156.178 271.524C159.155 271.259 159.635 269.571 158.737 267.475C156.829 263.039 149.662 256.345 145.63 256.526C143.545 256.617 141.466 256.746 139.374 256.707Z" fill="white"/>
</mask>
<g mask="url(#mask0_2702_654)">
<path fill-rule="evenodd" clip-rule="evenodd" d="M137.769 255.65C137.623 255.578 137.101 255.995 136.981 256.073C136.142 256.612 135.328 257.244 134.578 257.901C131.737 260.398 128.857 264.08 129.97 268.178C130.37 269.635 131.444 270.761 132.805 271.327C134.267 271.932 135.767 272.075 136.834 273.415C137.311 274.013 137.686 274.735 137.89 275.483C138.22 276.706 138.252 277.864 139.485 278.514C140.305 278.957 141.061 278.664 141.71 278.079C142.034 277.786 142.593 277.096 143.057 277.519C143.578 278.001 143.598 279.022 143.591 279.672C143.553 282.196 141.602 284.252 139.218 284.636C136.879 285.013 134.502 284.167 132.455 283.081C126.62 279.985 122.437 272.569 122.787 265.83C123.086 260.047 131.8 255.715 137.769 255.65Z" fill="#455665"/>
<path fill-rule="evenodd" clip-rule="evenodd" d="M155.567 276.947C155.147 277.532 154.721 278.033 154.149 278.469C153.723 278.794 153.259 279.08 152.763 279.276C151.435 279.796 150.259 279.094 149.376 278.085C147.748 276.238 146.839 273.824 145.079 272.088C143.973 271.001 142.638 270.383 141.112 270.214C140.648 270.162 139.758 270.123 139.549 270.702C139.383 271.177 139.898 271.684 140.223 271.932C140.655 272.263 141.151 272.498 141.57 272.842C142.263 273.408 142.797 274.163 143.235 274.937C144.837 277.76 145.613 281.097 148.022 283.393C148.498 283.855 149.039 284.271 149.643 284.545C150.075 284.74 150.539 284.863 151.003 284.909C154.136 285.247 155.039 279.679 155.567 276.947ZM145.009 265.167C145.466 263.911 147.958 263.579 149.013 263.963C151.67 264.945 153.336 267.645 155.923 268.764C156.164 268.868 156.412 268.959 156.673 269.011C158.071 269.258 158.56 267.886 159.457 267.118C160.143 266.533 160.995 266.487 161.497 267.352C162.622 269.297 161.294 271.6 159.342 272.289C157.448 272.959 155.23 272.328 153.755 271.008C153.126 270.449 152.535 269.791 152.052 269.095C151.664 268.523 151.073 267.964 150.539 267.508C149.465 266.585 146.325 265.557 145.009 265.167Z" fill="#455665"/>
</g>
<path fill-rule="evenodd" clip-rule="evenodd" d="M273.139 223.626C273.579 221.273 272.971 218.841 271.478 216.994C269.986 215.147 267.771 214.078 265.428 214.078H172.927C169.159 214.078 165.917 216.817 165.209 220.605L152.939 286.223C152.498 288.577 153.107 291.01 154.599 292.859C156.092 294.701 158.313 295.775 160.656 295.775H253.157C256.924 295.775 260.161 293.031 260.868 289.248L273.139 223.626Z" fill="#455665"/>
<path fill-rule="evenodd" clip-rule="evenodd" d="M144.228 139.197C144.196 139.217 145.018 140.576 145.056 140.671C145.485 141.713 145.719 142.956 146.048 144.038C147.09 147.494 148.007 151.014 148.083 154.651C148.139 157.088 147.76 159.384 146.989 161.692C146.515 163.109 145.789 164.436 145.422 165.892C144.739 168.604 144.879 171.43 144.101 174.133C142.477 179.785 138.641 185.565 134.54 189.652C130.59 193.589 124.422 197.734 118.759 195.052C116.345 193.905 114.475 191.898 112.718 189.905C108.913 185.609 105.501 180.655 104.648 174.806C104.117 171.212 104.995 167.523 104.199 163.969C103.858 162.467 103.144 160.562 101.576 160.002C100.047 159.455 100.451 161.148 100.009 162.349C99.1432 164.683 98.2838 167.71 100.414 169.576C101.551 170.573 102.006 170.617 102.082 169.299C102.322 164.951 100.73 166.538 100.982 164.654C101.045 164.16 101.564 163.501 102.088 163.016C103.586 161.639 103.744 164.971 103.693 165.39C103.491 166.996 101.993 167.671 102.082 169.299C102.126 170.137 103.042 172.14 102.05 172.703C101.033 173.286 99.6677 171.861 99.1116 171.175C97.3295 168.976 96.2994 165.465 96.7481 162.642C97.8477 155.663 106.303 156.952 111.188 154.532C115.024 152.631 118.014 149.411 121.123 146.513C124.523 143.34 128.561 140.239 132.96 138.719C136.815 137.388 142.256 137.035 145.056 140.671" fill="#A6A27C"/>
<mask id="mask1_2702_654" style="mask-type:luminance" maskUnits="userSpaceOnUse" x="96" y="137" width="53" height="59">
<path d="M144.228 139.197C144.196 139.217 145.018 140.576 145.056 140.671C145.485 141.713 145.719 142.956 146.048 144.038C147.09 147.494 148.007 151.014 148.083 154.651C148.139 157.088 147.76 159.384 146.989 161.692C146.515 163.109 145.789 164.436 145.422 165.892C144.739 168.604 144.879 171.43 144.101 174.133C142.477 179.785 138.641 185.565 134.54 189.652C130.59 193.589 124.422 197.734 118.759 195.052C116.345 193.905 114.475 191.898 112.718 189.905C108.913 185.609 105.501 180.655 104.648 174.806C104.117 171.212 104.995 167.523 104.199 163.969C103.858 162.467 103.144 160.562 101.576 160.002C100.047 159.455 100.451 161.148 100.009 162.349C99.1432 164.683 98.2838 167.71 100.414 169.576C101.551 170.573 102.006 170.617 102.082 169.299C102.322 164.951 100.73 166.538 100.982 164.654C101.045 164.16 101.564 163.501 102.088 163.016C103.586 161.639 103.744 164.971 103.693 165.39C103.491 166.996 101.993 167.671 102.082 169.299C102.126 170.137 103.042 172.14 102.05 172.703C101.033 173.286 99.6677 171.861 99.1116 171.175C97.3295 168.976 96.2994 165.465 96.7481 162.642C97.8477 155.663 106.303 156.952 111.188 154.532C115.024 152.631 118.014 149.411 121.123 146.513C124.523 143.34 128.561 140.239 132.96 138.719C136.815 137.388 142.256 137.035 145.056 140.671" fill="white"/>
</mask>
<g mask="url(#mask1_2702_654)">
<path fill-rule="evenodd" clip-rule="evenodd" d="M150.354 146.13C142.562 153.766 132.658 159.398 121.865 161.09C118.261 161.655 114.651 161.732 111.066 161.034C110.322 160.889 107.926 160.034 107.43 161.051C107.093 161.741 107.57 162.698 107.882 163.301C108.74 164.949 110.329 166.396 110.812 168.225C111.435 170.588 110.259 173.564 110.278 175.982C110.316 181.172 112.731 186.855 116.393 190.446C118.745 192.759 121.935 193.995 125.114 194.506C126.131 194.669 127.147 194.795 128.177 194.85C128.444 194.864 129.728 194.719 129.639 194.837C128.794 196.001 126.137 196.267 124.897 196.431C119.8 197.109 114.708 195.335 110.964 191.747C105.555 186.567 103.922 179.34 103.922 172.015C103.922 169.409 104.71 166.666 104.258 164.085C103.744 161.101 100.699 159.537 101.131 156.232C101.227 155.495 101.43 154.758 101.716 154.074C103.629 149.521 108.396 146.416 112.426 144.083C122.533 138.228 140.534 136.586 150.354 146.13Z" fill="#455665"/>
</g>
<path fill-rule="evenodd" clip-rule="evenodd" d="M118.652 195.795C111.877 193.342 105.115 181.021 105.071 181.147C104.995 181.378 104.907 181.607 104.818 181.832C104.578 182.416 103.959 183.493 104.477 184.058C105.09 184.732 105.855 185.252 106.487 185.908C107.706 187.174 108.869 188.634 109.785 190.144C111.22 192.501 111.694 194.904 111.346 197.651C111.201 198.822 110.266 201.464 111.429 202.382C111.934 202.776 112.661 202.427 113.122 202.152C114.228 201.498 115.195 200.511 116.402 200.057C117.875 199.504 119.556 200.164 121.072 200.087C124.232 199.927 128.163 197.959 129.825 195.077C130.59 193.753 128.037 195.284 127.733 195.432C127.277 195.651 126.809 195.841 126.33 196.003C123.809 196.83 121.136 196.694 118.652 195.795Z" fill="#656245"/>
<mask id="mask2_2702_654" style="mask-type:luminance" maskUnits="userSpaceOnUse" x="104" y="181" width="26" height="22">
<path d="M118.652 195.795C111.877 193.342 105.115 181.021 105.071 181.147C104.995 181.378 104.907 181.607 104.818 181.832C104.578 182.416 103.959 183.493 104.477 184.058C105.09 184.732 105.855 185.252 106.487 185.908C107.706 187.174 108.869 188.634 109.785 190.144C111.22 192.501 111.694 194.904 111.346 197.651C111.201 198.822 110.266 201.464 111.429 202.382C111.934 202.776 112.661 202.427 113.122 202.152C114.228 201.498 115.195 200.511 116.402 200.057C117.875 199.504 119.556 200.164 121.072 200.087C124.232 199.927 128.163 197.959 129.825 195.077C130.59 193.753 128.037 195.284 127.733 195.432C127.277 195.651 126.809 195.841 126.33 196.003C123.809 196.83 121.136 196.694 118.652 195.795Z" fill="white"/>
</mask>
<g mask="url(#mask2_2702_654)">
<path fill-rule="evenodd" clip-rule="evenodd" d="M104.761 179.938C104.932 181.295 105.015 182.634 105.746 183.841C106.318 184.772 107.138 185.433 107.882 186.201C109.108 187.461 110.348 188.916 111.053 190.551C111.918 192.562 111.88 194.619 112.248 196.736C112.388 197.549 112.623 198.686 113.545 198.894C114.918 199.201 116.323 198.191 117.658 198.034C119.571 197.809 121.414 198.578 123.34 198.071C124.65 197.727 125.889 197.057 127.027 196.326C127.815 195.819 128.559 195.178 129.449 194.854C130.396 194.509 131.368 194.846 130.714 196.006C129.671 197.845 127.307 199.039 125.546 199.985C121.904 201.946 117.658 203.539 113.526 203.849C111.486 204.001 109.344 203.806 107.551 202.723C102.797 199.85 104.1 192.133 101.697 187.616C100.839 186.008 98.1184 184.513 104.761 179.938Z" fill="#A6A27C"/>
</g>
<path fill-rule="evenodd" clip-rule="evenodd" d="M127.841 150.747C144.973 134.801 146.989 147.22 146.439 150.832C145.315 158.181 141.238 160.374 142.294 168.374C142.648 171.037 142.565 178.761 142.565 178.761C142.565 178.761 150.358 178.131 155.142 173.411C159.572 169.047 167.926 166.448 166.182 158.514C165.948 157.463 165.493 156.5 164.893 155.616C164.084 154.411 163.029 153.374 161.954 152.418C164.299 148.31 162.725 142.295 161.272 138.133C157.082 126.101 145.302 115.733 132.53 121.047C132.062 119.928 129.97 119.212 129.004 118.825C125.142 117.289 120.737 116.712 116.623 116.963C109.754 117.381 103.131 120.178 98.3406 125.305C92.0146 132.076 89.9671 141.751 96.2741 149.128C93.3038 150.186 91.4964 152.746 90.0556 155.528C87.0221 161.381 99.0295 172.741 98.3849 167.065C98.802 166.517 100.274 164.991 100.647 164.348C101.905 162.163 103.144 158.687 105.602 158.362C114.001 157.253 117.388 160.473 127.841 150.747Z" fill="#0D0D0D"/>
<path fill-rule="evenodd" clip-rule="evenodd" d="M312.559 92.3737C312.559 89.9562 311.619 87.6369 309.951 85.9272C308.278 84.2175 306.012 83.2568 303.648 83.2568H257.835C255.471 83.2568 253.205 84.2175 251.537 85.9272C249.864 87.6369 248.925 89.9562 248.925 92.3737V164.01C248.925 166.428 249.864 168.747 251.537 170.457C253.205 172.167 255.471 173.127 257.835 173.127H303.648C306.012 173.127 308.278 172.167 309.951 170.457C311.619 168.747 312.559 166.428 312.559 164.01V92.3737Z" fill="#DBB13B"/>
<path d="M261.554 105.672C265.682 105.672 269.028 102.247 269.028 98.0224C269.028 93.7978 265.682 90.373 261.554 90.373C257.426 90.373 254.079 93.7978 254.079 98.0224C254.079 102.247 257.426 105.672 261.554 105.672Z" fill="white"/>
<path d="M261.554 125.175C265.682 125.175 269.028 121.75 269.028 117.525C269.028 113.301 265.682 109.876 261.554 109.876C257.426 109.876 254.079 113.301 254.079 117.525C254.079 121.75 257.426 125.175 261.554 125.175Z" fill="white"/>
<path d="M261.554 144.678C265.682 144.678 269.028 141.254 269.028 137.029C269.028 132.805 265.682 129.38 261.554 129.38C257.426 129.38 254.079 132.805 254.079 137.029C254.079 141.254 257.426 144.678 261.554 144.678Z" fill="white"/>
<path d="M261.554 164.182C265.682 164.182 269.028 160.758 269.028 156.533C269.028 152.309 265.682 148.884 261.554 148.884C257.426 148.884 254.079 152.309 254.079 156.533C254.079 160.758 257.426 164.182 261.554 164.182Z" fill="white"/>
<path d="M280.743 105.672C284.871 105.672 288.218 102.247 288.218 98.0224C288.218 93.7978 284.871 90.373 280.743 90.373C276.615 90.373 273.269 93.7978 273.269 98.0224C273.269 102.247 276.615 105.672 280.743 105.672Z" fill="white"/>
<path d="M280.743 125.175C284.871 125.175 288.218 121.75 288.218 117.525C288.218 113.301 284.871 109.876 280.743 109.876C276.615 109.876 273.269 113.301 273.269 117.525C273.269 121.75 276.615 125.175 280.743 125.175Z" fill="white"/>
<path d="M280.743 144.678C284.871 144.678 288.218 141.254 288.218 137.029C288.218 132.805 284.871 129.38 280.743 129.38C276.615 129.38 273.269 132.805 273.269 137.029C273.269 141.254 276.615 144.678 280.743 144.678Z" fill="white"/>
<path d="M280.743 164.182C284.871 164.182 288.218 160.758 288.218 156.533C288.218 152.309 284.871 148.884 280.743 148.884C276.615 148.884 273.269 152.309 273.269 156.533C273.269 160.758 276.615 164.182 280.743 164.182Z" fill="white"/>
<path d="M299.933 105.672C304.061 105.672 307.407 102.247 307.407 98.0224C307.407 93.7978 304.061 90.373 299.933 90.373C295.805 90.373 292.458 93.7978 292.458 98.0224C292.458 102.247 295.805 105.672 299.933 105.672Z" fill="white"/>
<path d="M299.933 125.175C304.061 125.175 307.407 121.75 307.407 117.525C307.407 113.301 304.061 109.876 299.933 109.876C295.805 109.876 292.458 113.301 292.458 117.525C292.458 121.75 295.805 125.175 299.933 125.175Z" fill="white"/>
<path d="M299.933 144.678C304.061 144.678 307.407 141.254 307.407 137.029C307.407 132.805 304.061 129.38 299.933 129.38C295.805 129.38 292.458 132.805 292.458 137.029C292.458 141.254 295.805 144.678 299.933 144.678Z" fill="white"/>
<path d="M299.933 164.182C304.061 164.182 307.407 160.758 307.407 156.533C307.407 152.309 304.061 148.884 299.933 148.884C295.805 148.884 292.458 152.309 292.458 156.533C292.458 160.758 295.805 164.182 299.933 164.182Z" fill="white"/>
<path d="M262.416 102.434H260.709V95.6913L258.666 96.3391V94.9167L262.23 93.6094H262.416V102.434Z" fill="#656245"/>
<path d="M263.32 118.621H264.295V120.032H263.32V121.938H261.613V120.032H258.08L258.005 118.93L261.595 113.125H263.32V118.621ZM259.707 118.621H261.613V115.51L261.498 115.71L259.707 118.621Z" fill="#656245"/>
<path d="M264.118 133.609L260.788 141.441H258.984L262.319 134.045H258.04V132.628H264.118V133.609Z" fill="#656245"/>
<path d="M283.356 102.434H277.454V101.236L280.238 98.1971C280.621 97.7696 280.904 97.3962 281.089 97.0775C281.27 96.7588 281.363 96.4559 281.363 96.1693C281.363 95.7779 281.266 95.4705 281.071 95.2466C280.882 95.0222 280.604 94.9103 280.247 94.9103C279.858 94.9103 279.554 95.0466 279.329 95.3188C279.108 95.5915 278.998 95.9495 278.998 96.3937H277.282C277.282 95.8569 277.406 95.3666 277.657 94.9224C277.908 94.4786 278.277 94.1165 278.72 93.8783C279.175 93.626 279.695 93.5 280.273 93.5C281.16 93.5 281.852 93.718 282.342 94.1537C282.831 94.5897 283.078 95.205 283.078 96C283.078 96.4356 282.968 96.8798 282.748 97.3317C282.527 97.7836 282.148 98.3104 281.61 98.9117L279.655 101.024H283.356V102.434Z" fill="#656245"/>
<path d="M277.706 117.605L278.204 113.125H283.03V114.584H279.607L279.395 116.479C279.792 116.259 280.236 116.144 280.688 116.145C281.508 116.145 282.152 116.406 282.615 116.926C283.083 117.447 283.317 118.176 283.317 119.112C283.317 119.681 283.198 120.19 282.964 120.64C282.726 121.09 282.39 121.439 281.954 121.687C281.517 121.935 281.001 122.06 280.405 122.06C279.885 122.06 279.4 121.951 278.954 121.736C278.509 121.52 278.16 121.216 277.9 120.825C277.64 120.433 277.503 119.987 277.49 119.487H279.179C279.214 119.854 279.342 120.14 279.554 120.343C279.77 120.547 280.052 120.649 280.396 120.649C280.785 120.649 281.08 120.507 281.292 120.222C281.499 119.938 281.605 119.535 281.605 119.015C281.605 118.515 281.486 118.131 281.243 117.865C281.005 117.598 280.661 117.465 280.22 117.465C279.814 117.465 279.488 117.574 279.232 117.792L279.069 117.949L277.706 117.605Z" fill="#656245"/>
<path d="M283.065 134.971C283.065 135.399 282.964 135.778 282.752 136.109C282.545 136.44 282.258 136.705 281.887 136.902C282.307 137.108 282.637 137.392 282.884 137.753C283.127 138.114 283.251 138.539 283.251 139.027C283.251 139.81 282.99 140.428 282.47 140.882C281.949 141.336 281.239 141.563 280.344 141.563C279.453 141.563 278.738 141.335 278.217 140.879C277.692 140.423 277.428 139.806 277.428 139.027C277.428 138.539 277.551 138.113 277.798 137.75C278.041 137.387 278.372 137.104 278.782 136.902C278.416 136.705 278.129 136.44 277.922 136.109C277.715 135.778 277.613 135.399 277.613 134.971C277.613 134.221 277.856 133.623 278.345 133.177C278.835 132.731 279.501 132.508 280.339 132.508C281.173 132.508 281.839 132.729 282.329 133.171C282.818 133.612 283.065 134.213 283.065 134.971ZM281.535 138.9C281.535 138.517 281.424 138.21 281.208 137.98C280.992 137.75 280.701 137.635 280.335 137.635C279.969 137.635 279.682 137.749 279.466 137.977C279.245 138.205 279.139 138.513 279.139 138.9C279.139 139.275 279.245 139.578 279.457 139.808C279.673 140.038 279.969 140.153 280.344 140.153C280.714 140.153 281.005 140.042 281.217 139.82C281.429 139.598 281.535 139.291 281.535 138.9ZM281.358 135.056C281.358 134.713 281.265 134.438 281.089 134.23C280.913 134.022 280.661 133.918 280.339 133.918C280.022 133.918 279.77 134.019 279.594 134.221C279.417 134.423 279.329 134.701 279.329 135.056C279.329 135.407 279.417 135.69 279.594 135.903C279.77 136.117 280.022 136.224 280.344 136.224C280.67 136.224 280.917 136.117 281.093 135.903C281.27 135.69 281.358 135.407 281.358 135.056Z" fill="#656245"/>
<path d="M283.251 157.302C283.251 158.521 283.003 159.453 282.509 160.099C282.015 160.744 281.296 161.067 280.344 161.067C279.408 161.067 278.689 160.75 278.191 160.117C277.697 159.483 277.441 158.575 277.428 157.393V155.771C277.428 154.54 277.679 153.606 278.178 152.968C278.676 152.33 279.395 152.012 280.335 152.012C281.27 152.012 281.989 152.328 282.487 152.959C282.981 153.591 283.237 154.498 283.251 155.68V157.302ZM281.539 155.522C281.539 154.792 281.442 154.26 281.248 153.928C281.054 153.595 280.749 153.428 280.335 153.428C279.933 153.428 279.633 153.587 279.444 153.903C279.254 154.22 279.153 154.715 279.139 155.389V157.532C279.139 158.25 279.236 158.784 279.426 159.133C279.616 159.482 279.925 159.657 280.344 159.657C280.763 159.657 281.063 159.489 281.252 159.154C281.438 158.819 281.53 158.307 281.539 157.617V155.522Z" fill="#656245"/>
<path d="M298.381 97.2532H299.29C299.727 97.2532 300.049 97.1421 300.256 96.92C300.463 96.6979 300.569 96.4036 300.569 96.0361C300.569 95.6813 300.468 95.4046 300.26 95.2068C300.053 95.0091 299.766 94.9103 299.405 94.9103C299.078 94.9103 298.805 95.0023 298.584 95.1856C298.359 95.3694 298.249 95.6086 298.249 95.9029H296.542C296.542 95.4429 296.661 95.0303 296.903 94.6651C297.146 94.2999 297.486 94.0146 297.922 93.8088C298.359 93.6029 298.84 93.5 299.36 93.5C300.274 93.5 300.988 93.723 301.504 94.169C302.02 94.615 302.281 95.2294 302.281 96.0122C302.281 96.4158 302.157 96.7868 301.919 97.1258C301.675 97.4668 301.348 97.7362 300.971 97.9068C301.456 98.0842 301.817 98.3506 302.056 98.7058C302.294 99.0607 302.413 99.4805 302.413 99.9649C302.413 100.748 302.135 101.375 301.579 101.847C301.019 102.32 300.282 102.556 299.36 102.556C298.505 102.556 297.799 102.324 297.256 101.859C296.709 101.395 296.436 100.782 296.436 100.019H298.143C298.143 100.35 298.266 100.62 298.509 100.83C298.752 101.04 299.047 101.145 299.405 101.145C299.81 101.145 300.128 101.035 300.357 100.815C300.591 100.595 300.706 100.304 300.706 99.9405C300.706 99.0607 300.234 98.621 299.285 98.621H298.381V97.2532Z" fill="#656245"/>
<path d="M301.279 113.034V114.475H301.112C300.34 114.487 299.718 114.693 299.246 115.092C298.778 115.492 298.491 116.047 298.399 116.757C298.858 116.281 299.435 116.042 300.132 116.042C300.882 116.042 301.478 116.317 301.919 116.866C302.36 117.415 302.581 118.137 302.581 119.033C302.581 119.606 302.457 120.124 302.219 120.588C301.984 121.044 301.626 121.42 301.187 121.672C300.746 121.93 300.243 122.06 299.682 122.06C298.774 122.06 298.042 121.736 297.486 121.091C296.925 120.445 296.648 119.583 296.648 118.506V117.877C296.648 116.92 296.824 116.076 297.177 115.344C297.53 114.611 298.037 114.044 298.699 113.643C299.356 113.241 300.124 113.038 300.997 113.034H301.279ZM299.612 117.447C299.334 117.447 299.087 117.52 298.862 117.668C298.643 117.808 298.469 118.011 298.364 118.252V118.784C298.364 119.37 298.474 119.827 298.699 120.156C298.924 120.485 299.241 120.649 299.647 120.649C300.013 120.649 300.309 120.501 300.538 120.204C300.763 119.908 300.878 119.523 300.878 119.051C300.878 118.571 300.763 118.184 300.534 117.889C300.304 117.594 299.996 117.447 299.612 117.447Z" fill="#656245"/>
<path d="M300.64 137.92C300.194 138.367 299.674 138.591 299.078 138.591C298.319 138.591 297.706 138.324 297.252 137.789C296.793 137.255 296.564 136.533 296.564 135.625C296.564 135.048 296.687 134.518 296.934 134.036C297.181 133.554 297.525 133.179 297.967 132.91C298.408 132.642 298.906 132.508 299.457 132.508C300.027 132.508 300.529 132.653 300.971 132.944C301.412 133.234 301.756 133.652 301.998 134.197C302.245 134.741 302.369 135.365 302.373 136.067V136.715C302.373 138.184 302.016 139.338 301.301 140.177C300.587 141.016 299.577 141.465 298.267 141.521L297.847 141.527V140.068L298.227 140.062C299.713 139.993 300.516 139.279 300.64 137.92ZM299.497 137.254C299.775 137.254 300.013 137.181 300.212 137.036C300.41 136.89 300.56 136.715 300.666 136.509V135.789C300.666 135.196 300.551 134.736 300.331 134.408C300.11 134.081 299.815 133.918 299.444 133.918C299.105 133.918 298.822 134.079 298.597 134.399C298.377 134.72 298.267 135.123 298.267 135.607C298.267 136.087 298.377 136.482 298.589 136.79C298.805 137.099 299.109 137.254 299.497 137.254Z" fill="#656245"/>
<path fill-rule="evenodd" clip-rule="evenodd" d="M214.492 137.155L213.418 139.32L215.888 140.603L216.962 138.437L217.944 138.948L216.871 141.113L219.341 142.396L220.415 140.23L228.093 144.218C227.716 147.192 229.172 150.224 231.936 151.659C235.442 153.48 239.732 152.047 241.511 148.458C243.291 144.869 241.888 140.479 238.382 138.659C235.618 137.224 232.368 137.811 230.244 139.879L214.236 131.567L212.085 135.905L214.492 137.155ZM231.983 143.51C231.094 145.302 231.794 147.499 233.547 148.409C235.3 149.319 237.446 148.601 238.335 146.808C239.224 145.016 238.523 142.819 236.77 141.909C235.017 140.998 232.871 141.717 231.983 143.51Z" fill="#DBB13B"/>
<path fill-rule="evenodd" clip-rule="evenodd" d="M300.493 191.171C300.493 189.665 299.907 188.221 298.867 187.156C297.826 186.091 296.415 185.493 294.945 185.493H213.224C211.754 185.493 210.342 186.091 209.302 187.156C208.261 188.221 207.676 189.665 207.676 191.171V197.034C207.676 198.54 208.261 199.985 209.302 201.049C210.342 202.114 211.754 202.713 213.224 202.713H294.945C296.415 202.713 297.826 202.114 298.867 201.049C299.907 199.985 300.493 198.54 300.493 197.034V191.171Z" fill="#656245"/>
<path fill-rule="evenodd" clip-rule="evenodd" d="M299.724 189.6C299.724 188.094 299.138 186.649 298.098 185.585C297.057 184.52 295.646 183.922 294.176 183.922H212.454C210.985 183.922 209.573 184.52 208.533 185.585C207.492 186.649 206.907 188.094 206.907 189.6V195.463C206.907 196.969 207.492 198.413 208.533 199.478C209.573 200.543 210.985 201.142 212.454 201.142H294.176C295.646 201.142 297.057 200.543 298.098 199.478C299.138 198.413 299.724 196.969 299.724 195.463V189.6Z" fill="#DBB13B"/>
<path fill-rule="evenodd" clip-rule="evenodd" d="M221.799 196.911L220.438 195.9L222.412 193.119L219.217 192.056L219.739 190.421L222.934 191.483V188.045H224.612V191.483L227.807 190.421L228.329 192.056L225.135 193.119L227.109 195.9L225.747 196.911L223.773 194.129L221.799 196.911Z" fill="white"/>
<path fill-rule="evenodd" clip-rule="evenodd" d="M235.121 196.911L233.76 195.9L235.734 193.119L232.539 192.056L233.061 190.421L236.256 191.483V188.045H237.934V191.483L241.129 190.421L241.651 192.056L238.457 193.119L240.431 195.9L239.069 196.911L237.095 194.129L235.121 196.911Z" fill="white"/>
<path fill-rule="evenodd" clip-rule="evenodd" d="M248.443 196.911L247.082 195.9L249.056 193.119L245.861 192.056L246.383 190.421L249.578 191.483V188.045H251.256V191.483L254.451 190.421L254.974 192.056L251.779 193.119L253.753 195.9L252.391 196.911L250.417 194.129L248.443 196.911Z" fill="white"/>
<path fill-rule="evenodd" clip-rule="evenodd" d="M261.77 196.911L260.409 195.9L262.383 193.119L259.188 192.056L259.711 190.421L262.905 191.483V188.045H264.583V191.483L267.778 190.421L268.301 192.056L265.106 193.119L267.08 195.9L265.719 196.911L263.744 194.129L261.77 196.911Z" fill="white"/>
<path fill-rule="evenodd" clip-rule="evenodd" d="M275.092 196.911L273.731 195.9L275.705 193.119L272.51 192.056L273.033 190.421L276.227 191.483V188.045H277.905V191.483L281.1 190.421L281.623 192.056L278.428 193.119L280.402 195.9L279.041 196.911L277.066 194.129L275.092 196.911Z" fill="white"/>
<path fill-rule="evenodd" clip-rule="evenodd" d="M199.157 112.233C198.169 119.084 193.165 124.302 187.153 124.302C180.429 124.302 174.968 117.778 174.968 109.742C174.968 101.706 180.429 95.1826 187.153 95.1826C193.234 95.1826 198.275 100.514 199.189 107.475H195.135C194.278 103.156 191.025 99.9389 187.153 99.9389C182.625 99.9389 178.947 104.332 178.947 109.742C178.947 115.153 182.625 119.545 187.153 119.545C190.963 119.545 194.166 116.439 195.091 112.233H199.157Z" fill="#DBB13B"/>
<path fill-rule="evenodd" clip-rule="evenodd" d="M204.709 112.934C204.709 112.547 204.402 112.233 204.023 112.233H170.281C169.907 112.233 169.6 112.547 169.6 112.934V144.712C169.6 145.099 169.907 145.412 170.281 145.412H204.023C204.402 145.412 204.709 145.099 204.709 144.712V112.934Z" fill="#DBB13B"/>
<path fill-rule="evenodd" clip-rule="evenodd" d="M185.045 128.337C184.207 127.929 183.498 127.287 183.002 126.483C182.506 125.68 182.243 124.75 182.243 123.8C182.243 121.027 184.445 118.776 187.153 118.776C189.862 118.776 192.058 121.027 192.058 123.8C192.057 124.749 191.795 125.679 191.3 126.482C190.805 127.285 190.098 127.928 189.261 128.337V136.329C189.261 136.889 189.043 137.426 188.656 137.821C188.269 138.217 187.744 138.439 187.197 138.439H187.11C186.563 138.439 186.038 138.217 185.651 137.821C185.264 137.426 185.046 136.889 185.045 136.329V128.337Z" fill="white"/>
</svg>
