<svg width="253" height="55" viewBox="0 0 253 55" fill="none" xmlns="http://www.w3.org/2000/svg">
<rect x="0.5" y="0.5" width="252" height="47" rx="19.5" fill="#F2D06F"/>
<rect x="0.5" y="0.5" width="252" height="47" rx="19.5" stroke="#DBB13B"/>
<path d="M31.4743 10.636V11.524H29.1943V19H28.1023V11.524H25.8103V10.636H31.4743ZM33.9105 13.492C34.1025 13.116 34.3745 12.824 34.7265 12.616C35.0865 12.408 35.5225 12.304 36.0345 12.304V13.432H35.7465C34.5225 13.432 33.9105 14.096 33.9105 15.424V19H32.8185V12.424H33.9105V13.492ZM36.8871 15.688C36.8871 15.016 37.0231 14.428 37.2951 13.924C37.5671 13.412 37.9391 13.016 38.4111 12.736C38.8911 12.456 39.4231 12.316 40.0071 12.316C40.5831 12.316 41.0831 12.44 41.5071 12.688C41.9311 12.936 42.2471 13.248 42.4551 13.624V12.424H43.5591V19H42.4551V17.776C42.2391 18.16 41.9151 18.48 41.4831 18.736C41.0591 18.984 40.5631 19.108 39.9951 19.108C39.4111 19.108 38.8831 18.964 38.4111 18.676C37.9391 18.388 37.5671 17.984 37.2951 17.464C37.0231 16.944 36.8871 16.352 36.8871 15.688ZM42.4551 15.7C42.4551 15.204 42.3551 14.772 42.1551 14.404C41.9551 14.036 41.6831 13.756 41.3391 13.564C41.0031 13.364 40.6311 13.264 40.2231 13.264C39.8151 13.264 39.4431 13.36 39.1071 13.552C38.7711 13.744 38.5031 14.024 38.3031 14.392C38.1031 14.76 38.0031 15.192 38.0031 15.688C38.0031 16.192 38.1031 16.632 38.3031 17.008C38.5031 17.376 38.7711 17.66 39.1071 17.86C39.4431 18.052 39.8151 18.148 40.2231 18.148C40.6311 18.148 41.0031 18.052 41.3391 17.86C41.6831 17.66 41.9551 17.376 42.1551 17.008C42.3551 16.632 42.4551 16.196 42.4551 15.7ZM48.6085 12.304C49.4085 12.304 50.0565 12.548 50.5525 13.036C51.0485 13.516 51.2965 14.212 51.2965 15.124V19H50.2165V15.28C50.2165 14.624 50.0525 14.124 49.7245 13.78C49.3965 13.428 48.9485 13.252 48.3805 13.252C47.8045 13.252 47.3445 13.432 47.0005 13.792C46.6645 14.152 46.4965 14.676 46.4965 15.364V19H45.4045V12.424H46.4965V13.36C46.7125 13.024 47.0045 12.764 47.3725 12.58C47.7485 12.396 48.1605 12.304 48.6085 12.304ZM55.4083 19.108C54.9043 19.108 54.4523 19.024 54.0523 18.856C53.6523 18.68 53.3363 18.44 53.1043 18.136C52.8723 17.824 52.7443 17.468 52.7203 17.068H53.8483C53.8803 17.396 54.0323 17.664 54.3043 17.872C54.5843 18.08 54.9483 18.184 55.3963 18.184C55.8123 18.184 56.1403 18.092 56.3803 17.908C56.6203 17.724 56.7403 17.492 56.7403 17.212C56.7403 16.924 56.6123 16.712 56.3563 16.576C56.1003 16.432 55.7043 16.292 55.1683 16.156C54.6803 16.028 54.2803 15.9 53.9683 15.772C53.6643 15.636 53.4003 15.44 53.1763 15.184C52.9603 14.92 52.8523 14.576 52.8523 14.152C52.8523 13.816 52.9523 13.508 53.1523 13.228C53.3523 12.948 53.6363 12.728 54.0043 12.568C54.3723 12.4 54.7923 12.316 55.2643 12.316C55.9923 12.316 56.5803 12.5 57.0283 12.868C57.4763 13.236 57.7163 13.74 57.7483 14.38H56.6563C56.6323 14.036 56.4923 13.76 56.2363 13.552C55.9883 13.344 55.6523 13.24 55.2283 13.24C54.8363 13.24 54.5243 13.324 54.2923 13.492C54.0603 13.66 53.9443 13.88 53.9443 14.152C53.9443 14.368 54.0123 14.548 54.1483 14.692C54.2923 14.828 54.4683 14.94 54.6763 15.028C54.8923 15.108 55.1883 15.2 55.5643 15.304C56.0363 15.432 56.4203 15.56 56.7163 15.688C57.0123 15.808 57.2643 15.992 57.4723 16.24C57.6883 16.488 57.8003 16.812 57.8083 17.212C57.8083 17.572 57.7083 17.896 57.5083 18.184C57.3083 18.472 57.0243 18.7 56.6563 18.868C56.2963 19.028 55.8803 19.108 55.4083 19.108ZM58.9418 15.688C58.9418 15.016 59.0778 14.428 59.3498 13.924C59.6218 13.412 59.9938 13.016 60.4658 12.736C60.9458 12.456 61.4778 12.316 62.0618 12.316C62.6378 12.316 63.1378 12.44 63.5618 12.688C63.9858 12.936 64.3018 13.248 64.5098 13.624V12.424H65.6138V19H64.5098V17.776C64.2938 18.16 63.9698 18.48 63.5378 18.736C63.1138 18.984 62.6178 19.108 62.0498 19.108C61.4658 19.108 60.9378 18.964 60.4658 18.676C59.9938 18.388 59.6218 17.984 59.3498 17.464C59.0778 16.944 58.9418 16.352 58.9418 15.688ZM64.5098 15.7C64.5098 15.204 64.4098 14.772 64.2098 14.404C64.0098 14.036 63.7378 13.756 63.3938 13.564C63.0578 13.364 62.6858 13.264 62.2778 13.264C61.8698 13.264 61.4978 13.36 61.1618 13.552C60.8258 13.744 60.5578 14.024 60.3578 14.392C60.1578 14.76 60.0578 15.192 60.0578 15.688C60.0578 16.192 60.1578 16.632 60.3578 17.008C60.5578 17.376 60.8258 17.66 61.1618 17.86C61.4978 18.052 61.8698 18.148 62.2778 18.148C62.6858 18.148 63.0578 18.052 63.3938 17.86C63.7378 17.66 64.0098 17.376 64.2098 17.008C64.4098 16.632 64.5098 16.196 64.5098 15.7ZM71.1312 19L68.5512 16.096V19H67.4592V10.12H68.5512V15.34L71.0832 12.424H72.6072L69.5112 15.7L72.6192 19H71.1312ZM75.9629 19.108C75.4589 19.108 75.0069 19.024 74.6069 18.856C74.2069 18.68 73.8909 18.44 73.6589 18.136C73.4269 17.824 73.2989 17.468 73.2749 17.068H74.4029C74.4349 17.396 74.5869 17.664 74.8589 17.872C75.1389 18.08 75.5029 18.184 75.9509 18.184C76.3669 18.184 76.6949 18.092 76.9349 17.908C77.1749 17.724 77.2949 17.492 77.2949 17.212C77.2949 16.924 77.1669 16.712 76.9109 16.576C76.6549 16.432 76.2589 16.292 75.7229 16.156C75.2349 16.028 74.8349 15.9 74.5229 15.772C74.2189 15.636 73.9549 15.44 73.7309 15.184C73.5149 14.92 73.4069 14.576 73.4069 14.152C73.4069 13.816 73.5069 13.508 73.7069 13.228C73.9069 12.948 74.1909 12.728 74.5589 12.568C74.9269 12.4 75.3469 12.316 75.8189 12.316C76.5469 12.316 77.1349 12.5 77.5829 12.868C78.0309 13.236 78.2709 13.74 78.3029 14.38H77.2109C77.1869 14.036 77.0469 13.76 76.7909 13.552C76.5429 13.344 76.2069 13.24 75.7829 13.24C75.3909 13.24 75.0789 13.324 74.8469 13.492C74.6149 13.66 74.4989 13.88 74.4989 14.152C74.4989 14.368 74.5669 14.548 74.7029 14.692C74.8469 14.828 75.0229 14.94 75.2309 15.028C75.4469 15.108 75.7429 15.2 76.1189 15.304C76.5909 15.432 76.9749 15.56 77.2709 15.688C77.5669 15.808 77.8189 15.992 78.0269 16.24C78.2429 16.488 78.3549 16.812 78.3629 17.212C78.3629 17.572 78.2629 17.896 78.0629 18.184C77.8629 18.472 77.5789 18.7 77.2109 18.868C76.8509 19.028 76.4349 19.108 75.9629 19.108ZM80.4685 11.356C80.2605 11.356 80.0845 11.284 79.9405 11.14C79.7965 10.996 79.7245 10.82 79.7245 10.612C79.7245 10.404 79.7965 10.228 79.9405 10.084C80.0845 9.94 80.2605 9.868 80.4685 9.868C80.6685 9.868 80.8365 9.94 80.9725 10.084C81.1165 10.228 81.1885 10.404 81.1885 10.612C81.1885 10.82 81.1165 10.996 80.9725 11.14C80.8365 11.284 80.6685 11.356 80.4685 11.356ZM80.9965 12.424V19H79.9045V12.424H80.9965ZM88.3848 19.108C87.8808 19.108 87.4288 19.024 87.0288 18.856C86.6288 18.68 86.3128 18.44 86.0808 18.136C85.8488 17.824 85.7208 17.468 85.6968 17.068H86.8248C86.8568 17.396 87.0088 17.664 87.2808 17.872C87.5608 18.08 87.9248 18.184 88.3728 18.184C88.7888 18.184 89.1168 18.092 89.3568 17.908C89.5968 17.724 89.7168 17.492 89.7168 17.212C89.7168 16.924 89.5888 16.712 89.3328 16.576C89.0768 16.432 88.6808 16.292 88.1448 16.156C87.6568 16.028 87.2568 15.9 86.9448 15.772C86.6408 15.636 86.3768 15.44 86.1528 15.184C85.9368 14.92 85.8288 14.576 85.8288 14.152C85.8288 13.816 85.9288 13.508 86.1288 13.228C86.3288 12.948 86.6128 12.728 86.9808 12.568C87.3488 12.4 87.7688 12.316 88.2408 12.316C88.9688 12.316 89.5568 12.5 90.0048 12.868C90.4528 13.236 90.6928 13.74 90.7248 14.38H89.6328C89.6088 14.036 89.4688 13.76 89.2128 13.552C88.9648 13.344 88.6288 13.24 88.2048 13.24C87.8128 13.24 87.5008 13.324 87.2688 13.492C87.0368 13.66 86.9208 13.88 86.9208 14.152C86.9208 14.368 86.9888 14.548 87.1248 14.692C87.2688 14.828 87.4448 14.94 87.6528 15.028C87.8688 15.108 88.1648 15.2 88.5408 15.304C89.0128 15.432 89.3968 15.56 89.6928 15.688C89.9888 15.808 90.2408 15.992 90.4488 16.24C90.6648 16.488 90.7768 16.812 90.7848 17.212C90.7848 17.572 90.6848 17.896 90.4848 18.184C90.2848 18.472 90.0008 18.7 89.6328 18.868C89.2728 19.028 88.8568 19.108 88.3848 19.108ZM91.9183 15.688C91.9183 15.016 92.0543 14.428 92.3263 13.924C92.5983 13.412 92.9703 13.016 93.4423 12.736C93.9223 12.456 94.4543 12.316 95.0383 12.316C95.6143 12.316 96.1143 12.44 96.5383 12.688C96.9623 12.936 97.2783 13.248 97.4863 13.624V12.424H98.5903V19H97.4863V17.776C97.2703 18.16 96.9463 18.48 96.5143 18.736C96.0903 18.984 95.5943 19.108 95.0263 19.108C94.4423 19.108 93.9143 18.964 93.4423 18.676C92.9703 18.388 92.5983 17.984 92.3263 17.464C92.0543 16.944 91.9183 16.352 91.9183 15.688ZM97.4863 15.7C97.4863 15.204 97.3863 14.772 97.1863 14.404C96.9863 14.036 96.7143 13.756 96.3703 13.564C96.0343 13.364 95.6623 13.264 95.2543 13.264C94.8463 13.264 94.4743 13.36 94.1383 13.552C93.8023 13.744 93.5343 14.024 93.3343 14.392C93.1343 14.76 93.0343 15.192 93.0343 15.688C93.0343 16.192 93.1343 16.632 93.3343 17.008C93.5343 17.376 93.8023 17.66 94.1383 17.86C94.4743 18.052 94.8463 18.148 95.2543 18.148C95.6623 18.148 96.0343 18.052 96.3703 17.86C96.7143 17.66 96.9863 17.376 97.1863 17.008C97.3863 16.632 97.4863 16.196 97.4863 15.7ZM108.344 12.304C108.856 12.304 109.312 12.412 109.712 12.628C110.112 12.836 110.428 13.152 110.66 13.576C110.892 14 111.008 14.516 111.008 15.124V19H109.928V15.28C109.928 14.624 109.764 14.124 109.436 13.78C109.116 13.428 108.68 13.252 108.128 13.252C107.56 13.252 107.108 13.436 106.772 13.804C106.436 14.164 106.268 14.688 106.268 15.376V19H105.188V15.28C105.188 14.624 105.024 14.124 104.696 13.78C104.376 13.428 103.94 13.252 103.388 13.252C102.82 13.252 102.368 13.436 102.032 13.804C101.696 14.164 101.528 14.688 101.528 15.376V19H100.436V12.424H101.528V13.372C101.744 13.028 102.032 12.764 102.392 12.58C102.76 12.396 103.164 12.304 103.604 12.304C104.156 12.304 104.644 12.428 105.068 12.676C105.492 12.924 105.808 13.288 106.016 13.768C106.2 13.304 106.504 12.944 106.928 12.688C107.352 12.432 107.824 12.304 108.344 12.304ZM113.891 13.636C114.107 13.26 114.427 12.948 114.851 12.7C115.283 12.444 115.783 12.316 116.351 12.316C116.935 12.316 117.463 12.456 117.935 12.736C118.415 13.016 118.791 13.412 119.063 13.924C119.335 14.428 119.471 15.016 119.471 15.688C119.471 16.352 119.335 16.944 119.063 17.464C118.791 17.984 118.415 18.388 117.935 18.676C117.463 18.964 116.935 19.108 116.351 19.108C115.791 19.108 115.295 18.984 114.863 18.736C114.439 18.48 114.115 18.164 113.891 17.788V22.12H112.799V12.424H113.891V13.636ZM118.355 15.688C118.355 15.192 118.255 14.76 118.055 14.392C117.855 14.024 117.583 13.744 117.239 13.552C116.903 13.36 116.531 13.264 116.123 13.264C115.723 13.264 115.351 13.364 115.007 13.564C114.671 13.756 114.399 14.04 114.191 14.416C113.991 14.784 113.891 15.212 113.891 15.7C113.891 16.196 113.991 16.632 114.191 17.008C114.399 17.376 114.671 17.66 115.007 17.86C115.351 18.052 115.723 18.148 116.123 18.148C116.531 18.148 116.903 18.052 117.239 17.86C117.583 17.66 117.855 17.376 118.055 17.008C118.255 16.632 118.355 16.192 118.355 15.688ZM120.5 15.688C120.5 15.016 120.636 14.428 120.908 13.924C121.18 13.412 121.552 13.016 122.024 12.736C122.504 12.456 123.036 12.316 123.62 12.316C124.196 12.316 124.696 12.44 125.12 12.688C125.544 12.936 125.86 13.248 126.068 13.624V12.424H127.172V19H126.068V17.776C125.852 18.16 125.528 18.48 125.096 18.736C124.672 18.984 124.176 19.108 123.608 19.108C123.024 19.108 122.496 18.964 122.024 18.676C121.552 18.388 121.18 17.984 120.908 17.464C120.636 16.944 120.5 16.352 120.5 15.688ZM126.068 15.7C126.068 15.204 125.968 14.772 125.768 14.404C125.568 14.036 125.296 13.756 124.952 13.564C124.616 13.364 124.244 13.264 123.836 13.264C123.428 13.264 123.056 13.36 122.72 13.552C122.384 13.744 122.116 14.024 121.916 14.392C121.716 14.76 121.616 15.192 121.616 15.688C121.616 16.192 121.716 16.632 121.916 17.008C122.116 17.376 122.384 17.66 122.72 17.86C123.056 18.052 123.428 18.148 123.836 18.148C124.244 18.148 124.616 18.052 124.952 17.86C125.296 17.66 125.568 17.376 125.768 17.008C125.968 16.632 126.068 16.196 126.068 15.7ZM129.582 11.356C129.374 11.356 129.198 11.284 129.054 11.14C128.91 10.996 128.838 10.82 128.838 10.612C128.838 10.404 128.91 10.228 129.054 10.084C129.198 9.94 129.374 9.868 129.582 9.868C129.782 9.868 129.95 9.94 130.086 10.084C130.23 10.228 130.302 10.404 130.302 10.612C130.302 10.82 130.23 10.996 130.086 11.14C129.95 11.284 129.782 11.356 129.582 11.356ZM130.11 12.424V19H129.018V12.424H130.11ZM139.574 19L137.582 15.58H136.262V19H135.17V10.636H137.87C138.502 10.636 139.034 10.744 139.466 10.96C139.906 11.176 140.234 11.468 140.45 11.836C140.666 12.204 140.774 12.624 140.774 13.096C140.774 13.672 140.606 14.18 140.27 14.62C139.942 15.06 139.446 15.352 138.782 15.496L140.882 19H139.574ZM136.262 14.704H137.87C138.462 14.704 138.906 14.56 139.202 14.272C139.498 13.976 139.646 13.584 139.646 13.096C139.646 12.6 139.498 12.216 139.202 11.944C138.914 11.672 138.47 11.536 137.87 11.536H136.262V14.704ZM143.563 13.636C143.779 13.26 144.099 12.948 144.523 12.7C144.955 12.444 145.455 12.316 146.023 12.316C146.607 12.316 147.135 12.456 147.607 12.736C148.087 13.016 148.463 13.412 148.735 13.924C149.007 14.428 149.143 15.016 149.143 15.688C149.143 16.352 149.007 16.944 148.735 17.464C148.463 17.984 148.087 18.388 147.607 18.676C147.135 18.964 146.607 19.108 146.023 19.108C145.463 19.108 144.967 18.984 144.535 18.736C144.111 18.48 143.787 18.164 143.563 17.788V22.12H142.471V12.424H143.563V13.636ZM148.027 15.688C148.027 15.192 147.927 14.76 147.727 14.392C147.527 14.024 147.255 13.744 146.911 13.552C146.575 13.36 146.203 13.264 145.795 13.264C145.395 13.264 145.023 13.364 144.679 13.564C144.343 13.756 144.071 14.04 143.863 14.416C143.663 14.784 143.563 15.212 143.563 15.7C143.563 16.196 143.663 16.632 143.863 17.008C144.071 17.376 144.343 17.66 144.679 17.86C145.023 18.052 145.395 18.148 145.795 18.148C146.203 18.148 146.575 18.052 146.911 17.86C147.255 17.66 147.527 17.376 147.727 17.008C147.927 16.632 148.027 16.192 148.027 15.688ZM150.928 19.072C150.72 19.072 150.544 19 150.4 18.856C150.256 18.712 150.184 18.536 150.184 18.328C150.184 18.12 150.256 17.944 150.4 17.8C150.544 17.656 150.72 17.584 150.928 17.584C151.128 17.584 151.296 17.656 151.432 17.8C151.576 17.944 151.648 18.12 151.648 18.328C151.648 18.536 151.576 18.712 151.432 18.856C151.296 19 151.128 19.072 150.928 19.072ZM155.987 18.124C157.003 17.308 157.799 16.64 158.375 16.12C158.951 15.592 159.435 15.044 159.827 14.476C160.227 13.9 160.427 13.336 160.427 12.784C160.427 12.264 160.299 11.856 160.043 11.56C159.795 11.256 159.391 11.104 158.831 11.104C158.287 11.104 157.863 11.276 157.559 11.62C157.263 11.956 157.103 12.408 157.079 12.976H156.023C156.055 12.08 156.327 11.388 156.839 10.9C157.351 10.412 158.011 10.168 158.819 10.168C159.643 10.168 160.295 10.396 160.775 10.852C161.263 11.308 161.507 11.936 161.507 12.736C161.507 13.4 161.307 14.048 160.907 14.68C160.515 15.304 160.067 15.856 159.563 16.336C159.059 16.808 158.415 17.36 157.631 17.992H161.759V18.904H155.987V18.124ZM163.021 14.572C163.021 13.196 163.245 12.124 163.693 11.356C164.141 10.58 164.925 10.192 166.045 10.192C167.157 10.192 167.937 10.58 168.385 11.356C168.833 12.124 169.057 13.196 169.057 14.572C169.057 15.972 168.833 17.06 168.385 17.836C167.937 18.612 167.157 19 166.045 19C164.925 19 164.141 18.612 163.693 17.836C163.245 17.06 163.021 15.972 163.021 14.572ZM167.977 14.572C167.977 13.876 167.929 13.288 167.833 12.808C167.745 12.32 167.557 11.928 167.269 11.632C166.989 11.336 166.581 11.188 166.045 11.188C165.501 11.188 165.085 11.336 164.797 11.632C164.517 11.928 164.329 12.32 164.233 12.808C164.145 13.288 164.101 13.876 164.101 14.572C164.101 15.292 164.145 15.896 164.233 16.384C164.329 16.872 164.517 17.264 164.797 17.56C165.085 17.856 165.501 18.004 166.045 18.004C166.581 18.004 166.989 17.856 167.269 17.56C167.557 17.264 167.745 16.872 167.833 16.384C167.929 15.896 167.977 15.292 167.977 14.572ZM170.557 14.572C170.557 13.196 170.781 12.124 171.229 11.356C171.677 10.58 172.461 10.192 173.581 10.192C174.693 10.192 175.473 10.58 175.921 11.356C176.368 12.124 176.592 13.196 176.592 14.572C176.592 15.972 176.368 17.06 175.921 17.836C175.473 18.612 174.693 19 173.581 19C172.461 19 171.677 18.612 171.229 17.836C170.781 17.06 170.557 15.972 170.557 14.572ZM175.513 14.572C175.513 13.876 175.465 13.288 175.369 12.808C175.281 12.32 175.093 11.928 174.805 11.632C174.525 11.336 174.117 11.188 173.581 11.188C173.037 11.188 172.621 11.336 172.333 11.632C172.053 11.928 171.865 12.32 171.769 12.808C171.681 13.288 171.637 13.876 171.637 14.572C171.637 15.292 171.681 15.896 171.769 16.384C171.865 16.872 172.053 17.264 172.333 17.56C172.621 17.856 173.037 18.004 173.581 18.004C174.117 18.004 174.525 17.856 174.805 17.56C175.093 17.264 175.281 16.872 175.369 16.384C175.465 15.896 175.513 15.292 175.513 14.572ZM178.62 19.072C178.412 19.072 178.236 19 178.092 18.856C177.948 18.712 177.876 18.536 177.876 18.328C177.876 18.12 177.948 17.944 178.092 17.8C178.236 17.656 178.412 17.584 178.62 17.584C178.82 17.584 178.988 17.656 179.124 17.8C179.268 17.944 179.34 18.12 179.34 18.328C179.34 18.536 179.268 18.712 179.124 18.856C178.988 19 178.82 19.072 178.62 19.072ZM180.611 14.572C180.611 13.196 180.835 12.124 181.283 11.356C181.731 10.58 182.515 10.192 183.635 10.192C184.747 10.192 185.527 10.58 185.975 11.356C186.423 12.124 186.647 13.196 186.647 14.572C186.647 15.972 186.423 17.06 185.975 17.836C185.527 18.612 184.747 19 183.635 19C182.515 19 181.731 18.612 181.283 17.836C180.835 17.06 180.611 15.972 180.611 14.572ZM185.567 14.572C185.567 13.876 185.519 13.288 185.423 12.808C185.335 12.32 185.147 11.928 184.859 11.632C184.579 11.336 184.171 11.188 183.635 11.188C183.091 11.188 182.675 11.336 182.387 11.632C182.107 11.928 181.919 12.32 181.823 12.808C181.735 13.288 181.691 13.876 181.691 14.572C181.691 15.292 181.735 15.896 181.823 16.384C181.919 16.872 182.107 17.264 182.387 17.56C182.675 17.856 183.091 18.004 183.635 18.004C184.171 18.004 184.579 17.856 184.859 17.56C185.147 17.264 185.335 16.872 185.423 16.384C185.519 15.896 185.567 15.292 185.567 14.572ZM188.146 14.572C188.146 13.196 188.37 12.124 188.818 11.356C189.266 10.58 190.05 10.192 191.17 10.192C192.282 10.192 193.062 10.58 193.51 11.356C193.958 12.124 194.182 13.196 194.182 14.572C194.182 15.972 193.958 17.06 193.51 17.836C193.062 18.612 192.282 19 191.17 19C190.05 19 189.266 18.612 188.818 17.836C188.37 17.06 188.146 15.972 188.146 14.572ZM193.102 14.572C193.102 13.876 193.054 13.288 192.958 12.808C192.87 12.32 192.682 11.928 192.394 11.632C192.114 11.336 191.706 11.188 191.17 11.188C190.626 11.188 190.21 11.336 189.922 11.632C189.642 11.928 189.454 12.32 189.358 12.808C189.27 13.288 189.226 13.876 189.226 14.572C189.226 15.292 189.27 15.896 189.358 16.384C189.454 16.872 189.642 17.264 189.922 17.56C190.21 17.856 190.626 18.004 191.17 18.004C191.706 18.004 192.114 17.856 192.394 17.56C192.682 17.264 192.87 16.872 192.958 16.384C193.054 15.896 193.102 15.292 193.102 14.572ZM195.682 14.572C195.682 13.196 195.906 12.124 196.354 11.356C196.802 10.58 197.586 10.192 198.706 10.192C199.818 10.192 200.598 10.58 201.046 11.356C201.493 12.124 201.717 13.196 201.717 14.572C201.717 15.972 201.493 17.06 201.046 17.836C200.598 18.612 199.818 19 198.706 19C197.586 19 196.802 18.612 196.354 17.836C195.906 17.06 195.682 15.972 195.682 14.572ZM200.638 14.572C200.638 13.876 200.59 13.288 200.494 12.808C200.406 12.32 200.218 11.928 199.93 11.632C199.65 11.336 199.242 11.188 198.706 11.188C198.162 11.188 197.746 11.336 197.458 11.632C197.178 11.928 196.99 12.32 196.894 12.808C196.806 13.288 196.762 13.876 196.762 14.572C196.762 15.292 196.806 15.896 196.894 16.384C196.99 16.872 197.178 17.264 197.458 17.56C197.746 17.856 198.162 18.004 198.706 18.004C199.242 18.004 199.65 17.856 199.93 17.56C200.218 17.264 200.406 16.872 200.494 16.384C200.59 15.896 200.638 15.292 200.638 14.572ZM203.745 19.072C203.537 19.072 203.361 19 203.217 18.856C203.073 18.712 203.001 18.536 203.001 18.328C203.001 18.12 203.073 17.944 203.217 17.8C203.361 17.656 203.537 17.584 203.745 17.584C203.945 17.584 204.113 17.656 204.249 17.8C204.393 17.944 204.465 18.12 204.465 18.328C204.465 18.536 204.393 18.712 204.249 18.856C204.113 19 203.945 19.072 203.745 19.072ZM205.736 14.572C205.736 13.196 205.96 12.124 206.408 11.356C206.856 10.58 207.64 10.192 208.76 10.192C209.872 10.192 210.652 10.58 211.1 11.356C211.548 12.124 211.772 13.196 211.772 14.572C211.772 15.972 211.548 17.06 211.1 17.836C210.652 18.612 209.872 19 208.76 19C207.64 19 206.856 18.612 206.408 17.836C205.96 17.06 205.736 15.972 205.736 14.572ZM210.692 14.572C210.692 13.876 210.644 13.288 210.548 12.808C210.46 12.32 210.272 11.928 209.984 11.632C209.704 11.336 209.296 11.188 208.76 11.188C208.216 11.188 207.8 11.336 207.512 11.632C207.232 11.928 207.044 12.32 206.948 12.808C206.86 13.288 206.816 13.876 206.816 14.572C206.816 15.292 206.86 15.896 206.948 16.384C207.044 16.872 207.232 17.264 207.512 17.56C207.8 17.856 208.216 18.004 208.76 18.004C209.296 18.004 209.704 17.856 209.984 17.56C210.272 17.264 210.46 16.872 210.548 16.384C210.644 15.896 210.692 15.292 210.692 14.572ZM213.271 14.572C213.271 13.196 213.495 12.124 213.943 11.356C214.391 10.58 215.175 10.192 216.295 10.192C217.407 10.192 218.187 10.58 218.635 11.356C219.083 12.124 219.307 13.196 219.307 14.572C219.307 15.972 219.083 17.06 218.635 17.836C218.187 18.612 217.407 19 216.295 19C215.175 19 214.391 18.612 213.943 17.836C213.495 17.06 213.271 15.972 213.271 14.572ZM218.227 14.572C218.227 13.876 218.179 13.288 218.083 12.808C217.995 12.32 217.807 11.928 217.519 11.632C217.239 11.336 216.831 11.188 216.295 11.188C215.751 11.188 215.335 11.336 215.047 11.632C214.767 11.928 214.579 12.32 214.483 12.808C214.395 13.288 214.351 13.876 214.351 14.572C214.351 15.292 214.395 15.896 214.483 16.384C214.579 16.872 214.767 17.264 215.047 17.56C215.335 17.856 215.751 18.004 216.295 18.004C216.831 18.004 217.239 17.856 217.519 17.56C217.807 17.264 217.995 16.872 218.083 16.384C218.179 15.896 218.227 15.292 218.227 14.572ZM220.807 14.572C220.807 13.196 221.031 12.124 221.479 11.356C221.927 10.58 222.711 10.192 223.831 10.192C224.943 10.192 225.723 10.58 226.171 11.356C226.618 12.124 226.842 13.196 226.842 14.572C226.842 15.972 226.618 17.06 226.171 17.836C225.723 18.612 224.943 19 223.831 19C222.711 19 221.927 18.612 221.479 17.836C221.031 17.06 220.807 15.972 220.807 14.572ZM225.763 14.572C225.763 13.876 225.715 13.288 225.619 12.808C225.531 12.32 225.343 11.928 225.055 11.632C224.775 11.336 224.367 11.188 223.831 11.188C223.287 11.188 222.871 11.336 222.583 11.632C222.303 11.928 222.115 12.32 222.019 12.808C221.931 13.288 221.887 13.876 221.887 14.572C221.887 15.292 221.931 15.896 222.019 16.384C222.115 16.872 222.303 17.264 222.583 17.56C222.871 17.856 223.287 18.004 223.831 18.004C224.367 18.004 224.775 17.856 225.055 17.56C225.343 17.264 225.531 16.872 225.619 16.384C225.715 15.896 225.763 15.292 225.763 14.572ZM32.6623 30.424V37H31.5703V36.028C31.3623 36.364 31.0703 36.628 30.6943 36.82C30.3263 37.004 29.9183 37.096 29.4703 37.096C28.9583 37.096 28.4983 36.992 28.0903 36.784C27.6823 36.568 27.3583 36.248 27.1183 35.824C26.8863 35.4 26.7703 34.884 26.7703 34.276V30.424H27.8503V34.132C27.8503 34.78 28.0143 35.28 28.3423 35.632C28.6703 35.976 29.1183 36.148 29.6863 36.148C30.2703 36.148 30.7303 35.968 31.0663 35.608C31.4023 35.248 31.5703 34.724 31.5703 34.036V30.424H32.6623ZM37.71 30.304C38.51 30.304 39.158 30.548 39.654 31.036C40.15 31.516 40.398 32.212 40.398 33.124V37H39.318V33.28C39.318 32.624 39.154 32.124 38.826 31.78C38.498 31.428 38.05 31.252 37.482 31.252C36.906 31.252 36.446 31.432 36.102 31.792C35.766 32.152 35.598 32.676 35.598 33.364V37H34.506V30.424H35.598V31.36C35.814 31.024 36.106 30.764 36.474 30.58C36.85 30.396 37.262 30.304 37.71 30.304ZM43.5138 31.324V35.2C43.5138 35.52 43.5818 35.748 43.7178 35.884C43.8538 36.012 44.0898 36.076 44.4258 36.076H45.2298V37H44.2458C43.6378 37 43.1818 36.86 42.8778 36.58C42.5738 36.3 42.4218 35.84 42.4218 35.2V31.324H41.5698V30.424H42.4218V28.768H43.5138V30.424H45.2298V31.324H43.5138ZM52.3849 30.424V37H51.2929V36.028C51.0849 36.364 50.7929 36.628 50.4169 36.82C50.0489 37.004 49.6409 37.096 49.1929 37.096C48.6809 37.096 48.2209 36.992 47.8129 36.784C47.4049 36.568 47.0809 36.248 46.8409 35.824C46.6089 35.4 46.4929 34.884 46.4929 34.276V30.424H47.5729V34.132C47.5729 34.78 47.7369 35.28 48.0649 35.632C48.3929 35.976 48.8409 36.148 49.4089 36.148C49.9929 36.148 50.4529 35.968 50.7889 35.608C51.1249 35.248 51.2929 34.724 51.2929 34.036V30.424H52.3849ZM57.9007 37L55.3207 34.096V37H54.2287V28.12H55.3207V33.34L57.8527 30.424H59.3767L56.2807 33.7L59.3887 37H57.9007ZM66.8077 30.304C67.6077 30.304 68.2557 30.548 68.7517 31.036C69.2477 31.516 69.4957 32.212 69.4957 33.124V37H68.4157V33.28C68.4157 32.624 68.2517 32.124 67.9237 31.78C67.5957 31.428 67.1477 31.252 66.5797 31.252C66.0037 31.252 65.5437 31.432 65.1997 31.792C64.8637 32.152 64.6957 32.676 64.6957 33.364V37H63.6037V30.424H64.6957V31.36C64.9117 31.024 65.2037 30.764 65.5717 30.58C65.9477 30.396 66.3597 30.304 66.8077 30.304ZM70.8715 33.688C70.8715 33.016 71.0075 32.428 71.2795 31.924C71.5515 31.412 71.9235 31.016 72.3955 30.736C72.8755 30.456 73.4075 30.316 73.9915 30.316C74.5675 30.316 75.0675 30.44 75.4915 30.688C75.9155 30.936 76.2315 31.248 76.4395 31.624V30.424H77.5435V37H76.4395V35.776C76.2235 36.16 75.8995 36.48 75.4675 36.736C75.0435 36.984 74.5475 37.108 73.9795 37.108C73.3955 37.108 72.8675 36.964 72.3955 36.676C71.9235 36.388 71.5515 35.984 71.2795 35.464C71.0075 34.944 70.8715 34.352 70.8715 33.688ZM76.4395 33.7C76.4395 33.204 76.3395 32.772 76.1395 32.404C75.9395 32.036 75.6675 31.756 75.3235 31.564C74.9875 31.364 74.6155 31.264 74.2075 31.264C73.7995 31.264 73.4275 31.36 73.0915 31.552C72.7555 31.744 72.4875 32.024 72.2875 32.392C72.0875 32.76 71.9875 33.192 71.9875 33.688C71.9875 34.192 72.0875 34.632 72.2875 35.008C72.4875 35.376 72.7555 35.66 73.0915 35.86C73.4275 36.052 73.7995 36.148 74.2075 36.148C74.6155 36.148 74.9875 36.052 75.3235 35.86C75.6675 35.66 75.9395 35.376 76.1395 35.008C76.3395 34.632 76.4395 34.196 76.4395 33.7ZM79.9528 29.356C79.7448 29.356 79.5688 29.284 79.4248 29.14C79.2808 28.996 79.2088 28.82 79.2088 28.612C79.2088 28.404 79.2808 28.228 79.4248 28.084C79.5688 27.94 79.7448 27.868 79.9528 27.868C80.1528 27.868 80.3208 27.94 80.4568 28.084C80.6008 28.228 80.6728 28.404 80.6728 28.612C80.6728 28.82 80.6008 28.996 80.4568 29.14C80.3208 29.284 80.1528 29.356 79.9528 29.356ZM80.4808 30.424V37H79.3888V30.424H80.4808ZM86.014 37L83.434 34.096V37H82.342V28.12H83.434V33.34L85.966 30.424H87.49L84.394 33.7L87.502 37H86.014ZM99.625 30.304C100.137 30.304 100.593 30.412 100.993 30.628C101.393 30.836 101.709 31.152 101.941 31.576C102.173 32 102.289 32.516 102.289 33.124V37H101.209V33.28C101.209 32.624 101.045 32.124 100.717 31.78C100.397 31.428 99.961 31.252 99.409 31.252C98.841 31.252 98.389 31.436 98.053 31.804C97.717 32.164 97.549 32.688 97.549 33.376V37H96.469V33.28C96.469 32.624 96.305 32.124 95.977 31.78C95.657 31.428 95.221 31.252 94.669 31.252C94.101 31.252 93.649 31.436 93.313 31.804C92.977 32.164 92.809 32.688 92.809 33.376V37H91.717V30.424H92.809V31.372C93.025 31.028 93.313 30.764 93.673 30.58C94.041 30.396 94.445 30.304 94.885 30.304C95.437 30.304 95.925 30.428 96.349 30.676C96.773 30.924 97.089 31.288 97.297 31.768C97.481 31.304 97.785 30.944 98.209 30.688C98.633 30.432 99.105 30.304 99.625 30.304ZM110.08 33.46C110.08 33.668 110.068 33.888 110.044 34.12H104.788C104.828 34.768 105.048 35.276 105.448 35.644C105.856 36.004 106.348 36.184 106.924 36.184C107.396 36.184 107.788 36.076 108.1 35.86C108.42 35.636 108.644 35.34 108.772 34.972H109.948C109.772 35.604 109.42 36.12 108.892 36.52C108.364 36.912 107.708 37.108 106.924 37.108C106.3 37.108 105.74 36.968 105.244 36.688C104.756 36.408 104.372 36.012 104.092 35.5C103.812 34.98 103.672 34.38 103.672 33.7C103.672 33.02 103.808 32.424 104.08 31.912C104.352 31.4 104.732 31.008 105.22 30.736C105.716 30.456 106.284 30.316 106.924 30.316C107.548 30.316 108.1 30.452 108.58 30.724C109.06 30.996 109.428 31.372 109.684 31.852C109.948 32.324 110.08 32.86 110.08 33.46ZM108.952 33.232C108.952 32.816 108.86 32.46 108.676 32.164C108.492 31.86 108.24 31.632 107.92 31.48C107.608 31.32 107.26 31.24 106.876 31.24C106.324 31.24 105.852 31.416 105.46 31.768C105.076 32.12 104.856 32.608 104.8 33.232H108.952ZM114.726 30.304C115.526 30.304 116.174 30.548 116.67 31.036C117.166 31.516 117.414 32.212 117.414 33.124V37H116.334V33.28C116.334 32.624 116.17 32.124 115.842 31.78C115.514 31.428 115.066 31.252 114.498 31.252C113.922 31.252 113.462 31.432 113.118 31.792C112.782 32.152 112.614 32.676 112.614 33.364V37H111.522V30.424H112.614V31.36C112.83 31.024 113.122 30.764 113.49 30.58C113.866 30.396 114.278 30.304 114.726 30.304ZM119.785 29.356C119.577 29.356 119.401 29.284 119.257 29.14C119.121 28.996 119.053 28.82 119.053 28.612C119.053 28.404 119.121 28.228 119.257 28.084C119.401 27.94 119.577 27.868 119.785 27.868C119.993 27.868 120.165 27.94 120.301 28.084C120.445 28.228 120.517 28.404 120.517 28.612C120.517 28.82 120.445 28.996 120.301 29.14C120.165 29.284 119.993 29.356 119.785 29.356ZM120.325 38.428C120.325 39.012 120.177 39.44 119.881 39.712C119.585 39.984 119.153 40.12 118.585 40.12H117.949V39.196H118.405C118.709 39.196 118.921 39.136 119.041 39.016C119.169 38.896 119.233 38.692 119.233 38.404V30.424H120.325V38.428ZM121.766 33.688C121.766 33.016 121.902 32.428 122.174 31.924C122.446 31.412 122.818 31.016 123.29 30.736C123.77 30.456 124.302 30.316 124.886 30.316C125.462 30.316 125.962 30.44 126.386 30.688C126.81 30.936 127.126 31.248 127.334 31.624V30.424H128.438V37H127.334V35.776C127.118 36.16 126.794 36.48 126.362 36.736C125.938 36.984 125.442 37.108 124.874 37.108C124.29 37.108 123.762 36.964 123.29 36.676C122.818 36.388 122.446 35.984 122.174 35.464C121.902 34.944 121.766 34.352 121.766 33.688ZM127.334 33.7C127.334 33.204 127.234 32.772 127.034 32.404C126.834 32.036 126.562 31.756 126.218 31.564C125.882 31.364 125.51 31.264 125.102 31.264C124.694 31.264 124.322 31.36 123.986 31.552C123.65 31.744 123.382 32.024 123.182 32.392C122.982 32.76 122.882 33.192 122.882 33.688C122.882 34.192 122.982 34.632 123.182 35.008C123.382 35.376 123.65 35.66 123.986 35.86C124.322 36.052 124.694 36.148 125.102 36.148C125.51 36.148 125.882 36.052 126.218 35.86C126.562 35.66 126.834 35.376 127.034 35.008C127.234 34.632 127.334 34.196 127.334 33.7ZM129.875 33.688C129.875 33.016 130.011 32.428 130.283 31.924C130.555 31.412 130.927 31.016 131.399 30.736C131.879 30.456 132.415 30.316 133.007 30.316C133.519 30.316 133.995 30.436 134.435 30.676C134.875 30.908 135.211 31.216 135.443 31.6V28.12H136.547V37H135.443V35.764C135.227 36.156 134.907 36.48 134.483 36.736C134.059 36.984 133.563 37.108 132.995 37.108C132.411 37.108 131.879 36.964 131.399 36.676C130.927 36.388 130.555 35.984 130.283 35.464C130.011 34.944 129.875 34.352 129.875 33.688ZM135.443 33.7C135.443 33.204 135.343 32.772 135.143 32.404C134.943 32.036 134.671 31.756 134.327 31.564C133.991 31.364 133.619 31.264 133.211 31.264C132.803 31.264 132.431 31.36 132.095 31.552C131.759 31.744 131.491 32.024 131.291 32.392C131.091 32.76 130.991 33.192 130.991 33.688C130.991 34.192 131.091 34.632 131.291 35.008C131.491 35.376 131.759 35.66 132.095 35.86C132.431 36.052 132.803 36.148 133.211 36.148C133.619 36.148 133.991 36.052 134.327 35.86C134.671 35.66 134.943 35.376 135.143 35.008C135.343 34.632 135.443 34.196 135.443 33.7ZM138.957 29.356C138.749 29.356 138.573 29.284 138.429 29.14C138.285 28.996 138.213 28.82 138.213 28.612C138.213 28.404 138.285 28.228 138.429 28.084C138.573 27.94 138.749 27.868 138.957 27.868C139.157 27.868 139.325 27.94 139.461 28.084C139.605 28.228 139.677 28.404 139.677 28.612C139.677 28.82 139.605 28.996 139.461 29.14C139.325 29.284 139.157 29.356 138.957 29.356ZM139.485 30.424V37H138.393V30.424H139.485ZM152.453 30.304C152.965 30.304 153.421 30.412 153.821 30.628C154.221 30.836 154.537 31.152 154.769 31.576C155.001 32 155.117 32.516 155.117 33.124V37H154.037V33.28C154.037 32.624 153.873 32.124 153.545 31.78C153.225 31.428 152.789 31.252 152.237 31.252C151.669 31.252 151.217 31.436 150.881 31.804C150.545 32.164 150.377 32.688 150.377 33.376V37H149.297V33.28C149.297 32.624 149.133 32.124 148.805 31.78C148.485 31.428 148.049 31.252 147.497 31.252C146.929 31.252 146.477 31.436 146.141 31.804C145.805 32.164 145.637 32.688 145.637 33.376V37H144.545V30.424H145.637V31.372C145.853 31.028 146.141 30.764 146.501 30.58C146.869 30.396 147.273 30.304 147.713 30.304C148.265 30.304 148.753 30.428 149.177 30.676C149.601 30.924 149.917 31.288 150.125 31.768C150.309 31.304 150.613 30.944 151.037 30.688C151.461 30.432 151.933 30.304 152.453 30.304ZM162.908 33.46C162.908 33.668 162.896 33.888 162.872 34.12H157.616C157.656 34.768 157.876 35.276 158.276 35.644C158.684 36.004 159.176 36.184 159.752 36.184C160.224 36.184 160.616 36.076 160.928 35.86C161.248 35.636 161.472 35.34 161.6 34.972H162.776C162.6 35.604 162.248 36.12 161.72 36.52C161.192 36.912 160.536 37.108 159.752 37.108C159.128 37.108 158.568 36.968 158.072 36.688C157.584 36.408 157.2 36.012 156.92 35.5C156.64 34.98 156.5 34.38 156.5 33.7C156.5 33.02 156.636 32.424 156.908 31.912C157.18 31.4 157.56 31.008 158.048 30.736C158.544 30.456 159.112 30.316 159.752 30.316C160.376 30.316 160.928 30.452 161.408 30.724C161.888 30.996 162.256 31.372 162.512 31.852C162.776 32.324 162.908 32.86 162.908 33.46ZM161.78 33.232C161.78 32.816 161.688 32.46 161.504 32.164C161.32 31.86 161.068 31.632 160.748 31.48C160.436 31.32 160.088 31.24 159.704 31.24C159.152 31.24 158.68 31.416 158.288 31.768C157.904 32.12 157.684 32.608 157.628 33.232H161.78ZM172.258 30.304C172.77 30.304 173.226 30.412 173.626 30.628C174.026 30.836 174.342 31.152 174.574 31.576C174.806 32 174.922 32.516 174.922 33.124V37H173.842V33.28C173.842 32.624 173.678 32.124 173.35 31.78C173.03 31.428 172.594 31.252 172.042 31.252C171.474 31.252 171.022 31.436 170.686 31.804C170.35 32.164 170.182 32.688 170.182 33.376V37H169.102V33.28C169.102 32.624 168.938 32.124 168.61 31.78C168.29 31.428 167.854 31.252 167.302 31.252C166.734 31.252 166.282 31.436 165.946 31.804C165.61 32.164 165.442 32.688 165.442 33.376V37H164.35V30.424H165.442V31.372C165.658 31.028 165.946 30.764 166.306 30.58C166.674 30.396 167.078 30.304 167.518 30.304C168.07 30.304 168.558 30.428 168.982 30.676C169.406 30.924 169.722 31.288 169.93 31.768C170.114 31.304 170.418 30.944 170.842 30.688C171.266 30.432 171.738 30.304 172.258 30.304ZM177.805 31.648C178.029 31.256 178.357 30.936 178.789 30.688C179.221 30.44 179.713 30.316 180.265 30.316C180.857 30.316 181.389 30.456 181.861 30.736C182.333 31.016 182.705 31.412 182.977 31.924C183.249 32.428 183.385 33.016 183.385 33.688C183.385 34.352 183.249 34.944 182.977 35.464C182.705 35.984 182.329 36.388 181.849 36.676C181.377 36.964 180.849 37.108 180.265 37.108C179.697 37.108 179.197 36.984 178.765 36.736C178.341 36.488 178.021 36.172 177.805 35.788V37H176.713V28.12H177.805V31.648ZM182.269 33.688C182.269 33.192 182.169 32.76 181.969 32.392C181.769 32.024 181.497 31.744 181.153 31.552C180.817 31.36 180.445 31.264 180.037 31.264C179.637 31.264 179.265 31.364 178.921 31.564C178.585 31.756 178.313 32.04 178.105 32.416C177.905 32.784 177.805 33.212 177.805 33.7C177.805 34.196 177.905 34.632 178.105 35.008C178.313 35.376 178.585 35.66 178.921 35.86C179.265 36.052 179.637 36.148 180.037 36.148C180.445 36.148 180.817 36.052 181.153 35.86C181.497 35.66 181.769 35.376 181.969 35.008C182.169 34.632 182.269 34.192 182.269 33.688ZM190.822 33.46C190.822 33.668 190.81 33.888 190.786 34.12H185.53C185.57 34.768 185.79 35.276 186.19 35.644C186.598 36.004 187.09 36.184 187.666 36.184C188.138 36.184 188.53 36.076 188.842 35.86C189.162 35.636 189.386 35.34 189.514 34.972H190.69C190.514 35.604 190.162 36.12 189.634 36.52C189.106 36.912 188.45 37.108 187.666 37.108C187.042 37.108 186.482 36.968 185.986 36.688C185.498 36.408 185.114 36.012 184.834 35.5C184.554 34.98 184.414 34.38 184.414 33.7C184.414 33.02 184.55 32.424 184.822 31.912C185.094 31.4 185.474 31.008 185.962 30.736C186.458 30.456 187.026 30.316 187.666 30.316C188.29 30.316 188.842 30.452 189.322 30.724C189.802 30.996 190.17 31.372 190.426 31.852C190.69 32.324 190.822 32.86 190.822 33.46ZM189.694 33.232C189.694 32.816 189.602 32.46 189.418 32.164C189.234 31.86 188.982 31.632 188.662 31.48C188.35 31.32 188.002 31.24 187.618 31.24C187.066 31.24 186.594 31.416 186.202 31.768C185.818 32.12 185.598 32.608 185.542 33.232H189.694ZM193.356 31.492C193.548 31.116 193.82 30.824 194.172 30.616C194.532 30.408 194.968 30.304 195.48 30.304V31.432H195.192C193.968 31.432 193.356 32.096 193.356 33.424V37H192.264V30.424H193.356V31.492ZM206.276 31.06C206.044 30.572 205.708 30.196 205.268 29.932C204.828 29.66 204.316 29.524 203.732 29.524C203.148 29.524 202.62 29.66 202.148 29.932C201.684 30.196 201.316 30.58 201.044 31.084C200.78 31.58 200.648 32.156 200.648 32.812C200.648 33.468 200.78 34.044 201.044 34.54C201.316 35.036 201.684 35.42 202.148 35.692C202.62 35.956 203.148 36.088 203.732 36.088C204.548 36.088 205.22 35.844 205.748 35.356C206.276 34.868 206.584 34.208 206.672 33.376H203.336V32.488H207.836V33.328C207.772 34.016 207.556 34.648 207.188 35.224C206.82 35.792 206.336 36.244 205.736 36.58C205.136 36.908 204.468 37.072 203.732 37.072C202.956 37.072 202.248 36.892 201.608 36.532C200.968 36.164 200.46 35.656 200.084 35.008C199.716 34.36 199.532 33.628 199.532 32.812C199.532 31.996 199.716 31.264 200.084 30.616C200.46 29.96 200.968 29.452 201.608 29.092C202.248 28.724 202.956 28.54 203.732 28.54C204.62 28.54 205.404 28.76 206.084 29.2C206.772 29.64 207.272 30.26 207.584 31.06H206.276ZM212.147 37.108C211.531 37.108 210.971 36.968 210.467 36.688C209.971 36.408 209.579 36.012 209.291 35.5C209.011 34.98 208.871 34.38 208.871 33.7C208.871 33.028 209.015 32.436 209.303 31.924C209.599 31.404 209.999 31.008 210.503 30.736C211.007 30.456 211.571 30.316 212.195 30.316C212.819 30.316 213.383 30.456 213.887 30.736C214.391 31.008 214.787 31.4 215.075 31.912C215.371 32.424 215.519 33.02 215.519 33.7C215.519 34.38 215.367 34.98 215.063 35.5C214.767 36.012 214.363 36.408 213.851 36.688C213.339 36.968 212.771 37.108 212.147 37.108ZM212.147 36.148C212.539 36.148 212.907 36.056 213.251 35.872C213.595 35.688 213.871 35.412 214.079 35.044C214.295 34.676 214.403 34.228 214.403 33.7C214.403 33.172 214.299 32.724 214.091 32.356C213.883 31.988 213.611 31.716 213.275 31.54C212.939 31.356 212.575 31.264 212.183 31.264C211.783 31.264 211.415 31.356 211.079 31.54C210.751 31.716 210.487 31.988 210.287 32.356C210.087 32.724 209.987 33.172 209.987 33.7C209.987 34.236 210.083 34.688 210.275 35.056C210.475 35.424 210.739 35.7 211.067 35.884C211.395 36.06 211.755 36.148 212.147 36.148ZM218.047 28.12V37H216.955V28.12H218.047ZM219.5 33.688C219.5 33.016 219.636 32.428 219.908 31.924C220.18 31.412 220.552 31.016 221.024 30.736C221.504 30.456 222.04 30.316 222.632 30.316C223.144 30.316 223.62 30.436 224.06 30.676C224.5 30.908 224.836 31.216 225.068 31.6V28.12H226.172V37H225.068V35.764C224.852 36.156 224.532 36.48 224.108 36.736C223.684 36.984 223.188 37.108 222.62 37.108C222.036 37.108 221.504 36.964 221.024 36.676C220.552 36.388 220.18 35.984 219.908 35.464C219.636 34.944 219.5 34.352 219.5 33.688ZM225.068 33.7C225.068 33.204 224.968 32.772 224.768 32.404C224.568 32.036 224.296 31.756 223.952 31.564C223.616 31.364 223.244 31.264 222.836 31.264C222.428 31.264 222.056 31.36 221.72 31.552C221.384 31.744 221.116 32.024 220.916 32.392C220.716 32.76 220.616 33.192 220.616 33.688C220.616 34.192 220.716 34.632 220.916 35.008C221.116 35.376 221.384 35.66 221.72 35.86C222.056 36.052 222.428 36.148 222.836 36.148C223.244 36.148 223.616 36.052 223.952 35.86C224.296 35.66 224.568 35.376 224.768 35.008C224.968 34.632 225.068 34.196 225.068 33.7Z" fill="#686F6F"/>
<path d="M31.4743 10.636V11.524H29.1943V19H28.1023V11.524H25.8103V10.636H31.4743ZM33.9105 13.492C34.1025 13.116 34.3745 12.824 34.7265 12.616C35.0865 12.408 35.5225 12.304 36.0345 12.304V13.432H35.7465C34.5225 13.432 33.9105 14.096 33.9105 15.424V19H32.8185V12.424H33.9105V13.492ZM36.8871 15.688C36.8871 15.016 37.0231 14.428 37.2951 13.924C37.5671 13.412 37.9391 13.016 38.4111 12.736C38.8911 12.456 39.4231 12.316 40.0071 12.316C40.5831 12.316 41.0831 12.44 41.5071 12.688C41.9311 12.936 42.2471 13.248 42.4551 13.624V12.424H43.5591V19H42.4551V17.776C42.2391 18.16 41.9151 18.48 41.4831 18.736C41.0591 18.984 40.5631 19.108 39.9951 19.108C39.4111 19.108 38.8831 18.964 38.4111 18.676C37.9391 18.388 37.5671 17.984 37.2951 17.464C37.0231 16.944 36.8871 16.352 36.8871 15.688ZM42.4551 15.7C42.4551 15.204 42.3551 14.772 42.1551 14.404C41.9551 14.036 41.6831 13.756 41.3391 13.564C41.0031 13.364 40.6311 13.264 40.2231 13.264C39.8151 13.264 39.4431 13.36 39.1071 13.552C38.7711 13.744 38.5031 14.024 38.3031 14.392C38.1031 14.76 38.0031 15.192 38.0031 15.688C38.0031 16.192 38.1031 16.632 38.3031 17.008C38.5031 17.376 38.7711 17.66 39.1071 17.86C39.4431 18.052 39.8151 18.148 40.2231 18.148C40.6311 18.148 41.0031 18.052 41.3391 17.86C41.6831 17.66 41.9551 17.376 42.1551 17.008C42.3551 16.632 42.4551 16.196 42.4551 15.7ZM48.6085 12.304C49.4085 12.304 50.0565 12.548 50.5525 13.036C51.0485 13.516 51.2965 14.212 51.2965 15.124V19H50.2165V15.28C50.2165 14.624 50.0525 14.124 49.7245 13.78C49.3965 13.428 48.9485 13.252 48.3805 13.252C47.8045 13.252 47.3445 13.432 47.0005 13.792C46.6645 14.152 46.4965 14.676 46.4965 15.364V19H45.4045V12.424H46.4965V13.36C46.7125 13.024 47.0045 12.764 47.3725 12.58C47.7485 12.396 48.1605 12.304 48.6085 12.304ZM55.4083 19.108C54.9043 19.108 54.4523 19.024 54.0523 18.856C53.6523 18.68 53.3363 18.44 53.1043 18.136C52.8723 17.824 52.7443 17.468 52.7203 17.068H53.8483C53.8803 17.396 54.0323 17.664 54.3043 17.872C54.5843 18.08 54.9483 18.184 55.3963 18.184C55.8123 18.184 56.1403 18.092 56.3803 17.908C56.6203 17.724 56.7403 17.492 56.7403 17.212C56.7403 16.924 56.6123 16.712 56.3563 16.576C56.1003 16.432 55.7043 16.292 55.1683 16.156C54.6803 16.028 54.2803 15.9 53.9683 15.772C53.6643 15.636 53.4003 15.44 53.1763 15.184C52.9603 14.92 52.8523 14.576 52.8523 14.152C52.8523 13.816 52.9523 13.508 53.1523 13.228C53.3523 12.948 53.6363 12.728 54.0043 12.568C54.3723 12.4 54.7923 12.316 55.2643 12.316C55.9923 12.316 56.5803 12.5 57.0283 12.868C57.4763 13.236 57.7163 13.74 57.7483 14.38H56.6563C56.6323 14.036 56.4923 13.76 56.2363 13.552C55.9883 13.344 55.6523 13.24 55.2283 13.24C54.8363 13.24 54.5243 13.324 54.2923 13.492C54.0603 13.66 53.9443 13.88 53.9443 14.152C53.9443 14.368 54.0123 14.548 54.1483 14.692C54.2923 14.828 54.4683 14.94 54.6763 15.028C54.8923 15.108 55.1883 15.2 55.5643 15.304C56.0363 15.432 56.4203 15.56 56.7163 15.688C57.0123 15.808 57.2643 15.992 57.4723 16.24C57.6883 16.488 57.8003 16.812 57.8083 17.212C57.8083 17.572 57.7083 17.896 57.5083 18.184C57.3083 18.472 57.0243 18.7 56.6563 18.868C56.2963 19.028 55.8803 19.108 55.4083 19.108ZM58.9418 15.688C58.9418 15.016 59.0778 14.428 59.3498 13.924C59.6218 13.412 59.9938 13.016 60.4658 12.736C60.9458 12.456 61.4778 12.316 62.0618 12.316C62.6378 12.316 63.1378 12.44 63.5618 12.688C63.9858 12.936 64.3018 13.248 64.5098 13.624V12.424H65.6138V19H64.5098V17.776C64.2938 18.16 63.9698 18.48 63.5378 18.736C63.1138 18.984 62.6178 19.108 62.0498 19.108C61.4658 19.108 60.9378 18.964 60.4658 18.676C59.9938 18.388 59.6218 17.984 59.3498 17.464C59.0778 16.944 58.9418 16.352 58.9418 15.688ZM64.5098 15.7C64.5098 15.204 64.4098 14.772 64.2098 14.404C64.0098 14.036 63.7378 13.756 63.3938 13.564C63.0578 13.364 62.6858 13.264 62.2778 13.264C61.8698 13.264 61.4978 13.36 61.1618 13.552C60.8258 13.744 60.5578 14.024 60.3578 14.392C60.1578 14.76 60.0578 15.192 60.0578 15.688C60.0578 16.192 60.1578 16.632 60.3578 17.008C60.5578 17.376 60.8258 17.66 61.1618 17.86C61.4978 18.052 61.8698 18.148 62.2778 18.148C62.6858 18.148 63.0578 18.052 63.3938 17.86C63.7378 17.66 64.0098 17.376 64.2098 17.008C64.4098 16.632 64.5098 16.196 64.5098 15.7ZM71.1312 19L68.5512 16.096V19H67.4592V10.12H68.5512V15.34L71.0832 12.424H72.6072L69.5112 15.7L72.6192 19H71.1312ZM75.9629 19.108C75.4589 19.108 75.0069 19.024 74.6069 18.856C74.2069 18.68 73.8909 18.44 73.6589 18.136C73.4269 17.824 73.2989 17.468 73.2749 17.068H74.4029C74.4349 17.396 74.5869 17.664 74.8589 17.872C75.1389 18.08 75.5029 18.184 75.9509 18.184C76.3669 18.184 76.6949 18.092 76.9349 17.908C77.1749 17.724 77.2949 17.492 77.2949 17.212C77.2949 16.924 77.1669 16.712 76.9109 16.576C76.6549 16.432 76.2589 16.292 75.7229 16.156C75.2349 16.028 74.8349 15.9 74.5229 15.772C74.2189 15.636 73.9549 15.44 73.7309 15.184C73.5149 14.92 73.4069 14.576 73.4069 14.152C73.4069 13.816 73.5069 13.508 73.7069 13.228C73.9069 12.948 74.1909 12.728 74.5589 12.568C74.9269 12.4 75.3469 12.316 75.8189 12.316C76.5469 12.316 77.1349 12.5 77.5829 12.868C78.0309 13.236 78.2709 13.74 78.3029 14.38H77.2109C77.1869 14.036 77.0469 13.76 76.7909 13.552C76.5429 13.344 76.2069 13.24 75.7829 13.24C75.3909 13.24 75.0789 13.324 74.8469 13.492C74.6149 13.66 74.4989 13.88 74.4989 14.152C74.4989 14.368 74.5669 14.548 74.7029 14.692C74.8469 14.828 75.0229 14.94 75.2309 15.028C75.4469 15.108 75.7429 15.2 76.1189 15.304C76.5909 15.432 76.9749 15.56 77.2709 15.688C77.5669 15.808 77.8189 15.992 78.0269 16.24C78.2429 16.488 78.3549 16.812 78.3629 17.212C78.3629 17.572 78.2629 17.896 78.0629 18.184C77.8629 18.472 77.5789 18.7 77.2109 18.868C76.8509 19.028 76.4349 19.108 75.9629 19.108ZM80.4685 11.356C80.2605 11.356 80.0845 11.284 79.9405 11.14C79.7965 10.996 79.7245 10.82 79.7245 10.612C79.7245 10.404 79.7965 10.228 79.9405 10.084C80.0845 9.94 80.2605 9.868 80.4685 9.868C80.6685 9.868 80.8365 9.94 80.9725 10.084C81.1165 10.228 81.1885 10.404 81.1885 10.612C81.1885 10.82 81.1165 10.996 80.9725 11.14C80.8365 11.284 80.6685 11.356 80.4685 11.356ZM80.9965 12.424V19H79.9045V12.424H80.9965ZM88.3848 19.108C87.8808 19.108 87.4288 19.024 87.0288 18.856C86.6288 18.68 86.3128 18.44 86.0808 18.136C85.8488 17.824 85.7208 17.468 85.6968 17.068H86.8248C86.8568 17.396 87.0088 17.664 87.2808 17.872C87.5608 18.08 87.9248 18.184 88.3728 18.184C88.7888 18.184 89.1168 18.092 89.3568 17.908C89.5968 17.724 89.7168 17.492 89.7168 17.212C89.7168 16.924 89.5888 16.712 89.3328 16.576C89.0768 16.432 88.6808 16.292 88.1448 16.156C87.6568 16.028 87.2568 15.9 86.9448 15.772C86.6408 15.636 86.3768 15.44 86.1528 15.184C85.9368 14.92 85.8288 14.576 85.8288 14.152C85.8288 13.816 85.9288 13.508 86.1288 13.228C86.3288 12.948 86.6128 12.728 86.9808 12.568C87.3488 12.4 87.7688 12.316 88.2408 12.316C88.9688 12.316 89.5568 12.5 90.0048 12.868C90.4528 13.236 90.6928 13.74 90.7248 14.38H89.6328C89.6088 14.036 89.4688 13.76 89.2128 13.552C88.9648 13.344 88.6288 13.24 88.2048 13.24C87.8128 13.24 87.5008 13.324 87.2688 13.492C87.0368 13.66 86.9208 13.88 86.9208 14.152C86.9208 14.368 86.9888 14.548 87.1248 14.692C87.2688 14.828 87.4448 14.94 87.6528 15.028C87.8688 15.108 88.1648 15.2 88.5408 15.304C89.0128 15.432 89.3968 15.56 89.6928 15.688C89.9888 15.808 90.2408 15.992 90.4488 16.24C90.6648 16.488 90.7768 16.812 90.7848 17.212C90.7848 17.572 90.6848 17.896 90.4848 18.184C90.2848 18.472 90.0008 18.7 89.6328 18.868C89.2728 19.028 88.8568 19.108 88.3848 19.108ZM91.9183 15.688C91.9183 15.016 92.0543 14.428 92.3263 13.924C92.5983 13.412 92.9703 13.016 93.4423 12.736C93.9223 12.456 94.4543 12.316 95.0383 12.316C95.6143 12.316 96.1143 12.44 96.5383 12.688C96.9623 12.936 97.2783 13.248 97.4863 13.624V12.424H98.5903V19H97.4863V17.776C97.2703 18.16 96.9463 18.48 96.5143 18.736C96.0903 18.984 95.5943 19.108 95.0263 19.108C94.4423 19.108 93.9143 18.964 93.4423 18.676C92.9703 18.388 92.5983 17.984 92.3263 17.464C92.0543 16.944 91.9183 16.352 91.9183 15.688ZM97.4863 15.7C97.4863 15.204 97.3863 14.772 97.1863 14.404C96.9863 14.036 96.7143 13.756 96.3703 13.564C96.0343 13.364 95.6623 13.264 95.2543 13.264C94.8463 13.264 94.4743 13.36 94.1383 13.552C93.8023 13.744 93.5343 14.024 93.3343 14.392C93.1343 14.76 93.0343 15.192 93.0343 15.688C93.0343 16.192 93.1343 16.632 93.3343 17.008C93.5343 17.376 93.8023 17.66 94.1383 17.86C94.4743 18.052 94.8463 18.148 95.2543 18.148C95.6623 18.148 96.0343 18.052 96.3703 17.86C96.7143 17.66 96.9863 17.376 97.1863 17.008C97.3863 16.632 97.4863 16.196 97.4863 15.7ZM108.344 12.304C108.856 12.304 109.312 12.412 109.712 12.628C110.112 12.836 110.428 13.152 110.66 13.576C110.892 14 111.008 14.516 111.008 15.124V19H109.928V15.28C109.928 14.624 109.764 14.124 109.436 13.78C109.116 13.428 108.68 13.252 108.128 13.252C107.56 13.252 107.108 13.436 106.772 13.804C106.436 14.164 106.268 14.688 106.268 15.376V19H105.188V15.28C105.188 14.624 105.024 14.124 104.696 13.78C104.376 13.428 103.94 13.252 103.388 13.252C102.82 13.252 102.368 13.436 102.032 13.804C101.696 14.164 101.528 14.688 101.528 15.376V19H100.436V12.424H101.528V13.372C101.744 13.028 102.032 12.764 102.392 12.58C102.76 12.396 103.164 12.304 103.604 12.304C104.156 12.304 104.644 12.428 105.068 12.676C105.492 12.924 105.808 13.288 106.016 13.768C106.2 13.304 106.504 12.944 106.928 12.688C107.352 12.432 107.824 12.304 108.344 12.304ZM113.891 13.636C114.107 13.26 114.427 12.948 114.851 12.7C115.283 12.444 115.783 12.316 116.351 12.316C116.935 12.316 117.463 12.456 117.935 12.736C118.415 13.016 118.791 13.412 119.063 13.924C119.335 14.428 119.471 15.016 119.471 15.688C119.471 16.352 119.335 16.944 119.063 17.464C118.791 17.984 118.415 18.388 117.935 18.676C117.463 18.964 116.935 19.108 116.351 19.108C115.791 19.108 115.295 18.984 114.863 18.736C114.439 18.48 114.115 18.164 113.891 17.788V22.12H112.799V12.424H113.891V13.636ZM118.355 15.688C118.355 15.192 118.255 14.76 118.055 14.392C117.855 14.024 117.583 13.744 117.239 13.552C116.903 13.36 116.531 13.264 116.123 13.264C115.723 13.264 115.351 13.364 115.007 13.564C114.671 13.756 114.399 14.04 114.191 14.416C113.991 14.784 113.891 15.212 113.891 15.7C113.891 16.196 113.991 16.632 114.191 17.008C114.399 17.376 114.671 17.66 115.007 17.86C115.351 18.052 115.723 18.148 116.123 18.148C116.531 18.148 116.903 18.052 117.239 17.86C117.583 17.66 117.855 17.376 118.055 17.008C118.255 16.632 118.355 16.192 118.355 15.688ZM120.5 15.688C120.5 15.016 120.636 14.428 120.908 13.924C121.18 13.412 121.552 13.016 122.024 12.736C122.504 12.456 123.036 12.316 123.62 12.316C124.196 12.316 124.696 12.44 125.12 12.688C125.544 12.936 125.86 13.248 126.068 13.624V12.424H127.172V19H126.068V17.776C125.852 18.16 125.528 18.48 125.096 18.736C124.672 18.984 124.176 19.108 123.608 19.108C123.024 19.108 122.496 18.964 122.024 18.676C121.552 18.388 121.18 17.984 120.908 17.464C120.636 16.944 120.5 16.352 120.5 15.688ZM126.068 15.7C126.068 15.204 125.968 14.772 125.768 14.404C125.568 14.036 125.296 13.756 124.952 13.564C124.616 13.364 124.244 13.264 123.836 13.264C123.428 13.264 123.056 13.36 122.72 13.552C122.384 13.744 122.116 14.024 121.916 14.392C121.716 14.76 121.616 15.192 121.616 15.688C121.616 16.192 121.716 16.632 121.916 17.008C122.116 17.376 122.384 17.66 122.72 17.86C123.056 18.052 123.428 18.148 123.836 18.148C124.244 18.148 124.616 18.052 124.952 17.86C125.296 17.66 125.568 17.376 125.768 17.008C125.968 16.632 126.068 16.196 126.068 15.7ZM129.582 11.356C129.374 11.356 129.198 11.284 129.054 11.14C128.91 10.996 128.838 10.82 128.838 10.612C128.838 10.404 128.91 10.228 129.054 10.084C129.198 9.94 129.374 9.868 129.582 9.868C129.782 9.868 129.95 9.94 130.086 10.084C130.23 10.228 130.302 10.404 130.302 10.612C130.302 10.82 130.23 10.996 130.086 11.14C129.95 11.284 129.782 11.356 129.582 11.356ZM130.11 12.424V19H129.018V12.424H130.11ZM139.574 19L137.582 15.58H136.262V19H135.17V10.636H137.87C138.502 10.636 139.034 10.744 139.466 10.96C139.906 11.176 140.234 11.468 140.45 11.836C140.666 12.204 140.774 12.624 140.774 13.096C140.774 13.672 140.606 14.18 140.27 14.62C139.942 15.06 139.446 15.352 138.782 15.496L140.882 19H139.574ZM136.262 14.704H137.87C138.462 14.704 138.906 14.56 139.202 14.272C139.498 13.976 139.646 13.584 139.646 13.096C139.646 12.6 139.498 12.216 139.202 11.944C138.914 11.672 138.47 11.536 137.87 11.536H136.262V14.704ZM143.563 13.636C143.779 13.26 144.099 12.948 144.523 12.7C144.955 12.444 145.455 12.316 146.023 12.316C146.607 12.316 147.135 12.456 147.607 12.736C148.087 13.016 148.463 13.412 148.735 13.924C149.007 14.428 149.143 15.016 149.143 15.688C149.143 16.352 149.007 16.944 148.735 17.464C148.463 17.984 148.087 18.388 147.607 18.676C147.135 18.964 146.607 19.108 146.023 19.108C145.463 19.108 144.967 18.984 144.535 18.736C144.111 18.48 143.787 18.164 143.563 17.788V22.12H142.471V12.424H143.563V13.636ZM148.027 15.688C148.027 15.192 147.927 14.76 147.727 14.392C147.527 14.024 147.255 13.744 146.911 13.552C146.575 13.36 146.203 13.264 145.795 13.264C145.395 13.264 145.023 13.364 144.679 13.564C144.343 13.756 144.071 14.04 143.863 14.416C143.663 14.784 143.563 15.212 143.563 15.7C143.563 16.196 143.663 16.632 143.863 17.008C144.071 17.376 144.343 17.66 144.679 17.86C145.023 18.052 145.395 18.148 145.795 18.148C146.203 18.148 146.575 18.052 146.911 17.86C147.255 17.66 147.527 17.376 147.727 17.008C147.927 16.632 148.027 16.192 148.027 15.688ZM150.928 19.072C150.72 19.072 150.544 19 150.4 18.856C150.256 18.712 150.184 18.536 150.184 18.328C150.184 18.12 150.256 17.944 150.4 17.8C150.544 17.656 150.72 17.584 150.928 17.584C151.128 17.584 151.296 17.656 151.432 17.8C151.576 17.944 151.648 18.12 151.648 18.328C151.648 18.536 151.576 18.712 151.432 18.856C151.296 19 151.128 19.072 150.928 19.072ZM155.987 18.124C157.003 17.308 157.799 16.64 158.375 16.12C158.951 15.592 159.435 15.044 159.827 14.476C160.227 13.9 160.427 13.336 160.427 12.784C160.427 12.264 160.299 11.856 160.043 11.56C159.795 11.256 159.391 11.104 158.831 11.104C158.287 11.104 157.863 11.276 157.559 11.62C157.263 11.956 157.103 12.408 157.079 12.976H156.023C156.055 12.08 156.327 11.388 156.839 10.9C157.351 10.412 158.011 10.168 158.819 10.168C159.643 10.168 160.295 10.396 160.775 10.852C161.263 11.308 161.507 11.936 161.507 12.736C161.507 13.4 161.307 14.048 160.907 14.68C160.515 15.304 160.067 15.856 159.563 16.336C159.059 16.808 158.415 17.36 157.631 17.992H161.759V18.904H155.987V18.124ZM163.021 14.572C163.021 13.196 163.245 12.124 163.693 11.356C164.141 10.58 164.925 10.192 166.045 10.192C167.157 10.192 167.937 10.58 168.385 11.356C168.833 12.124 169.057 13.196 169.057 14.572C169.057 15.972 168.833 17.06 168.385 17.836C167.937 18.612 167.157 19 166.045 19C164.925 19 164.141 18.612 163.693 17.836C163.245 17.06 163.021 15.972 163.021 14.572ZM167.977 14.572C167.977 13.876 167.929 13.288 167.833 12.808C167.745 12.32 167.557 11.928 167.269 11.632C166.989 11.336 166.581 11.188 166.045 11.188C165.501 11.188 165.085 11.336 164.797 11.632C164.517 11.928 164.329 12.32 164.233 12.808C164.145 13.288 164.101 13.876 164.101 14.572C164.101 15.292 164.145 15.896 164.233 16.384C164.329 16.872 164.517 17.264 164.797 17.56C165.085 17.856 165.501 18.004 166.045 18.004C166.581 18.004 166.989 17.856 167.269 17.56C167.557 17.264 167.745 16.872 167.833 16.384C167.929 15.896 167.977 15.292 167.977 14.572ZM170.557 14.572C170.557 13.196 170.781 12.124 171.229 11.356C171.677 10.58 172.461 10.192 173.581 10.192C174.693 10.192 175.473 10.58 175.921 11.356C176.368 12.124 176.592 13.196 176.592 14.572C176.592 15.972 176.368 17.06 175.921 17.836C175.473 18.612 174.693 19 173.581 19C172.461 19 171.677 18.612 171.229 17.836C170.781 17.06 170.557 15.972 170.557 14.572ZM175.513 14.572C175.513 13.876 175.465 13.288 175.369 12.808C175.281 12.32 175.093 11.928 174.805 11.632C174.525 11.336 174.117 11.188 173.581 11.188C173.037 11.188 172.621 11.336 172.333 11.632C172.053 11.928 171.865 12.32 171.769 12.808C171.681 13.288 171.637 13.876 171.637 14.572C171.637 15.292 171.681 15.896 171.769 16.384C171.865 16.872 172.053 17.264 172.333 17.56C172.621 17.856 173.037 18.004 173.581 18.004C174.117 18.004 174.525 17.856 174.805 17.56C175.093 17.264 175.281 16.872 175.369 16.384C175.465 15.896 175.513 15.292 175.513 14.572ZM178.62 19.072C178.412 19.072 178.236 19 178.092 18.856C177.948 18.712 177.876 18.536 177.876 18.328C177.876 18.12 177.948 17.944 178.092 17.8C178.236 17.656 178.412 17.584 178.62 17.584C178.82 17.584 178.988 17.656 179.124 17.8C179.268 17.944 179.34 18.12 179.34 18.328C179.34 18.536 179.268 18.712 179.124 18.856C178.988 19 178.82 19.072 178.62 19.072ZM180.611 14.572C180.611 13.196 180.835 12.124 181.283 11.356C181.731 10.58 182.515 10.192 183.635 10.192C184.747 10.192 185.527 10.58 185.975 11.356C186.423 12.124 186.647 13.196 186.647 14.572C186.647 15.972 186.423 17.06 185.975 17.836C185.527 18.612 184.747 19 183.635 19C182.515 19 181.731 18.612 181.283 17.836C180.835 17.06 180.611 15.972 180.611 14.572ZM185.567 14.572C185.567 13.876 185.519 13.288 185.423 12.808C185.335 12.32 185.147 11.928 184.859 11.632C184.579 11.336 184.171 11.188 183.635 11.188C183.091 11.188 182.675 11.336 182.387 11.632C182.107 11.928 181.919 12.32 181.823 12.808C181.735 13.288 181.691 13.876 181.691 14.572C181.691 15.292 181.735 15.896 181.823 16.384C181.919 16.872 182.107 17.264 182.387 17.56C182.675 17.856 183.091 18.004 183.635 18.004C184.171 18.004 184.579 17.856 184.859 17.56C185.147 17.264 185.335 16.872 185.423 16.384C185.519 15.896 185.567 15.292 185.567 14.572ZM188.146 14.572C188.146 13.196 188.37 12.124 188.818 11.356C189.266 10.58 190.05 10.192 191.17 10.192C192.282 10.192 193.062 10.58 193.51 11.356C193.958 12.124 194.182 13.196 194.182 14.572C194.182 15.972 193.958 17.06 193.51 17.836C193.062 18.612 192.282 19 191.17 19C190.05 19 189.266 18.612 188.818 17.836C188.37 17.06 188.146 15.972 188.146 14.572ZM193.102 14.572C193.102 13.876 193.054 13.288 192.958 12.808C192.87 12.32 192.682 11.928 192.394 11.632C192.114 11.336 191.706 11.188 191.17 11.188C190.626 11.188 190.21 11.336 189.922 11.632C189.642 11.928 189.454 12.32 189.358 12.808C189.27 13.288 189.226 13.876 189.226 14.572C189.226 15.292 189.27 15.896 189.358 16.384C189.454 16.872 189.642 17.264 189.922 17.56C190.21 17.856 190.626 18.004 191.17 18.004C191.706 18.004 192.114 17.856 192.394 17.56C192.682 17.264 192.87 16.872 192.958 16.384C193.054 15.896 193.102 15.292 193.102 14.572ZM195.682 14.572C195.682 13.196 195.906 12.124 196.354 11.356C196.802 10.58 197.586 10.192 198.706 10.192C199.818 10.192 200.598 10.58 201.046 11.356C201.493 12.124 201.717 13.196 201.717 14.572C201.717 15.972 201.493 17.06 201.046 17.836C200.598 18.612 199.818 19 198.706 19C197.586 19 196.802 18.612 196.354 17.836C195.906 17.06 195.682 15.972 195.682 14.572ZM200.638 14.572C200.638 13.876 200.59 13.288 200.494 12.808C200.406 12.32 200.218 11.928 199.93 11.632C199.65 11.336 199.242 11.188 198.706 11.188C198.162 11.188 197.746 11.336 197.458 11.632C197.178 11.928 196.99 12.32 196.894 12.808C196.806 13.288 196.762 13.876 196.762 14.572C196.762 15.292 196.806 15.896 196.894 16.384C196.99 16.872 197.178 17.264 197.458 17.56C197.746 17.856 198.162 18.004 198.706 18.004C199.242 18.004 199.65 17.856 199.93 17.56C200.218 17.264 200.406 16.872 200.494 16.384C200.59 15.896 200.638 15.292 200.638 14.572ZM203.745 19.072C203.537 19.072 203.361 19 203.217 18.856C203.073 18.712 203.001 18.536 203.001 18.328C203.001 18.12 203.073 17.944 203.217 17.8C203.361 17.656 203.537 17.584 203.745 17.584C203.945 17.584 204.113 17.656 204.249 17.8C204.393 17.944 204.465 18.12 204.465 18.328C204.465 18.536 204.393 18.712 204.249 18.856C204.113 19 203.945 19.072 203.745 19.072ZM205.736 14.572C205.736 13.196 205.96 12.124 206.408 11.356C206.856 10.58 207.64 10.192 208.76 10.192C209.872 10.192 210.652 10.58 211.1 11.356C211.548 12.124 211.772 13.196 211.772 14.572C211.772 15.972 211.548 17.06 211.1 17.836C210.652 18.612 209.872 19 208.76 19C207.64 19 206.856 18.612 206.408 17.836C205.96 17.06 205.736 15.972 205.736 14.572ZM210.692 14.572C210.692 13.876 210.644 13.288 210.548 12.808C210.46 12.32 210.272 11.928 209.984 11.632C209.704 11.336 209.296 11.188 208.76 11.188C208.216 11.188 207.8 11.336 207.512 11.632C207.232 11.928 207.044 12.32 206.948 12.808C206.86 13.288 206.816 13.876 206.816 14.572C206.816 15.292 206.86 15.896 206.948 16.384C207.044 16.872 207.232 17.264 207.512 17.56C207.8 17.856 208.216 18.004 208.76 18.004C209.296 18.004 209.704 17.856 209.984 17.56C210.272 17.264 210.46 16.872 210.548 16.384C210.644 15.896 210.692 15.292 210.692 14.572ZM213.271 14.572C213.271 13.196 213.495 12.124 213.943 11.356C214.391 10.58 215.175 10.192 216.295 10.192C217.407 10.192 218.187 10.58 218.635 11.356C219.083 12.124 219.307 13.196 219.307 14.572C219.307 15.972 219.083 17.06 218.635 17.836C218.187 18.612 217.407 19 216.295 19C215.175 19 214.391 18.612 213.943 17.836C213.495 17.06 213.271 15.972 213.271 14.572ZM218.227 14.572C218.227 13.876 218.179 13.288 218.083 12.808C217.995 12.32 217.807 11.928 217.519 11.632C217.239 11.336 216.831 11.188 216.295 11.188C215.751 11.188 215.335 11.336 215.047 11.632C214.767 11.928 214.579 12.32 214.483 12.808C214.395 13.288 214.351 13.876 214.351 14.572C214.351 15.292 214.395 15.896 214.483 16.384C214.579 16.872 214.767 17.264 215.047 17.56C215.335 17.856 215.751 18.004 216.295 18.004C216.831 18.004 217.239 17.856 217.519 17.56C217.807 17.264 217.995 16.872 218.083 16.384C218.179 15.896 218.227 15.292 218.227 14.572ZM220.807 14.572C220.807 13.196 221.031 12.124 221.479 11.356C221.927 10.58 222.711 10.192 223.831 10.192C224.943 10.192 225.723 10.58 226.171 11.356C226.618 12.124 226.842 13.196 226.842 14.572C226.842 15.972 226.618 17.06 226.171 17.836C225.723 18.612 224.943 19 223.831 19C222.711 19 221.927 18.612 221.479 17.836C221.031 17.06 220.807 15.972 220.807 14.572ZM225.763 14.572C225.763 13.876 225.715 13.288 225.619 12.808C225.531 12.32 225.343 11.928 225.055 11.632C224.775 11.336 224.367 11.188 223.831 11.188C223.287 11.188 222.871 11.336 222.583 11.632C222.303 11.928 222.115 12.32 222.019 12.808C221.931 13.288 221.887 13.876 221.887 14.572C221.887 15.292 221.931 15.896 222.019 16.384C222.115 16.872 222.303 17.264 222.583 17.56C222.871 17.856 223.287 18.004 223.831 18.004C224.367 18.004 224.775 17.856 225.055 17.56C225.343 17.264 225.531 16.872 225.619 16.384C225.715 15.896 225.763 15.292 225.763 14.572ZM32.6623 30.424V37H31.5703V36.028C31.3623 36.364 31.0703 36.628 30.6943 36.82C30.3263 37.004 29.9183 37.096 29.4703 37.096C28.9583 37.096 28.4983 36.992 28.0903 36.784C27.6823 36.568 27.3583 36.248 27.1183 35.824C26.8863 35.4 26.7703 34.884 26.7703 34.276V30.424H27.8503V34.132C27.8503 34.78 28.0143 35.28 28.3423 35.632C28.6703 35.976 29.1183 36.148 29.6863 36.148C30.2703 36.148 30.7303 35.968 31.0663 35.608C31.4023 35.248 31.5703 34.724 31.5703 34.036V30.424H32.6623ZM37.71 30.304C38.51 30.304 39.158 30.548 39.654 31.036C40.15 31.516 40.398 32.212 40.398 33.124V37H39.318V33.28C39.318 32.624 39.154 32.124 38.826 31.78C38.498 31.428 38.05 31.252 37.482 31.252C36.906 31.252 36.446 31.432 36.102 31.792C35.766 32.152 35.598 32.676 35.598 33.364V37H34.506V30.424H35.598V31.36C35.814 31.024 36.106 30.764 36.474 30.58C36.85 30.396 37.262 30.304 37.71 30.304ZM43.5138 31.324V35.2C43.5138 35.52 43.5818 35.748 43.7178 35.884C43.8538 36.012 44.0898 36.076 44.4258 36.076H45.2298V37H44.2458C43.6378 37 43.1818 36.86 42.8778 36.58C42.5738 36.3 42.4218 35.84 42.4218 35.2V31.324H41.5698V30.424H42.4218V28.768H43.5138V30.424H45.2298V31.324H43.5138ZM52.3849 30.424V37H51.2929V36.028C51.0849 36.364 50.7929 36.628 50.4169 36.82C50.0489 37.004 49.6409 37.096 49.1929 37.096C48.6809 37.096 48.2209 36.992 47.8129 36.784C47.4049 36.568 47.0809 36.248 46.8409 35.824C46.6089 35.4 46.4929 34.884 46.4929 34.276V30.424H47.5729V34.132C47.5729 34.78 47.7369 35.28 48.0649 35.632C48.3929 35.976 48.8409 36.148 49.4089 36.148C49.9929 36.148 50.4529 35.968 50.7889 35.608C51.1249 35.248 51.2929 34.724 51.2929 34.036V30.424H52.3849ZM57.9007 37L55.3207 34.096V37H54.2287V28.12H55.3207V33.34L57.8527 30.424H59.3767L56.2807 33.7L59.3887 37H57.9007ZM66.8077 30.304C67.6077 30.304 68.2557 30.548 68.7517 31.036C69.2477 31.516 69.4957 32.212 69.4957 33.124V37H68.4157V33.28C68.4157 32.624 68.2517 32.124 67.9237 31.78C67.5957 31.428 67.1477 31.252 66.5797 31.252C66.0037 31.252 65.5437 31.432 65.1997 31.792C64.8637 32.152 64.6957 32.676 64.6957 33.364V37H63.6037V30.424H64.6957V31.36C64.9117 31.024 65.2037 30.764 65.5717 30.58C65.9477 30.396 66.3597 30.304 66.8077 30.304ZM70.8715 33.688C70.8715 33.016 71.0075 32.428 71.2795 31.924C71.5515 31.412 71.9235 31.016 72.3955 30.736C72.8755 30.456 73.4075 30.316 73.9915 30.316C74.5675 30.316 75.0675 30.44 75.4915 30.688C75.9155 30.936 76.2315 31.248 76.4395 31.624V30.424H77.5435V37H76.4395V35.776C76.2235 36.16 75.8995 36.48 75.4675 36.736C75.0435 36.984 74.5475 37.108 73.9795 37.108C73.3955 37.108 72.8675 36.964 72.3955 36.676C71.9235 36.388 71.5515 35.984 71.2795 35.464C71.0075 34.944 70.8715 34.352 70.8715 33.688ZM76.4395 33.7C76.4395 33.204 76.3395 32.772 76.1395 32.404C75.9395 32.036 75.6675 31.756 75.3235 31.564C74.9875 31.364 74.6155 31.264 74.2075 31.264C73.7995 31.264 73.4275 31.36 73.0915 31.552C72.7555 31.744 72.4875 32.024 72.2875 32.392C72.0875 32.76 71.9875 33.192 71.9875 33.688C71.9875 34.192 72.0875 34.632 72.2875 35.008C72.4875 35.376 72.7555 35.66 73.0915 35.86C73.4275 36.052 73.7995 36.148 74.2075 36.148C74.6155 36.148 74.9875 36.052 75.3235 35.86C75.6675 35.66 75.9395 35.376 76.1395 35.008C76.3395 34.632 76.4395 34.196 76.4395 33.7ZM79.9528 29.356C79.7448 29.356 79.5688 29.284 79.4248 29.14C79.2808 28.996 79.2088 28.82 79.2088 28.612C79.2088 28.404 79.2808 28.228 79.4248 28.084C79.5688 27.94 79.7448 27.868 79.9528 27.868C80.1528 27.868 80.3208 27.94 80.4568 28.084C80.6008 28.228 80.6728 28.404 80.6728 28.612C80.6728 28.82 80.6008 28.996 80.4568 29.14C80.3208 29.284 80.1528 29.356 79.9528 29.356ZM80.4808 30.424V37H79.3888V30.424H80.4808ZM86.014 37L83.434 34.096V37H82.342V28.12H83.434V33.34L85.966 30.424H87.49L84.394 33.7L87.502 37H86.014ZM99.625 30.304C100.137 30.304 100.593 30.412 100.993 30.628C101.393 30.836 101.709 31.152 101.941 31.576C102.173 32 102.289 32.516 102.289 33.124V37H101.209V33.28C101.209 32.624 101.045 32.124 100.717 31.78C100.397 31.428 99.961 31.252 99.409 31.252C98.841 31.252 98.389 31.436 98.053 31.804C97.717 32.164 97.549 32.688 97.549 33.376V37H96.469V33.28C96.469 32.624 96.305 32.124 95.977 31.78C95.657 31.428 95.221 31.252 94.669 31.252C94.101 31.252 93.649 31.436 93.313 31.804C92.977 32.164 92.809 32.688 92.809 33.376V37H91.717V30.424H92.809V31.372C93.025 31.028 93.313 30.764 93.673 30.58C94.041 30.396 94.445 30.304 94.885 30.304C95.437 30.304 95.925 30.428 96.349 30.676C96.773 30.924 97.089 31.288 97.297 31.768C97.481 31.304 97.785 30.944 98.209 30.688C98.633 30.432 99.105 30.304 99.625 30.304ZM110.08 33.46C110.08 33.668 110.068 33.888 110.044 34.12H104.788C104.828 34.768 105.048 35.276 105.448 35.644C105.856 36.004 106.348 36.184 106.924 36.184C107.396 36.184 107.788 36.076 108.1 35.86C108.42 35.636 108.644 35.34 108.772 34.972H109.948C109.772 35.604 109.42 36.12 108.892 36.52C108.364 36.912 107.708 37.108 106.924 37.108C106.3 37.108 105.74 36.968 105.244 36.688C104.756 36.408 104.372 36.012 104.092 35.5C103.812 34.98 103.672 34.38 103.672 33.7C103.672 33.02 103.808 32.424 104.08 31.912C104.352 31.4 104.732 31.008 105.22 30.736C105.716 30.456 106.284 30.316 106.924 30.316C107.548 30.316 108.1 30.452 108.58 30.724C109.06 30.996 109.428 31.372 109.684 31.852C109.948 32.324 110.08 32.86 110.08 33.46ZM108.952 33.232C108.952 32.816 108.86 32.46 108.676 32.164C108.492 31.86 108.24 31.632 107.92 31.48C107.608 31.32 107.26 31.24 106.876 31.24C106.324 31.24 105.852 31.416 105.46 31.768C105.076 32.12 104.856 32.608 104.8 33.232H108.952ZM114.726 30.304C115.526 30.304 116.174 30.548 116.67 31.036C117.166 31.516 117.414 32.212 117.414 33.124V37H116.334V33.28C116.334 32.624 116.17 32.124 115.842 31.78C115.514 31.428 115.066 31.252 114.498 31.252C113.922 31.252 113.462 31.432 113.118 31.792C112.782 32.152 112.614 32.676 112.614 33.364V37H111.522V30.424H112.614V31.36C112.83 31.024 113.122 30.764 113.49 30.58C113.866 30.396 114.278 30.304 114.726 30.304ZM119.785 29.356C119.577 29.356 119.401 29.284 119.257 29.14C119.121 28.996 119.053 28.82 119.053 28.612C119.053 28.404 119.121 28.228 119.257 28.084C119.401 27.94 119.577 27.868 119.785 27.868C119.993 27.868 120.165 27.94 120.301 28.084C120.445 28.228 120.517 28.404 120.517 28.612C120.517 28.82 120.445 28.996 120.301 29.14C120.165 29.284 119.993 29.356 119.785 29.356ZM120.325 38.428C120.325 39.012 120.177 39.44 119.881 39.712C119.585 39.984 119.153 40.12 118.585 40.12H117.949V39.196H118.405C118.709 39.196 118.921 39.136 119.041 39.016C119.169 38.896 119.233 38.692 119.233 38.404V30.424H120.325V38.428ZM121.766 33.688C121.766 33.016 121.902 32.428 122.174 31.924C122.446 31.412 122.818 31.016 123.29 30.736C123.77 30.456 124.302 30.316 124.886 30.316C125.462 30.316 125.962 30.44 126.386 30.688C126.81 30.936 127.126 31.248 127.334 31.624V30.424H128.438V37H127.334V35.776C127.118 36.16 126.794 36.48 126.362 36.736C125.938 36.984 125.442 37.108 124.874 37.108C124.29 37.108 123.762 36.964 123.29 36.676C122.818 36.388 122.446 35.984 122.174 35.464C121.902 34.944 121.766 34.352 121.766 33.688ZM127.334 33.7C127.334 33.204 127.234 32.772 127.034 32.404C126.834 32.036 126.562 31.756 126.218 31.564C125.882 31.364 125.51 31.264 125.102 31.264C124.694 31.264 124.322 31.36 123.986 31.552C123.65 31.744 123.382 32.024 123.182 32.392C122.982 32.76 122.882 33.192 122.882 33.688C122.882 34.192 122.982 34.632 123.182 35.008C123.382 35.376 123.65 35.66 123.986 35.86C124.322 36.052 124.694 36.148 125.102 36.148C125.51 36.148 125.882 36.052 126.218 35.86C126.562 35.66 126.834 35.376 127.034 35.008C127.234 34.632 127.334 34.196 127.334 33.7ZM129.875 33.688C129.875 33.016 130.011 32.428 130.283 31.924C130.555 31.412 130.927 31.016 131.399 30.736C131.879 30.456 132.415 30.316 133.007 30.316C133.519 30.316 133.995 30.436 134.435 30.676C134.875 30.908 135.211 31.216 135.443 31.6V28.12H136.547V37H135.443V35.764C135.227 36.156 134.907 36.48 134.483 36.736C134.059 36.984 133.563 37.108 132.995 37.108C132.411 37.108 131.879 36.964 131.399 36.676C130.927 36.388 130.555 35.984 130.283 35.464C130.011 34.944 129.875 34.352 129.875 33.688ZM135.443 33.7C135.443 33.204 135.343 32.772 135.143 32.404C134.943 32.036 134.671 31.756 134.327 31.564C133.991 31.364 133.619 31.264 133.211 31.264C132.803 31.264 132.431 31.36 132.095 31.552C131.759 31.744 131.491 32.024 131.291 32.392C131.091 32.76 130.991 33.192 130.991 33.688C130.991 34.192 131.091 34.632 131.291 35.008C131.491 35.376 131.759 35.66 132.095 35.86C132.431 36.052 132.803 36.148 133.211 36.148C133.619 36.148 133.991 36.052 134.327 35.86C134.671 35.66 134.943 35.376 135.143 35.008C135.343 34.632 135.443 34.196 135.443 33.7ZM138.957 29.356C138.749 29.356 138.573 29.284 138.429 29.14C138.285 28.996 138.213 28.82 138.213 28.612C138.213 28.404 138.285 28.228 138.429 28.084C138.573 27.94 138.749 27.868 138.957 27.868C139.157 27.868 139.325 27.94 139.461 28.084C139.605 28.228 139.677 28.404 139.677 28.612C139.677 28.82 139.605 28.996 139.461 29.14C139.325 29.284 139.157 29.356 138.957 29.356ZM139.485 30.424V37H138.393V30.424H139.485ZM152.453 30.304C152.965 30.304 153.421 30.412 153.821 30.628C154.221 30.836 154.537 31.152 154.769 31.576C155.001 32 155.117 32.516 155.117 33.124V37H154.037V33.28C154.037 32.624 153.873 32.124 153.545 31.78C153.225 31.428 152.789 31.252 152.237 31.252C151.669 31.252 151.217 31.436 150.881 31.804C150.545 32.164 150.377 32.688 150.377 33.376V37H149.297V33.28C149.297 32.624 149.133 32.124 148.805 31.78C148.485 31.428 148.049 31.252 147.497 31.252C146.929 31.252 146.477 31.436 146.141 31.804C145.805 32.164 145.637 32.688 145.637 33.376V37H144.545V30.424H145.637V31.372C145.853 31.028 146.141 30.764 146.501 30.58C146.869 30.396 147.273 30.304 147.713 30.304C148.265 30.304 148.753 30.428 149.177 30.676C149.601 30.924 149.917 31.288 150.125 31.768C150.309 31.304 150.613 30.944 151.037 30.688C151.461 30.432 151.933 30.304 152.453 30.304ZM162.908 33.46C162.908 33.668 162.896 33.888 162.872 34.12H157.616C157.656 34.768 157.876 35.276 158.276 35.644C158.684 36.004 159.176 36.184 159.752 36.184C160.224 36.184 160.616 36.076 160.928 35.86C161.248 35.636 161.472 35.34 161.6 34.972H162.776C162.6 35.604 162.248 36.12 161.72 36.52C161.192 36.912 160.536 37.108 159.752 37.108C159.128 37.108 158.568 36.968 158.072 36.688C157.584 36.408 157.2 36.012 156.92 35.5C156.64 34.98 156.5 34.38 156.5 33.7C156.5 33.02 156.636 32.424 156.908 31.912C157.18 31.4 157.56 31.008 158.048 30.736C158.544 30.456 159.112 30.316 159.752 30.316C160.376 30.316 160.928 30.452 161.408 30.724C161.888 30.996 162.256 31.372 162.512 31.852C162.776 32.324 162.908 32.86 162.908 33.46ZM161.78 33.232C161.78 32.816 161.688 32.46 161.504 32.164C161.32 31.86 161.068 31.632 160.748 31.48C160.436 31.32 160.088 31.24 159.704 31.24C159.152 31.24 158.68 31.416 158.288 31.768C157.904 32.12 157.684 32.608 157.628 33.232H161.78ZM172.258 30.304C172.77 30.304 173.226 30.412 173.626 30.628C174.026 30.836 174.342 31.152 174.574 31.576C174.806 32 174.922 32.516 174.922 33.124V37H173.842V33.28C173.842 32.624 173.678 32.124 173.35 31.78C173.03 31.428 172.594 31.252 172.042 31.252C171.474 31.252 171.022 31.436 170.686 31.804C170.35 32.164 170.182 32.688 170.182 33.376V37H169.102V33.28C169.102 32.624 168.938 32.124 168.61 31.78C168.29 31.428 167.854 31.252 167.302 31.252C166.734 31.252 166.282 31.436 165.946 31.804C165.61 32.164 165.442 32.688 165.442 33.376V37H164.35V30.424H165.442V31.372C165.658 31.028 165.946 30.764 166.306 30.58C166.674 30.396 167.078 30.304 167.518 30.304C168.07 30.304 168.558 30.428 168.982 30.676C169.406 30.924 169.722 31.288 169.93 31.768C170.114 31.304 170.418 30.944 170.842 30.688C171.266 30.432 171.738 30.304 172.258 30.304ZM177.805 31.648C178.029 31.256 178.357 30.936 178.789 30.688C179.221 30.44 179.713 30.316 180.265 30.316C180.857 30.316 181.389 30.456 181.861 30.736C182.333 31.016 182.705 31.412 182.977 31.924C183.249 32.428 183.385 33.016 183.385 33.688C183.385 34.352 183.249 34.944 182.977 35.464C182.705 35.984 182.329 36.388 181.849 36.676C181.377 36.964 180.849 37.108 180.265 37.108C179.697 37.108 179.197 36.984 178.765 36.736C178.341 36.488 178.021 36.172 177.805 35.788V37H176.713V28.12H177.805V31.648ZM182.269 33.688C182.269 33.192 182.169 32.76 181.969 32.392C181.769 32.024 181.497 31.744 181.153 31.552C180.817 31.36 180.445 31.264 180.037 31.264C179.637 31.264 179.265 31.364 178.921 31.564C178.585 31.756 178.313 32.04 178.105 32.416C177.905 32.784 177.805 33.212 177.805 33.7C177.805 34.196 177.905 34.632 178.105 35.008C178.313 35.376 178.585 35.66 178.921 35.86C179.265 36.052 179.637 36.148 180.037 36.148C180.445 36.148 180.817 36.052 181.153 35.86C181.497 35.66 181.769 35.376 181.969 35.008C182.169 34.632 182.269 34.192 182.269 33.688ZM190.822 33.46C190.822 33.668 190.81 33.888 190.786 34.12H185.53C185.57 34.768 185.79 35.276 186.19 35.644C186.598 36.004 187.09 36.184 187.666 36.184C188.138 36.184 188.53 36.076 188.842 35.86C189.162 35.636 189.386 35.34 189.514 34.972H190.69C190.514 35.604 190.162 36.12 189.634 36.52C189.106 36.912 188.45 37.108 187.666 37.108C187.042 37.108 186.482 36.968 185.986 36.688C185.498 36.408 185.114 36.012 184.834 35.5C184.554 34.98 184.414 34.38 184.414 33.7C184.414 33.02 184.55 32.424 184.822 31.912C185.094 31.4 185.474 31.008 185.962 30.736C186.458 30.456 187.026 30.316 187.666 30.316C188.29 30.316 188.842 30.452 189.322 30.724C189.802 30.996 190.17 31.372 190.426 31.852C190.69 32.324 190.822 32.86 190.822 33.46ZM189.694 33.232C189.694 32.816 189.602 32.46 189.418 32.164C189.234 31.86 188.982 31.632 188.662 31.48C188.35 31.32 188.002 31.24 187.618 31.24C187.066 31.24 186.594 31.416 186.202 31.768C185.818 32.12 185.598 32.608 185.542 33.232H189.694ZM193.356 31.492C193.548 31.116 193.82 30.824 194.172 30.616C194.532 30.408 194.968 30.304 195.48 30.304V31.432H195.192C193.968 31.432 193.356 32.096 193.356 33.424V37H192.264V30.424H193.356V31.492ZM206.276 31.06C206.044 30.572 205.708 30.196 205.268 29.932C204.828 29.66 204.316 29.524 203.732 29.524C203.148 29.524 202.62 29.66 202.148 29.932C201.684 30.196 201.316 30.58 201.044 31.084C200.78 31.58 200.648 32.156 200.648 32.812C200.648 33.468 200.78 34.044 201.044 34.54C201.316 35.036 201.684 35.42 202.148 35.692C202.62 35.956 203.148 36.088 203.732 36.088C204.548 36.088 205.22 35.844 205.748 35.356C206.276 34.868 206.584 34.208 206.672 33.376H203.336V32.488H207.836V33.328C207.772 34.016 207.556 34.648 207.188 35.224C206.82 35.792 206.336 36.244 205.736 36.58C205.136 36.908 204.468 37.072 203.732 37.072C202.956 37.072 202.248 36.892 201.608 36.532C200.968 36.164 200.46 35.656 200.084 35.008C199.716 34.36 199.532 33.628 199.532 32.812C199.532 31.996 199.716 31.264 200.084 30.616C200.46 29.96 200.968 29.452 201.608 29.092C202.248 28.724 202.956 28.54 203.732 28.54C204.62 28.54 205.404 28.76 206.084 29.2C206.772 29.64 207.272 30.26 207.584 31.06H206.276ZM212.147 37.108C211.531 37.108 210.971 36.968 210.467 36.688C209.971 36.408 209.579 36.012 209.291 35.5C209.011 34.98 208.871 34.38 208.871 33.7C208.871 33.028 209.015 32.436 209.303 31.924C209.599 31.404 209.999 31.008 210.503 30.736C211.007 30.456 211.571 30.316 212.195 30.316C212.819 30.316 213.383 30.456 213.887 30.736C214.391 31.008 214.787 31.4 215.075 31.912C215.371 32.424 215.519 33.02 215.519 33.7C215.519 34.38 215.367 34.98 215.063 35.5C214.767 36.012 214.363 36.408 213.851 36.688C213.339 36.968 212.771 37.108 212.147 37.108ZM212.147 36.148C212.539 36.148 212.907 36.056 213.251 35.872C213.595 35.688 213.871 35.412 214.079 35.044C214.295 34.676 214.403 34.228 214.403 33.7C214.403 33.172 214.299 32.724 214.091 32.356C213.883 31.988 213.611 31.716 213.275 31.54C212.939 31.356 212.575 31.264 212.183 31.264C211.783 31.264 211.415 31.356 211.079 31.54C210.751 31.716 210.487 31.988 210.287 32.356C210.087 32.724 209.987 33.172 209.987 33.7C209.987 34.236 210.083 34.688 210.275 35.056C210.475 35.424 210.739 35.7 211.067 35.884C211.395 36.06 211.755 36.148 212.147 36.148ZM218.047 28.12V37H216.955V28.12H218.047ZM219.5 33.688C219.5 33.016 219.636 32.428 219.908 31.924C220.18 31.412 220.552 31.016 221.024 30.736C221.504 30.456 222.04 30.316 222.632 30.316C223.144 30.316 223.62 30.436 224.06 30.676C224.5 30.908 224.836 31.216 225.068 31.6V28.12H226.172V37H225.068V35.764C224.852 36.156 224.532 36.48 224.108 36.736C223.684 36.984 223.188 37.108 222.62 37.108C222.036 37.108 221.504 36.964 221.024 36.676C220.552 36.388 220.18 35.984 219.908 35.464C219.636 34.944 219.5 34.352 219.5 33.688ZM225.068 33.7C225.068 33.204 224.968 32.772 224.768 32.404C224.568 32.036 224.296 31.756 223.952 31.564C223.616 31.364 223.244 31.264 222.836 31.264C222.428 31.264 222.056 31.36 221.72 31.552C221.384 31.744 221.116 32.024 220.916 32.392C220.716 32.76 220.616 33.192 220.616 33.688C220.616 34.192 220.716 34.632 220.916 35.008C221.116 35.376 221.384 35.66 221.72 35.86C222.056 36.052 222.428 36.148 222.836 36.148C223.244 36.148 223.616 36.052 223.952 35.86C224.296 35.66 224.568 35.376 224.768 35.008C224.968 34.632 225.068 34.196 225.068 33.7Z" fill="black" fill-opacity="0.2"/>
<path d="M175.5 55L179.397 47.5H171.603L175.5 55Z" fill="#ACACAC"/>
</svg>
