<svg width="253" height="55" viewBox="0 0 253 55" fill="none" xmlns="http://www.w3.org/2000/svg">
<rect x="0.5" y="0.5" width="252" height="47" rx="19.5" fill="#F5F5F5"/>
<rect x="0.5" y="0.5" width="252" height="47" rx="19.5" stroke="#ACACAC"/>
<path d="M34.9079 10.636V11.524H32.6279V19H31.5359V11.524H29.2439V10.636H34.9079ZM37.3441 13.492C37.5361 13.116 37.8081 12.824 38.1601 12.616C38.5201 12.408 38.9561 12.304 39.4681 12.304V13.432H39.1801C37.9561 13.432 37.3441 14.096 37.3441 15.424V19H36.2521V12.424H37.3441V13.492ZM40.3207 15.688C40.3207 15.016 40.4567 14.428 40.7287 13.924C41.0007 13.412 41.3727 13.016 41.8447 12.736C42.3247 12.456 42.8567 12.316 43.4407 12.316C44.0167 12.316 44.5167 12.44 44.9407 12.688C45.3647 12.936 45.6807 13.248 45.8887 13.624V12.424H46.9927V19H45.8887V17.776C45.6727 18.16 45.3487 18.48 44.9167 18.736C44.4927 18.984 43.9967 19.108 43.4287 19.108C42.8447 19.108 42.3167 18.964 41.8447 18.676C41.3727 18.388 41.0007 17.984 40.7287 17.464C40.4567 16.944 40.3207 16.352 40.3207 15.688ZM45.8887 15.7C45.8887 15.204 45.7887 14.772 45.5887 14.404C45.3887 14.036 45.1167 13.756 44.7727 13.564C44.4367 13.364 44.0647 13.264 43.6567 13.264C43.2487 13.264 42.8767 13.36 42.5407 13.552C42.2047 13.744 41.9367 14.024 41.7367 14.392C41.5367 14.76 41.4367 15.192 41.4367 15.688C41.4367 16.192 41.5367 16.632 41.7367 17.008C41.9367 17.376 42.2047 17.66 42.5407 17.86C42.8767 18.052 43.2487 18.148 43.6567 18.148C44.0647 18.148 44.4367 18.052 44.7727 17.86C45.1167 17.66 45.3887 17.376 45.5887 17.008C45.7887 16.632 45.8887 16.196 45.8887 15.7ZM52.0421 12.304C52.8421 12.304 53.4901 12.548 53.9861 13.036C54.4821 13.516 54.7301 14.212 54.7301 15.124V19H53.6501V15.28C53.6501 14.624 53.4861 14.124 53.1581 13.78C52.8301 13.428 52.3821 13.252 51.8141 13.252C51.2381 13.252 50.7781 13.432 50.4341 13.792C50.0981 14.152 49.9301 14.676 49.9301 15.364V19H48.8381V12.424H49.9301V13.36C50.1461 13.024 50.4381 12.764 50.8061 12.58C51.1821 12.396 51.5941 12.304 52.0421 12.304ZM58.8418 19.108C58.3378 19.108 57.8858 19.024 57.4858 18.856C57.0858 18.68 56.7698 18.44 56.5378 18.136C56.3058 17.824 56.1778 17.468 56.1538 17.068H57.2818C57.3138 17.396 57.4658 17.664 57.7378 17.872C58.0178 18.08 58.3818 18.184 58.8298 18.184C59.2458 18.184 59.5738 18.092 59.8138 17.908C60.0538 17.724 60.1738 17.492 60.1738 17.212C60.1738 16.924 60.0458 16.712 59.7898 16.576C59.5338 16.432 59.1378 16.292 58.6018 16.156C58.1138 16.028 57.7138 15.9 57.4018 15.772C57.0978 15.636 56.8338 15.44 56.6098 15.184C56.3938 14.92 56.2858 14.576 56.2858 14.152C56.2858 13.816 56.3858 13.508 56.5858 13.228C56.7858 12.948 57.0698 12.728 57.4378 12.568C57.8058 12.4 58.2258 12.316 58.6978 12.316C59.4258 12.316 60.0138 12.5 60.4618 12.868C60.9098 13.236 61.1498 13.74 61.1818 14.38H60.0898C60.0658 14.036 59.9258 13.76 59.6698 13.552C59.4218 13.344 59.0858 13.24 58.6618 13.24C58.2698 13.24 57.9578 13.324 57.7258 13.492C57.4938 13.66 57.3778 13.88 57.3778 14.152C57.3778 14.368 57.4458 14.548 57.5818 14.692C57.7258 14.828 57.9018 14.94 58.1098 15.028C58.3258 15.108 58.6218 15.2 58.9978 15.304C59.4698 15.432 59.8538 15.56 60.1498 15.688C60.4458 15.808 60.6978 15.992 60.9058 16.24C61.1218 16.488 61.2338 16.812 61.2418 17.212C61.2418 17.572 61.1418 17.896 60.9418 18.184C60.7418 18.472 60.4578 18.7 60.0898 18.868C59.7298 19.028 59.3138 19.108 58.8418 19.108ZM62.3754 15.688C62.3754 15.016 62.5114 14.428 62.7834 13.924C63.0554 13.412 63.4274 13.016 63.8994 12.736C64.3794 12.456 64.9114 12.316 65.4954 12.316C66.0714 12.316 66.5714 12.44 66.9954 12.688C67.4194 12.936 67.7354 13.248 67.9434 13.624V12.424H69.0474V19H67.9434V17.776C67.7274 18.16 67.4034 18.48 66.9714 18.736C66.5474 18.984 66.0514 19.108 65.4834 19.108C64.8994 19.108 64.3714 18.964 63.8994 18.676C63.4274 18.388 63.0554 17.984 62.7834 17.464C62.5114 16.944 62.3754 16.352 62.3754 15.688ZM67.9434 15.7C67.9434 15.204 67.8434 14.772 67.6434 14.404C67.4434 14.036 67.1714 13.756 66.8274 13.564C66.4914 13.364 66.1194 13.264 65.7114 13.264C65.3034 13.264 64.9314 13.36 64.5954 13.552C64.2594 13.744 63.9914 14.024 63.7914 14.392C63.5914 14.76 63.4914 15.192 63.4914 15.688C63.4914 16.192 63.5914 16.632 63.7914 17.008C63.9914 17.376 64.2594 17.66 64.5954 17.86C64.9314 18.052 65.3034 18.148 65.7114 18.148C66.1194 18.148 66.4914 18.052 66.8274 17.86C67.1714 17.66 67.4434 17.376 67.6434 17.008C67.8434 16.632 67.9434 16.196 67.9434 15.7ZM74.5648 19L71.9848 16.096V19H70.8928V10.12H71.9848V15.34L74.5168 12.424H76.0408L72.9448 15.7L76.0528 19H74.5648ZM79.3965 19.108C78.8925 19.108 78.4405 19.024 78.0405 18.856C77.6405 18.68 77.3245 18.44 77.0925 18.136C76.8605 17.824 76.7325 17.468 76.7085 17.068H77.8365C77.8685 17.396 78.0205 17.664 78.2925 17.872C78.5725 18.08 78.9365 18.184 79.3845 18.184C79.8005 18.184 80.1285 18.092 80.3685 17.908C80.6085 17.724 80.7285 17.492 80.7285 17.212C80.7285 16.924 80.6005 16.712 80.3445 16.576C80.0885 16.432 79.6925 16.292 79.1565 16.156C78.6685 16.028 78.2685 15.9 77.9565 15.772C77.6525 15.636 77.3885 15.44 77.1645 15.184C76.9485 14.92 76.8405 14.576 76.8405 14.152C76.8405 13.816 76.9405 13.508 77.1405 13.228C77.3405 12.948 77.6245 12.728 77.9925 12.568C78.3605 12.4 78.7805 12.316 79.2525 12.316C79.9805 12.316 80.5685 12.5 81.0165 12.868C81.4645 13.236 81.7045 13.74 81.7365 14.38H80.6445C80.6205 14.036 80.4805 13.76 80.2245 13.552C79.9765 13.344 79.6405 13.24 79.2165 13.24C78.8245 13.24 78.5125 13.324 78.2805 13.492C78.0485 13.66 77.9325 13.88 77.9325 14.152C77.9325 14.368 78.0005 14.548 78.1365 14.692C78.2805 14.828 78.4565 14.94 78.6645 15.028C78.8805 15.108 79.1765 15.2 79.5525 15.304C80.0245 15.432 80.4085 15.56 80.7045 15.688C81.0005 15.808 81.2525 15.992 81.4605 16.24C81.6765 16.488 81.7885 16.812 81.7965 17.212C81.7965 17.572 81.6965 17.896 81.4965 18.184C81.2965 18.472 81.0125 18.7 80.6445 18.868C80.2845 19.028 79.8685 19.108 79.3965 19.108ZM83.9021 11.356C83.6941 11.356 83.5181 11.284 83.3741 11.14C83.2301 10.996 83.1581 10.82 83.1581 10.612C83.1581 10.404 83.2301 10.228 83.3741 10.084C83.5181 9.94 83.6941 9.868 83.9021 9.868C84.1021 9.868 84.2701 9.94 84.4061 10.084C84.5501 10.228 84.6221 10.404 84.6221 10.612C84.6221 10.82 84.5501 10.996 84.4061 11.14C84.2701 11.284 84.1021 11.356 83.9021 11.356ZM84.4301 12.424V19H83.3381V12.424H84.4301ZM91.8184 19.108C91.3144 19.108 90.8624 19.024 90.4624 18.856C90.0624 18.68 89.7464 18.44 89.5144 18.136C89.2824 17.824 89.1544 17.468 89.1304 17.068H90.2584C90.2904 17.396 90.4424 17.664 90.7144 17.872C90.9944 18.08 91.3584 18.184 91.8064 18.184C92.2224 18.184 92.5504 18.092 92.7904 17.908C93.0304 17.724 93.1504 17.492 93.1504 17.212C93.1504 16.924 93.0224 16.712 92.7664 16.576C92.5104 16.432 92.1144 16.292 91.5784 16.156C91.0904 16.028 90.6904 15.9 90.3784 15.772C90.0744 15.636 89.8104 15.44 89.5864 15.184C89.3704 14.92 89.2624 14.576 89.2624 14.152C89.2624 13.816 89.3624 13.508 89.5624 13.228C89.7624 12.948 90.0464 12.728 90.4144 12.568C90.7824 12.4 91.2024 12.316 91.6744 12.316C92.4024 12.316 92.9904 12.5 93.4384 12.868C93.8864 13.236 94.1264 13.74 94.1584 14.38H93.0664C93.0424 14.036 92.9024 13.76 92.6464 13.552C92.3984 13.344 92.0624 13.24 91.6384 13.24C91.2464 13.24 90.9344 13.324 90.7024 13.492C90.4704 13.66 90.3544 13.88 90.3544 14.152C90.3544 14.368 90.4224 14.548 90.5584 14.692C90.7024 14.828 90.8784 14.94 91.0864 15.028C91.3024 15.108 91.5984 15.2 91.9744 15.304C92.4464 15.432 92.8304 15.56 93.1264 15.688C93.4224 15.808 93.6744 15.992 93.8824 16.24C94.0984 16.488 94.2104 16.812 94.2184 17.212C94.2184 17.572 94.1184 17.896 93.9184 18.184C93.7184 18.472 93.4344 18.7 93.0664 18.868C92.7064 19.028 92.2904 19.108 91.8184 19.108ZM95.3519 15.688C95.3519 15.016 95.4879 14.428 95.7599 13.924C96.0319 13.412 96.4039 13.016 96.8759 12.736C97.3559 12.456 97.8879 12.316 98.4719 12.316C99.0479 12.316 99.5479 12.44 99.9719 12.688C100.396 12.936 100.712 13.248 100.92 13.624V12.424H102.024V19H100.92V17.776C100.704 18.16 100.38 18.48 99.9479 18.736C99.5239 18.984 99.0279 19.108 98.4599 19.108C97.8759 19.108 97.3479 18.964 96.8759 18.676C96.4039 18.388 96.0319 17.984 95.7599 17.464C95.4879 16.944 95.3519 16.352 95.3519 15.688ZM100.92 15.7C100.92 15.204 100.82 14.772 100.62 14.404C100.42 14.036 100.148 13.756 99.8039 13.564C99.4679 13.364 99.0959 13.264 98.6879 13.264C98.2799 13.264 97.9079 13.36 97.5719 13.552C97.2359 13.744 96.9679 14.024 96.7679 14.392C96.5679 14.76 96.4679 15.192 96.4679 15.688C96.4679 16.192 96.5679 16.632 96.7679 17.008C96.9679 17.376 97.2359 17.66 97.5719 17.86C97.9079 18.052 98.2799 18.148 98.6879 18.148C99.0959 18.148 99.4679 18.052 99.8039 17.86C100.148 17.66 100.42 17.376 100.62 17.008C100.82 16.632 100.92 16.196 100.92 15.7ZM111.777 12.304C112.289 12.304 112.745 12.412 113.145 12.628C113.545 12.836 113.861 13.152 114.093 13.576C114.325 14 114.441 14.516 114.441 15.124V19H113.361V15.28C113.361 14.624 113.197 14.124 112.869 13.78C112.549 13.428 112.113 13.252 111.561 13.252C110.993 13.252 110.541 13.436 110.205 13.804C109.869 14.164 109.701 14.688 109.701 15.376V19H108.621V15.28C108.621 14.624 108.457 14.124 108.129 13.78C107.809 13.428 107.373 13.252 106.821 13.252C106.253 13.252 105.801 13.436 105.465 13.804C105.129 14.164 104.961 14.688 104.961 15.376V19H103.869V12.424H104.961V13.372C105.177 13.028 105.465 12.764 105.825 12.58C106.193 12.396 106.597 12.304 107.037 12.304C107.589 12.304 108.077 12.428 108.501 12.676C108.925 12.924 109.241 13.288 109.449 13.768C109.633 13.304 109.937 12.944 110.361 12.688C110.785 12.432 111.257 12.304 111.777 12.304ZM117.325 13.636C117.541 13.26 117.861 12.948 118.285 12.7C118.717 12.444 119.217 12.316 119.785 12.316C120.369 12.316 120.897 12.456 121.369 12.736C121.849 13.016 122.225 13.412 122.497 13.924C122.769 14.428 122.905 15.016 122.905 15.688C122.905 16.352 122.769 16.944 122.497 17.464C122.225 17.984 121.849 18.388 121.369 18.676C120.897 18.964 120.369 19.108 119.785 19.108C119.225 19.108 118.729 18.984 118.297 18.736C117.873 18.48 117.549 18.164 117.325 17.788V22.12H116.233V12.424H117.325V13.636ZM121.789 15.688C121.789 15.192 121.689 14.76 121.489 14.392C121.289 14.024 121.017 13.744 120.673 13.552C120.337 13.36 119.965 13.264 119.557 13.264C119.157 13.264 118.785 13.364 118.441 13.564C118.105 13.756 117.833 14.04 117.625 14.416C117.425 14.784 117.325 15.212 117.325 15.7C117.325 16.196 117.425 16.632 117.625 17.008C117.833 17.376 118.105 17.66 118.441 17.86C118.785 18.052 119.157 18.148 119.557 18.148C119.965 18.148 120.337 18.052 120.673 17.86C121.017 17.66 121.289 17.376 121.489 17.008C121.689 16.632 121.789 16.192 121.789 15.688ZM123.934 15.688C123.934 15.016 124.07 14.428 124.342 13.924C124.614 13.412 124.986 13.016 125.458 12.736C125.938 12.456 126.47 12.316 127.054 12.316C127.63 12.316 128.13 12.44 128.554 12.688C128.978 12.936 129.294 13.248 129.502 13.624V12.424H130.606V19H129.502V17.776C129.286 18.16 128.962 18.48 128.53 18.736C128.106 18.984 127.61 19.108 127.042 19.108C126.458 19.108 125.93 18.964 125.458 18.676C124.986 18.388 124.614 17.984 124.342 17.464C124.07 16.944 123.934 16.352 123.934 15.688ZM129.502 15.7C129.502 15.204 129.402 14.772 129.202 14.404C129.002 14.036 128.73 13.756 128.386 13.564C128.05 13.364 127.678 13.264 127.27 13.264C126.862 13.264 126.49 13.36 126.154 13.552C125.818 13.744 125.55 14.024 125.35 14.392C125.15 14.76 125.05 15.192 125.05 15.688C125.05 16.192 125.15 16.632 125.35 17.008C125.55 17.376 125.818 17.66 126.154 17.86C126.49 18.052 126.862 18.148 127.27 18.148C127.678 18.148 128.05 18.052 128.386 17.86C128.73 17.66 129.002 17.376 129.202 17.008C129.402 16.632 129.502 16.196 129.502 15.7ZM133.015 11.356C132.807 11.356 132.631 11.284 132.487 11.14C132.343 10.996 132.271 10.82 132.271 10.612C132.271 10.404 132.343 10.228 132.487 10.084C132.631 9.94 132.807 9.868 133.015 9.868C133.215 9.868 133.383 9.94 133.519 10.084C133.663 10.228 133.735 10.404 133.735 10.612C133.735 10.82 133.663 10.996 133.519 11.14C133.383 11.284 133.215 11.356 133.015 11.356ZM133.543 12.424V19H132.451V12.424H133.543ZM143.008 19L141.016 15.58H139.696V19H138.604V10.636H141.304C141.936 10.636 142.468 10.744 142.9 10.96C143.34 11.176 143.668 11.468 143.884 11.836C144.1 12.204 144.208 12.624 144.208 13.096C144.208 13.672 144.04 14.18 143.704 14.62C143.376 15.06 142.88 15.352 142.216 15.496L144.316 19H143.008ZM139.696 14.704H141.304C141.896 14.704 142.34 14.56 142.636 14.272C142.932 13.976 143.08 13.584 143.08 13.096C143.08 12.6 142.932 12.216 142.636 11.944C142.348 11.672 141.904 11.536 141.304 11.536H139.696V14.704ZM146.996 13.636C147.212 13.26 147.532 12.948 147.956 12.7C148.388 12.444 148.888 12.316 149.456 12.316C150.04 12.316 150.568 12.456 151.04 12.736C151.52 13.016 151.896 13.412 152.168 13.924C152.44 14.428 152.576 15.016 152.576 15.688C152.576 16.352 152.44 16.944 152.168 17.464C151.896 17.984 151.52 18.388 151.04 18.676C150.568 18.964 150.04 19.108 149.456 19.108C148.896 19.108 148.4 18.984 147.968 18.736C147.544 18.48 147.22 18.164 146.996 17.788V22.12H145.904V12.424H146.996V13.636ZM151.46 15.688C151.46 15.192 151.36 14.76 151.16 14.392C150.96 14.024 150.688 13.744 150.344 13.552C150.008 13.36 149.636 13.264 149.228 13.264C148.828 13.264 148.456 13.364 148.112 13.564C147.776 13.756 147.504 14.04 147.296 14.416C147.096 14.784 146.996 15.212 146.996 15.7C146.996 16.196 147.096 16.632 147.296 17.008C147.504 17.376 147.776 17.66 148.112 17.86C148.456 18.052 148.828 18.148 149.228 18.148C149.636 18.148 150.008 18.052 150.344 17.86C150.688 17.66 150.96 17.376 151.16 17.008C151.36 16.632 151.46 16.192 151.46 15.688ZM154.362 19.072C154.154 19.072 153.978 19 153.834 18.856C153.69 18.712 153.618 18.536 153.618 18.328C153.618 18.12 153.69 17.944 153.834 17.8C153.978 17.656 154.154 17.584 154.362 17.584C154.562 17.584 154.73 17.656 154.866 17.8C155.01 17.944 155.082 18.12 155.082 18.328C155.082 18.536 155.01 18.712 154.866 18.856C154.73 19 154.562 19.072 154.362 19.072ZM161.137 14.488C160.689 14.312 160.345 14.056 160.105 13.72C159.865 13.384 159.745 12.976 159.745 12.496C159.745 12.064 159.853 11.676 160.069 11.332C160.285 10.98 160.605 10.704 161.029 10.504C161.461 10.296 161.981 10.192 162.589 10.192C163.197 10.192 163.713 10.296 164.137 10.504C164.569 10.704 164.893 10.98 165.109 11.332C165.333 11.676 165.445 12.064 165.445 12.496C165.445 12.96 165.321 13.368 165.073 13.72C164.825 14.064 164.485 14.32 164.053 14.488C164.549 14.64 164.941 14.908 165.229 15.292C165.525 15.668 165.673 16.124 165.673 16.66C165.673 17.18 165.545 17.636 165.289 18.028C165.033 18.412 164.669 18.712 164.197 18.928C163.733 19.136 163.197 19.24 162.589 19.24C161.981 19.24 161.445 19.136 160.981 18.928C160.525 18.712 160.169 18.412 159.913 18.028C159.657 17.636 159.529 17.18 159.529 16.66C159.529 16.124 159.673 15.664 159.961 15.28C160.249 14.896 160.641 14.632 161.137 14.488ZM164.389 12.628C164.389 12.14 164.229 11.764 163.909 11.5C163.589 11.236 163.149 11.104 162.589 11.104C162.037 11.104 161.601 11.236 161.281 11.5C160.961 11.764 160.801 12.144 160.801 12.64C160.801 13.088 160.965 13.448 161.293 13.72C161.629 13.992 162.061 14.128 162.589 14.128C163.125 14.128 163.557 13.992 163.885 13.72C164.221 13.44 164.389 13.076 164.389 12.628ZM162.589 14.968C161.997 14.968 161.513 15.108 161.137 15.388C160.761 15.66 160.573 16.072 160.573 16.624C160.573 17.136 160.753 17.548 161.113 17.86C161.481 18.172 161.973 18.328 162.589 18.328C163.205 18.328 163.693 18.172 164.053 17.86C164.413 17.548 164.593 17.136 164.593 16.624C164.593 16.088 164.409 15.68 164.041 15.4C163.673 15.112 163.189 14.968 162.589 14.968ZM167.123 14.572C167.123 13.196 167.347 12.124 167.795 11.356C168.243 10.58 169.027 10.192 170.147 10.192C171.259 10.192 172.039 10.58 172.487 11.356C172.935 12.124 173.159 13.196 173.159 14.572C173.159 15.972 172.935 17.06 172.487 17.836C172.039 18.612 171.259 19 170.147 19C169.027 19 168.243 18.612 167.795 17.836C167.347 17.06 167.123 15.972 167.123 14.572ZM172.079 14.572C172.079 13.876 172.031 13.288 171.935 12.808C171.847 12.32 171.659 11.928 171.371 11.632C171.091 11.336 170.683 11.188 170.147 11.188C169.603 11.188 169.187 11.336 168.899 11.632C168.619 11.928 168.431 12.32 168.335 12.808C168.247 13.288 168.203 13.876 168.203 14.572C168.203 15.292 168.247 15.896 168.335 16.384C168.431 16.872 168.619 17.264 168.899 17.56C169.187 17.856 169.603 18.004 170.147 18.004C170.683 18.004 171.091 17.856 171.371 17.56C171.659 17.264 171.847 16.872 171.935 16.384C172.031 15.896 172.079 15.292 172.079 14.572ZM175.186 19.072C174.978 19.072 174.802 19 174.658 18.856C174.514 18.712 174.442 18.536 174.442 18.328C174.442 18.12 174.514 17.944 174.658 17.8C174.802 17.656 174.978 17.584 175.186 17.584C175.386 17.584 175.554 17.656 175.69 17.8C175.834 17.944 175.906 18.12 175.906 18.328C175.906 18.536 175.834 18.712 175.69 18.856C175.554 19 175.386 19.072 175.186 19.072ZM177.178 14.572C177.178 13.196 177.402 12.124 177.85 11.356C178.298 10.58 179.082 10.192 180.202 10.192C181.314 10.192 182.094 10.58 182.542 11.356C182.99 12.124 183.214 13.196 183.214 14.572C183.214 15.972 182.99 17.06 182.542 17.836C182.094 18.612 181.314 19 180.202 19C179.082 19 178.298 18.612 177.85 17.836C177.402 17.06 177.178 15.972 177.178 14.572ZM182.134 14.572C182.134 13.876 182.086 13.288 181.99 12.808C181.902 12.32 181.714 11.928 181.426 11.632C181.146 11.336 180.738 11.188 180.202 11.188C179.658 11.188 179.242 11.336 178.954 11.632C178.674 11.928 178.486 12.32 178.39 12.808C178.302 13.288 178.258 13.876 178.258 14.572C178.258 15.292 178.302 15.896 178.39 16.384C178.486 16.872 178.674 17.264 178.954 17.56C179.242 17.856 179.658 18.004 180.202 18.004C180.738 18.004 181.146 17.856 181.426 17.56C181.714 17.264 181.902 16.872 181.99 16.384C182.086 15.896 182.134 15.292 182.134 14.572ZM184.713 14.572C184.713 13.196 184.937 12.124 185.385 11.356C185.833 10.58 186.617 10.192 187.737 10.192C188.849 10.192 189.629 10.58 190.077 11.356C190.525 12.124 190.749 13.196 190.749 14.572C190.749 15.972 190.525 17.06 190.077 17.836C189.629 18.612 188.849 19 187.737 19C186.617 19 185.833 18.612 185.385 17.836C184.937 17.06 184.713 15.972 184.713 14.572ZM189.669 14.572C189.669 13.876 189.621 13.288 189.525 12.808C189.437 12.32 189.249 11.928 188.961 11.632C188.681 11.336 188.273 11.188 187.737 11.188C187.193 11.188 186.777 11.336 186.489 11.632C186.209 11.928 186.021 12.32 185.925 12.808C185.837 13.288 185.793 13.876 185.793 14.572C185.793 15.292 185.837 15.896 185.925 16.384C186.021 16.872 186.209 17.264 186.489 17.56C186.777 17.856 187.193 18.004 187.737 18.004C188.273 18.004 188.681 17.856 188.961 17.56C189.249 17.264 189.437 16.872 189.525 16.384C189.621 15.896 189.669 15.292 189.669 14.572ZM192.248 14.572C192.248 13.196 192.472 12.124 192.92 11.356C193.368 10.58 194.152 10.192 195.272 10.192C196.384 10.192 197.164 10.58 197.612 11.356C198.06 12.124 198.284 13.196 198.284 14.572C198.284 15.972 198.06 17.06 197.612 17.836C197.164 18.612 196.384 19 195.272 19C194.152 19 193.368 18.612 192.92 17.836C192.472 17.06 192.248 15.972 192.248 14.572ZM197.204 14.572C197.204 13.876 197.156 13.288 197.06 12.808C196.972 12.32 196.784 11.928 196.496 11.632C196.216 11.336 195.808 11.188 195.272 11.188C194.728 11.188 194.312 11.336 194.024 11.632C193.744 11.928 193.556 12.32 193.46 12.808C193.372 13.288 193.328 13.876 193.328 14.572C193.328 15.292 193.372 15.896 193.46 16.384C193.556 16.872 193.744 17.264 194.024 17.56C194.312 17.856 194.728 18.004 195.272 18.004C195.808 18.004 196.216 17.856 196.496 17.56C196.784 17.264 196.972 16.872 197.06 16.384C197.156 15.896 197.204 15.292 197.204 14.572ZM200.311 19.072C200.103 19.072 199.927 19 199.783 18.856C199.639 18.712 199.567 18.536 199.567 18.328C199.567 18.12 199.639 17.944 199.783 17.8C199.927 17.656 200.103 17.584 200.311 17.584C200.511 17.584 200.679 17.656 200.815 17.8C200.959 17.944 201.031 18.12 201.031 18.328C201.031 18.536 200.959 18.712 200.815 18.856C200.679 19 200.511 19.072 200.311 19.072ZM202.303 14.572C202.303 13.196 202.527 12.124 202.975 11.356C203.423 10.58 204.207 10.192 205.327 10.192C206.439 10.192 207.219 10.58 207.667 11.356C208.115 12.124 208.339 13.196 208.339 14.572C208.339 15.972 208.115 17.06 207.667 17.836C207.219 18.612 206.439 19 205.327 19C204.207 19 203.423 18.612 202.975 17.836C202.527 17.06 202.303 15.972 202.303 14.572ZM207.259 14.572C207.259 13.876 207.211 13.288 207.115 12.808C207.027 12.32 206.839 11.928 206.551 11.632C206.271 11.336 205.863 11.188 205.327 11.188C204.783 11.188 204.367 11.336 204.079 11.632C203.799 11.928 203.611 12.32 203.515 12.808C203.427 13.288 203.383 13.876 203.383 14.572C203.383 15.292 203.427 15.896 203.515 16.384C203.611 16.872 203.799 17.264 204.079 17.56C204.367 17.856 204.783 18.004 205.327 18.004C205.863 18.004 206.271 17.856 206.551 17.56C206.839 17.264 207.027 16.872 207.115 16.384C207.211 15.896 207.259 15.292 207.259 14.572ZM209.838 14.572C209.838 13.196 210.062 12.124 210.51 11.356C210.958 10.58 211.742 10.192 212.862 10.192C213.974 10.192 214.754 10.58 215.202 11.356C215.65 12.124 215.874 13.196 215.874 14.572C215.874 15.972 215.65 17.06 215.202 17.836C214.754 18.612 213.974 19 212.862 19C211.742 19 210.958 18.612 210.51 17.836C210.062 17.06 209.838 15.972 209.838 14.572ZM214.794 14.572C214.794 13.876 214.746 13.288 214.65 12.808C214.562 12.32 214.374 11.928 214.086 11.632C213.806 11.336 213.398 11.188 212.862 11.188C212.318 11.188 211.902 11.336 211.614 11.632C211.334 11.928 211.146 12.32 211.05 12.808C210.962 13.288 210.918 13.876 210.918 14.572C210.918 15.292 210.962 15.896 211.05 16.384C211.146 16.872 211.334 17.264 211.614 17.56C211.902 17.856 212.318 18.004 212.862 18.004C213.398 18.004 213.806 17.856 214.086 17.56C214.374 17.264 214.562 16.872 214.65 16.384C214.746 15.896 214.794 15.292 214.794 14.572ZM217.373 14.572C217.373 13.196 217.597 12.124 218.045 11.356C218.493 10.58 219.277 10.192 220.397 10.192C221.509 10.192 222.289 10.58 222.737 11.356C223.185 12.124 223.409 13.196 223.409 14.572C223.409 15.972 223.185 17.06 222.737 17.836C222.289 18.612 221.509 19 220.397 19C219.277 19 218.493 18.612 218.045 17.836C217.597 17.06 217.373 15.972 217.373 14.572ZM222.329 14.572C222.329 13.876 222.281 13.288 222.185 12.808C222.097 12.32 221.909 11.928 221.621 11.632C221.341 11.336 220.933 11.188 220.397 11.188C219.853 11.188 219.437 11.336 219.149 11.632C218.869 11.928 218.681 12.32 218.585 12.808C218.497 13.288 218.453 13.876 218.453 14.572C218.453 15.292 218.497 15.896 218.585 16.384C218.681 16.872 218.869 17.264 219.149 17.56C219.437 17.856 219.853 18.004 220.397 18.004C220.933 18.004 221.341 17.856 221.621 17.56C221.909 17.264 222.097 16.872 222.185 16.384C222.281 15.896 222.329 15.292 222.329 14.572ZM30.9044 30.424V37H29.8124V36.028C29.6044 36.364 29.3124 36.628 28.9364 36.82C28.5684 37.004 28.1604 37.096 27.7124 37.096C27.2004 37.096 26.7404 36.992 26.3324 36.784C25.9244 36.568 25.6004 36.248 25.3604 35.824C25.1284 35.4 25.0124 34.884 25.0124 34.276V30.424H26.0924V34.132C26.0924 34.78 26.2564 35.28 26.5844 35.632C26.9124 35.976 27.3604 36.148 27.9284 36.148C28.5124 36.148 28.9724 35.968 29.3084 35.608C29.6444 35.248 29.8124 34.724 29.8124 34.036V30.424H30.9044ZM35.9522 30.304C36.7522 30.304 37.4002 30.548 37.8962 31.036C38.3922 31.516 38.6402 32.212 38.6402 33.124V37H37.5602V33.28C37.5602 32.624 37.3962 32.124 37.0682 31.78C36.7402 31.428 36.2922 31.252 35.7242 31.252C35.1482 31.252 34.6882 31.432 34.3442 31.792C34.0082 32.152 33.8402 32.676 33.8402 33.364V37H32.7482V30.424H33.8402V31.36C34.0562 31.024 34.3482 30.764 34.7162 30.58C35.0922 30.396 35.5042 30.304 35.9522 30.304ZM41.756 31.324V35.2C41.756 35.52 41.824 35.748 41.96 35.884C42.096 36.012 42.332 36.076 42.668 36.076H43.472V37H42.488C41.88 37 41.424 36.86 41.12 36.58C40.816 36.3 40.664 35.84 40.664 35.2V31.324H39.812V30.424H40.664V28.768H41.756V30.424H43.472V31.324H41.756ZM50.6271 30.424V37H49.5351V36.028C49.3271 36.364 49.0351 36.628 48.6591 36.82C48.2911 37.004 47.8831 37.096 47.4351 37.096C46.9231 37.096 46.4631 36.992 46.0551 36.784C45.6471 36.568 45.3231 36.248 45.0831 35.824C44.8511 35.4 44.7351 34.884 44.7351 34.276V30.424H45.8151V34.132C45.8151 34.78 45.9791 35.28 46.3071 35.632C46.6351 35.976 47.0831 36.148 47.6511 36.148C48.2351 36.148 48.6951 35.968 49.0311 35.608C49.3671 35.248 49.5351 34.724 49.5351 34.036V30.424H50.6271ZM56.1429 37L53.5629 34.096V37H52.4709V28.12H53.5629V33.34L56.0949 30.424H57.6189L54.5229 33.7L57.6309 37H56.1429ZM65.0499 30.304C65.8499 30.304 66.4979 30.548 66.9939 31.036C67.4899 31.516 67.7379 32.212 67.7379 33.124V37H66.6579V33.28C66.6579 32.624 66.4939 32.124 66.1659 31.78C65.8379 31.428 65.3899 31.252 64.8219 31.252C64.2459 31.252 63.7859 31.432 63.4419 31.792C63.1059 32.152 62.9379 32.676 62.9379 33.364V37H61.8459V30.424H62.9379V31.36C63.1539 31.024 63.4459 30.764 63.8139 30.58C64.1899 30.396 64.6019 30.304 65.0499 30.304ZM69.1137 33.688C69.1137 33.016 69.2497 32.428 69.5217 31.924C69.7937 31.412 70.1657 31.016 70.6377 30.736C71.1177 30.456 71.6497 30.316 72.2337 30.316C72.8097 30.316 73.3097 30.44 73.7337 30.688C74.1577 30.936 74.4737 31.248 74.6817 31.624V30.424H75.7857V37H74.6817V35.776C74.4657 36.16 74.1417 36.48 73.7097 36.736C73.2857 36.984 72.7897 37.108 72.2217 37.108C71.6377 37.108 71.1097 36.964 70.6377 36.676C70.1657 36.388 69.7937 35.984 69.5217 35.464C69.2497 34.944 69.1137 34.352 69.1137 33.688ZM74.6817 33.7C74.6817 33.204 74.5817 32.772 74.3817 32.404C74.1817 32.036 73.9097 31.756 73.5657 31.564C73.2297 31.364 72.8577 31.264 72.4497 31.264C72.0417 31.264 71.6697 31.36 71.3337 31.552C70.9977 31.744 70.7297 32.024 70.5297 32.392C70.3297 32.76 70.2297 33.192 70.2297 33.688C70.2297 34.192 70.3297 34.632 70.5297 35.008C70.7297 35.376 70.9977 35.66 71.3337 35.86C71.6697 36.052 72.0417 36.148 72.4497 36.148C72.8577 36.148 73.2297 36.052 73.5657 35.86C73.9097 35.66 74.1817 35.376 74.3817 35.008C74.5817 34.632 74.6817 34.196 74.6817 33.7ZM78.195 29.356C77.987 29.356 77.811 29.284 77.667 29.14C77.523 28.996 77.451 28.82 77.451 28.612C77.451 28.404 77.523 28.228 77.667 28.084C77.811 27.94 77.987 27.868 78.195 27.868C78.395 27.868 78.563 27.94 78.699 28.084C78.843 28.228 78.915 28.404 78.915 28.612C78.915 28.82 78.843 28.996 78.699 29.14C78.563 29.284 78.395 29.356 78.195 29.356ZM78.723 30.424V37H77.631V30.424H78.723ZM84.2562 37L81.6762 34.096V37H80.5842V28.12H81.6762V33.34L84.2082 30.424H85.7322L82.6362 33.7L85.7442 37H84.2562ZM97.8672 30.304C98.3792 30.304 98.8352 30.412 99.2352 30.628C99.6352 30.836 99.9512 31.152 100.183 31.576C100.415 32 100.531 32.516 100.531 33.124V37H99.4512V33.28C99.4512 32.624 99.2872 32.124 98.9592 31.78C98.6392 31.428 98.2032 31.252 97.6512 31.252C97.0832 31.252 96.6312 31.436 96.2952 31.804C95.9592 32.164 95.7912 32.688 95.7912 33.376V37H94.7112V33.28C94.7112 32.624 94.5472 32.124 94.2192 31.78C93.8992 31.428 93.4632 31.252 92.9112 31.252C92.3432 31.252 91.8912 31.436 91.5552 31.804C91.2192 32.164 91.0512 32.688 91.0512 33.376V37H89.9592V30.424H91.0512V31.372C91.2672 31.028 91.5552 30.764 91.9152 30.58C92.2832 30.396 92.6872 30.304 93.1272 30.304C93.6792 30.304 94.1672 30.428 94.5912 30.676C95.0152 30.924 95.3312 31.288 95.5392 31.768C95.7232 31.304 96.0272 30.944 96.4512 30.688C96.8752 30.432 97.3472 30.304 97.8672 30.304ZM108.322 33.46C108.322 33.668 108.31 33.888 108.286 34.12H103.03C103.07 34.768 103.29 35.276 103.69 35.644C104.098 36.004 104.59 36.184 105.166 36.184C105.638 36.184 106.03 36.076 106.342 35.86C106.662 35.636 106.886 35.34 107.014 34.972H108.19C108.014 35.604 107.662 36.12 107.134 36.52C106.606 36.912 105.95 37.108 105.166 37.108C104.542 37.108 103.982 36.968 103.486 36.688C102.998 36.408 102.614 36.012 102.334 35.5C102.054 34.98 101.914 34.38 101.914 33.7C101.914 33.02 102.05 32.424 102.322 31.912C102.594 31.4 102.974 31.008 103.462 30.736C103.958 30.456 104.526 30.316 105.166 30.316C105.79 30.316 106.342 30.452 106.822 30.724C107.302 30.996 107.67 31.372 107.926 31.852C108.19 32.324 108.322 32.86 108.322 33.46ZM107.194 33.232C107.194 32.816 107.102 32.46 106.918 32.164C106.734 31.86 106.482 31.632 106.162 31.48C105.85 31.32 105.502 31.24 105.118 31.24C104.566 31.24 104.094 31.416 103.702 31.768C103.318 32.12 103.098 32.608 103.042 33.232H107.194ZM112.968 30.304C113.768 30.304 114.416 30.548 114.912 31.036C115.408 31.516 115.656 32.212 115.656 33.124V37H114.576V33.28C114.576 32.624 114.412 32.124 114.084 31.78C113.756 31.428 113.308 31.252 112.74 31.252C112.164 31.252 111.704 31.432 111.36 31.792C111.024 32.152 110.856 32.676 110.856 33.364V37H109.764V30.424H110.856V31.36C111.072 31.024 111.364 30.764 111.732 30.58C112.108 30.396 112.52 30.304 112.968 30.304ZM118.028 29.356C117.82 29.356 117.644 29.284 117.5 29.14C117.364 28.996 117.296 28.82 117.296 28.612C117.296 28.404 117.364 28.228 117.5 28.084C117.644 27.94 117.82 27.868 118.028 27.868C118.236 27.868 118.408 27.94 118.544 28.084C118.688 28.228 118.76 28.404 118.76 28.612C118.76 28.82 118.688 28.996 118.544 29.14C118.408 29.284 118.236 29.356 118.028 29.356ZM118.568 38.428C118.568 39.012 118.42 39.44 118.124 39.712C117.828 39.984 117.396 40.12 116.828 40.12H116.192V39.196H116.648C116.952 39.196 117.164 39.136 117.284 39.016C117.412 38.896 117.476 38.692 117.476 38.404V30.424H118.568V38.428ZM120.008 33.688C120.008 33.016 120.144 32.428 120.416 31.924C120.688 31.412 121.06 31.016 121.532 30.736C122.012 30.456 122.544 30.316 123.128 30.316C123.704 30.316 124.204 30.44 124.628 30.688C125.052 30.936 125.368 31.248 125.576 31.624V30.424H126.68V37H125.576V35.776C125.36 36.16 125.036 36.48 124.604 36.736C124.18 36.984 123.684 37.108 123.116 37.108C122.532 37.108 122.004 36.964 121.532 36.676C121.06 36.388 120.688 35.984 120.416 35.464C120.144 34.944 120.008 34.352 120.008 33.688ZM125.576 33.7C125.576 33.204 125.476 32.772 125.276 32.404C125.076 32.036 124.804 31.756 124.46 31.564C124.124 31.364 123.752 31.264 123.344 31.264C122.936 31.264 122.564 31.36 122.228 31.552C121.892 31.744 121.624 32.024 121.424 32.392C121.224 32.76 121.124 33.192 121.124 33.688C121.124 34.192 121.224 34.632 121.424 35.008C121.624 35.376 121.892 35.66 122.228 35.86C122.564 36.052 122.936 36.148 123.344 36.148C123.752 36.148 124.124 36.052 124.46 35.86C124.804 35.66 125.076 35.376 125.276 35.008C125.476 34.632 125.576 34.196 125.576 33.7ZM128.118 33.688C128.118 33.016 128.254 32.428 128.526 31.924C128.798 31.412 129.17 31.016 129.642 30.736C130.122 30.456 130.658 30.316 131.25 30.316C131.762 30.316 132.238 30.436 132.678 30.676C133.118 30.908 133.454 31.216 133.686 31.6V28.12H134.79V37H133.686V35.764C133.47 36.156 133.15 36.48 132.726 36.736C132.302 36.984 131.806 37.108 131.238 37.108C130.654 37.108 130.122 36.964 129.642 36.676C129.17 36.388 128.798 35.984 128.526 35.464C128.254 34.944 128.118 34.352 128.118 33.688ZM133.686 33.7C133.686 33.204 133.586 32.772 133.386 32.404C133.186 32.036 132.914 31.756 132.57 31.564C132.234 31.364 131.862 31.264 131.454 31.264C131.046 31.264 130.674 31.36 130.338 31.552C130.002 31.744 129.734 32.024 129.534 32.392C129.334 32.76 129.234 33.192 129.234 33.688C129.234 34.192 129.334 34.632 129.534 35.008C129.734 35.376 130.002 35.66 130.338 35.86C130.674 36.052 131.046 36.148 131.454 36.148C131.862 36.148 132.234 36.052 132.57 35.86C132.914 35.66 133.186 35.376 133.386 35.008C133.586 34.632 133.686 34.196 133.686 33.7ZM137.199 29.356C136.991 29.356 136.815 29.284 136.671 29.14C136.527 28.996 136.455 28.82 136.455 28.612C136.455 28.404 136.527 28.228 136.671 28.084C136.815 27.94 136.991 27.868 137.199 27.868C137.399 27.868 137.567 27.94 137.703 28.084C137.847 28.228 137.919 28.404 137.919 28.612C137.919 28.82 137.847 28.996 137.703 29.14C137.567 29.284 137.399 29.356 137.199 29.356ZM137.727 30.424V37H136.635V30.424H137.727ZM150.695 30.304C151.207 30.304 151.663 30.412 152.063 30.628C152.463 30.836 152.779 31.152 153.011 31.576C153.243 32 153.359 32.516 153.359 33.124V37H152.279V33.28C152.279 32.624 152.115 32.124 151.787 31.78C151.467 31.428 151.031 31.252 150.479 31.252C149.911 31.252 149.459 31.436 149.123 31.804C148.787 32.164 148.619 32.688 148.619 33.376V37H147.539V33.28C147.539 32.624 147.375 32.124 147.047 31.78C146.727 31.428 146.291 31.252 145.739 31.252C145.171 31.252 144.719 31.436 144.383 31.804C144.047 32.164 143.879 32.688 143.879 33.376V37H142.787V30.424H143.879V31.372C144.095 31.028 144.383 30.764 144.743 30.58C145.111 30.396 145.515 30.304 145.955 30.304C146.507 30.304 146.995 30.428 147.419 30.676C147.843 30.924 148.159 31.288 148.367 31.768C148.551 31.304 148.855 30.944 149.279 30.688C149.703 30.432 150.175 30.304 150.695 30.304ZM161.151 33.46C161.151 33.668 161.139 33.888 161.115 34.12H155.859C155.899 34.768 156.119 35.276 156.519 35.644C156.927 36.004 157.419 36.184 157.995 36.184C158.467 36.184 158.859 36.076 159.171 35.86C159.491 35.636 159.715 35.34 159.843 34.972H161.019C160.843 35.604 160.491 36.12 159.963 36.52C159.435 36.912 158.779 37.108 157.995 37.108C157.371 37.108 156.811 36.968 156.315 36.688C155.827 36.408 155.443 36.012 155.163 35.5C154.883 34.98 154.743 34.38 154.743 33.7C154.743 33.02 154.879 32.424 155.151 31.912C155.423 31.4 155.803 31.008 156.291 30.736C156.787 30.456 157.355 30.316 157.995 30.316C158.619 30.316 159.171 30.452 159.651 30.724C160.131 30.996 160.499 31.372 160.755 31.852C161.019 32.324 161.151 32.86 161.151 33.46ZM160.023 33.232C160.023 32.816 159.931 32.46 159.747 32.164C159.563 31.86 159.311 31.632 158.991 31.48C158.679 31.32 158.331 31.24 157.947 31.24C157.395 31.24 156.923 31.416 156.531 31.768C156.147 32.12 155.927 32.608 155.871 33.232H160.023ZM170.5 30.304C171.012 30.304 171.468 30.412 171.868 30.628C172.268 30.836 172.584 31.152 172.816 31.576C173.048 32 173.164 32.516 173.164 33.124V37H172.084V33.28C172.084 32.624 171.92 32.124 171.592 31.78C171.272 31.428 170.836 31.252 170.284 31.252C169.716 31.252 169.264 31.436 168.928 31.804C168.592 32.164 168.424 32.688 168.424 33.376V37H167.344V33.28C167.344 32.624 167.18 32.124 166.852 31.78C166.532 31.428 166.096 31.252 165.544 31.252C164.976 31.252 164.524 31.436 164.188 31.804C163.852 32.164 163.684 32.688 163.684 33.376V37H162.592V30.424H163.684V31.372C163.9 31.028 164.188 30.764 164.548 30.58C164.916 30.396 165.32 30.304 165.76 30.304C166.312 30.304 166.8 30.428 167.224 30.676C167.648 30.924 167.964 31.288 168.172 31.768C168.356 31.304 168.66 30.944 169.084 30.688C169.508 30.432 169.98 30.304 170.5 30.304ZM176.047 31.648C176.271 31.256 176.599 30.936 177.031 30.688C177.463 30.44 177.955 30.316 178.507 30.316C179.099 30.316 179.631 30.456 180.103 30.736C180.575 31.016 180.947 31.412 181.219 31.924C181.491 32.428 181.627 33.016 181.627 33.688C181.627 34.352 181.491 34.944 181.219 35.464C180.947 35.984 180.571 36.388 180.091 36.676C179.619 36.964 179.091 37.108 178.507 37.108C177.939 37.108 177.439 36.984 177.007 36.736C176.583 36.488 176.263 36.172 176.047 35.788V37H174.955V28.12H176.047V31.648ZM180.511 33.688C180.511 33.192 180.411 32.76 180.211 32.392C180.011 32.024 179.739 31.744 179.395 31.552C179.059 31.36 178.687 31.264 178.279 31.264C177.879 31.264 177.507 31.364 177.163 31.564C176.827 31.756 176.555 32.04 176.347 32.416C176.147 32.784 176.047 33.212 176.047 33.7C176.047 34.196 176.147 34.632 176.347 35.008C176.555 35.376 176.827 35.66 177.163 35.86C177.507 36.052 177.879 36.148 178.279 36.148C178.687 36.148 179.059 36.052 179.395 35.86C179.739 35.66 180.011 35.376 180.211 35.008C180.411 34.632 180.511 34.192 180.511 33.688ZM189.065 33.46C189.065 33.668 189.053 33.888 189.029 34.12H183.773C183.813 34.768 184.033 35.276 184.433 35.644C184.841 36.004 185.333 36.184 185.909 36.184C186.381 36.184 186.773 36.076 187.085 35.86C187.405 35.636 187.629 35.34 187.757 34.972H188.933C188.757 35.604 188.405 36.12 187.877 36.52C187.349 36.912 186.693 37.108 185.909 37.108C185.285 37.108 184.725 36.968 184.229 36.688C183.741 36.408 183.357 36.012 183.077 35.5C182.797 34.98 182.657 34.38 182.657 33.7C182.657 33.02 182.793 32.424 183.065 31.912C183.337 31.4 183.717 31.008 184.205 30.736C184.701 30.456 185.269 30.316 185.909 30.316C186.533 30.316 187.085 30.452 187.565 30.724C188.045 30.996 188.413 31.372 188.669 31.852C188.933 32.324 189.065 32.86 189.065 33.46ZM187.937 33.232C187.937 32.816 187.845 32.46 187.661 32.164C187.477 31.86 187.225 31.632 186.905 31.48C186.593 31.32 186.245 31.24 185.861 31.24C185.309 31.24 184.837 31.416 184.445 31.768C184.061 32.12 183.841 32.608 183.785 33.232H187.937ZM191.598 31.492C191.79 31.116 192.062 30.824 192.414 30.616C192.774 30.408 193.21 30.304 193.722 30.304V31.432H193.434C192.21 31.432 191.598 32.096 191.598 33.424V37H190.506V30.424H191.598V31.492ZM200.834 37.084C200.282 37.084 199.786 36.988 199.346 36.796C198.914 36.596 198.574 36.324 198.326 35.98C198.078 35.628 197.95 35.224 197.942 34.768H199.106C199.146 35.16 199.306 35.492 199.586 35.764C199.874 36.028 200.29 36.16 200.834 36.16C201.354 36.16 201.762 36.032 202.058 35.776C202.362 35.512 202.514 35.176 202.514 34.768C202.514 34.448 202.426 34.188 202.25 33.988C202.074 33.788 201.854 33.636 201.59 33.532C201.326 33.428 200.97 33.316 200.522 33.196C199.97 33.052 199.526 32.908 199.19 32.764C198.862 32.62 198.578 32.396 198.338 32.092C198.106 31.78 197.99 31.364 197.99 30.844C197.99 30.388 198.106 29.984 198.338 29.632C198.57 29.28 198.894 29.008 199.31 28.816C199.734 28.624 200.218 28.528 200.762 28.528C201.546 28.528 202.186 28.724 202.682 29.116C203.186 29.508 203.47 30.028 203.534 30.676H202.334C202.294 30.356 202.126 30.076 201.83 29.836C201.534 29.588 201.142 29.464 200.654 29.464C200.198 29.464 199.826 29.584 199.538 29.824C199.25 30.056 199.106 30.384 199.106 30.808C199.106 31.112 199.19 31.36 199.358 31.552C199.534 31.744 199.746 31.892 199.994 31.996C200.25 32.092 200.606 32.204 201.062 32.332C201.614 32.484 202.058 32.636 202.394 32.788C202.73 32.932 203.018 33.16 203.258 33.472C203.498 33.776 203.618 34.192 203.618 34.72C203.618 35.128 203.51 35.512 203.294 35.872C203.078 36.232 202.758 36.524 202.334 36.748C201.91 36.972 201.41 37.084 200.834 37.084ZM205.789 29.356C205.581 29.356 205.405 29.284 205.261 29.14C205.117 28.996 205.045 28.82 205.045 28.612C205.045 28.404 205.117 28.228 205.261 28.084C205.405 27.94 205.581 27.868 205.789 27.868C205.989 27.868 206.157 27.94 206.293 28.084C206.437 28.228 206.509 28.404 206.509 28.612C206.509 28.82 206.437 28.996 206.293 29.14C206.157 29.284 205.989 29.356 205.789 29.356ZM206.317 30.424V37H205.225V30.424H206.317ZM209.27 28.12V37H208.178V28.12H209.27ZM213.579 35.992L215.619 30.424H216.783L214.203 37H212.931L210.351 30.424H211.527L213.579 35.992ZM223.858 33.46C223.858 33.668 223.846 33.888 223.822 34.12H218.566C218.606 34.768 218.826 35.276 219.226 35.644C219.634 36.004 220.126 36.184 220.702 36.184C221.174 36.184 221.566 36.076 221.878 35.86C222.198 35.636 222.422 35.34 222.55 34.972H223.726C223.55 35.604 223.198 36.12 222.67 36.52C222.142 36.912 221.486 37.108 220.702 37.108C220.078 37.108 219.518 36.968 219.022 36.688C218.534 36.408 218.15 36.012 217.87 35.5C217.59 34.98 217.45 34.38 217.45 33.7C217.45 33.02 217.586 32.424 217.858 31.912C218.13 31.4 218.51 31.008 218.998 30.736C219.494 30.456 220.062 30.316 220.702 30.316C221.326 30.316 221.878 30.452 222.358 30.724C222.838 30.996 223.206 31.372 223.462 31.852C223.726 32.324 223.858 32.86 223.858 33.46ZM222.73 33.232C222.73 32.816 222.638 32.46 222.454 32.164C222.27 31.86 222.018 31.632 221.698 31.48C221.386 31.32 221.038 31.24 220.654 31.24C220.102 31.24 219.63 31.416 219.238 31.768C218.854 32.12 218.634 32.608 218.578 33.232H222.73ZM226.391 31.492C226.583 31.116 226.855 30.824 227.207 30.616C227.567 30.408 228.003 30.304 228.515 30.304V31.432H228.227C227.003 31.432 226.391 32.096 226.391 33.424V37H225.299V30.424H226.391V31.492Z" fill="#9BA1A1"/>
<path d="M126.5 55L130.397 47.5H122.603L126.5 55Z" fill="#ACACAC"/>
</svg>
