<svg width="25" height="25" viewBox="0 0 25 25" fill="none" xmlns="http://www.w3.org/2000/svg">
<path d="M15.3 8.5L16.5 9.7L9.7 16.5L8.5 15.3L15.3 8.5ZM4.5 4.5H20.5C21.61 4.5 22.5 5.39 22.5 6.5V10.5C21.9696 10.5 21.4609 10.7107 21.0858 11.0858C20.7107 11.4609 20.5 11.9696 20.5 12.5C20.5 13.0304 20.7107 13.5391 21.0858 13.9142C21.4609 14.2893 21.9696 14.5 22.5 14.5V18.5C22.5 19.61 21.61 20.5 20.5 20.5H4.5C3.96957 20.5 3.46086 20.2893 3.08579 19.9142C2.71071 19.5391 2.5 19.0304 2.5 18.5V14.5C3.61 14.5 4.5 13.61 4.5 12.5C4.5 11.9696 4.28929 11.4609 3.91421 11.0858C3.53914 10.7107 3.03043 10.5 2.5 10.5V6.5C2.5 5.96957 2.71071 5.46086 3.08579 5.08579C3.46086 4.71071 3.96957 4.5 4.5 4.5ZM4.5 6.5V9.04C5.10768 9.3904 5.61236 9.89466 5.96325 10.5021C6.31415 11.1094 6.4989 11.7985 6.4989 12.5C6.4989 13.2015 6.31415 13.8906 5.96325 14.4979C5.61236 15.1053 5.10768 15.6096 4.5 15.96V18.5H20.5V15.96C19.8923 15.6096 19.3876 15.1053 19.0367 14.4979C18.6858 13.8906 18.5011 13.2015 18.5011 12.5C18.5011 11.7985 18.6858 11.1094 19.0367 10.5021C19.3876 9.89466 19.8923 9.3904 20.5 9.04V6.5H4.5ZM10 8.5C10.83 8.5 11.5 9.17 11.5 10C11.5 10.83 10.83 11.5 10 11.5C9.17 11.5 8.5 10.83 8.5 10C8.5 9.17 9.17 8.5 10 8.5ZM15 13.5C15.83 13.5 16.5 14.17 16.5 15C16.5 15.83 15.83 16.5 15 16.5C14.17 16.5 13.5 15.83 13.5 15C13.5 14.17 14.17 13.5 15 13.5Z" fill="#DBB13B"/>
</svg>
